<?xml version="1.0" standalone="no"?>
<!DOCTYPE svg PUBLIC "-//W3C//DTD SVG 1.1//EN" "http://www.w3.org/Graphics/SVG/1.1/DTD/svg11.dtd" >
<svg xmlns="http://www.w3.org/2000/svg">
<metadata></metadata>
<defs>
<font id="times_bqregular" horiz-adv-x="1366" >
<font-face units-per-em="2048" ascent="1638" descent="-410" />
<missing-glyph horiz-adv-x="555" />
<glyph horiz-adv-x="0" />
<glyph unicode="&#xd;" horiz-adv-x="0" />
<glyph horiz-adv-x="0" />
<glyph horiz-adv-x="0" />
<glyph unicode=" "  horiz-adv-x="555" />
<glyph unicode="&#x09;" horiz-adv-x="555" />
<glyph unicode="&#xa0;" horiz-adv-x="555" />
<glyph unicode="!" horiz-adv-x="598" d="M169 164q12 60 21 69q23 45 76 69q28 13 82 13t101 -46t47 -117q0 -87 -73 -132q-38 -24 -81 -24t-86 20.5t-68.5 66.5t-18.5 81zM354 412q88 319 110.5 466.5t38 249t34 150.5t33 75.5t34.5 48.5q47 48 98.5 48t77 -26.5t33.5 -41.5q12 -24 12 -72q0 -76 -61.5 -201.5 t-105.5 -214.5t-67.5 -133t-49 -100.5t-51 -125t-52.5 -138.5z" />
<glyph unicode="&#x22;" horiz-adv-x="811" d="M203 1414v22q0 52 38 75t71 23q77 0 100 -64q10 -28 4 -55l-84 -526h-47l-80 502q-2 12 -2 23zM587 1435.5q-1 10.5 3 20.5q10 39 41 58.5t64.5 19.5t62 -16.5t36 -40t7.5 -34.5v-28l-84 -526h-47l-80 502q-2 12 -2 23t-1 21.5z" />
<glyph unicode="#" d="M182 469v158h305l33 221h-291v158h312l63 438h164l-63 -438h225l65 438h160l-59 -438h282v-158h-305l-33 -221h287v-158h-309l-68 -469h-162l68 469h-227l-68 -469h-166l72 469h-285zM649 627h230l30 221h-227z" />
<glyph unicode="$" horiz-adv-x="1067" d="M70 66l96 456h63q-9 -57 -7 -102q9 -146 108 -254q8 -8 20 -21.5t30 -25.5q30 -21 85 -43l141 526q-18 20 -35.5 36.5t-31.5 31.5q-26 29 -64 65q-78 86 -119 165t-39 171q0 133 72 229q10 12 22.5 27.5t36.5 39.5q37 36 123 70t161 33.5t110 -2.5l57 213h86l-59 -223 q125 -23 258 -63l-68 -389h-63q4 29 6 76.5t-13 88.5q-26 67 -34 79q-31 48 -53.5 67.5t-34 26t-25.5 14.5l-137 -508q23 -23 46 -44.5t34.5 -33.5t13.5 -15t8 -10t30 -30t52 -57q103 -126 103 -267q0 -139 -99 -253q-50 -56 -89 -79q-121 -69 -230 -79q-25 -4 -51.5 -5.5 t-53.5 -3.5l-57 -209h-86l57 216q-168 15 -370 86zM551 66q59 10 91 22t55.5 32.5t33.5 33t19.5 24.5t25 49t15.5 80t-12.5 78t-30.5 63q-23 37 -70 87zM557 1171q0 -56 39 -124q18 -37 39 -64t57 -63l127 466q-18 2 -63 2.5t-90 -28.5q-109 -71 -109 -189z" />
<glyph unicode="%" horiz-adv-x="1536" d="M255 807q3 71 13.5 139t30.5 132q66 214 227 326q64 44 131 44q16 0 60.5 -10.5t73.5 -41.5q67 -73 67 -216q0 -49 -14 -129t-36 -142.5t-48 -112.5q-38 -76 -96 -149q-104 -119 -213 -119q-89 0 -139 66q-61 80 -57 213zM406 614q14 -22 51 -21t60.5 39t37.5 77.5 t28.5 80.5t34.5 98q53 159 62.5 201.5t13.5 59t8 41.5q13 68 13 87t-1 33.5t-6 29.5q-15 42 -46 42q-18 0 -35 -10q-76 -51 -184 -457q-68 -253 -37 -301zM508 6q111 217 219.5 433t200.5 395q178 345 317 606h107l-738 -1434h-106zM1007 326q3 96 48 230t122 221.5 t134 110.5t96 23q86 0 135 -51q68 -74 68 -211q0 -184 -88 -375q-37 -81 -102 -156q-107 -124 -224 -124q-90 0 -139 72q-35 49 -44 106.5t-6 153.5zM1148 102q6 -45 58 -45q34 0 51 25q48 55 119 276q51 162 70.5 266.5t19.5 123t-1 32t-6 28.5q-13 40 -43 40 q-56 0 -91 -80q-17 -35 -36 -89t-31 -86q-128 -358 -110 -491z" />
<glyph unicode="&#x26;" horiz-adv-x="1579" d="M160 317q0 101 48 171.5t96 115.5t102.5 83t114 69.5t116.5 62.5q-14 70 -14 117.5t3 92t17 101.5q35 141 117 236q66 75 135 104q54 27 143 27q81 0 137 -21.5t97 -76.5q43 -69 43 -124q0 -77 -42 -148.5t-93.5 -116.5t-102.5 -76t-94 -49.5t-61 -26.5 q45 -164 72.5 -236.5t41.5 -109.5l43 -88q53 72 80 121t27 77q0 86 -46 103q-22 8 -53 14l23 62q223 -6 279 -5q114 2 172 5l-21 -70q-58 -7 -85.5 -21.5t-54 -42.5t-51 -61t-47 -64.5t-46 -64.5t-56.5 -70.5t-65 -76.5q64 -71 91 -95q60 -53 110.5 -53t78 19.5t55.5 46.5 l70 -37l-43 -61q-10 -12 -33.5 -41t-60.5 -57q-90 -70 -193 -70q-112 0 -210 76q-42 34 -87 75q-126 -78 -181 -101q-106 -42 -222 -42q-88 0 -165 30.5t-131 114.5t-54 182zM469 436q0 -114 69 -200q37 -47 102 -60q26 -6 58 -10q65 5 97 19t57 26q-86 164 -113 233 q-37 95 -84 281q-59 -41 -100 -79q-53 -49 -78 -149q-8 -32 -8 -61zM887 1170q0 -92 20 -222q58 53 90.5 96t56 104.5t23.5 97.5t-4 58.5t-13 43.5q-21 47 -63 47q-66 0 -99 -125q-11 -45 -11 -100z" />
<glyph unicode="'" horiz-adv-x="425" d="M203 1414v22q0 52 38 75t71 23q77 0 100 -64q10 -28 4 -55l-84 -526h-47l-80 502q-2 12 -2 23z" />
<glyph unicode="(" horiz-adv-x="724" d="M287 469q0 393 275 711q188 217 388 304q37 17 111 44l24 -47q-6 -4 -32.5 -17.5t-47.5 -29.5t-47 -42t-52 -54q-34 -39 -91 -117q-174 -238 -275 -677q-48 -212 -48 -388q0 -194 45 -308q11 -33 45 -92l-52 -22q-79 110 -108 162t-54.5 124t-43.5 148q-37 150 -37 301z " />
<glyph unicode=")" horiz-adv-x="724" d="M-96 -213q110 72 145 111t76 89t82 118.5t69 128.5q45 93 73 175.5t43.5 131.5t27.5 95q74 284 74 482q0 217 -66 352q-18 35 -22 41l51 25q241 -330 241 -733q0 -181 -42 -305q-102 -304 -370 -544q-164 -146 -360 -210z" />
<glyph unicode="*" horiz-adv-x="980" d="M391 1210q0 44 12 56q4 12 28 35.5t54.5 23.5t45 -6t35.5 -16q35 -17 87 -95q20 -29 41.5 -56t44.5 -56q-5 75 -14 117q-14 72 -14 115.5t29.5 85.5t86.5 42q30 -6 40.5 -9t37.5 -25.5t27 -60.5t-9.5 -60.5t-24.5 -43t-33.5 -40t-32.5 -37.5q-28 -34 -60 -93 q56 20 119 52.5t92 42.5t62.5 10t55 -11.5t33.5 -28.5q21 -28 21 -67q0 -63 -57 -93q-23 -11 -58 -11q-45 0 -106 27.5t-101 36t-57 12.5q22 -32 48 -54t53.5 -42.5t50.5 -42.5q53 -54 53 -107t-29.5 -83t-73 -30t-69.5 25q-43 37 -46 91t-5 112.5t-13 120.5 q-44 -60 -68.5 -109t-45.5 -85t-43 -49q-46 -26 -68 -26q-32 0 -47 10q-61 26 -61 95q0 34 24 67q35 44 134 68q60 15 94 31t61 26q-35 6 -66.5 11.5t-74.5 9.5q-98 9 -123 24t-37 28q-33 36 -33 62z" />
<glyph unicode="+" d="M184 514v164h510v510h164v-510h516v-164h-516v-514h-164v514h-510z" />
<glyph unicode="," horiz-adv-x="512" d="M10 -254q131 64 196 148q15 18 15 34t-10 35.5t-29.5 34t-39.5 34.5q-44 44 -44 107q0 31 15.5 69t54.5 65.5t92 27.5q84 0 129 -60.5t45 -140.5q0 -73 -52 -160t-147.5 -147.5t-193.5 -107.5z" />
<glyph unicode="-" horiz-adv-x="724" d="M160 481l63 217l568 -2q-17 -80 -35.5 -134t-26.5 -81h-569z" />
<glyph unicode="." horiz-adv-x="512" d="M100 183q12 54 57.5 87t109 33t108.5 -46t45 -112q0 -44 -18.5 -76.5t-38 -47.5t-39.5 -22q-68 -25 -132 2q-32 13 -49.5 31.5t-36 57.5t-6.5 93z" />
<glyph unicode="/" horiz-adv-x="854" d="M201 8l614 1434h178l-622 -1434h-170z" />
<glyph unicode="0" horiz-adv-x="980" d="M171 434q5 324 159 621q65 127 152 214.5t129 110.5t81 37q92 33 125 33q90 0 151.5 -35t96.5 -94t51 -119q21 -76 21 -157q0 -108 -18.5 -208t-48.5 -194t-71 -185q-87 -193 -198 -304t-192 -138.5t-117 -27.5q-89 0 -137 24.5t-79 61.5q-109 133 -105 360zM382 219.5 q-1 -16.5 2 -39.5q8 -62 27 -82q25 -26 64 -26q32 0 57 12q54 26 90 101t69.5 168t67.5 195q116 345 142 507q10 59 17.5 103t7.5 69t-6.5 48t-17.5 43q-24 46 -76 45q-82 -2 -146 -126q-64 -125 -179 -501q-36 -118 -74 -261.5t-41 -191t-4 -64z" />
<glyph unicode="1" horiz-adv-x="980" d="M121 4l16 59q100 5 150 39q50 41 84 154l245 856q19 38 19 78l-6 39q-10 27 -27.5 36t-54 9t-135.5 -19l-13 72q268 55 369.5 86t155.5 47h63l-338 -1179q-20 -73 -20 -100q0 -44 9 -68.5t50 -34.5t111 -15l-17 -65q-7 0 -232 4t-293.5 3t-135.5 -1z" />
<glyph unicode="2" horiz-adv-x="980" d="M96 4l25 76q161 166 241 259t130.5 150.5t90.5 111.5t72.5 103.5t58.5 100.5q58 111 58 217q0 139 -94 195q-50 28 -114 28t-109 -24.5t-64.5 -50t-40.5 -66.5l-76 24q38 90 64 127q70 116 185 167q75 34 150 34q97 0 182 -42t130 -130t45 -164.5t-12 -126t-28 -88.5 q-25 -59 -54 -100q-102 -148 -316 -359q-63 -61 -237 -213q201 0 278.5 24t113.5 47t61.5 49t31.5 32l84 -2q-107 -218 -128 -275t-40 -104q-98 4 -208 5t-480 -5z" />
<glyph unicode="3" horiz-adv-x="980" d="M121 110q0 30 8 56.5t37 46.5t60.5 20t55 -9t42.5 -22q34 -23 47 -42q25 -25 56.5 -50.5t60.5 -24.5q50 2 88 35q92 82 92 271q0 63 -17.5 128t-61.5 122t-98.5 80.5t-92.5 29t-83 9.5l19 61q20 0 42.5 -1t47.5 2q112 13 209 81q53 39 90 106.5t37 132t-36 105.5t-101 41 q-75 0 -123 -52q-23 -24 -45 -52q-43 16 -62 33q10 16 20.5 30.5t22.5 31.5t38 47t66 58q100 72 220 72q105 0 186 -62q35 -26 59 -69q31 -56 31 -135.5t-44 -152t-98 -110.5q-78 -55 -157 -79q59 -26 90 -56t61 -92.5t30 -164.5q0 -125 -54 -251q-24 -55 -70 -115.5 t-109.5 -99t-124.5 -57.5q-85 -28 -164.5 -28t-137.5 12q-72 15 -122 80q-15 18 -15 34z" />
<glyph unicode="4" horiz-adv-x="980" d="M121 324l67 227l768 915h172l-280 -964l174 -2q-34 -90 -53 -183l-170 5q-71 -208 -90 -316h-275l92 318h-405zM254 498h326l180 616z" />
<glyph unicode="5" horiz-adv-x="980" d="M127 125q0 62 57 91q21 11 65 11t73.5 -24.5t55.5 -40.5q74 -47 118.5 -47t81 21.5t66.5 62.5q69 94 69 245q0 174 -113 287q-117 109 -313 109q138 272 189.5 389t92.5 211h529l-68 -248h-471l-65 -141q119 -21 161 -36t91 -43t95 -77q109 -116 109 -299 q0 -202 -131 -376q-109 -145 -285 -206q-85 -30 -153 -30q-132 0 -188 36q-66 37 -66 105z" />
<glyph unicode="6" horiz-adv-x="980" d="M172 406q0 94 21.5 197t58.5 192.5t77 160.5q124 218 261 316q61 43 131 84q130 75 395 114l6 -71q-116 -34 -171 -64q-109 -60 -218 -190q-57 -72 -92 -134.5t-76 -144.5q87 52 178 52q122 0 191 -68q18 -19 39 -44q71 -82 71 -237q0 -208 -118 -377q-52 -75 -135 -130 q-122 -82 -252 -82q-190 0 -293 159q-74 113 -74 267zM408 212q0 -49 20.5 -83.5t41.5 -45.5q29 -15 57 -15q34 0 67 22q104 89 166 360q22 97 22 147t-9 87t-27 66q-42 67 -117 67q-50 -4 -97 -26l-28 -78l-58 -203q-38 -128 -38 -272v-26z" />
<glyph unicode="7" horiz-adv-x="980" d="M264 33l684 1163l-373 -8q-8 0 -22 1t-35 -3q-66 -10 -105.5 -45t-80.5 -84l-64 28q107 181 193 357q192 -8 349 -8t372 10v-101l-811 -1380z" />
<glyph unicode="8" horiz-adv-x="980" d="M135 309q0 154 115 282q57 63 153 122q31 16 54 24.5t35 14.5q-51 78 -86 146.5t-35 164.5q0 82 28 151q47 119 146.5 181.5t224.5 62.5q187 0 285 -131q53 -76 53 -183.5t-82 -199.5q-47 -53 -101.5 -80.5t-119.5 -54.5q87 -112 115 -166q55 -105 55 -192 q0 -112 -37 -193.5t-85 -128.5t-107 -78q-111 -59 -261 -59q-78 0 -120 14t-77.5 34.5t-69.5 55.5q-83 85 -83 213zM375 276q0 -47 8 -90q11 -57 77 -98q21 -12 46.5 -12t66.5 16.5t70 61.5t44 108.5t15 95.5q0 143 -70 231q-38 48 -91 101q-23 -14 -42.5 -30.5t-44.5 -59.5 q-79 -140 -79 -324zM637 1169q0 -137 65 -236q19 -28 48 -65q53 32 84 96t35.5 131.5t4.5 102.5v50q0 82 -68 119q-13 7 -37 7q-36 0 -62.5 -24.5t-41 -52t-20.5 -53.5q-8 -36 -8 -75z" />
<glyph unicode="9" horiz-adv-x="980" d="M174 47q6 2 23.5 6t40.5 11q110 37 171.5 85t102.5 90q84 86 139 177q36 52 57 102.5t23 54.5q-45 -18 -87 -32.5t-74 -14.5q-175 0 -262 138q-52 84 -52 213q0 113 32 205t76 157.5t104 114.5q130 106 292 106q207 0 309 -170q61 -102 61 -246q0 -157 -60 -332 q-90 -264 -249 -438q-94 -103 -206.5 -168t-213 -89.5t-219.5 -43.5zM518 834q0 -119 64 -170q42 -33 83.5 -32t68 13.5t36.5 16.5q91 262 106 370.5t15 154.5t-2 77.5t-15 49.5q-24 33 -35 40q-31 22 -66.5 22t-76.5 -33.5t-67 -90t-44 -107.5t-33 -107q-34 -125 -34 -204z " />
<glyph unicode=":" horiz-adv-x="598" d="M160 150.5q4 33.5 12 58t26 45.5q47 55 126 55q98 0 143 -76q20 -35 20 -69q0 -50 -7 -66t-17 -33.5t-29 -34.5q-43 -38 -108 -38q-37 0 -77 17t-66.5 62.5t-22.5 79zM368 762q-9 35 1 83t57 84t109.5 36t109.5 -49.5t47 -118t-49 -113.5t-102.5 -45t-86 16.5t-55 44 t-31.5 62.5z" />
<glyph unicode=";" horiz-adv-x="598" d="M86 -248q125 61 168 107q14 16 29.5 34.5t15.5 47t-27.5 48t-43.5 35.5q-48 52 -48 115q0 74 54 125q41 39 95 39t87 -16.5t56 -44.5q44 -54 44 -131q0 -132 -110 -242q-61 -63 -135 -104t-150 -76zM369 806q10 58 54 94t107.5 36t111.5 -48t48 -116t-53 -114 q-54 -46 -119 -46q-31 0 -61 15q-53 23 -75.5 72t-12.5 107z" />
<glyph unicode="&#x3c;" d="M96 635v176l1366 641v-176l-1161 -553l1161 -553v-176z" />
<glyph unicode="=" d="M96 332v160h1366v-160h-1366zM96 700v162h1366v-162h-1366z" />
<glyph unicode="&#x3e;" d="M96 -6v176l1161 553l-1161 553v176l1366 -641v-176z" />
<glyph unicode="?" horiz-adv-x="980" d="M286 156q4 43 17.5 69.5t47.5 56t100 29.5q114 0 150 -97q13 -35 13 -62q0 -30 -15 -65.5t-35.5 -53t-41.5 -26.5q-72 -30 -145 3q-45 23 -69.5 68t-21.5 78zM410 1187q0 52 29.5 104t60 76.5t61.5 39t65 25.5q71 22 138.5 22t128.5 -26.5t89 -47.5t47.5 -53.5 t29.5 -64.5q16 -50 16 -110.5t-37 -140t-102.5 -139t-119.5 -98.5q-191 -138 -232 -177.5t-58.5 -71.5t-24.5 -72.5t-9 -51.5l-76 2q4 116 20 159q20 57 92 157l146 188q145 188 145 348q0 74 -30.5 107t-60.5 32t-47 -20.5t-17 -39t5 -36t8 -27.5q11 -40 10 -76 q-3 -93 -71 -134q-34 -21 -58 -21q-46 0 -64.5 10.5t-30.5 20.5t-25 27q-28 37 -28 89z" />
<glyph unicode="@" horiz-adv-x="1835" d="M238 498q0 178 57 329.5t139 263t188 193.5q226 174 506 174q147 0 258 -47t182.5 -112.5t121.5 -147.5q98 -163 98 -371q0 -141 -51 -284q-53 -149 -185 -274q-44 -42 -101.5 -63.5t-100.5 -21.5q-106 0 -148 87q-20 40 -20 95q-52 -92 -146 -143q-61 -33 -127 -33 q-104 0 -183 83q-89 95 -89 272q0 120 29.5 198t58.5 128t66.5 95.5t84.5 80.5q106 79 214 79q118 0 186 -92q12 -18 18 -33.5t15 -35.5l24 104h135l-67 -313q-12 -59 -26.5 -122t-22.5 -106t-12 -67q-11 -54 -11 -90q0 -74 57 -74q49 0 106 50q36 32 48 56q139 193 139 426 q0 269 -180 436q-152 142 -373 142q-93 0 -165 -23q-145 -39 -254 -134t-165.5 -198.5t-82 -177t-38.5 -139.5q-22 -110 -22 -169t3.5 -108t18.5 -108q37 -144 134 -254q189 -201 516 -201q334 0 574 203q24 16 79 78l62 -78q-77 -83 -147 -127.5t-121.5 -72t-119.5 -51.5 q-159 -54 -335 -54q-396 0 -621 221q-64 57 -116 158q-88 160 -88 373zM809 442q0 -122 65 -168q40 -20 84.5 -20t103.5 47q75 59 138 237q60 169 52 300q-3 50 -38.5 100.5t-105.5 50.5q-31 0 -62 -14q-68 -30 -124 -131q-113 -203 -113 -402z" />
<glyph unicode="A" d="M-45 0l16 63q101 21 164 87q39 40 74 88l940 1226h88l-88 -1231q-2 -14 -2 -27v-28q0 -100 75 -114q19 -3 35 -5l-18 -61q-193 7 -301 7q-30 -1 -54 -1q-108 -2 -150 -2t-83 -2l19 63q50 0 93.5 19t57 59.5t17.5 89.5l22 222h-354l-135 -187q-64 -85 -64 -127 q0 -24 16 -44t46 -22.5t59 -4.5l-18 -68q-195 5 -264 5h-19q-113 -2 -172 -5zM578 549h292l29 285q6 74 31 196z" />
<glyph unicode="B" horiz-adv-x="1280" d="M-6 -4l20 61q120 13 160 72q23 35 45 113l279 985l10 57q0 66 -58 79q-32 7 -88 11l19 58q202 -7 360 -7q134 0 236 5q20 -2 40.5 -3.5t37 -4.5t45 -7t63.5 -15q86 -27 137 -93q16 -18 35 -62.5t19 -103.5t-15.5 -102.5t-36.5 -76.5q-31 -48 -77 -90q-63 -53 -135 -75.5 t-150 -40.5q12 -4 33.5 -9.5t47.5 -16.5q64 -27 101 -64q105 -105 105 -248q0 -64 -21 -119q-35 -96 -112 -167q-140 -130 -342 -130l-471 2q-143 0 -287 -8zM485 98q39 -6 72 -6q173 0 267 128q87 119 87 267q0 72 -32.5 132.5t-102.5 85.5q-34 12 -112 12zM686 801 q103 5 133 15q63 19 115.5 71.5t82.5 125t30 146.5q0 57 -25 105t-72 61.5t-106 15.5z" />
<glyph unicode="C" horiz-adv-x="1409" d="M256 528.5q0 67.5 6 130t28 137.5q50 174 156.5 302.5t211 193t202.5 96.5q155 52 318 52q116 0 159 -11.5t65 -16.5q50 -11 90 -11t54.5 10t30.5 39h68q-18 -53 -36 -103.5t-34 -104.5q-21 -72 -59 -220h-66q2 34 2 65q0 23 -1 45q-3 52 -33 98t-64.5 68.5t-69.5 33.5 q-51 16 -98 16t-93 -8.5t-97 -31.5q-111 -52 -205 -178q-88 -110 -152 -292q-59 -167 -59 -328q0 -178 88 -289q95 -112 270 -112q165 0 295 112q32 30 106 125l68 -37q-57 -82 -109.5 -139.5t-123 -98t-136.5 -61.5q-115 -37 -223 -37q-166 0 -311 89q-175 108 -230 325 q-18 74 -18 141.5z" />
<glyph unicode="D" horiz-adv-x="1449" d="M-4 -4l20 63q44 0 90 17.5t71.5 52.5t47.5 117l267 944q14 28 14 68q0 51 -17 71q-18 27 -56 33t-71 10l21 58q176 -4 257 -4h28q74 0 130 2q21 1 40 1q31 1 56 -1q29 -2 49 -2h15q24 1 47.5 -2t43.5 -7t47 -9q119 -22 216 -99.5t146 -202.5t49 -260q0 -126 -43 -254 q-59 -178 -188 -317.5t-303 -211.5q-118 -46 -242 -55q-139 -9 -271 -9q-44 0 -87 1l-221 2q-39 0 -78 -2zM518 164q0 -14 13 -39q17 -33 76 -33q52 0 137 26q85 25 176 109q72 65 109 130q42 77 95 200q48 184 51 245.5t5 127.5q-2 23 -3 46t-4.5 41.5t-8.5 42t-15 52.5 q-23 67 -63 112q-60 69 -102 85q-50 19 -138 24l-316 -1114q-4 -14 -8 -27.5t-4 -27.5z" />
<glyph unicode="E" horiz-adv-x="1236" d="M-4 -4l22 59q45 4 82 14.5t60.5 38t45.5 86.5q64 176 105 330t68 251.5t57.5 202.5t47.5 164q28 91 28 115q0 49 -12 66q-26 45 -131 45l18 59h1047l-93 -352h-59q-8 49 -18.5 88t-44.5 76q-11 18 -46 40.5t-75.5 34t-83.5 15.5t-87 4h-81l-154 -542q86 4 164 18 t131.5 55.5t75.5 74t45 73.5h59q-23 -68 -46 -135.5t-43.5 -132t-37 -126t-32.5 -120.5h-56q0 8 2 26.5t0 41.5q-5 56 -36 96q-30 37 -88 47q-48 8 -126 8h-32l-137 -484q-11 -33 -11 -51l6 -32q23 -52 111 -52q84 0 163 26t135.5 56.5t122.5 90t128 118.5l49 -29 q-18 -43 -36.5 -86t-36.5 -89q-24 -65 -66 -193q-423 12 -558 12q-272 0 -546 -8z" />
<glyph unicode="F" horiz-adv-x="1067" d="M6 -4l21 59q67 5 100 19q65 28 106 172l269 948q2 4 8 32.5t6 51.5q0 90 -132 90h-17l22 68l170 -9h598l215 11q-64 -187 -98 -361h-60q-4 57 -16 97t-48 75t-69.5 52.5t-71.5 24.5q-55 10 -117 10q-19 0 -38 -1l-156 -538q29 0 82.5 4t108.5 39t86 76.5t59 95.5h58 q-64 -199 -152 -514h-61q8 46 8 86q0 66 -60 98q-53 27 -153 27l-137 -490q0 -2 -5.5 -27.5t-5.5 -62.5t31 -51.5t115 -20.5l-17 -63q-103 10 -157 10l-148 -2l-219 2q-63 0 -125 -8z" />
<glyph unicode="G" horiz-adv-x="1536" d="M268 590q0 295 209 536q113 131 258 207q57 32 150 60q134 40 178 45q75 10 147 10q112 0 216 -24q104 -23 138 -23t48 13t30 38h66q-87 -256 -119 -426h-71l6 82q0 74 -30 118t-48 60q-92 74 -236 74q-172 0 -300 -114q-117 -106 -173 -202q-38 -60 -65 -137.5 t-45 -132.5q-6 -29 -12.5 -58.5t-10.5 -53.5q-12 -74 -12 -120v-73q7 -223 121 -322q16 -16 61 -40.5t96 -24.5q62 0 136 24l114 404q8 24 8 58t-17 52.5t-40.5 24.5t-44 5t-27.5 -1l19 62q234 -6 304 -6q140 0 284 8l-13 -62q-57 -8 -71 -14q-49 -20 -69.5 -63.5 t-35.5 -92.5l-123 -422q-192 -77 -428 -77q-29 2 -57.5 3t-52.5 4t-54 9t-66 18q-89 28 -161 87.5t-112.5 131.5t-62.5 141q-32 103 -32 214z" />
<glyph unicode="H" horiz-adv-x="1536" d="M2 0l16 59h36q28 0 67 18.5t58.5 54.5t37.5 99l266 949q26 92 26 115q0 21 -6 33q-5 10 -15 25.5t-42 19t-86 5.5l19 66q152 -8 269 -8q202 0 378 8l-18 -64q-114 0 -142 -38q-8 -11 -18 -24q-16 -22 -49 -132l-109 -391h494l106 379q27 105 27 131q0 49 -39 65 q-19 7 -104 16l16 60q160 -6 319.5 -6t323.5 6l-16 -60q-134 0 -173 -94q-22 -51 -49 -143l-254 -913q0 -2 -9 -34t-9 -58q0 -55 43 -70q29 -11 100 -11l-16 -63q-180 10 -278 10q-138 0 -353 -10l17 61q77 7 104 24t42 42q26 44 58 149l119 422h-495l-125 -448 q-23 -88 -23 -107.5t7 -42t33 -29.5q27 -7 106 -12l-17 -59q-102 6 -235 6q-270 0 -408 -6z" />
<glyph unicode="I" horiz-adv-x="724" d="M-6 -6l22 63q63 6 92 17.5t54 39.5t36 63.5t15 45.5l279 969q14 49 14 81t-13 57q-20 38 -133 38l23 68q195 -15 296 -15q165 0 345 11l-18 -62q-33 -2 -58.5 -5t-57.5 -24q-55 -36 -79 -129l-289 -1003q-10 -40 -9 -56q2 -39 18 -63q22 -33 131 -33l-27 -63 q-90 8 -132 8h-212z" />
<glyph unicode="J" horiz-adv-x="894" d="M20 193q0 77 54 131q43 43 98 43t91 -33t36 -67q0 -48 -13 -70t-22.5 -39t-9.5 -44q0 -44 47 -44q18 0 34.5 10t27 30.5t26.5 61.5l287 1018q14 54 14 98.5t-31.5 62t-113.5 21.5l22 66q187 -11 277 -11q105 0 358 11l-22 -66q-91 -20 -116 -43q-36 -33 -66 -122 q-36 -107 -84 -279t-70.5 -254t-43.5 -148q-60 -192 -73.5 -218.5t-24.5 -50.5q-34 -70 -55 -95q-59 -86 -152.5 -139.5t-203.5 -53.5q-108 0 -185 57q-86 62 -86 167z" />
<glyph unicode="K" horiz-adv-x="1323" d="M-6 -6l22 59q30 0 70.5 14.5t59.5 29.5q47 38 73 132l275 983q10 20 10 62.5t-19.5 63t-44 27.5t-47 5t-31.5 -2l21 66q175 -9 315 -9q137 0 322 9l-19 -64q-85 -11 -116 -33q-44 -32 -80 -123l-121 -413l395 366q96 86 97 142q0 14 -11 28q-22 31 -71 31h-15l19 68 q214 -13 271 -13q129 0 241 9l-17 -60q-90 -13 -115 -25q-50 -23 -97 -58q-118 -88 -189.5 -150t-111.5 -97t-79.5 -65.5t-80.5 -63.5l16 -41l203 -659q30 -92 80 -127q25 -18 48 -22.5t33 -6.5l-18 -65q-180 10 -268 10q-164 0 -312 -8l21 59q14 2 29.5 3t29.5 5t38 19.5 t24 51.5t-15 91l-157 547l-17 -82l-129 -455q-12 -37 -12 -61q0 -58 24 -82.5t56.5 -29.5t62.5 -7l-22 -61q-160 8 -321 8t-320 -6z" />
<glyph unicode="L" horiz-adv-x="1236" d="M-8 -6l24 63q114 0 162 73q23 36 45 112l271 950q14 43 14 78q0 100 -141 100l18 60q253 -11 379.5 -11t265.5 6l-22 -57q-66 -6 -105 -26q-63 -31 -90 -128l-281 -978q-9 -27 -9 -57v-7q1 -34 24.5 -57t79 -23t98.5 9.5t86 23.5q84 27 136.5 56.5t78 48t52.5 42.5 q44 41 132 142l50 -21q-87 -177 -162 -399l-449 8h-254q-63 0 -125 1h-31q-45 0 -83 -2q-50 -3 -87.5 -4t-76.5 -3z" />
<glyph unicode="M" horiz-adv-x="1835" d="M-16 -4l22 63q79 11 106 34q41 34 81 108q91 239 127 365t58 199q55 187 90.5 299.5t72.5 252.5q-72 48 -112 51.5t-73 3.5l19 62q142 -9 249 -9t240 9q5 -89 18 -219q20 -199 37 -347.5t27 -243t21 -192.5l90 137l522 742l80 121q206 -7 247 -7q81 0 216 9l-21 -66 q-23 -4 -42 -6t-54 -15t-54.5 -48t-37.5 -82l-287 -1002q-10 -40 -10 -67t12 -44.5t32 -26.5q30 -14 95 -14l-20 -67l-226 8h-198l-209 -10l18 65q121 0 164 87q36 73 70.5 190t58 204t51 186.5t58 211t63.5 221.5l-338 -485q-68 -98 -138.5 -194.5t-128.5 -181.5 q-96 -141 -200 -300h-69q-8 206 -34 443t-36 336t-20.5 200.5t-20.5 204.5q-18 -59 -36.5 -116.5t-40.5 -132.5t-46 -165t-48 -178t-47.5 -170t-37.5 -136q-18 -71 -18 -118t21.5 -69.5t38.5 -26.5t35.5 -4t31.5 2l-23 -72l-119 8h-217z" />
<glyph unicode="N" horiz-adv-x="1449" d="M-4 0l22 63q47 6 92 22.5t68 55.5t44 101q55 166 83.5 265t52 187t52.5 188q64 219 127 431q-64 46 -102 51.5t-68 9.5l20 60q128 -9 189.5 -9t226.5 7l432 -943l201 711q4 29 6 41t2 37t-10.5 44t-29.5 30q-27 15 -95 20l18 64q119 -9 192 -9q117 0 236 9l-20 -64 l-53 -12q-67 -15 -93 -57.5t-64 -159.5q-69 -212 -147 -493.5t-108.5 -387.5t-50.5 -217l-13 -65h-67l-543 1202q-29 -104 -57.5 -204.5t-54.5 -191.5q-46 -159 -77 -267q-77 -260 -77 -325t18.5 -86.5t35.5 -29.5q25 -12 81 -12l-23 -70q-142 10 -213 10q-74 0 -233 -6z " />
<glyph unicode="O" horiz-adv-x="1536" d="M243 447q0 14 1 28q2 51 3 82t6 59q12 63 27 113t23 70t15.5 38.5t17.5 38t24 50.5q114 191 205 279q41 40 94 81q25 16 69 45t106 55q152 66 301 66q221 0 355 -134q34 -34 56 -68q72 -115 72 -302q0 -107 -15.5 -168t-26.5 -96q-18 -58 -71 -174q-68 -121 -107 -168 q-70 -84 -106.5 -118t-86.5 -73.5t-121 -77.5q-172 -93 -365 -93q-214 0 -342 116q-134 134 -134 351zM553 342q0 -66 11 -119q17 -83 109 -133q32 -18 79 -18t118.5 24.5t143.5 104.5q25 29 43 56.5t39 59.5q14 31 29.5 62t32.5 67q32 72 72 209q62 213 70 343q4 62 5 109 v14q0 42 -5 71q-10 63 -67 115q-56 47 -123 47q-51 0 -103 -20.5t-90 -47t-68 -60.5q-39 -45 -108 -159q-14 -33 -29.5 -63.5t-35 -79t-40 -115t-33.5 -124.5q-31 -140 -35.5 -170t-7.5 -61.5t-7 -64.5v-47z" />
<glyph unicode="P" horiz-adv-x="1193" d="M-6 -6l18 63q43 0 95 17.5t76 58.5t40 94l281 990q12 37 12 70.5t-21.5 53t-48 25.5t-50 5t-27.5 -1l18 66q157 -11 206.5 -11t175.5 3q84 3 142 3q67 0 98 -4q116 -12 165 -32q98 -41 147 -124t49 -186q0 -152 -102 -266q-166 -180 -428 -180q-64 0 -187 20l-125 -438 q-10 -45 -10 -61q0 -43 14 -65t44 -29t90 -9l-21 -63q-156 8 -279 8q-200 0 -372 -8zM672 737q112 0 147 9q69 19 114.5 70.5t68 98t34.5 87.5q19 62 19 141t-35 124.5t-64 57.5q-39 16 -110 16z" />
<glyph unicode="Q" horiz-adv-x="1536" d="M244 516q10 95 18 129.5t12 52.5l7 31q41 126 65 172q100 195 238 326q132 129 313 189q122 40 238 40q281 0 410 -210q73 -119 73 -288q0 -167 -72 -354q-68 -174 -208 -326q-174 -187 -357 -247q-72 -28 -221 -47l-92 -82q62 12 95 12q53 0 93 -6l213 -43 q95 -19 166 -19t117.5 13.5t79.5 32.5q39 23 102 79l39 -51v-12q-78 -70 -156 -127q-86 -63 -223 -103q-65 -18 -159.5 -18t-127.5 3t-59.5 7t-58 11.5t-76 14.5t-114.5 18.5t-116.5 11.5t-144.5 -43l-31 55l332 250q-8 2 -51 10t-95.5 27.5t-105.5 66.5t-91 117t-45 143.5 t-7 163.5zM554 348q0 -74 8 -100q11 -41 22.5 -66.5t33.5 -47.5q53 -56 142 -56q69 0 136 35t114 94t92 127q65 125 83.5 184.5t38 130t34 125.5t23.5 99.5t13 82t9 78.5q2 41 2 86t-11 86q-24 95 -98 131q-42 21 -79 21q-84 0 -160 -41t-126.5 -110.5t-97.5 -147.5 q-14 -33 -28.5 -64.5t-27.5 -66.5t-29.5 -86t-32 -107.5t-36 -138t-23.5 -158.5q-2 -51 -2 -90z" />
<glyph unicode="R" horiz-adv-x="1323" d="M-6 -6l18 59q61 7 95 20t58.5 42.5t47.5 105.5l276 963q13 43 13 80t-11.5 57t-30.5 31q-30 15 -100 20l21 64q232 -14 359 -14q30 0 54 1q126 4 184 4q67 0 136 -12q148 -26 213 -139q45 -75 45 -171.5t-60.5 -183.5t-148.5 -135q-53 -31 -104 -44t-74 -19l162 -541 q28 -69 50 -87q33 -26 108 -38l-17 -61q-106 8 -203.5 8t-183.5 -8l-192 692h-52l-135 -469q-10 -36 -10 -55q0 -46 15 -70.5t55.5 -30.5t72.5 -10l-18 -59l-293 10zM672 762q118 10 155 22q75 23 131 82q111 133 111 275q0 60 -20 105.5t-51 66t-63 30t-59 9.5h-38z" />
<glyph unicode="S" horiz-adv-x="1150" d="M57 -16q16 66 34 130t33 133t28.5 141.5t27.5 143.5l72 -2q-2 -16 -2 -34v-37q0 -207 127 -312q81 -69 186 -69q108 0 185 68t77 176q0 51 -20.5 100t-69.5 96t-109.5 103.5t-112.5 114t-85 108.5q-63 97 -63 178q0 178 106 290q126 134 338 134q95 0 158 -16 q131 -35 186 -35t75.5 19.5t35.5 41.5l71 -2q-86 -328 -112 -481h-68q2 37 2 70t-2 62q-4 58 -45 118q-41 59 -106.5 96t-145.5 37t-142.5 -58.5t-62.5 -136.5t28 -123t69 -88l219 -221l43 -49q60 -60 92 -171q12 -42 12 -117.5t-46 -164t-113.5 -136.5t-136.5 -71 q-102 -36 -212 -36q-66 0 -134 13q-80 15 -137.5 30.5t-104.5 15.5t-66 -18.5t-31 -40.5h-78z" />
<glyph unicode="T" horiz-adv-x="1067" d="M156 -4l18 63q6 2 38 7q96 13 135 77q36 59 61.5 142.5t44.5 146t39 141t51 187.5q36 127 153 530l9 43q-144 -30 -238 -100q-64 -48 -123 -132q-16 -22 -33 -44h-73q86 234 124 375h1043l-113 -373h-63q2 10 2 20.5t2 20.5q0 115 -62 172q-57 50 -121 55q-28 2 -34 4 l-311 -1091q-13 -50 -13 -83q0 -53 35 -71q14 -10 44 -15t75 -14l-19 -61q-168 8 -291 8q-208 0 -380 -8z" />
<glyph unicode="U" horiz-adv-x="1409" d="M260 322q0 22 8 104q51 225 85 333.5t55 181.5q84 284 84 338t-29 70.5t-107 20.5l31 70q253 -13 315 -13q139 0 314 9l-27 -60q-29 0 -74.5 -12t-68.5 -48t-45 -89q-25 -84 -50.5 -166t-54.5 -185.5t-61.5 -224.5t-50.5 -185q-27 -101 -27 -145q0 -72 14 -99t33 -47.5 t48 -36.5q64 -38 151.5 -38t140.5 31t80 53q97 89 168 310q16 47 34.5 103t36 121.5t37.5 140.5q35 125 65 228t35 124.5t5 38.5q0 52 -14 71.5t-36 29t-41.5 13.5t-35.5 4h-18l24 72q192 -13 238 -13q87 0 209 9l-23 -64q-80 0 -127 -49q-41 -42 -67.5 -114t-48.5 -137 q-23 -68 -57.5 -197t-47.5 -185q-25 -100 -62.5 -211t-48 -133t-18.5 -39.5t-19.5 -41t-29.5 -51.5q-42 -68 -81 -101t-71.5 -54.5t-77.5 -38.5q-109 -43 -235 -43q-168 0 -293 72q-66 34 -97 76q-67 87 -67 197z" />
<glyph unicode="V" horiz-adv-x="1280" d="M319 1376l23 60q184 -6 258 -7h50q52 0 107 1q83 2 169 4l-19 -60h-21q-94 0 -120 -104q-8 -31 -12 -84l-52 -713l539 696q68 86 68 134q0 56 -79 70q-16 3 -28 2t-16 -1l24 62q165 -6 221 -6q108 0 216 8l-21 -66q-27 -4 -34 -5t-38 -13q-57 -23 -124 -111 q-98 -123 -195.5 -248t-194.5 -249q-284 -361 -346 -437q-154 -190 -190.5 -240.5t-67.5 -93.5h-90q10 86 20.5 172t19.5 184.5t16.5 210t16.5 221t18 215t15 185.5q4 49 4 85q0 61 -12 81q-12 25 -40.5 35t-84.5 12z" />
<glyph unicode="W" horiz-adv-x="1878" d="M340 1376l20 60q157 -6 291.5 -6t247.5 6l-14 -58q-27 -4 -47.5 -10t-41.5 -30q-35 -42 -42 -154l-52 -676l437 620q4 25 5 50.5t5 52.5l2 37q0 67 -53 98q-23 10 -56 16l23 54q188 -4 328.5 -4t234.5 4l-18 -60q-76 0 -113 -28.5t-45 -70.5t-12 -89l-45 -676l463 672 q57 82 57 125q0 19 -15 39q-23 30 -94 30l25 58q171 -6 225 -6q101 0 199 8l-17 -62q-73 -8 -108 -30.5t-59.5 -48t-92 -118.5t-158.5 -224.5t-176.5 -251t-162 -223t-139.5 -194.5q-72 -104 -209 -317h-82q24 220 30 307q17 240 25 377l18 289q-77 -114 -217.5 -310 t-199 -276t-106.5 -148q-74 -105 -155 -239h-79q26 225 34 334t13.5 198t13.5 197.5t18.5 232.5t16.5 214q4 58 4 98q0 65 -10 85q-16 32 -49 40t-68 8z" />
<glyph unicode="X" d="M0 4l18 62q70 15 100 33q42 26 101 83t120.5 115.5t122.5 120.5q161 164 240 252q-65 238 -117 386t-60.5 172.5t-23.5 55.5t-38 50.5t-45 28.5q-31 13 -80 13l24 60q148 -4 298.5 -4t304.5 6l-21 -62q-119 0 -119 -94q0 -58 25 -108l86 -261l254 273q80 84 80 129 q0 14 -10 31q-27 32 -82 32h-15l25 62h436l-16 -60q-77 -12 -104 -28q-40 -25 -95 -82l-438 -451l188 -579q31 -90 58 -119q16 -23 39.5 -34t76.5 -21l-18 -62q-78 8 -156 8l-211 -4q-38 0 -74 2q-18 1 -35 1t-32 -1q-31 -2 -56.5 -3t-52.5 -3l15 59q32 0 60.5 7.5t55.5 25 t27 55.5q0 63 -31 152l-86 268l-270 -284q-96 -96 -96 -152q0 -17 13 -34t31.5 -25t37 -11.5t33 -2.5t18.5 1l-19 -57q-198 6 -257 6q-116 0 -230 -8z" />
<glyph unicode="Y" horiz-adv-x="1323" d="M307 6l17 62q81 3 123 21t66 66t40 101l115 401l-152 549q-19 64 -33 89.5t-35.5 43t-43.5 25.5q-32 12 -76 12l26 64q156 -8 277 -8t204 2t169 4l-19 -62q-81 0 -117 -22q-4 -4 -14 -12.5t-18 -23.5q-11 -21 -11 -53q0 -49 19 -118l108 -408l314 391q16 20 30.5 42 t27.5 42q34 54 34 72t-2 28.5t-23 31.5q-31 32 -125 32l21 60h471l-19 -56q-18 -4 -31.5 -6t-30.5 -10t-37.5 -24.5t-41.5 -35.5q-36 -35 -70 -77l-499 -611l-105 -358q-18 -62 -18 -111.5t36 -64t130 -16.5l-21 -62q-79 5 -155 5q-38 0 -76 -1l-137 -2q-61 0 -123 3 q-37 2 -66 2q-19 0 -34 -1q-75 -4 -95 -6z" />
<glyph unicode="Z" horiz-adv-x="1280" d="M-2 8l18 51q241 274 429 496.5t285 337.5t194.5 228.5t195.5 230.5q-293 0 -383 -19.5t-141 -43t-95 -61.5t-68.5 -73t-53.5 -80h-80l139 363h1106l-12 -56l-1096 -1284q47 -1 88 -1q131 0 202 12q258 44 416 206q44 45 95 105h66q-55 -133 -78 -201q-42 -132 -70 -213z " />
<glyph unicode="[" horiz-adv-x="598" d="M-6 -242l514 1751q170 -4 270.5 -1t132 3t64.5 2l-19 -59q-66 2 -106.5 -1t-67.5 -21q-47 -29 -84 -152l-370 -1286q-19 -38 -19 -67q0 -61 13.5 -79t36 -26t49 -11.5t52.5 -3.5h42l-13 -51z" />
<glyph unicode="\" horiz-adv-x="724" d="M150 1446h163l457 -1446h-164z" />
<glyph unicode="]" horiz-adv-x="598" d="M-121 -240l21 58q131 -4 164.5 14t52 53t37.5 99l374 1290q2 6 11.5 33.5t9.5 56.5q-2 66 -49 82t-150 14l19 53l493 -4l-514 -1749h-469z" />
<glyph unicode="^" horiz-adv-x="1492" d="M387 688l385 758h158l368 -758h-198l-254 533l-262 -533h-197z" />
<glyph unicode="_" horiz-adv-x="1024" d="M76 -281h1065v-161h-1065v161z" />
<glyph unicode="`" horiz-adv-x="555" d="M74 1466h278l109 -336h-129z" />
<glyph unicode="a" horiz-adv-x="1067" d="M121 242q0 217 149 464q43 72 118 147t154 107.5t108 32.5q100 0 134 -45q17 -22 31 -57l29 84h266l-201 -713q-18 -63 -18 -86.5t13.5 -32t21.5 -8.5t23 11t40 41t58 69l43 -37q-11 -17 -48 -63q-130 -172 -264 -172q-47 0 -93 26.5t-62 69.5q-9 18 -9 47q0 45 9 86 q-10 -16 -20.5 -32.5t-20.5 -31t-31 -41t-53 -52.5q-83 -68 -181 -68q-106 0 -153 78q-43 73 -43 176zM382 266q0 -63 38 -86q24 -12 41 -12q45 2 94 73.5t102.5 171t80.5 203.5q36 142 36 163.5t-1 40t-9 38.5q-19 47 -66 47q-17 0 -51.5 -13t-56 -45t-28.5 -44t-27.5 -51 t-45 -93.5t-61.5 -151.5t-45 -225q-1 -8 -1 -16z" />
<glyph unicode="b" horiz-adv-x="980" d="M94 96l324 1112q0 2 8 31t8 52.5t-13 35.5q-20 19 -104 23l23 55q111 9 166 21t104 22l160 31l-168 -570q58 58 99.5 71t68 13t49.5 -3t47 -12q57 -21 89.5 -68.5t48.5 -100.5t16 -116.5t-6 -124t-30 -132.5q-69 -211 -250 -352q-121 -94 -300 -94q-139 0 -256 62 q-39 20 -84 44zM362 98q28 -14 85 -14t118.5 59.5t110.5 180.5t57 211t8 157q0 152 -88 152q-27 0 -52.5 -17.5t-37.5 -48t-22 -65.5z" />
<glyph unicode="c" horiz-adv-x="854" d="M132 323v5q2 195 138 393q134 189 332 255q68 23 112.5 23t89 -6t74.5 -29q38 -31 56 -60q27 -44 27 -103t-42 -107.5t-98.5 -48.5t-90.5 34t-34 83q0 57 52 89q22 13 22 42q0 35 -37 35h-17q-38 0 -94.5 -35t-102.5 -104.5t-68.5 -131t-34.5 -117.5q-19 -84 -19 -170.5 t31 -136t62 -67.5q46 -27 88.5 -27t79 14.5t69.5 38.5q40 28 117 105l51 -49q-27 -29 -51.5 -55.5t-65 -64.5t-90 -69.5t-94.5 -50.5q-81 -33 -158 -33q-74 0 -150.5 40t-115.5 126q-38 84 -38 182z" />
<glyph unicode="d" horiz-adv-x="1067" d="M123 220q0 249 151 490q43 68 117 142t154 107.5t128 33.5q87 0 131 -71q9 -13 19 -35l88 313q19 63 19 91t-22.5 42.5t-82.5 18.5l23 61q51 4 90 7t81 8.5t97 15.5t144 26l-349 -1210q-20 -70 -20 -86t3 -22q10 -21 31.5 -20t54 38t67.5 84l51 -37q-12 -16 -24.5 -31.5 t-21.5 -26.5t-34 -39t-62 -58q-92 -78 -188 -78q-36 0 -61 10t-58 41t-33 76t3.5 64.5t3.5 29.5l-43 -62q-23 -38 -69 -77q-97 -82 -189 -82q-64 0 -111 33.5t-67.5 97t-20.5 105.5zM383 263q0 -70 50 -92q11 -5 28 -5q37 0 86 61q134 168 209 441q20 78 20 104.5t-1 45 t-8 37.5q-19 52 -73 52q-101 0 -209 -254q-92 -235 -101 -374q-1 -8 -1 -16z" />
<glyph unicode="e" horiz-adv-x="894" d="M133 293q0 243 143 436q124 166 302 233q90 35 188 35q57 0 103 -15t79 -61.5t33 -96.5t-8 -80.5t-19 -55.5q-20 -40 -43 -67q-113 -143 -375 -190q-73 -13 -141 -23q-1 -20 -1 -38q0 -46 6 -86q10 -58 65 -104q16 -12 45 -29.5t76 -17.5q116 0 278 156l58 -53 q-160 -149 -250 -196q-110 -58 -226 -58q-96 0 -179 50q-92 55 -124 173q-10 44 -10 88zM403 471q99 16 156 46t95 78t60 95q38 84 38 153.5t-58 69.5q-37 0 -68 -18q-48 -29 -106 -127q-64 -104 -84.5 -177t-32.5 -120z" />
<glyph unicode="f" horiz-adv-x="641" d="M-250 -204.5q0 26.5 13.5 45t30.5 29.5q28 17 63 17t64.5 -20.5t29.5 -54.5l-14 -64q0 -31 22 -31q19 0 36 23q27 36 56 125l297 973h-180l39 125l69 2h26q41 0 67 26q41 31 63.5 82t41.5 89q83 165 240 260q109 65 236 65q115 0 156 -70q20 -39 20 -60q0 -48 -9 -63.5 t-34.5 -37t-75.5 -21.5t-68.5 28.5t-18.5 44.5q0 20 12 46q18 39 18 51q0 18 -22 18q-41 0 -78 -30q-61 -53 -105.5 -159t-97.5 -269l187 2l-43 -127l-173 -4q-95 -343 -132 -448q-82 -235 -117 -321q-52 -125 -81.5 -168.5t-57 -80.5t-72.5 -74q-112 -92 -240 -92 q-127 0 -160 93q-8 24 -8 50.5z" />
<glyph unicode="g" horiz-adv-x="937" d="M-18 -135q0 63 37.5 114t101 76t129.5 45q-16 10 -34 20q-77 44 -77 126q0 90 126 154q34 18 67 32q-80 36 -104.5 74.5t-33.5 65.5q-16 45 -16 103.5t35 116.5t93 103t146.5 73.5t146 28.5t93 -6t65 -14t52 -16.5t31.5 -10.5l278 13l-41 -142l-133 4q10 -18 24.5 -44.5 t14.5 -62.5q0 -91 -42 -160t-107.5 -104.5t-129 -52t-113.5 -18.5t-77 -2t-74 14q-48 -19 -67 -30t-19 -28t13.5 -25.5t31 -14.5t34 -9t32 -7t34.5 -10.5t52 -13.5t75 -16.5t80 -23.5q111 -40 168 -143q19 -33 19 -75q0 -69 -32 -126t-78 -93t-97 -58.5t-104.5 -35 t-97.5 -18.5q-59 -8 -103.5 -8t-89.5 4t-89 14q-97 24 -157 70q-63 54 -63 117zM158 -86q0 -48 20.5 -81.5t70.5 -62t142 -28.5q122 0 195 41q40 19 62 71q7 17 7 40q0 35 -22 57q-33 39 -83 52t-91 23.5t-73 18.5t-67 18q-47 -18 -89 -41.5t-62 -72.5q-10 -10 -10 -35z M428 539.5q0 -15.5 5 -32.5t25.5 -39t61.5 -22t78 26t55.5 77t38.5 123q33 117 33 137t-1 33.5t-6 27.5q-19 56 -87 56q-105 0 -152 -158q0 -2 -7 -23.5t-15 -52.5q-25 -93 -27 -115t-2 -37.5z" />
<glyph unicode="h" horiz-adv-x="1110" d="M86 10l340 1180q20 68 20 100q0 58 -98 58h-16l20 57q136 15 201 28q173 34 229 48l-211 -750q16 20 31.5 41t38.5 47.5t60.5 58t80.5 57.5q96 58 179 58q90 0 131 -67q18 -29 18 -62.5t-4 -59.5q-10 -63 -21 -102l-127 -426q0 -4 -7 -25.5t-7 -43.5q0 -49 29 -49 q27 2 53.5 32.5t60.5 79.5l54 -37q-49 -68 -105 -129q-98 -108 -231 -108q-101 0 -129 70q-17 42 -17 74q0 40 23 116l115 395q4 16 7 30.5t7 28.5q8 30 8 47t-10 30.5t-27 13.5q-42 0 -84 -39q-8 -8 -10 -8q-86 -78 -134 -179.5t-89 -207.5l-105 -357h-274z" />
<glyph unicode="i" horiz-adv-x="598" d="M140 140q0 54 26 136l133 455q18 54 18 84q0 42 -47 51q-22 4 -61 8l16 54q61 8 122 15q143 16 300 54l-213 -739q-4 -16 -10 -36.5t-6 -50.5t24 -30q21 0 35 11q26 22 92 112l52 -37q-118 -149 -157 -178q-80 -61 -163 -61q-36 0 -76.5 16t-62.5 57q-22 39 -22 79z M412 1337q0 6 1 11q8 54 21 67q10 20 41 47q30 26 89 26h4q62 -1 107.5 -43t45.5 -106.5t-46 -108.5t-112 -44q-82 0 -129 82q-22 39 -22 69z" />
<glyph unicode="j" horiz-adv-x="555" d="M-270 -197q0 17 10 47q18 37 52 47.5t42 10.5q48 0 72 -27.5t24 -52.5l-8 -53q0 -41 33 -41q31 0 63 64q16 30 33 89l246 842q2 2 10 33t8 62.5t-27 43.5q-22 9 -68 9h-17l22 61q236 21 302.5 35t119.5 26q-106 -384 -166.5 -578t-80 -258.5t-34.5 -108.5 q-24 -68 -54.5 -132.5t-80 -121t-101.5 -86.5q-88 -52 -196 -52q-112 0 -174 58q-30 28 -30 83zM388 1330q0 12 2 24q7 51 51 90t88.5 39t72 -13.5t48.5 -35.5q48 -50 48 -111q-2 -10 -3 -23.5t-8 -28.5t-17.5 -30.5t-26.5 -28.5q-40 -34 -81 -34q-46 0 -90 19t-66 63 q-18 33 -18 70z" />
<glyph unicode="k" horiz-adv-x="1067" d="M74 6l342 1194q6 23 12 45.5t6 43.5t-8 38q-20 31 -104 33l16 51q238 27 426 66l-281 -979l283 241q82 66 82 111q0 16 -22 34t-58.5 24.5t-40.5 6.5l18 56l168 -2q42 -1 95 -1q87 0 202 3l-18 -64q-89 -11 -118.5 -32t-53.5 -41l-211 -172l78 -340q17 -69 46 -126 q9 -18 27 -18q27 0 39 10t27.5 34t38.5 59l57 -29q-37 -74 -61.5 -104.5t-43 -52t-47.5 -45.5q-70 -58 -149 -58q-38 0 -73 15t-55.5 50t-39.5 113l-73 307l-134 -106l-104 -369l-112 8q-42 0 -156 -4z" />
<glyph unicode="l" horiz-adv-x="598" d="M135 133q0 62 27 148q272 921 275 931.5l7 24.5q11 33 11 57q-3 61 -87 61q-13 0 -28 -1l22 61q255 26 426 66l-354 -1202q-2 -8 -10 -32t-8 -59.5t24 -35.5q35 0 72 49t53 69l53 -41q-14 -16 -27 -34.5t-23.5 -30.5t-34 -39t-60.5 -57q-93 -74 -172.5 -74t-122.5 37 t-43 102z" />
<glyph unicode="m" horiz-adv-x="1622" d="M102 6l207 744q15 30 15 58q0 34 -14 54q-12 16 -71 16q-12 0 -26 -1l20 61q251 22 424 61l-96 -315q59 83 84 109q110 115 186 153q25 17 73 28t73 11q70 0 104.5 -47t34.5 -94q0 -62 -18 -129q37 42 59.5 69t60 64t80.5 66q97 67 193 67q56 0 83 -16q73 -43 73 -136 q0 -49 -11.5 -83.5t-13.5 -36.5l-141 -449q-19 -38 -19 -76.5t23 -38.5q20 0 45 21q23 16 43 45t37 51l51 -37q-12 -16 -24.5 -30.5t-20.5 -25.5t-31.5 -39t-60.5 -60q-95 -80 -189 -80q-100 0 -145 80q-12 22 -12 53q0 47 24 117l131 419q21 64 25 95q-3 43 -49 43 q-28 0 -74.5 -43t-73 -79t-46 -63.5t-39.5 -62.5q-39 -70 -75 -189l-104 -354q-68 2 -135.5 2t-134.5 -2l186 658q16 59 16 84q0 40 -47 40q-23 0 -57.5 -29.5t-60 -55t-64.5 -89.5q-70 -104 -98.5 -178t-44.5 -129l-86 -299q-45 2 -88 5q-18 1 -37 1q-25 0 -51 -2z" />
<glyph unicode="n" horiz-adv-x="1110" d="M88 10l201 703q2 4 10 33.5t8 59.5t-24.5 44t-87.5 16l22 56q63 10 124.5 19t116.5 19q92 18 185 39l-74 -276q12 16 35 47t58 66q96 96 234 138q38 11 82 11t72.5 -15.5t45.5 -37.5q28 -37 28 -78q0 -65 -24 -135l-144 -440q-22 -44 -22 -85.5t31 -41.5q20 0 30 9 t23.5 22.5t27 28.5t25.5 29.5t19 20.5l47 -43q-14 -16 -26.5 -31.5t-24 -28.5t-36 -39t-61.5 -54q-93 -72 -194 -72q-97 0 -131 69q-15 37 -15 75q0 54 27 122l129 397q10 35 17 58.5t7 46.5t-17 31t-33 8t-50.5 -20.5t-71.5 -61.5q-118 -125 -196 -371l-105 -338h-268z" />
<glyph unicode="o" horiz-adv-x="1024" d="M142 324v19q0 40 4 75q4 43 16 94q29 124 95 215.5t131 143t128 79.5q109 49 186 49q101 0 146 -20t82 -45t70 -65q77 -95 77 -230q0 -147 -79 -303q-50 -100 -115.5 -176t-174 -125t-216 -49t-168 32.5t-101 75.5t-60.5 111.5t-21 118.5zM390 198q0 -31 5 -56 q8 -43 61 -70q17 -9 41 -9q72 0 129 83q25 38 78.5 162t79 258t25.5 192.5t-8 85.5t-32 46t-56 19q-65 0 -113 -57q-29 -29 -47 -70t-47 -118q-116 -310 -116 -466z" />
<glyph unicode="p" horiz-adv-x="1024" d="M-125 -338l19 57q89 15 118 61q17 27 35 93l242 836q2 4 11 35.5t9 63.5t-23.5 45t-82.5 24l16 53q247 28 426 71l-33 -124q33 39 63 66.5t59 38.5q60 22 89 22q81 0 144 -43q102 -76 102 -252q0 -71 -10 -111q-20 -158 -130 -328q-44 -69 -122 -143t-164 -107.5 t-132.5 -33.5t-148.5 28q-53 -179 -53 -199q0 -23 17 -53q23 -31 51.5 -37t62.5 -10l-14 -55zM385 102q56 -40 107 -40q128 0 229 249q47 117 62.5 221.5t15.5 135.5q0 67 -10.5 90.5t-22.5 37.5q-31 38 -72 38t-63.5 -15.5t-37.5 -38.5q-21 -34 -44 -108z" />
<glyph unicode="q" horiz-adv-x="1024" d="M117 241q0 83 17.5 157.5t47.5 147.5q121 298 342 408q81 41 154 41q97 0 128 -57q17 -33 25 -49l25 86h262l-309 -1084q-10 -37 -15.5 -57t-5.5 -34q0 -26 10 -43q20 -32 117 -44l-18 -53q-156 4 -266 4q-171 0 -293 -4l22 57q29 0 56 11q55 18 77.5 62t38.5 97l95 334 q-3 -3 -18 -29q-30 -51 -50 -75q-43 -55 -106.5 -92t-135.5 -37t-112.5 35t-64 85t-23.5 133zM378 264q0 -10 2 -20q8 -38 36 -56q18 -16 44 -16q40 0 58 18q29 23 73 87.5t71.5 124t46 107.5t35.5 99q40 115 40 186t-26.5 95t-54.5 24q-75 0 -141 -101q-79 -121 -146 -331 q-33 -107 -35 -153.5t-3 -57.5v-6z" />
<glyph unicode="r" horiz-adv-x="768" d="M90 2l203 700q18 60 18 96t-25.5 52t-84.5 20l18 58q153 21 207.5 34t88.5 20t69 15q-10 -47 -19.5 -94t-22.5 -109q-26 -124 -71 -288l121 242q96 193 194 235q19 8 41 8q35 0 60 -16t39 -41t14 -58q0 -105 -43 -169q-40 -56 -96 -56q-27 0 -37 13q-16 14 -31.5 35.5 t-29 21.5t-23.5 -6t-24.5 -26.5t-29.5 -45.5q-19 -29 -46 -84l-142 -297l-92 -256l-104 4q-50 0 -152 -8z" />
<glyph unicode="s" horiz-adv-x="811" d="M70 -4l63 336h57q6 -29 24 -86q22 -66 96 -132q39 -35 67.5 -36.5t50.5 -1.5q72 0 100 57q17 34 17 79.5t-41 99t-105.5 129.5t-108.5 148.5t-44 125.5q0 90 32 145t67.5 81t71.5 38q54 18 102 18q58 0 102.5 -10t72 -18t61 -8t66.5 36h56l-64 -325h-57 q-9 74 -36.5 138.5t-75.5 94t-81 29.5t-51 -12.5t-28 -27.5q-19 -26 -19 -49q0 -27 10 -50t25.5 -43.5t33 -42t35 -41t36 -41t48 -59.5t53.5 -78q58 -96 58 -180.5t-46 -166.5q-85 -151 -269 -151q-45 0 -77 8l-48 12q-32 10 -60 24q-27 13 -58 12h-5q-35 -1 -49.5 -20.5 t-20.5 -31.5h-61z" />
<glyph unicode="t" horiz-adv-x="641" d="M147 132q0 72 127 499q16 53 33 106.5t33 106.5h-147l32 104q109 12 151 35t87 55q62 45 194 211h62l-76 -278l160 -2l-37 -123l-154 -2l-172 -592q-4 -16 -10 -32.5t-6 -46.5t27 -30t53 32t61 83l60 -37q-45 -63 -93.5 -119.5t-103.5 -81.5q-68 -30 -123 -30t-86 17.5 t-46 42.5q-26 42 -26 82z" />
<glyph unicode="u" horiz-adv-x="1110" d="M129 126q0 64 29 153l139 446q6 20 12 39.5t6 42.5q0 58 -93 58q-9 0 -19 -1l24 60q198 22 437 73l-226 -690q-20 -70 -20 -94q0 -18 10 -31.5t36 -13.5t75 46t91 102.5t76 119.5q64 123 107 262l86 283q97 -10 140 -10q72 0 128 4l-206 -707l-9 -28q-8 -23 -8 -55.5 t23 -32.5q21 0 35 14q21 21 81 106l52 -39q-159 -239 -330 -239q-37 0 -63 9t-54 35q-28 25 -28 71q0 59 36 182q-63 -90 -128 -164q-76 -87 -205 -128q-35 -11 -66 -11q-47 0 -63.5 7t-33 18.5t-32.5 28.5q-39 41 -39 84z" />
<glyph unicode="v" horiz-adv-x="811" d="M84 846l18 61q148 29 334 90q12 -41 25.5 -82t25.5 -87q35 -131 45 -199l7 -45q4 -31 8 -56.5t6 -54.5q6 -87 6 -162q23 27 39 45.5t30 37.5q61 84 97.5 146t36.5 107q0 63 -39 96q-4 6 -16.5 16.5t-25.5 28.5q-34 45 -34 80q0 40 23 78q39 57 112 58q89 0 126 -90 q14 -33 14 -88q0 -76 -44 -186q-76 -189 -278 -407l-242 -260l-55 -2q0 331 -10 419.5t-15 133.5q-15 118 -31 168.5t-25 81.5t-32 52q-24 22 -73 22q-15 0 -33 -2z" />
<glyph unicode="w" horiz-adv-x="1280" d="M96 854l19 57q159 23 346 80l12 -82q25 -184 25 -290v-209l366 583h80l33 -725q39 43 64.5 73t46.5 53q35 42 69.5 96t49 85t14.5 55q0 48 -11 68q-10 27 -30.5 46.5t-31.5 34.5q-36 49 -36 100.5t37 85.5t92 34q34 0 49 -10q59 -20 84 -88q10 -27 10 -52 q0 -173 -110 -338q-111 -165 -218 -279q-94 -98 -156 -158t-109 -107h-62q-4 66 -5 128.5t-5 137t-11.5 161.5t-13.5 173q-63 -92 -126.5 -183t-113.5 -166q-50 -78 -157 -251h-70l15 185q3 39 3 98q0 93 -7 235q-4 215 -14.5 271.5t-23.5 71.5q-23 26 -86 26h-18z" />
<glyph unicode="x" horiz-adv-x="1024" d="M39 104q0 47 46 96q26 27 69 27t70 -13q58 -28 74 -28q27 0 40 9q29 16 63.5 74.5t81.5 136.5l-80 309q-11 51 -30.5 90t-45.5 53q-23 12 -79 12h-17l17 64q202 30 336 63l102 -307q16 25 30 48q26 41 61.5 92.5t50 72.5t38.5 41q61 51 126.5 51t108 -30.5t42.5 -90.5 q0 -33 -13 -53q-41 -65 -116 -65q-27 0 -47 6l-40 12t-38 6q-31 0 -43 -12q-27 -16 -59.5 -65.5t-73.5 -116.5l73 -283q29 -95 54 -123q24 -24 38 -24q56 0 90 57q19 31 36 59l55 -36q-105 -177 -186 -220q-54 -28 -113 -28q-109 0 -170 96q-23 39 -38 83t-44 128 q-94 -150 -132 -196q-94 -113 -200 -113q-55 0 -96 29.5t-41 88.5z" />
<glyph unicode="y" horiz-adv-x="894" d="M-143 -210q0 64 37.5 100t81.5 36q64 0 100.5 -28.5t58 -48t44.5 -19.5t42 10t32 23.5t22.5 25t11.5 13.5q-6 371 -12.5 505.5t-14.5 233t-15 131.5t-23 54q-27 35 -104 35q-13 0 -28 -1l27 58q45 8 88 14t85 16t83 19.5t82 19.5q43 -57 65 -260q17 -205 20 -340t5 -184 q118 148 155 207t68 111q66 111 66 157q0 20 -13 37q-16 27 -44.5 37t-42.5 25q-34 38 -34 85q0 26 16 61q34 70 124 70q50 0 86 -27q67 -53 67 -143q0 -66 -21 -117q-65 -163 -236 -394q-47 -64 -91.5 -114.5t-72 -83t-58.5 -70.5t-62 -75q-86 -105 -117.5 -136.5 t-66.5 -64t-74 -58.5q-92 -62 -163 -62t-122.5 39t-51.5 103z" />
<glyph unicode="z" horiz-adv-x="811" d="M45 53q258 273 385 434.5t205 260.5q-108 -5 -144 -5h-10l-84 2q-84 -5 -127 -61q-12 -18 -20 -42t-8 -26h-72q14 41 28.5 83t29.5 86t27.5 92.5t27.5 95.5l643 -2l-25 -70q-165 -165 -232 -251.5t-114 -139.5q-53 -66 -108.5 -131.5t-108.5 -130.5q46 -18 70.5 -42 t34.5 -63t27 -101t32.5 -91t47.5 -29t40 20.5t7 29.5t-1 16l-10 71q2 59 33.5 103.5t82 44.5t72 -14.5t32.5 -34.5q17 -30 17 -76q0 -79 -86 -156q-80 -76 -194 -76q-63 0 -105.5 15.5t-71.5 38.5q-59 46 -83.5 72t-46 48.5t-54.5 22.5t-50 -8t-50 -33z" />
<glyph unicode="{" horiz-adv-x="724" d="M238 506v12q50 11 79.5 39.5t42.5 65t18 76.5t5 79v414q0 152 73 245q60 77 187 87q43 4 121 8l-2 -12q-38 -11 -57 -19q-68 -23 -93.5 -62.5t-34 -63t-11.5 -42t-5 -40t-2 -49.5v-267q0 -141 -4 -226t-30.5 -129.5t-45 -60.5t-37.5 -27q-33 -17 -61 -24 q110 -37 147 -123q27 -55 29 -127t2 -194v-226q0 -137 13 -173q35 -103 95 -131q42 -19 97 -36l-2 -12q-20 2 -40 2t-37 1t-51 4t-73 17q-101 35 -141 119q-29 59 -33 126t-4 253v268q0 77 -30.5 131t-71.5 78q-10 4 -17.5 8.5t-25.5 10.5z" />
<glyph unicode="|" horiz-adv-x="468" d="M250 -512v2044h164v-2044h-164z" />
<glyph unicode="}" horiz-adv-x="724" d="M156 -500q67 17 98 35q96 58 104 202q2 38 2 105v201q0 139 4.5 225t37 142.5t74.5 75t63 24.5q-115 33 -153 124q-28 67 -28 155v389q0 61 -4 124.5t-37 114.5t-71.5 68.5t-89.5 34.5v12q32 -4 55.5 -4t47.5 -1t53 -7q82 -18 124 -56q92 -73 98 -244q1 -46 1 -90v-264 q0 -35 -1.5 -68.5t2.5 -78.5q15 -144 112 -193q9 -4 32 -12v-12q-54 -18 -80.5 -42t-39.5 -62t-18 -77.5t-5 -79.5v-383q0 -109 -17 -167q-44 -145 -177 -187q-37 -11 -88.5 -12.5t-98.5 -3.5v12z" />
<glyph unicode="~" horiz-adv-x="1492" d="M350 594q115 172 273 172q47 0 95 -15.5t132 -54.5l68 -30q35 -16 68.5 -29.5t87.5 -13.5q83 0 183 127l78 -148q-130 -162 -280 -162q-45 0 -87 13.5t-116 50.5l-61 31q-98 49 -164 49q-78 0 -135 -66q-33 -39 -60 -72z" />
<glyph unicode="&#xa1;" horiz-adv-x="598" d="M88 138q0 48 16.5 92t49 111t76.5 154t79 162.5t66 137t53 127.5l45 129l90 -11q-83 -286 -111 -455t-40 -254q-19 -136 -33 -169t-24.5 -55.5t-28.5 -46.5q-48 -64 -117 -64q-80 0 -109 68q-12 26 -12 74zM420 1311q4 59 51 100t113 41t113.5 -47t46.5 -116t-50 -114 t-116 -45q-29 0 -56 11q-53 18 -79.5 64.5t-22.5 105.5z" />
<glyph unicode="&#xa3;" horiz-adv-x="1323" d="M143 139q0 129 117 181q65 28 116.5 28t135.5 -14q46 157 50.5 217.5t6.5 116.5l-194 4l35 119h172q4 29 5 55q1 38 15 115t40 145q88 230 304 320q83 34 163 34q136 0 191 -47q62 -43 62 -121q0 -29 -14 -55.5t-45 -44.5t-68 -18t-65.5 31.5t-28.5 74.5l8 63 q0 39 -53 39q-36 0 -78 -40q-65 -62 -100 -250q-10 -45 -17.5 -90.5t-15.5 -83.5q-11 -51 -31 -127h236l-33 -119l-226 -2q-45 -167 -106 -272q-23 -40 -59 -97q75 -26 153 -57t117 -43.5t79 -12.5t66.5 9.5t46 22.5t31.5 28.5t23 25.5l57 -24q-78 -129 -156 -192 q-97 -78 -198.5 -78t-185 46t-158.5 99q-108 -135 -240 -135q-45 0 -63 12q-45 16 -70 57t-25 80zM274 172l5 -20q22 -39 62 -39t67 26t45 49q-70 45 -111 44t-54.5 -21.5t-13.5 -38.5z" />
<glyph unicode="&#xa4;" d="M182 223l156 154q-105 150 -105 321q0 154 85 284l20 30l-154 155l123 123l154 -153q108 72 183 88t121 16q188 0 307 -87q22 -15 26 -17l153 153l125 -123l-155 -155q102 -146 102 -318q0 -156 -73 -272q-11 -19 -31 -47l157 -156l-127 -123l-153 156 q-146 -102 -316 -102t-319 104l-156 -156zM397 714.5q0 -102.5 30 -172t82 -120.5q113 -111 273 -111q121 0 209 62q107 65 151 199q17 54 17 97t-2 69t-9 58q-21 95 -106 182q-100 101 -262 101q-70 0 -141 -24q-117 -43 -179.5 -140.5t-62.5 -200z" />
<glyph unicode="&#xa6;" horiz-adv-x="468" d="M250 389h164v-780h-164v780zM250 631v780h164v-780h-164z" />
<glyph unicode="&#xa7;" horiz-adv-x="1024" d="M123 -139.5q0 41.5 32.5 75t74.5 33.5t71 -27.5t29 -64.5l-8 -59q0 -37 28.5 -55.5t63.5 -18.5q63 0 95 49t32 90.5t-5.5 65.5t-12.5 45q-14 42 -21 57l-180 414q-58 132 -58 225q0 52 19.5 98t46 67.5t54.5 34.5q29 13 72 21q68 12 169 4q-35 72 -60.5 140.5 t-25.5 114.5t2 70t9 50q16 62 67 121q93 109 274 109q178 0 241 -115q11 -21 11 -60.5t-32 -72.5t-76 -32t-67.5 28.5t-23.5 66t25 88.5q-38 33 -65 33t-52 -8t-46 -26q-50 -43 -50 -126q0 -67 37 -155l163 -387q56 -124 56 -209q0 -92 -52 -155q-34 -39 -95.5 -58 t-100.5 -19q-68 0 -117 9q27 -66 48.5 -114t36.5 -87q30 -74 30 -145t-23.5 -121t-56.5 -83q-49 -51 -100 -68q-94 -32 -187 -32q-91 0 -157 31q-56 23 -92 79q-23 37 -23 78.5zM479 752q0 -55 17.5 -90t17.5 -37l96 -215q23 -4 41.5 -9.5t40.5 -5.5q99 0 99 86 q0 47 -31 109l-105 248q-40 10 -59.5 10t-38 -3t-35.5 -13q-43 -26 -43 -80z" />
<glyph unicode="&#xa8;" horiz-adv-x="555" d="M6 1325q0 33 11 54t39 49t64 31q92 8 140 -71q16 -26 16 -51.5t-4 -48.5q-8 -44 -68 -82q-24 -16 -46 -16q-45 0 -70 11t-53.5 41t-28.5 83zM406 1323.5q0 49.5 32 89.5q44 55 132 47q24 -2 59 -30q49 -38 49 -107q0 -53 -36 -88q-46 -45 -99 -45q-63 0 -100 42t-37 91.5 z" />
<glyph unicode="&#xa9;" horiz-adv-x="1705" d="M221 716.5q0 98.5 17.5 173.5t43.5 133q56 129 182 247q107 100 280 154q92 28 164.5 28t119.5 -4t106 -18q137 -31 255 -119q110 -85 169 -179q124 -201 121 -413q0 -171 -83 -338q-35 -72 -97 -141q-104 -119 -246.5 -182.5t-300.5 -63.5t-299 61.5t-245 175.5 q-113 119 -158 285q-29 102 -29 200.5zM287 723q0 -243 149 -422q129 -154 320 -213q94 -29 170 -29q249 0 422 131q163 123 231 326q33 99 33 205q0 276 -200 481q-102 104 -261 156q-88 28 -157 28t-110.5 -3t-93.5 -16q-127 -31 -231 -107q-106 -80 -159 -163 q-113 -174 -113 -374zM492 743q0 183 75 291q111 156 373 156q41 0 80 -5t80 -7l49 -2q39 -2 76 -4.5t73 -2.5q10 -178 19 -292l-62 2q-20 92 -36 130.5t-45 68.5t-60 44q-48 23 -128 23q-115 0 -192 -111q-59 -84 -59 -261q0 -327 127 -433q53 -47 160 -47q106 0 170 67 q30 37 43 73q25 65 25 120h61v-272q-39 -4 -76 -8.5t-74 -8.5q-49 -4 -116.5 -10t-114.5 -6q-448 0 -448 495z" />
<glyph unicode="&#xab;" horiz-adv-x="1067" d="M172 582l406 450h120l-292 -500l77 -450h-104zM637 561q47 57 93 113.5t87 104.5t76 87t59.5 71t41 52.5t32.5 42.5h129l-281 -510l64 -440h-98z" />
<glyph unicode="&#xac;" d="M96 518v162h1366v-680h-164v518h-1202z" />
<glyph unicode="&#xad;" horiz-adv-x="724" d="M160 481l63 217l568 -2q-17 -80 -35.5 -134t-26.5 -81h-569z" />
<glyph unicode="&#xae;" horiz-adv-x="1705" d="M221 725q0 236 116 398q111 155 245 232q168 97 356 97q384 0 600 -293q145 -197 141 -440q0 -164 -81 -332q-33 -70 -99 -146.5t-146.5 -128t-157.5 -76.5q-247 -82 -481 -3q-114 39 -179.5 88t-114.5 98t-93 121q-106 173 -106 385zM287 723q0 -243 149 -422 q129 -154 320 -213q94 -29 160 -29q264 0 441 137q159 122 225 324q32 97 32 201q0 224 -129 399q-78 103 -161 155q-177 111 -372 111q-220 0 -393 -126q-106 -80 -159 -163q-113 -174 -113 -374zM582 266v84q23 4 49 9.5t35 21.5q10 20 10 55v570q0 61 -12 73 q-16 16 -82 21v88q165 -6 221 -4l207 4q95 0 138 -12q88 -23 123 -63q60 -70 60 -150q0 -71 -41 -123q-43 -63 -148 -90q-22 -5 -30 -5q14 -4 24.5 -12t29.5 -23q32 -26 59 -126l20 -80q10 -39 18.5 -67.5t32.5 -28.5q40 0 60 110l78 -12q-14 -57 -28.5 -106.5t-43.5 -79.5 q-47 -52 -70.5 -57t-39.5 -5q-77 0 -119 53q-39 47 -73 193q-29 124 -52 158q-32 47 -105 47h-51v-236q0 -23 -1 -38t3 -37q7 -39 102 -46v-86l-122 4q-63 2 -126 0zM852 819h57q53 0 109 5q79 7 118 80q11 22 11 44q0 58 -25 92q-41 54 -145 54q-87 0 -103 -15.5t-19 -40 t-3 -67.5v-152z" />
<glyph unicode="&#xb0;" horiz-adv-x="724" d="M129 1217q0 137 96 233t235 96q69 0 129 -25.5t105 -70.5q97 -97 97 -233q0 -76 -36 -152t-118 -128t-164 -52t-142.5 26.5t-105.5 71.5q-96 96 -96 234zM298 1219.5q1 -66.5 48 -113.5t115 -47t114 47t46 114t-47 114.5t-115 47.5t-115 -48t-46 -114.5z" />
<glyph unicode="&#xb1;" d="M180 0v162h1198v-162h-1198zM180 772v162h520v496h162v-496h516v-162h-516v-496h-162v496h-520z" />
<glyph unicode="&#xb4;" horiz-adv-x="555" d="M201 1141l172 332h284l-329 -334z" />
<glyph unicode="&#xb5;" horiz-adv-x="1150" d="M238 748q0 94 7 114.5t13 32.5t16 25q26 30 53 30t44.5 -6t32.5 -28q26 -39 26 -95.5t-4 -95.5t-8 -84t-10 -93q-15 -109 -22 -177t-17 -115q23 -57 46 -89q62 -83 158 -83q102 0 171 102q49 70 59 120t16 81q15 77 15 211l-3 143q0 138 25 172q24 40 74 37q73 0 93 -82 q11 -45 11 -118q0 -313 -98 -527q20 -57 50 -80.5t46 -23.5q35 0 53 11t27.5 28.5t13.5 34t5.5 31t1.5 22.5t-5 41l60 2q26 -76 26 -114t-3 -65.5t-16 -55.5q-35 -77 -120 -77q-79 0 -139 80q-27 34 -43 90q-120 -178 -299 -178q-124 0 -209 99q-19 18 -29 36 q-20 -244 88 -412q38 -58 53 -86t15 -61t-24.5 -57.5t-51.5 -24.5q-44 0 -57 13q-45 22 -71 79q-52 112 -52 353v50q0 47 7 146t18 152q-43 236 -43 492z" />
<glyph unicode="&#xb6;" d="M276 1050.5q0 122.5 71 228t204 146.5q67 21 178 21h471v-111h-70v-1677h-118v1677h-295v-1677h-119v995q-16 4 -47 10.5t-72 24.5q-104 49 -153.5 144.5t-49.5 218z" />
<glyph unicode="&#xb7;" horiz-adv-x="382" d="M152 581q0 110 88 147q22 9 44 9q39 0 54 -10q88 -34 88 -129q0 -65 -50 -108q-38 -34 -95 -31.5t-93 41.5t-36 81z" />
<glyph unicode="&#xb8;" horiz-adv-x="555" d="M-233 -379l28 68q68 -11 84 -11q95 0 123 48q12 20 12 34t-13 33t-42 19l-37 -5l-18 39l159 170l101 2l-105 -143l50 6q70 0 103 -57q13 -23 13 -60q0 -66 -59.5 -118t-188.5 -52q-73 0 -210 27z" />
<glyph unicode="&#xbb;" horiz-adv-x="1067" d="M66 82l282 514l-63 436h94l207 -475l-396 -475h-124zM522 82l291 493l-78 455l105 2l209 -495l-410 -455h-117z" />
<glyph unicode="&#xbf;" horiz-adv-x="980" d="M100 274q0 112 68 215q63 88 162 161q22 16 39.5 29t52.5 37.5t70 50.5q84 64 108 90q43 48 54 75q16 39 26 110h82q-9 -122 -21 -158q-19 -58 -86 -145l-157 -202q-140 -177 -140 -338q0 -78 28 -110t59 -32t50 17.5t18 37t-6 36t-8 26.5q-12 40 -12 59q0 116 81 155 q30 15 63 15q47 0 71 -19q66 -51 66 -124q0 -57 -43 -126t-131 -105.5t-178 -36.5q-228 0 -302 204q-14 37 -14 78zM561 1305q6 63 55.5 106t114 43t112.5 -45t48 -113q0 -64 -53 -114q-50 -49 -117 -49q-66 0 -115 53q-51 56 -45 119z" />
<glyph unicode="&#xc0;" d="M-45 0l16 63q101 21 164 87q39 40 74 88l940 1226h88l-88 -1231q-2 -14 -2 -27v-28q0 -100 75 -114q19 -3 35 -5l-18 -61q-246 9 -354.5 6.5t-150.5 -2.5t-83 -2l19 63q50 0 93.5 19t57 59.5t17.5 89.5l22 222h-354l-135 -187q-64 -85 -64 -127q0 -24 16 -44t46 -22.5 t59 -4.5l-18 -68q-227 6 -283 5q-113 -2 -172 -5zM578 549h292l29 285q6 74 31 196zM952 1831h336l84 -252h-139z" />
<glyph unicode="&#xc1;" d="M-45 0l16 63q101 21 164 87q39 40 74 88l940 1226h88l-88 -1231q-2 -14 -2 -27v-28q0 -100 75 -114q19 -3 35 -5l-18 -61q-246 9 -354.5 6.5t-150.5 -2.5t-83 -2l19 63q50 0 93.5 19t57 59.5t17.5 89.5l22 222h-354l-135 -187q-64 -85 -64 -127q0 -24 16 -44t46 -22.5 t59 -4.5l-18 -68q-227 6 -283 5q-113 -2 -172 -5zM578 549h292l29 285q6 74 31 196zM1090 1579q69 94 153 250h363l-346 -250h-170z" />
<glyph unicode="&#xc2;" d="M-45 0l16 63q101 21 164 87q39 40 74 88l940 1226h88l-88 -1231q-2 -14 -2 -27v-28q0 -100 75 -114q19 -3 35 -5l-18 -61q-246 9 -354.5 6.5t-150.5 -2.5t-83 -2l19 63q50 0 93.5 19t57 59.5t17.5 89.5l22 222h-354l-135 -187q-64 -85 -64 -127q0 -24 16 -44t46 -22.5 t59 -4.5l-18 -68q-227 6 -283 5q-113 -2 -172 -5zM578 549h292l29 285q6 74 31 196zM877 1583l268 246h350l76 -250h-168l-90 156l-250 -154z" />
<glyph unicode="&#xc3;" d="M-45 0l16 63q101 21 164 87q39 40 74 88l940 1226h88l-88 -1231q-2 -14 -2 -27v-28q0 -100 75 -114q19 -3 35 -5l-18 -61q-246 9 -354.5 6.5t-150.5 -2.5t-83 -2l19 63q50 0 93.5 19t57 59.5t17.5 89.5l22 222h-354l-135 -187q-64 -85 -64 -127q0 -24 16 -44t46 -22.5 t59 -4.5l-18 -68q-227 6 -283 5q-113 -2 -172 -5zM578 549h292l29 285q6 74 31 196zM885 1626q16 23 33.5 43.5t55.5 66.5q75 93 169 93q55 0 124 -25q130 -49 186 -49t88 19.5t71 54.5l63 -41q-122 -136 -169.5 -169.5t-82 -33.5t-59.5 5t-50.5 12.5t-49 15.5t-48 17 t-55.5 20.5t-70.5 11.5t-60 -14.5t-41 -28.5t-29 -20.5t-18.5 -12.5z" />
<glyph unicode="&#xc4;" d="M-6 -12l24 63q79 25 104 40q39 23 89 85l508 655v3q47 61 93 122.5t90 118.5t85 107.5t77 97.5t66.5 90t61.5 86h88l-88 -1255q-4 -53 2 -77t18 -35q26 -23 41.5 -28.5t44.5 -7.5l-16 -63q-168 8 -283 8q-175 0 -303 -8l17 65q97 13 128 49q42 48 42 109l20 236h-350 l-133 -183q-18 -25 -42 -62.5t-24 -57.5q0 -41 15.5 -53.5t33 -18.5t34 -9.5t28.5 -3.5h14l-28 -73l-91 8h-307zM621 539h294q23 281 64 491zM879 1666q0 44 5 57t15 29.5t27 33.5q39 39 83 39t70.5 -11.5t46.5 -31.5q43 -43 43 -102.5t-45 -101.5t-104 -42t-100 43t-41 87z M1405 1686v19q0 9 4 22t13.5 31t26.5 33q41 36 103 36q92 0 130 -91q10 -22 10 -45q0 -46 -11 -55q-16 -41 -52 -68.5t-63 -27.5q-65 0 -105 34q-56 48 -56 112z" />
<glyph unicode="&#xc5;" d="M4 -6l14 57q79 25 104 40q39 23 89 85l508 655v3q136 182 223.5 292.5t125.5 161.5t66.5 89t57.5 79h88l-88 -1255q-4 -37 0 -69t30 -51q36 -26 76 -26l-16 -65q-168 8 -283 8q-175 0 -303 -8l17 65q97 13 128 49q42 48 42 109l24 231h-354l-133 -178q-18 -25 -42 -62.5 t-24 -57.5q0 -38 13.5 -51t31 -20t33.5 -11q26 -5 43 -5l-26 -67q-111 6 -195 6q-140 0 -250 -4zM621 539h297l12 139l8 76q4 35 7 72q8 97 34 204zM1071 1706q0 79 63.5 129.5t133.5 50.5q31 0 79.5 -18.5t81.5 -68.5t33 -121.5t-55 -126t-141 -54.5q-54 0 -96 24t-62 53 q-37 53 -37 132zM1182 1692q7 -86 94 -86q19 0 35 6q10 4 28.5 24.5t18.5 55.5q-2 35 -28.5 59.5t-49.5 24.5q-72 0 -94 -58q-4 -10 -4 -26z" />
<glyph unicode="&#xc6;" horiz-adv-x="1878" d="M2 2l18 55q62 12 99 42t61 55q41 43 80 94l125 162l346 442q39 49 76 99t74 95q141 173 159.5 208.5t18.5 45.5q0 30 -16.5 51.5t-47 21t-86.5 1.5l25 62h1143l-90 -355h-64q-4 16 -5 30.5t-5 34.5q-14 72 -72 118q-90 75 -257 75q-48 0 -95 -2l-152 -536h62 q127 0 227 65q56 36 88 94q12 21 31 58h61l-155 -516l-58 2q13 88 -18 143q-31 51 -92.5 64.5t-171.5 7.5l-11 -51l-112 -406q-17 -26 -17 -54q0 -51 10.5 -67t28 -23t34.5 -10q25 -6 49 -6q66 0 173 35q156 51 284 173q40 38 85 85l47 -26q-90 -220 -137 -365h-1098l15 53 q98 13 125 35q45 36 71 121l76 252h-377l-117 -158q-41 -53 -67.5 -94t-25.5 -65q1 -34 18.5 -53.5t45 -23t60.5 -5.5l-18 -64h-451zM627 557l342 2q57 247 198 717z" />
<glyph unicode="&#xc7;" horiz-adv-x="1409" d="M256 528.5q0 67.5 6 130t28 137.5q50 174 156.5 302.5t211 193t202.5 96.5q155 52 318 52q116 0 159 -11.5t65 -16.5q50 -11 90 -11t54.5 10t30.5 39h68q-18 -53 -36 -103.5t-34 -104.5q-21 -72 -59 -220h-66q4 59 1 110.5t-33 97.5t-64.5 68.5t-69.5 33.5q-51 16 -98 16 t-93 -8.5t-97 -31.5q-111 -52 -205 -178q-88 -110 -152 -292q-59 -167 -59 -328q0 -178 88 -289q95 -112 270 -112q165 0 295 112q32 30 106 125l68 -37q-57 -82 -109.5 -139.5t-123 -98t-136.5 -61.5q-294 -95 -534 52q-175 108 -230 325q-18 74 -18 141.5zM362 -379l29 68 q68 -11 85 -11q96 0 124 48q12 20 12 34t-13 33t-42 19l-37 -5l-20 39l162 170l98 2l-103 -143l50 6q70 0 103 -57q13 -23 13 -60q0 -66 -59 -118t-189 -52q-75 0 -213 27z" />
<glyph unicode="&#xc8;" horiz-adv-x="1236" d="M-4 -4l22 59q45 4 82 14.5t60.5 38t45.5 86.5q64 176 105 330t68 251.5t57.5 202.5t47.5 164q28 91 28 115q0 49 -12 66q-26 45 -131 45l18 59h1047l-93 -352h-59q-8 49 -18.5 88t-44.5 76q-11 18 -46 40.5t-75.5 34t-83.5 15.5t-87 4h-81l-154 -542q86 4 164 18 t131.5 55.5t75.5 74t45 73.5h59q-23 -68 -46 -135.5t-43.5 -132t-37 -126t-32.5 -120.5h-56q0 8 2 26.5t0 41.5q-5 56 -36 96q-31 37 -88.5 47t-157.5 8l-137 -484q-11 -33 -11 -51l6 -32q23 -52 111 -52q84 0 163 26t135.5 56.5t122.5 90t128 118.5l49 -29 q-18 -43 -36.5 -86t-36.5 -89q-24 -65 -66 -193q-423 12 -558 12q-272 0 -546 -8zM719 1831h334l86 -252h-140z" />
<glyph unicode="&#xc9;" horiz-adv-x="1236" d="M-4 -4l22 59q45 4 82 14.5t60.5 38t45.5 86.5q64 176 105 330t68 251.5t57.5 202.5t47.5 164q28 91 28 115q0 49 -12 66q-26 45 -131 45l18 59h1047l-93 -352h-59q-8 49 -18.5 88t-44.5 76q-11 18 -46 40.5t-75.5 34t-83.5 15.5t-87 4h-81l-154 -542q86 4 164 18 t131.5 55.5t75.5 74t45 73.5h59q-23 -68 -46 -135.5t-43.5 -132t-37 -126t-32.5 -120.5h-56q0 8 2 26.5t0 41.5q-5 56 -36 96q-31 37 -88.5 47t-157.5 8l-137 -484q-11 -33 -11 -51l6 -32q23 -52 111 -52q84 0 163 26t135.5 56.5t122.5 90t128 118.5l49 -29 q-18 -43 -36.5 -86t-36.5 -89q-24 -65 -66 -193q-423 12 -558 12q-272 0 -546 -8zM854 1579q66 91 83 121.5t34.5 61t38.5 67.5h360l-346 -250h-170z" />
<glyph unicode="&#xca;" horiz-adv-x="1236" d="M-4 -4l22 59q45 4 82 14.5t60.5 38t45.5 86.5q64 176 105 330t68 251.5t57.5 202.5t47.5 164q28 91 28 115q0 49 -12 66q-26 45 -131 45l18 59h1047l-93 -352h-59q-8 49 -18.5 88t-44.5 76q-11 18 -46 40.5t-75.5 34t-83.5 15.5t-87 4h-81l-154 -542q86 4 164 18 t131.5 55.5t75.5 74t45 73.5h59q-23 -68 -46 -135.5t-43.5 -132t-37 -126t-32.5 -120.5h-56q0 8 2 26.5t0 41.5q-5 56 -36 96q-31 37 -88.5 47t-157.5 8l-137 -484q-11 -33 -11 -51l6 -32q23 -52 111 -52q84 0 163 26t135.5 56.5t122.5 90t128 118.5l49 -29 q-18 -43 -36.5 -86t-36.5 -89q-24 -65 -66 -193q-423 12 -558 12q-272 0 -546 -8zM598 1583l268 246h351l75 -250h-168l-88 156l-252 -154z" />
<glyph unicode="&#xcb;" horiz-adv-x="1236" d="M-4 -4l22 59q45 4 82 14.5t60.5 38t45.5 86.5q64 176 105 330t68 251.5t57.5 202.5t47.5 164q28 91 28 115q0 49 -12 66q-26 45 -131 45l18 59h1047l-93 -352h-59q-8 49 -18.5 88t-44.5 76q-11 18 -46 40.5t-75.5 34t-83.5 15.5t-87 4h-81l-154 -542q86 4 164 18 t131.5 55.5t75.5 74t45 73.5h59q-23 -68 -46 -135.5t-43.5 -132t-37 -126t-32.5 -120.5h-56q0 8 2 26.5t0 41.5q-5 56 -36 96q-31 37 -88.5 47t-157.5 8l-137 -484q-11 -33 -11 -51l6 -32q23 -52 111 -52q84 0 163 26t135.5 56.5t122.5 90t128 118.5l49 -29 q-18 -43 -36.5 -86t-36.5 -89q-24 -65 -66 -193q-423 12 -558 12q-272 0 -546 -8zM602 1678.5q0 44.5 8 68t43 64t120 31.5q58 -6 101 -70q19 -29 19 -58.5t-5 -55.5t-34 -54q-35 -41 -64.5 -46.5t-41.5 -5.5q-57 0 -101.5 41t-44.5 85.5zM1126 1702q0 31 11.5 54.5t43.5 54 t76 32.5q60 3 103 -28q55 -44 55 -117q0 -55 -25 -84q-39 -43 -73 -53q-22 -9 -45 -8q-39 2 -62 13t-53.5 45t-30.5 91z" />
<glyph unicode="&#xcc;" horiz-adv-x="724" d="M-6 -6l22 63q63 6 92 17.5t54 39.5t36 63.5t15 45.5l279 969q14 49 14 81t-13 57q-20 38 -133 38l23 68q195 -15 296 -15q165 0 345 11l-18 -62q-33 -2 -58.5 -5t-57.5 -24q-55 -36 -79 -129l-289 -1003q-10 -40 -9 -56q2 -39 18 -63q22 -33 131 -33l-27 -63 q-90 8 -132 8h-212zM463 1831h334l86 -252h-140z" />
<glyph unicode="&#xcd;" horiz-adv-x="724" d="M-6 -6l22 63q63 6 92 17.5t54 39.5t36 63.5t15 45.5l279 969q14 49 14 81t-13 57q-20 38 -133 38l23 68q195 -15 296 -15q165 0 345 11l-18 -62q-33 -2 -58.5 -5t-57.5 -24q-55 -36 -79 -129l-289 -1003q-10 -40 -9 -56q2 -39 18 -63q22 -33 131 -33l-27 -63 q-90 8 -132 8h-212zM598 1579q66 91 83 121.5t34.5 61t38.5 67.5h360l-346 -250h-170z" />
<glyph unicode="&#xce;" horiz-adv-x="724" d="M-6 -6l22 63q63 6 92 17.5t54 39.5t36 63.5t15 45.5l279 969q14 49 14 81t-13 57q-20 38 -133 38l23 68q195 -15 296 -15q165 0 345 11l-18 -62q-33 -2 -58.5 -5t-57.5 -24q-55 -36 -79 -129l-289 -1003q-10 -40 -9 -56q2 -39 18 -63q22 -33 131 -33l-27 -63 q-90 8 -132 8h-212zM362 1583l269 246h352l76 -250h-168l-90 156l-252 -154z" />
<glyph unicode="&#xcf;" horiz-adv-x="724" d="M-6 -6l22 63q63 6 92 17.5t54 39.5t36 63.5t15 45.5l279 969q14 49 14 81t-13 57q-20 38 -133 38l23 68q195 -15 296 -15q165 0 345 11l-18 -62q-33 -2 -58.5 -5t-57.5 -24q-55 -36 -79 -129l-289 -1003q-10 -40 -9 -56q2 -39 18 -63q22 -33 131 -33l-27 -63 q-90 8 -132 8h-212zM346 1678.5q0 44.5 8 68t43 64t119 31.5q59 -7 102 -70q19 -29 19 -58.5t-5 -55.5t-34 -54q-35 -41 -64.5 -46.5t-41.5 -5.5q-57 0 -101.5 41t-44.5 85.5zM870 1702q0 31 11.5 54.5t43.5 54t76 32.5q60 3 103 -28q55 -44 55 -117q0 -55 -25 -84 q-39 -43 -73 -53q-22 -9 -45 -8q-39 2 -62 13t-53.5 45t-30.5 91z" />
<glyph unicode="&#xd1;" horiz-adv-x="1449" d="M-4 0l22 63q47 6 92 22.5t68 55.5t44 101q55 166 83.5 265t52 187t52.5 188q64 219 127 431q-64 46 -102 51.5t-68 9.5l20 60q128 -9 189.5 -9t226.5 7l432 -943l201 711q4 29 6 41t2 37t-10.5 44t-29.5 30q-27 15 -95 20l18 64q119 -9 192 -9q117 0 236 9l-20 -64 l-53 -12q-67 -15 -93 -57.5t-64 -159.5q-69 -212 -147 -493.5t-108.5 -387.5t-50.5 -217l-13 -65h-67l-543 1202q-29 -104 -57.5 -204.5t-54.5 -191.5q-46 -159 -77 -267q-77 -260 -77 -325t18.5 -86.5t35.5 -29.5q25 -12 81 -12l-23 -70q-142 10 -213 10q-74 0 -233 -6z M735 1626q16 23 33.5 43.5t34.5 40.5q59 72 102 95.5t85 23.5t81 -11.5t77 -25.5q100 -37 156 -37t87.5 19.5t70.5 54.5l64 -41q-119 -133 -168 -168t-83.5 -35t-59.5 5t-50.5 12.5t-49 15.5t-48.5 17t-55.5 20.5t-70.5 11.5t-60.5 -14.5t-41 -28.5t-28.5 -20.5t-18 -12.5z " />
<glyph unicode="&#xd2;" horiz-adv-x="1536" d="M244 475q2 51 3 82t6 59q12 63 27 113t23 70t15.5 38.5t17.5 38t24 50.5q114 191 205 279q41 40 94 81q25 16 69 45t106 55q152 66 301 66q221 0 355 -134q34 -34 56 -68q72 -115 72 -302q0 -107 -15.5 -168t-26.5 -96q-18 -58 -71 -174q-68 -121 -107 -168 q-70 -84 -106.5 -118t-86.5 -73.5t-121 -77.5q-172 -93 -365 -93q-214 0 -342 116q-142 142 -133 379zM553 342q0 -66 11 -119q17 -83 109 -133q32 -18 79 -18t118.5 24.5t143.5 104.5q25 29 43 56.5t39 59.5q14 31 29.5 62t32.5 67q32 72 72 209q62 213 70.5 343.5 t-1 193.5t-66.5 115q-56 47 -123 47q-51 0 -103 -20.5t-90 -47t-68 -60.5q-39 -45 -108 -159q-14 -33 -29.5 -63.5t-35 -79t-40 -115t-33.5 -124.5q-31 -140 -35.5 -170t-7.5 -61.5t-7 -64.5v-47zM868 1831h334l86 -252h-141z" />
<glyph unicode="&#xd3;" horiz-adv-x="1536" d="M244 475q2 51 3 82t6 59q12 63 27 113t23 70t15.5 38.5t17.5 38t24 50.5q114 191 205 279q41 40 94 81q25 16 69 45t106 55q152 66 301 66q221 0 355 -134q34 -34 56 -68q72 -115 72 -302q0 -107 -15.5 -168t-26.5 -96q-18 -58 -71 -174q-68 -121 -107 -168 q-70 -84 -106.5 -118t-86.5 -73.5t-121 -77.5q-172 -93 -365 -93q-214 0 -342 116q-142 142 -133 379zM553 342q0 -66 11 -119q17 -83 109 -133q32 -18 79 -18t118.5 24.5t143.5 104.5q25 29 43 56.5t39 59.5q14 31 29.5 62t32.5 67q32 72 72 209q62 213 70.5 343.5 t-1 193.5t-66.5 115q-56 47 -123 47q-51 0 -103 -20.5t-90 -47t-68 -60.5q-39 -45 -108 -159q-14 -33 -29.5 -63.5t-35 -79t-40 -115t-33.5 -124.5q-31 -140 -35.5 -170t-7.5 -61.5t-7 -64.5v-47zM1004 1579q69 94 101 153.5t52 96.5h363l-346 -250h-170z" />
<glyph unicode="&#xd4;" horiz-adv-x="1536" d="M244 475q2 51 3 82t6 59q12 63 27 113t23 70t15.5 38.5t17.5 38t24 50.5q114 191 205 279q41 40 94 81q25 16 69 45t106 55q152 66 301 66q221 0 355 -134q34 -34 56 -68q72 -115 72 -302q0 -107 -15.5 -168t-26.5 -96q-18 -58 -71 -174q-68 -121 -107 -168 q-70 -84 -106.5 -118t-86.5 -73.5t-121 -77.5q-172 -93 -365 -93q-214 0 -342 116q-142 142 -133 379zM553 342q0 -66 11 -119q17 -83 109 -133q32 -18 79 -18t118.5 24.5t143.5 104.5q25 29 43 56.5t39 59.5q14 31 29.5 62t32.5 67q32 72 72 209q62 213 70.5 343.5 t-1 193.5t-66.5 115q-56 47 -123 47q-51 0 -103 -20.5t-90 -47t-68 -60.5q-39 -45 -108 -159q-14 -33 -29.5 -63.5t-35 -79t-40 -115t-33.5 -124.5q-31 -140 -35.5 -170t-7.5 -61.5t-7 -64.5v-47zM791 1583l268 246h350l76 -250h-168l-88 156l-252 -154z" />
<glyph unicode="&#xd5;" horiz-adv-x="1536" d="M244 475q2 51 3 82t6 59q12 63 27 113t23 70t15.5 38.5t17.5 38t24 50.5q114 191 205 279q41 40 94 81q25 16 69 45t106 55q152 66 301 66q221 0 355 -134q34 -34 56 -68q72 -115 72 -302q0 -107 -15.5 -168t-26.5 -96q-18 -58 -71 -174q-68 -121 -107 -168 q-70 -84 -106.5 -118t-86.5 -73.5t-121 -77.5q-172 -93 -365 -93q-214 0 -342 116q-142 142 -133 379zM553 342q0 -66 11 -119q17 -83 109 -133q32 -18 79 -18t118.5 24.5t143.5 104.5q25 29 43 56.5t39 59.5q14 31 29.5 62t32.5 67q32 72 72 209q62 213 70.5 343.5 t-1 193.5t-66.5 115q-56 47 -123 47q-51 0 -103 -20.5t-90 -47t-68 -60.5q-39 -45 -108 -159q-14 -33 -29.5 -63.5t-35 -79t-40 -115t-33.5 -124.5q-31 -140 -35.5 -170t-7.5 -61.5t-7 -64.5v-47zM778 1626q24 35 75 95q89 108 181 108q53 0 124 -25.5t110 -37t86 -11.5 t79.5 19.5t71.5 54.5l64 -41q-27 -29 -53.5 -57.5t-59.5 -61.5t-68.5 -58.5t-70 -25.5t-59.5 5t-50.5 12.5t-49 15.5t-48.5 17t-56.5 20.5t-70.5 11.5t-59.5 -14.5t-42 -28.5t-28.5 -20.5t-17 -12.5z" />
<glyph unicode="&#xd6;" horiz-adv-x="1536" d="M244 475q2 51 3 82t6 59q12 63 27 113t23 70t15.5 38.5t17.5 38t24 50.5q114 191 205 279q41 40 94 81q25 16 69 45t106 55q152 66 301 66q221 0 355 -134q34 -34 56 -68q72 -115 72 -302q0 -107 -15.5 -168t-26.5 -96q-18 -58 -71 -174q-68 -121 -107 -168 q-70 -84 -106.5 -118t-86.5 -73.5t-121 -77.5q-172 -93 -365 -93q-214 0 -342 116q-142 142 -133 379zM553 342q0 -66 11 -119q17 -83 109 -133q32 -18 79 -18t118.5 24.5t143.5 104.5q25 29 43 56.5t39 59.5q14 31 29.5 62t32.5 67q32 72 72 209q62 213 70.5 343.5 t-1 193.5t-66.5 115q-56 47 -123 47q-51 0 -103 -20.5t-90 -47t-68 -60.5q-39 -45 -108 -159q-14 -33 -29.5 -63.5t-35 -79t-40 -115t-33.5 -124.5q-31 -140 -35.5 -170t-7.5 -61.5t-7 -64.5v-47zM807 1688q22 103 90 122q37 11 54 11q32 0 55 -13q86 -34 86 -127 q0 -61 -40 -103t-104 -40q-61 0 -106 50q-21 22 -30 51.5t-5 48.5zM1328 1692q11 89 94 120q22 9 67 9t85 -41t40 -101q0 -16 -9 -46t-27.5 -48t-37.5 -29q-31 -16 -64.5 -16t-62.5 13.5t-48 34.5q-44 50 -37 104z" />
<glyph unicode="&#xd7;" d="M254 188l412 410l-412 412l113 114l413 -411l410 411l115 -114l-410 -412l410 -410l-115 -114l-410 409l-413 -409z" />
<glyph unicode="&#xd8;" horiz-adv-x="1536" d="M174 -43q23 23 44 42q44 41 71.5 75.5t48.5 56.5q-10 16 -18.5 31.5t-25.5 44.5q-52 92 -52 256q0 125 21.5 200.5t39.5 126t28.5 76t22.5 48.5q46 97 118.5 187.5t110 123t68.5 55.5t72 50q180 116 407 116q160 0 256 -58q27 -16 50 -32l149 164l68 -58l-154 -172 q14 -20 32 -45q79 -102 79 -299q0 -85 -15.5 -152t-27.5 -118q-48 -126 -78.5 -178t-54.5 -95q-45 -59 -85 -110t-106 -112.5t-147.5 -104.5t-155.5 -66q-261 -83 -463 18q-35 17 -74 38l-155 -175zM551 371l739 825q-8 16 -14 32.5t-14 31t-19.5 31t-30.5 29.5 q-45 32 -114 32q-137 0 -260 -132q-116 -124 -214 -434q-54 -172 -66 -304q-3 -31 -7 -62v-49zM559 240q28 -92 62 -121q49 -49 139 -49q107 0 201 77q45 37 74.5 80t60.5 90q103 237 128 325q35 120 72 372v55z" />
<glyph unicode="&#xd9;" horiz-adv-x="1409" d="M260 322q0 22 8 104q51 225 85 333.5t55 181.5q84 284 84 338t-29 70.5t-107 20.5l31 70q253 -13 315 -13q139 0 314 9l-27 -60q-29 0 -74.5 -12t-68.5 -48t-45 -89q-25 -84 -50.5 -166t-54.5 -185.5t-61.5 -224.5t-50.5 -185q-27 -101 -27 -145q0 -72 14 -99t33 -47.5 t48 -36.5q64 -38 151.5 -38t140.5 31t80 53q97 89 168 310q16 47 34.5 103t36 121.5t37.5 140.5q35 125 65 228t35 124.5t5 38.5q0 52 -14 71.5t-36 29t-41.5 13.5t-35.5 4h-18l24 72q192 -13 238 -13q87 0 209 9l-23 -64q-80 0 -127 -49q-41 -42 -67.5 -114t-48.5 -137 q-23 -68 -57.5 -197t-47.5 -185q-25 -100 -62.5 -211t-48 -133t-18.5 -39.5t-19.5 -41t-29.5 -51.5q-42 -68 -81 -101t-71.5 -54.5t-77.5 -38.5q-109 -43 -235 -43q-168 0 -293 72q-66 34 -97 76q-67 87 -67 197zM803 1831h336l84 -252h-140z" />
<glyph unicode="&#xda;" horiz-adv-x="1409" d="M260 322q0 22 8 104q51 225 85 333.5t55 181.5q84 284 84 338t-29 70.5t-107 20.5l31 70q253 -13 315 -13q139 0 314 9l-27 -60q-29 0 -74.5 -12t-68.5 -48t-45 -89q-25 -84 -50.5 -166t-54.5 -185.5t-61.5 -224.5t-50.5 -185q-27 -101 -27 -145q0 -72 14 -99t33 -47.5 t48 -36.5q64 -38 151.5 -38t140.5 31t80 53q97 89 168 310q16 47 34.5 103t36 121.5t37.5 140.5q35 125 65 228t35 124.5t5 38.5q0 52 -14 71.5t-36 29t-41.5 13.5t-35.5 4h-18l24 72q192 -13 238 -13q87 0 209 9l-23 -64q-80 0 -127 -49q-41 -42 -67.5 -114t-48.5 -137 q-23 -68 -57.5 -197t-47.5 -185q-25 -100 -62.5 -211t-48 -133t-18.5 -39.5t-19.5 -41t-29.5 -51.5q-42 -68 -81 -101t-71.5 -54.5t-77.5 -38.5q-109 -43 -235 -43q-168 0 -293 72q-66 34 -97 76q-67 87 -67 197zM940 1579q58 79 78 115.5t37.5 67t38.5 67.5h362l-346 -250 h-170z" />
<glyph unicode="&#xdb;" horiz-adv-x="1409" d="M260 322q0 22 8 104q51 225 85 333.5t55 181.5q84 284 84 338t-29 70.5t-107 20.5l31 70q253 -13 315 -13q139 0 314 9l-27 -60q-29 0 -74.5 -12t-68.5 -48t-45 -89q-25 -84 -50.5 -166t-54.5 -185.5t-61.5 -224.5t-50.5 -185q-27 -101 -27 -145q0 -72 14 -99t33 -47.5 t48 -36.5q64 -38 151.5 -38t140.5 31t80 53q97 89 168 310q16 47 34.5 103t36 121.5t37.5 140.5q35 125 65 228t35 124.5t5 38.5q0 52 -14 71.5t-36 29t-41.5 13.5t-35.5 4h-18l24 72q192 -13 238 -13q87 0 209 9l-23 -64q-80 0 -127 -49q-41 -42 -67.5 -114t-48.5 -137 q-23 -68 -57.5 -197t-47.5 -185q-25 -100 -62.5 -211t-48 -133t-18.5 -39.5t-19.5 -41t-29.5 -51.5q-42 -68 -81 -101t-71.5 -54.5t-77.5 -38.5q-109 -43 -235 -43q-168 0 -293 72q-66 34 -97 76q-67 87 -67 197zM727 1583l268 246h351l75 -250h-168l-90 156l-250 -154z" />
<glyph unicode="&#xdc;" horiz-adv-x="1409" d="M260 322q0 22 8 104q51 225 85 333.5t55 181.5q84 284 84 337t-29 71.5t-107 22.5l27 62q331 -13 629 2l-19 -58q-72 -7 -101.5 -22.5t-50 -40.5t-45.5 -97q-32 -97 -80.5 -271.5t-81 -295.5t-50.5 -185q-27 -101 -27 -145q0 -72 14 -99t33 -47.5t48 -36.5 q64 -38 151.5 -38t140.5 31t80 53q97 89 168 310q16 47 34.5 103t36 121.5t38 140.5t45 156t40.5 137q19 72 19 111.5t-17.5 61t-41.5 30.5q-28 11 -80 11l18 74q185 -13 234 -13q90 0 211 9l-21 -64q-80 0 -127 -49q-41 -42 -67.5 -114t-48.5 -137q-23 -68 -57.5 -197 t-47.5 -185q-25 -100 -62.5 -211t-48 -133t-18.5 -39.5t-19.5 -41t-29.5 -51.5q-42 -68 -81 -101t-71.5 -54.5t-77.5 -38.5q-109 -43 -235 -43q-168 0 -293 72q-66 34 -97 76q-67 87 -67 197zM752 1681q0 17 10 52.5t48 61.5t91 26t95 -40t42 -100.5t-45 -101.5t-103 -41 t-98 43t-40 100zM1278 1715q12 48 50 78t93 30t96.5 -42t41.5 -86.5t-12.5 -70t-32.5 -44.5q-43 -42 -97 -42q-27 0 -70.5 20.5t-62 64.5t-6.5 92z" />
<glyph unicode="&#xdf;" horiz-adv-x="1110" d="M-262 -206q0 30 8 42q12 29 39 44.5t59.5 15.5t61 -27t28.5 -62q0 -8 -4 -24l-6 -27q0 -27 23 -26q27 2 44 35.5t41 105.5t53.5 160t60 192.5t65.5 220t67 220.5q67 217 105 323q67 182 120.5 263t114 131.5t118.5 76.5q96 45 171 45q100 0 162 -25.5t105 -93t42 -154.5 t-54 -168q-69 -107 -192 -154q-32 -13 -61 -23q37 -10 54.5 -14.5t39 -14.5t47 -29.5t46.5 -50.5q51 -73 51 -182q0 -148 -84 -303q-57 -111 -120.5 -170.5t-94.5 -76.5q-115 -62 -225 -62q-120 0 -169 72q-14 22 -14 58.5t26 68.5t72 32t63 -26.5t17 -45.5l-12 -49 q0 -12 12.5 -20.5t23.5 -8.5q38 0 118 142q114 222 114 452q0 82 -38 125q-20 27 -48.5 37t-48.5 10h-43l27 78q27 2 59.5 8.5t74.5 42t66.5 77.5t38.5 81q31 91 31 197q0 43 -7 60q-24 59 -85 59q-59 0 -117 -76q-29 -39 -48 -87t-55 -161t-72 -248t-70 -246.5t-60 -197.5 t-49 -152q-61 -183 -91 -240t-61.5 -116.5t-82 -112.5t-99.5 -83q-84 -50 -171 -50t-120.5 22.5t-42.5 39.5q-24 40 -24 70z" />
<glyph unicode="&#xe0;" horiz-adv-x="1067" d="M121 242q0 217 149 464q43 72 118 147t154 107.5t108 32.5q100 0 134 -45q17 -22 31 -57l29 84h266l-201 -713q-18 -63 -18 -86.5t13.5 -32t21.5 -8.5t23 11t40 41t58 69l43 -37q-11 -17 -48 -63q-130 -172 -264 -172q-47 0 -93 26.5t-62 69.5q-9 18 -9 47q0 45 9 86 q-10 -16 -20.5 -32.5t-20.5 -31t-31 -41t-53 -52.5q-83 -68 -181 -68q-106 0 -153 78q-43 73 -43 176zM383 282q-5 -76 37 -102q24 -12 41 -12q45 2 94 73.5t102.5 171t80.5 203.5q36 142 36 163.5t-1 40t-9 38.5q-19 47 -66 47q-17 0 -51.5 -13t-56 -45t-28.5 -44 t-27.5 -51t-45 -93.5t-61.5 -151.5t-45 -225zM502 1466h278l107 -336h-129z" />
<glyph unicode="&#xe1;" horiz-adv-x="1067" d="M121 242q0 217 149 464q43 72 118 147t154 107.5t108 32.5q100 0 134 -45q17 -22 31 -57l29 84h266l-201 -713q-18 -63 -18 -86.5t13.5 -32t21.5 -8.5t23 11t40 41t58 69l43 -37q-11 -17 -48 -63q-130 -172 -264 -172q-47 0 -93 26.5t-62 69.5q-9 18 -9 47q0 45 9 86 q-10 -16 -20.5 -32.5t-20.5 -31t-31 -41t-53 -52.5q-83 -68 -181 -68q-106 0 -153 78q-43 73 -43 176zM383 282q-5 -76 37 -102q24 -12 41 -12q45 2 94 73.5t102.5 171t80.5 203.5q36 142 36 163.5t-1 40t-9 38.5q-19 47 -66 47q-17 0 -51.5 -13t-56 -45t-28.5 -44 t-27.5 -51t-45 -93.5t-61.5 -151.5t-45 -225zM629 1141l172 332h282l-329 -334z" />
<glyph unicode="&#xe2;" horiz-adv-x="1067" d="M121 242q0 217 149 464q43 72 118 147t154 107.5t108 32.5q100 0 134 -45q17 -22 31 -57l29 84h266l-201 -713q-18 -63 -18 -86.5t13.5 -32t21.5 -8.5t23 11t40 41t58 69l43 -37q-11 -17 -48 -63q-130 -172 -264 -172q-47 0 -93 26.5t-62 69.5q-9 18 -9 47q0 45 9 86 q-10 -16 -20.5 -32.5t-20.5 -31t-31 -41t-53 -52.5q-83 -68 -181 -68q-106 0 -153 78q-43 73 -43 176zM383 282q-5 -76 37 -102q24 -12 41 -12q45 2 94 73.5t102.5 171t80.5 203.5q36 142 36 163.5t-1 40t-9 38.5q-19 47 -66 47q-17 0 -51.5 -13t-56 -45t-28.5 -44 t-27.5 -51t-45 -93.5t-61.5 -151.5t-45 -225zM428 1133q27 25 52.5 48t52 51t52 55.5t54.5 55.5l123 123h231l92 -333h-124l-107 178l-291 -181z" />
<glyph unicode="&#xe3;" horiz-adv-x="1067" d="M121 242q0 217 149 464q43 72 118 147t154 107.5t108 32.5q100 0 134 -45q17 -22 31 -57l29 84h266l-201 -713q-18 -63 -18 -86.5t13.5 -32t21.5 -8.5t23 11t40 41t58 69l43 -37q-11 -17 -48 -63q-130 -172 -264 -172q-47 0 -93 26.5t-62 69.5q-9 18 -9 47q0 45 9 86 q-10 -16 -20.5 -32.5t-20.5 -31t-31 -41t-53 -52.5q-83 -68 -181 -68q-106 0 -153 78q-43 73 -43 176zM383 282q-5 -76 37 -102q24 -12 41 -12q45 2 94 73.5t102.5 171t80.5 203.5q36 142 36 163.5t-1 40t-9 38.5q-19 47 -66 47q-17 0 -51.5 -13t-56 -45t-28.5 -44 t-27.5 -51t-45 -93.5t-61.5 -151.5t-45 -225zM412 1221q10 16 21 29.5t41 53t75 80.5t113 41q41 0 129 -28q122 -47 182 -47q50 0 85.5 25.5t65.5 49.5l58 -43q-14 -16 -26.5 -32.5t-27.5 -32.5q-74 -84 -119.5 -113.5t-84.5 -29.5t-87.5 18t-104.5 40q-79 30 -121 30 t-70.5 -19.5t-67.5 -60.5z" />
<glyph unicode="&#xe4;" horiz-adv-x="1067" d="M119 217q0 117 12 163t27.5 96t43.5 112q65 146 164 244q161 159 304 159q103 0 138 -75q7 -17 11 -21l27 76q120 -5 182 0l86 6l-201 -705q-6 -23 -13 -44t-7 -54t29 -33t46 21.5t30 37.5q14 16 51 56l41 -33q-10 -14 -20.5 -27.5t-17.5 -23.5t-30 -40t-60 -62 q-97 -84 -184 -84q-43 0 -80 20q-57 29 -69.5 66t-12.5 57q0 21 13 88l-49 -74q-57 -85 -141 -125q-57 -28 -128 -28q-58 0 -98 26q-31 20 -62.5 73.5t-31.5 127.5zM381 254.5q0 -18.5 8 -36t26.5 -32t40 -14.5t42 14.5t38.5 33.5q32 31 52 64.5t37.5 65t34.5 65.5 q58 121 78 196t29 111t9 88.5t-26.5 76.5t-51.5 23q-36 -1 -68 -30t-55.5 -61.5t-40.5 -62.5q-34 -65 -40 -79.5t-22.5 -53.5t-34 -92.5t-33 -116t-19.5 -102t-4 -58zM543 1355q8 50 49 82.5t94 32.5q31 0 44 -6t29.5 -15t32.5 -25q37 -37 37 -95.5t-42 -99.5t-101 -41 q-34 0 -67 17t-58.5 58.5t-17.5 91.5zM917 1316q-4 71 43.5 111.5t103.5 40.5t100 -41t44 -102q0 -33 -16 -63t-33.5 -44t-36.5 -21q-29 -11 -62.5 -11t-65.5 16t-46 36q-29 40 -31 78z" />
<glyph unicode="&#xe5;" horiz-adv-x="1067" d="M119 236q0 157 86 350q99 221 269 336q103 71 194 71q92 0 133 -67q10 -17 18 -29l25 78h268l-205 -711q-18 -72 -18 -89t9 -29.5t24 -12.5q31 0 120 119l52 -35q-176 -235 -320 -235q-41 0 -82 20.5t-53 43.5q-25 48 -25 80t4.5 58.5t4.5 28.5q-10 -16 -19.5 -30.5 t-18.5 -28.5t-31 -41t-56 -55q-84 -72 -181 -72q-57 0 -93 22t-70.5 76.5t-34.5 151.5zM380 262.5q-1 -12.5 1 -26.5q5 -34 27 -49q28 -19 48.5 -19t48.5 20q115 85 229 418q40 115 40 191q0 112 -82 112q-37 0 -63 -26q-70 -58 -142 -219q-6 -16 -22 -54.5t-33 -91.5 q-45 -146 -51 -237q0 -6 -1 -18.5zM665 1312q5 43 23 79.5t44 56.5t52 32q38 17 82 17q82 0 140.5 -56.5t58.5 -137.5q0 -77 -63 -135q-60 -56 -138 -56q-88 0 -148 64q-28 30 -41 69t-10 67zM773 1321q-9 -35 16.5 -67.5t63.5 -32.5t67.5 25.5t29.5 61.5t-25.5 58.5 t-57.5 22.5t-58.5 -16.5t-35.5 -51.5z" />
<glyph unicode="&#xe6;" horiz-adv-x="1323" d="M66 148.5q0 27.5 3 57.5t13 68q26 96 75.5 156.5t113 85.5t120 39t86 22.5t57.5 14.5q58 13 123 20q15 68 35 136q17 60 17 95.5t-25 63t-54 27.5q-54 0 -75.5 -18.5t-28 -38t-6.5 -41.5q0 -63 -14 -95.5t-48 -52.5t-75 -20t-64.5 14t-36.5 34q-22 31 -22 73.5t29.5 81 t82.5 68.5q117 67 283 67q182 0 267 -96q14 -17 18 -21l34 33q78 79 204 79h15q65 0 109 -29.5t63 -61.5q32 -53 32 -121t-33 -137.5t-74 -107.5t-77.5 -56.5t-86.5 -33.5q-57 -18 -260 -55q0 -4 -6 -34.5t-6 -61.5t8 -49t19.5 -35.5t30.5 -32.5q114 -97 282 39q23 16 42 36 t40 38l45 -39q-70 -88 -100 -117q-170 -166 -369 -166q-112 0 -190 61q-59 47 -72 136q-4 27 -4 35q-26 -44 -68 -100q-116 -134 -266 -134q-131 0 -175 117q-11 29 -11 56.5zM313 233q0 -51 35 -77q14 -11 32 -11q87 0 146 98q53 90 76 174.5t33 121.5q-16 -4 -30.5 -5.5 t-32 -5.5t-48 -12t-64.5 -28q-84 -48 -118 -132q-29 -58 -29 -123zM883 477q79 18 110 33q66 29 100.5 75t46.5 90q25 98 25 133.5t-7 53t-24 24.5q-25 11 -36 11q-28 0 -59 -25q-49 -37 -85 -157z" />
<glyph unicode="&#xe7;" horiz-adv-x="854" d="M86 -379l29 68q68 -11 85 -11q47 0 79 14q57 24 57 70q-2 12 -14.5 31t-42.5 19l-37 -5l-19 39l160 170l100 2l-104 -143l49 6q71 0 106 -57q13 -23 13 -60q0 -66 -60.5 -118t-189.5 -52q-73 0 -211 27zM132 328q2 195 138 393q134 189 332 255q68 23 112.5 23t89 -6 t74.5 -29q38 -31 56 -60q27 -44 27 -103t-42 -107.5t-98.5 -48.5t-90.5 34t-34 83q0 57 52 89q22 13 22 42q0 35 -37 35h-17q-38 0 -94.5 -35t-102.5 -104.5t-68.5 -131t-34.5 -117.5q-19 -84 -19 -170.5t31 -136t62 -67.5q46 -27 88.5 -27t79 14.5t69.5 38.5q40 28 117 105 l51 -49q-27 -29 -51.5 -55.5t-65 -64.5t-90 -69.5t-94.5 -50.5q-81 -33 -158 -33q-74 0 -150.5 40t-115.5 126t-38 187z" />
<glyph unicode="&#xe8;" horiz-adv-x="894" d="M133 293q0 243 143 436q124 166 302 233q90 35 188 35q57 0 103 -15t79 -61.5t33 -96.5t-8 -80.5t-19 -55.5q-20 -40 -43 -67q-113 -143 -375 -190q-73 -13 -141 -23q-4 -66 5.5 -123.5t64.5 -104.5q16 -12 45 -29.5t76 -17.5q116 0 278 156l58 -53q-160 -149 -250 -196 q-110 -58 -226 -58q-96 0 -179 50q-92 55 -124 173q-10 44 -10 88zM403 471q99 16 156 46t95 78t60 95q38 84 38 153.5t-58 69.5q-37 0 -68 -18q-48 -29 -106 -127q-64 -104 -84.5 -177t-32.5 -120zM416 1466h278l109 -336h-131z" />
<glyph unicode="&#xe9;" horiz-adv-x="894" d="M133 293q0 243 143 436q124 166 302 233q90 35 188 35q57 0 103 -15t79 -61.5t33 -96.5t-8 -80.5t-19 -55.5q-20 -40 -43 -67q-113 -143 -375 -190q-73 -13 -141 -23q-4 -66 5.5 -123.5t64.5 -104.5q16 -12 45 -29.5t76 -17.5q116 0 278 156l58 -53q-160 -149 -250 -196 q-110 -58 -226 -58q-96 0 -179 50q-92 55 -124 173q-10 44 -10 88zM403 471q99 16 156 46t95 78t60 95q38 84 38 153.5t-58 69.5q-37 0 -68 -18q-48 -29 -106 -127q-64 -104 -84.5 -177t-32.5 -120zM543 1141l172 332h284l-331 -334z" />
<glyph unicode="&#xea;" horiz-adv-x="894" d="M133 293q0 243 143 436q124 166 302 233q90 35 188 35q57 0 103 -15t79 -61.5t33 -96.5t-8 -80.5t-19 -55.5q-20 -40 -43 -67q-113 -143 -375 -190q-73 -13 -141 -23q-4 -66 5.5 -123.5t64.5 -104.5q16 -12 45 -29.5t76 -17.5q116 0 278 156l58 -53q-160 -149 -250 -196 q-110 -58 -226 -58q-96 0 -179 50q-92 55 -124 173q-10 44 -10 88zM385 1133q96 86 139 134t72 76l123 123h233l92 -333h-126l-107 178l-291 -181zM403 471q99 16 156 46t95 78t60 95q38 84 38 153.5t-58 69.5q-37 0 -68 -18q-48 -29 -106 -127q-64 -104 -84.5 -177 t-32.5 -120z" />
<glyph unicode="&#xeb;" horiz-adv-x="894" d="M133 293q0 243 143 436q124 166 302 233q90 35 188 35q57 0 103 -15t79 -61.5t33 -96.5t-8 -80.5t-19 -55.5q-20 -40 -43 -67q-113 -143 -375 -190q-73 -13 -141 -23q-4 -66 5.5 -123.5t64.5 -104.5q16 -12 45 -29.5t76 -17.5q116 0 278 156l58 -53q-160 -149 -250 -196 q-110 -58 -226 -58q-96 0 -179 50q-92 55 -124 173q-10 44 -10 88zM401 1325q0 33 10.5 54t38 49t64.5 31t60.5 -3t45.5 -24q52 -46 52 -111q0 -46 -25.5 -73t-48.5 -42.5t-44 -15.5q-43 0 -69 11t-55 41t-29 83zM403 471q99 16 156 46t95 78t60 95q38 84 38 153.5t-58 69.5 q-37 0 -68 -18q-48 -29 -106 -127q-64 -104 -84.5 -177t-32.5 -120zM801 1323.5q0 49.5 33 89.5q43 55 130 47q23 -2 59 -30q50 -38 50 -107q0 -51 -41 -92t-94 -41q-25 0 -52.5 10t-56 42t-28.5 81.5z" />
<glyph unicode="&#xec;" horiz-adv-x="598" d="M143 146q0 48 25 137l131 450q0 2 9 28.5t8 56.5t-24.5 42t-84.5 14l18 54q222 24 297.5 41.5t128.5 29.5l-217 -743q0 -2 -8 -27.5t-8 -56.5t24 -31q21 0 35 11q26 22 92 112l52 -37q-36 -46 -59 -74t-32 -39q-60 -82 -153 -114q-35 -12 -69 -12q-50 0 -81 13t-48 34.5 t-25 44.5q-11 34 -11 66zM266 1466h279l108 -336h-131z" />
<glyph unicode="&#xed;" horiz-adv-x="598" d="M143 146q0 48 25 137l131 450q0 2 9 28.5t8 56.5t-24.5 42t-84.5 14l18 54q222 24 297.5 41.5t128.5 29.5l-217 -743q0 -2 -8 -27.5t-8 -56.5t24 -31q21 0 35 11q26 22 92 112l52 -37q-36 -46 -59 -74t-32 -39q-60 -82 -153 -114q-35 -12 -69 -12q-50 0 -81 13t-48 34.5 t-25 44.5q-11 34 -11 66zM393 1141l172 332h285l-330 -334z" />
<glyph unicode="&#xee;" horiz-adv-x="598" d="M129 1133q96 86 139 134t72 76l123 123h233l92 -333h-126l-107 178l-291 -181zM143 146q0 48 25 137l131 450q0 2 9 28.5t8 56.5t-24.5 42t-84.5 14l18 54q222 24 297.5 41.5t128.5 29.5l-217 -743q0 -2 -8 -27.5t-8 -56.5t24 -31q21 0 35 11q26 22 92 112l52 -37 q-36 -46 -59 -74t-32 -39q-60 -82 -153 -114q-35 -12 -69 -12q-50 0 -81 13t-48 34.5t-25 44.5q-11 34 -11 66z" />
<glyph unicode="&#xef;" horiz-adv-x="598" d="M143 146q0 48 25 137l131 450q0 2 9 28.5t8 56.5t-24.5 42t-84.5 14l18 54q222 24 297.5 41.5t128.5 29.5l-217 -743q0 -2 -8 -27.5t-8 -56.5t24 -31q21 0 35 11q26 22 92 112l52 -37q-36 -46 -59 -74t-32 -39q-60 -82 -153 -114q-35 -12 -69 -12q-50 0 -81 13t-48 34.5 t-25 44.5q-11 34 -11 66zM199 1325q0 33 10 54t38 49t65 31t60 -3t44 -24q53 -46 53 -111q0 -46 -25.5 -73t-48 -42.5t-43.5 -15.5q-45 0 -70.5 11t-54 41t-28.5 83zM598 1323.5q0 49.5 33 90.5q44 53 131 46q24 -2 59 -30q49 -38 49 -107q0 -51 -41 -92t-94 -41 q-25 0 -52.5 10t-56 42t-28.5 81.5z" />
<glyph unicode="&#xf1;" horiz-adv-x="1110" d="M88 10l201 703q2 4 10 33.5t8 59.5t-24.5 44t-87.5 16l22 56q63 10 124.5 19t116.5 19q92 18 185 39l-74 -276q12 16 35 47t58 66q96 96 234 138q38 11 82 11t72.5 -15.5t45.5 -37.5q28 -37 28 -78q0 -65 -24 -135l-144 -440q-22 -44 -22 -85.5t31 -41.5q20 0 30 9 t23.5 22.5t27 28.5t25.5 29.5t19 20.5l47 -43q-14 -16 -26.5 -31.5t-24 -28.5t-36 -39t-61.5 -54q-93 -72 -194 -72q-97 0 -131 69q-15 37 -15 75q0 54 27 122l129 397q10 35 17 58.5t7 46.5t-17 31t-33 8t-50.5 -20.5t-71.5 -61.5q-118 -125 -196 -371l-105 -338h-268z M401 1221q10 16 21.5 29.5t41 53t75 80.5t112.5 41q45 0 122 -27q133 -48 169.5 -48t51 2t30.5 10q24 12 90 63l57 -43q-14 -16 -26 -32.5t-29 -32.5q-72 -84 -118 -113.5t-85 -29.5t-87 18t-104 40q-81 30 -122 30t-69.5 -19.5t-67.5 -60.5z" />
<glyph unicode="&#xf2;" horiz-adv-x="1024" d="M142 324.5q-1 50.5 3.5 93.5t16.5 94q29 124 95 215.5t131 143t128 79.5q109 49 186 49q101 0 146 -20t82 -45t70 -65q77 -95 77 -230q0 -147 -79 -303q-50 -100 -115.5 -176t-174 -125t-216 -49t-168 32.5t-101 75.5t-60.5 111.5t-21 119zM395 142q8 -43 61 -70 q17 -9 41 -9q72 0 129 83q25 38 78.5 162t79 258t25.5 192.5t-8 85.5t-32 46t-56 19q-65 0 -113 -57q-29 -29 -47 -70t-47 -118q-139 -373 -111 -522zM479 1466h279l108 -336h-131z" />
<glyph unicode="&#xf3;" horiz-adv-x="1024" d="M142 324.5q-1 50.5 3.5 93.5t16.5 94q29 124 95 215.5t131 143t128 79.5q109 49 186 49q101 0 146 -20t82 -45t70 -65q77 -95 77 -230q0 -147 -79 -303q-50 -100 -115.5 -176t-174 -125t-216 -49t-168 32.5t-101 75.5t-60.5 111.5t-21 119zM395 142q8 -43 61 -70 q17 -9 41 -9q72 0 129 83q25 38 78.5 162t79 258t25.5 192.5t-8 85.5t-32 46t-56 19q-65 0 -113 -57q-29 -29 -47 -70t-47 -118q-139 -373 -111 -522zM606 1141l172 332h285l-330 -334z" />
<glyph unicode="&#xf4;" horiz-adv-x="1024" d="M142 324.5q-1 50.5 3.5 93.5t16.5 94q29 124 95 215.5t131 143t128 79.5q109 49 186 49q101 0 146 -20t82 -45t70 -65q77 -95 77 -230q0 -147 -79 -303q-50 -100 -115.5 -176t-174 -125t-216 -49t-168 32.5t-101 75.5t-60.5 111.5t-21 119zM395 142q8 -43 61 -70 q17 -9 41 -9q72 0 129 83q25 38 78.5 162t79 258t25.5 192.5t-8 85.5t-32 46t-56 19q-65 0 -113 -57q-29 -29 -47 -70t-47 -118q-139 -373 -111 -522zM408 1133q27 25 52 48t52 51t52.5 55.5t55 57t59.5 60.5t60 61h234l92 -333h-127l-104 178l-293 -181z" />
<glyph unicode="&#xf5;" horiz-adv-x="1024" d="M142 324.5q-1 50.5 3.5 93.5t16.5 94q29 124 95 215.5t131 143t128 79.5q109 49 186 49q101 0 146 -20t82 -45t70 -65q77 -95 77 -230q0 -147 -79 -303q-50 -100 -115.5 -176t-174 -125t-216 -49t-168 32.5t-101 75.5t-60.5 111.5t-21 119zM358 1221q10 16 21.5 29.5 t41 53t75 80.5t112.5 41q45 0 122 -27q133 -48 169.5 -48t51 2t30.5 10q24 12 90 63l57 -43q-14 -16 -26 -32.5t-27 -32.5q-74 -84 -120 -113.5t-85 -29.5t-87 18t-105 40q-80 30 -121 30t-69.5 -19.5t-67.5 -60.5zM395 142q8 -43 61 -70q17 -9 41 -9q72 0 129 83 q25 38 78.5 162t79 258t25.5 192.5t-8 85.5t-32 46t-56 19q-65 0 -113 -57q-29 -29 -47 -70t-47 -118q-139 -373 -111 -522z" />
<glyph unicode="&#xf6;" horiz-adv-x="1024" d="M141 356.5q0 26.5 6.5 83t28.5 124.5q51 160 174 278q172 159 375 159q118 -3 217 -71q62 -49 85 -91q48 -84 48 -195q0 -214 -135 -411q-82 -113 -200.5 -179t-258.5 -66q-145 0 -233 84q-97 92 -105 226q-2 32 -2 58.5zM392 203q-1 -55 11.5 -80t32.5 -38 q41 -27 100 -10q55 16 114 114q49 84 81.5 192t42.5 146t15.5 57.5t10.5 46.5q13 70 13 119t-6 86.5t-41 60.5q-20 14 -51 14l-41 -6q-39 -14 -64.5 -44t-49.5 -69q-66 -105 -101 -255q-16 -32 -33.5 -119.5t-21.5 -109.5q-11 -50 -12 -105zM492 1349.5q4 20.5 12 39 t26 37.5q42 44 104 44t105 -40.5t43 -100.5q0 -59 -44 -101t-89 -42t-73.5 15.5t-48 40t-29.5 56t-6 52zM870 1355q8 48 51.5 80.5t99.5 32.5t98 -41t42 -100t-43 -101t-102 -42q-80 0 -128 79q-26 44 -18 92z" />
<glyph unicode="&#xf7;" d="M96 514v162h1366v-162h-1366zM666 298q0 48 33.5 82t82.5 34t83 -34t33 -83t-35 -82t-82 -32t-81.5 34t-33.5 81zM666 891q0 49 33.5 84t82.5 33t83 -36t33 -82t-35 -81t-82 -32t-81.5 33t-33.5 81z" />
<glyph unicode="&#xf8;" horiz-adv-x="1024" d="M78 -61l129 157q-57 82 -66.5 141.5t-9.5 143.5t38 194.5t114 203.5t195.5 154.5t248.5 61.5q59 0 99 -14t94 -41l122 145l58 -47l-121 -147q10 -16 20.5 -32.5t22.5 -38.5q43 -79 43 -173t-16.5 -162.5t-40.5 -122.5q-40 -92 -93 -153q-82 -100 -198.5 -164.5 t-249.5 -62.5q-82 0 -128 23.5t-75 41.5l-129 -156zM383 188q0 -32 7 -59t34 -46.5t54 -19.5q90 0 150 103q13 24 58 122q68 143 111 388zM397 319q23 25 43.5 48.5t45 51.5t49 59.5t64.5 81t95.5 113.5t108.5 130q-2 8 -5 26.5t-12 34.5q-25 43 -79 43q-93 0 -152 -109 q-65 -119 -104.5 -259t-53.5 -220z" />
<glyph unicode="&#xf9;" horiz-adv-x="1110" d="M129 126q0 64 29 153l139 446q6 20 12 39.5t6 42.5q0 63 -112 57l24 60q198 22 437 73l-226 -690q-20 -70 -20 -94q0 -18 10 -31.5t36 -13.5t75 46t91 102.5t76 119.5q64 123 107 262l86 283q97 -10 140 -10q72 0 128 4l-206 -707l-9 -28q-8 -23 -8 -55.5t23 -32.5 q21 0 35 14q21 21 81 106l52 -39q-159 -239 -330 -239q-37 0 -63 9t-54.5 34.5t-27.5 74.5q2 63 36 179q-63 -90 -128 -164q-76 -87 -205 -128q-35 -11 -66 -11q-47 0 -63.5 7t-33 18.5t-32.5 28.5q-39 41 -39 84zM522 1466h279l108 -336h-131z" />
<glyph unicode="&#xfa;" horiz-adv-x="1110" d="M129 126q0 64 29 153l139 446q6 20 12 39.5t6 42.5q0 63 -112 57l24 60q198 22 437 73l-226 -690q-20 -70 -20 -94q0 -18 10 -31.5t36 -13.5t75 46t91 102.5t76 119.5q64 123 107 262l86 283q97 -10 140 -10q72 0 128 4l-206 -707l-9 -28q-8 -23 -8 -55.5t23 -32.5 q21 0 35 14q21 21 81 106l52 -39q-159 -239 -330 -239q-37 0 -63 9t-54.5 34.5t-27.5 74.5q2 63 36 179q-63 -90 -128 -164q-76 -87 -205 -128q-35 -11 -66 -11q-47 0 -63.5 7t-33 18.5t-32.5 28.5q-39 41 -39 84zM649 1141l172 332h285l-330 -334z" />
<glyph unicode="&#xfb;" horiz-adv-x="1110" d="M129 126q0 64 29 153l139 446q6 20 12 39.5t6 42.5q0 63 -112 57l24 60q198 22 437 73l-226 -690q-20 -70 -20 -94q0 -18 10 -31.5t36 -13.5t75 46t91 102.5t76 119.5q64 123 107 262l86 283q97 -10 140 -10q72 0 128 4l-206 -707l-9 -28q-8 -23 -8 -55.5t23 -32.5 q21 0 35 14q21 21 81 106l52 -39q-159 -239 -330 -239q-37 0 -63 9t-54.5 34.5t-27.5 74.5q2 63 36 179q-63 -90 -128 -164q-76 -87 -205 -128q-35 -11 -66 -11q-47 0 -63.5 7t-33 18.5t-32.5 28.5q-39 41 -39 84zM418 1133q27 25 52.5 48t52 51t52 55.5t54.5 55.5l123 123 h231l92 -333h-127l-104 178l-291 -181z" />
<glyph unicode="&#xfc;" horiz-adv-x="1110" d="M125 131q0 63 29 150l139 446q0 4 9 29.5t9 48.5t-15 41q-21 24 -97 18l22 62q146 11 245 32t189 41l-225 -690q-20 -63 -20 -87q0 -56 39 -56q15 0 30 10q29 12 51.5 33.5t50 52.5t66.5 86t69 114q57 114 97 257l74 262q82 -10 146.5 -10t121.5 4l-205 -705 q-4 -14 -6 -28.5t-8 -32.5t-6 -31q4 -29 35 -28q8 0 20 6q31 23 90 112l49 -35q-49 -75 -88 -118t-105.5 -85t-137.5 -42q-22 0 -48 10q-90 34 -90 131q0 31 9.5 67.5t25.5 98.5q-86 -122 -127 -166q-80 -84 -178 -123q-57 -20 -100 -20q-86 0 -133 67q-27 37 -27 78z M492 1349.5q8 59.5 49 92.5t97 32t98 -39t42 -98.5t-42 -100.5t-103 -40t-105 47t-36 106.5zM868 1350q8 49 53.5 84.5t100.5 35.5t94 -42t39 -99q0 -37 -18 -72q-41 -66 -123 -65q-18 0 -59.5 13t-68 54.5t-18.5 90.5z" />
<glyph unicode="&#xff;" horiz-adv-x="894" d="M-143 -210q0 64 37.5 100t81.5 36q64 0 100.5 -28.5t58 -48t44.5 -19.5t42 10t32 23.5t22.5 25t11.5 13.5q-6 371 -12.5 505.5t-14.5 233t-15 131.5t-23 54q-32 41 -132 34l27 58q45 8 88 14t85 16t83 19.5t82 19.5q43 -57 65 -260q17 -205 20 -340t5 -184 q118 148 155 207t68 111q66 111 66 157q0 20 -13 37q-16 27 -44.5 37t-42.5 25q-34 38 -34 85q0 26 16 61q34 70 124 70q50 0 86 -27q67 -53 67 -143q0 -66 -21 -117q-65 -163 -236 -394q-47 -64 -91.5 -114.5t-72 -83t-58.5 -70.5t-62 -75q-86 -105 -117.5 -136.5 t-66.5 -64t-74 -58.5q-92 -62 -163 -62t-122.5 39t-51.5 103zM348 1325q0 33 10 54t38 49t65 31q90 7 141 -71q16 -26 16 -51.5t-4 -48t-25 -45t-44 -38t-45 -15.5q-44 0 -69 11t-54 41t-29 83zM748 1323.5q0 49.5 33 89.5q43 55 131 47q22 -2 58 -30q48 -36 48 -107 q0 -53 -39 -92q-41 -41 -94 -41q-24 0 -52.5 10t-56.5 42t-28 81.5z" />
<glyph unicode="&#x152;" horiz-adv-x="2004" d="M244 461q0 134 28 230q54 188 174 362q145 209 322 297q143 72 238.5 81t136.5 11q61 3 139 -0.5t127 -5.5t89 -4t70 -2h62l277 2h153q76 0 154 -2q-59 -193 -92 -353h-64q-2 14 -3 28.5t-4 33.5q-11 72 -81 127q-88 69 -256 69q-47 0 -94 -2l-147 -536q16 0 45.5 -1 t66.5 4q94 13 141 41q88 55 124 123q10 17 22 50h74q-18 -53 -37 -106.5t-39 -117.5q-39 -132 -82 -288h-57q0 6 2 37.5t-7 70.5t-39 64.5t-70 36t-85 10.5t-86 -2l-10 -51l-123 -439q-8 -28 -8 -53q0 -76 120 -76q220 0 446 195q36 31 60.5 56.5t38.5 39.5l47 -29 q-75 -170 -95.5 -237.5t-39.5 -130.5l-487 10h-119q-84 0 -166 1t-157 -2t-142.5 -5t-134.5 -6q-23 2 -45.5 3t-52.5 6q-90 15 -183 89q-70 55 -98 113q-53 105 -53 258zM546.5 343.5q2.5 -56.5 4.5 -77t10 -44.5q21 -62 66 -99q54 -45 118 -45q84 0 156 63q66 57 109 163 q78 192 142.5 432.5t78.5 304.5q18 82 18 110q0 57 -8 77.5t-18.5 38t-27.5 33.5q-39 35 -108 35q-65 0 -130.5 -37t-111.5 -97t-75.5 -111.5t-46 -87t-28 -60t-28 -65.5t-35 -98.5t-36.5 -124t-35 -160.5t-14.5 -150.5z" />
<glyph unicode="&#x153;" horiz-adv-x="1409" d="M131 344q0 133 55.5 262t137.5 212q181 183 385 183q162 0 241 -95q13 -17 35 -48l55 49q112 90 224 90q120 0 184 -75q43 -48 43 -136q0 -89 -47 -162t-101.5 -109t-116.5 -55q-98 -31 -268 -46q-16 -62 -16 -88q0 -54 12 -76q18 -41 59.5 -64.5t68.5 -23.5q64 0 105 18 q70 30 173 137l49 -45q-29 -35 -55.5 -67.5t-66.5 -73.5t-87 -71.5t-90 -47.5q-72 -30 -149 -30q-111 0 -177 49q-24 15 -49 55q-68 -43 -135.5 -74.5t-150.5 -31.5q-122 0 -211 83q-107 100 -107 281zM380 134q9 -37 58 -55q13 -5 34 -5q101 0 186 230q133 356 133 476 q0 71 -39 110q-17 17 -37 17q-46 0 -80 -25q-117 -90 -217 -458q-57 -213 -38 -290zM973 492q74 4 107.5 16t64.5 36t60.5 60.5t41.5 75.5q27 88 27 106q0 36 -8 54t-27.5 31.5t-45.5 13.5t-47.5 -15.5t-37.5 -40t-29.5 -54.5t-25.5 -56z" />
<glyph unicode="&#x178;" horiz-adv-x="1323" d="M307 6l17 62q81 3 123 21t66 66t40 101l115 401l-152 549q-19 64 -33 89.5t-35.5 43t-43.5 25.5q-32 12 -76 12l26 64q156 -8 277 -8t204 2t169 4l-19 -62q-81 0 -117 -22q-4 -4 -14 -12.5t-18 -23.5q-11 -21 -11 -53q0 -49 19 -118l108 -408l314 391q16 20 30.5 42 t27.5 42q34 54 34 72t-2 28.5t-23 31.5q-31 32 -125 32l21 60h471l-19 -56q-18 -4 -31.5 -6t-30.5 -10t-37.5 -24.5t-41.5 -35.5q-36 -35 -70 -77l-499 -611l-105 -358q-18 -62 -18 -111.5t36 -64t130 -16.5l-21 -62q-118 8 -231 4l-137 -2q-61 0 -123 3t-100 1 q-75 -4 -95 -6zM666 1681.5q0 41.5 8 65t43 64t119 31.5q58 -6 100 -70q20 -29 20 -58.5t-4 -55.5t-36 -60q-43 -46 -107 -46q-10 0 -37 4.5t-66.5 44t-39.5 81zM1190 1702q0 31 11 54.5t43 54t76 32.5q60 3 103 -28q56 -45 56 -117q0 -54 -26 -84q-55 -62 -118 -62 q-42 4 -63 14.5t-51.5 44.5t-30.5 91z" />
<glyph unicode="&#x2c6;" horiz-adv-x="555" d="M-61 1133q27 25 52 48t52 51t52.5 55.5t54.5 56.5q87 89 120 122h234l92 -333h-127l-107 178l-290 -181z" />
<glyph unicode="&#x2dc;" horiz-adv-x="555" d="M-47 1221q10 16 21.5 29.5t41 53t74.5 80.5t113 41q43 0 129 -28q122 -47 182 -47q50 0 85.5 25.5t66.5 49.5l57 -43q-14 -16 -26.5 -32.5t-56.5 -66.5q-96 -109 -177 -109q-37 0 -85 18t-104 40q-81 30 -122 30t-70 -19.5t-68 -60.5z" />
<glyph unicode="&#x2000;" horiz-adv-x="943" />
<glyph unicode="&#x2001;" horiz-adv-x="1886" />
<glyph unicode="&#x2002;" horiz-adv-x="943" />
<glyph unicode="&#x2003;" horiz-adv-x="1886" />
<glyph unicode="&#x2004;" horiz-adv-x="628" />
<glyph unicode="&#x2005;" horiz-adv-x="471" />
<glyph unicode="&#x2006;" horiz-adv-x="314" />
<glyph unicode="&#x2007;" horiz-adv-x="314" />
<glyph unicode="&#x2008;" horiz-adv-x="235" />
<glyph unicode="&#x2009;" horiz-adv-x="377" />
<glyph unicode="&#x200a;" horiz-adv-x="104" />
<glyph unicode="&#x2010;" horiz-adv-x="724" d="M160 481l63 217l568 -2q-17 -80 -35.5 -134t-26.5 -81h-569z" />
<glyph unicode="&#x2011;" horiz-adv-x="724" d="M160 481l63 217l568 -2q-17 -80 -35.5 -134t-26.5 -81h-569z" />
<glyph unicode="&#x2012;" horiz-adv-x="724" d="M160 481l63 217l568 -2q-17 -80 -35.5 -134t-26.5 -81h-569z" />
<glyph unicode="&#x2013;" horiz-adv-x="980" d="M150 481l65 217h850l-68 -217h-847z" />
<glyph unicode="&#x2014;" d="M96 518v162h1366v-162h-1366z" />
<glyph unicode="&#x2018;" horiz-adv-x="512" d="M342 1042q0 88 41 148.5t80 97.5t84 66q77 51 186 102l33 -61q-95 -49 -121.5 -70.5t-46.5 -41.5q-43 -45 -43 -64q0 -39 28.5 -61.5t42.5 -35.5q52 -53 52 -116q0 -20 -12 -62q-50 -100 -148 -100q-79 0 -128 60q-48 59 -48 138z" />
<glyph unicode="&#x2019;" horiz-adv-x="512" d="M305 911q103 50 127.5 70t38.5 37q2 0 15.5 13t21.5 25q12 19 12 32.5t-4 22.5t-11 23t-25.5 30t-40.5 42q-38 44 -38 97q0 27 9 47q16 53 59 82.5t87 29.5q68 0 101 -26q41 -25 61.5 -73t20.5 -94q0 -133 -125 -251q-63 -59 -132.5 -96t-145.5 -72z" />
<glyph unicode="&#x201a;" horiz-adv-x="512" d="M10 -254q131 64 196 148q15 18 15 34t-10 35.5t-29.5 34t-39.5 34.5q-44 44 -44 107q0 31 15.5 69t54.5 65.5t92 27.5q84 0 129 -60.5t45 -140.5q0 -73 -52 -160t-147.5 -147.5t-193.5 -107.5z" />
<glyph unicode="&#x201c;" horiz-adv-x="980" d="M319 1041q0 71 20.5 114t41.5 75t59.5 68.5t83.5 67.5t94.5 55.5t96.5 48.5l30 -59q-210 -120 -210 -184q2 -35 24.5 -51.5t50.5 -45.5q47 -46 47 -120q0 -30 -16 -67.5t-57 -62t-87 -24.5t-79 16.5t-54 43.5q-45 54 -45 125zM801 1055q0 82 59 170t150.5 143t187.5 100 l27 -61q-120 -65 -164.5 -111.5t-44.5 -62.5q0 -19 10 -36t28.5 -34.5t38.5 -38.5q48 -50 47 -117t-49.5 -109t-123 -42t-121.5 59.5t-45 139.5z" />
<glyph unicode="&#x201d;" horiz-adv-x="980" d="M307 903q125 62 176 119q12 14 24.5 29.5t12.5 32.5t-10 31.5t-23.5 28t-28.5 26.5q-61 58 -61 128t48.5 113t123 43t119.5 -59.5t45 -139.5q0 -136 -133 -256q-80 -69 -260 -159zM786 901q55 29 96.5 54.5t70 58.5t35.5 45t7 26t-5 23.5t-12 20.5t-25.5 26.5t-40.5 40.5 q-35 41 -35 98q0 107 95 150q27 12 52 12q60 0 93.5 -18t52 -44t28.5 -52q16 -43 16 -82t-14 -80t-38 -80q-58 -98 -162 -160q-117 -69 -183 -98z" />
<glyph unicode="&#x201e;" horiz-adv-x="980" d="M-4 -254q209 117 209 184q0 29 -21.5 49.5t-34 32t-22.5 22.5q-43 47 -43 105q0 34 14 66q45 98 137.5 98t138.5 -61.5t46 -141.5q0 -116 -103 -225q-61 -66 -138 -108.5t-154 -77.5zM475 -256q100 51 133 82t45 45q33 39 33 59t-16.5 36t-28.5 28t-18.5 18t-14.5 16 q-45 53 -45 119t47 110t101.5 44t87 -17.5t55.5 -45.5q47 -56 47 -130q0 -128 -108 -241q-63 -66 -136 -106t-153 -74z" />
<glyph unicode="&#x2022;" horiz-adv-x="681" d="M172 723q0 53 25.5 114.5t94 106.5t137 45t117 -20.5t84.5 -56.5q75 -73 75 -182q0 -55 -15.5 -96.5t-33 -68t-46.5 -49.5q-70 -59 -168 -59q-109 0 -190 75q-80 75 -80 191z" />
<glyph unicode="&#x2026;" horiz-adv-x="2048" d="M322 104q0 19 11 47.5t40.5 48t71.5 19.5t75 -34t33 -81t-33 -81.5t-82 -34.5t-82.5 33.5t-33.5 82.5zM1006 104q0 66 52 97q29 18 70 18t75 -34t34 -81t-33 -81.5t-82 -34.5t-82.5 33.5t-33.5 82.5zM1688 103q0 48 34.5 82t82.5 34t81 -34t33 -81t-33 -81.5t-81 -34.5 t-82.5 33.5t-34.5 81.5z" />
<glyph unicode="&#x202f;" horiz-adv-x="377" />
<glyph unicode="&#x205f;" horiz-adv-x="471" />
<glyph unicode="&#x2122;" horiz-adv-x="1579" d="M145 1264q7 76 11 182l213 -2q136 -3 364 2q5 -129 10 -182h-71q-26 80 -51 94q-15 12 -56 12h-51v-440q0 -64 8 -72t15.5 -10t14.5 -4t13 -2l41 -4v-72q-162 6 -323 0v72l34 4q23 0 39 8q19 14 19 80v440h-53q-33 0 -58 -13t-47 -93h-72zM788 766v72l23 2q37 4 45 22.5 t8 71.5v420q-20 20 -65 20l2 72q31 -2 63 -2h62l71 2l199 -490l207 490h199v-72l-17 -2q-25 0 -43 -10t-18 -57v-424q0 -20 11 -29q8 -7 54 -14v-72q-122 6 -167 5t-99 -5v72h14q41 0 46.5 16t5.5 39v326l-189 -453h-53l-189 457v-289q0 -70 17 -82q8 -8 23.5 -10t23.5 -4 h16v-72q-125 2 -250 0z" />
<glyph unicode="&#xe000;" horiz-adv-x="995" d="M0 0v995h995v-995h-995z" />
<glyph unicode="&#xfb01;" horiz-adv-x="1236" d="M-250 -204.5q0 26.5 13.5 45t30.5 29.5q28 17 63 17t64.5 -20.5t29.5 -54.5l-14 -64q0 -31 22 -31q19 0 36 23q27 36 56 125l297 973h-180l39 125l69 2h26q41 0 67 26q41 31 63.5 82t41.5 89q83 165 240 260q109 65 236 65q115 0 156 -70q20 -39 20 -60q0 -48 -9 -63.5 t-34.5 -37t-75.5 -21.5t-68.5 28.5t-18.5 44.5q0 20 12 46q18 39 18 51q0 18 -22 18q-41 0 -78 -30q-61 -53 -105.5 -159t-97.5 -269l187 2l-43 -127l-173 -4q-95 -343 -132 -448q-82 -235 -117 -321q-52 -125 -81.5 -168.5t-57 -80.5t-72.5 -74q-112 -92 -240 -92 q-127 0 -160 93q-8 24 -8 50.5zM779 144q1 53 26 132l133 455q18 54 18 84q0 42 -47 51q-22 4 -61 8l16 54q61 8 122 15q143 16 300 54l-213 -739q-4 -16 -10 -36.5t-6 -50.5t24 -30q21 0 35 11q26 22 92 112l52 -37q-118 -149 -157 -178q-80 -61 -163 -61q-36 0 -76.5 16 t-63 57t-21.5 83zM1052 1348q8 54 21 67q10 20 41 47t93.5 26t107.5 -43t45 -106.5t-46 -108.5t-112 -44q-82 0 -129 82q-26 47 -21 80z" />
<glyph unicode="&#xfb02;" horiz-adv-x="1236" d="M-250 -204.5q0 26.5 13.5 45t30.5 29.5q28 17 63 17t64.5 -20.5t29.5 -54.5l-14 -64q0 -31 22 -31q19 0 36 23q27 36 56 125l297 973h-180l39 125l69 2h26q41 0 67 26q41 31 63.5 82t41.5 89q83 165 240 260q109 65 236 65q115 0 156 -70q20 -39 20 -60q0 -48 -9 -63.5 t-34.5 -37t-75.5 -21.5t-68.5 28.5t-18.5 44.5q0 20 12 46q18 39 18 51q0 18 -22 18q-41 0 -78 -30q-61 -53 -105.5 -159t-97.5 -269l187 2l-43 -127l-173 -4q-95 -343 -132 -448q-82 -235 -117 -321q-52 -125 -81.5 -168.5t-57 -80.5t-72.5 -74q-112 -92 -240 -92 q-127 0 -160 93q-8 24 -8 50.5zM776 133q0 62 27 148q272 921 275 931.5l7 24.5q11 33 11 57q-3 71 -115 60l22 61q255 26 426 66l-354 -1202q-2 -8 -10 -32t-8 -59.5t24 -35.5q35 0 72 49t53 69l53 -41q-14 -16 -27 -34.5t-23.5 -30.5t-34 -39t-60.5 -57 q-93 -74 -172.5 -74t-122.5 37t-43 102z" />
</font>
</defs>
</svg>
