<?xml version="1.0" standalone="no"?>
<!DOCTYPE svg PUBLIC "-//W3C//DTD SVG 1.1//EN" "http://www.w3.org/Graphics/SVG/1.1/DTD/svg11.dtd" >
<svg xmlns="http://www.w3.org/2000/svg">
<metadata></metadata>
<defs>
<font id="times_bqregular" horiz-adv-x="1366" >
<font-face units-per-em="2048" ascent="1638" descent="-410" />
<missing-glyph horiz-adv-x="555" />
<glyph horiz-adv-x="0" />
<glyph unicode="&#xd;" horiz-adv-x="0" />
<glyph horiz-adv-x="0" />
<glyph horiz-adv-x="0" />
<glyph unicode=" "  horiz-adv-x="555" />
<glyph unicode="&#x09;" horiz-adv-x="555" />
<glyph unicode="&#xa0;" horiz-adv-x="555" />
<glyph unicode="!" horiz-adv-x="598" d="M193 98q0 39 11 59.5t28 34.5q75 61 154 -10q28 -24 28 -78q0 -56 -60 -92q-18 -12 -42.5 -12t-42 5t-47 29.5t-29.5 63.5zM317 350q134 495 157 759q16 186 31 230t31.5 70.5t39.5 35.5q32 13 48 13q26 0 39 -9t34.5 -34.5t21.5 -54.5q0 -61 -26.5 -123.5t-37.5 -89.5 l-86 -203q-63 -150 -107 -301t-85 -305z" />
<glyph unicode="&#x22;" horiz-adv-x="811" d="M219 1426.5q-2 13.5 2 35t16.5 36.5t26.5 24q22 12 39 12q39 0 59 -14q33 -20 35 -48t2 -38l-71 -523h-39l-68 498q0 4 -2 17.5zM604 1452.5q4 30.5 16.5 45.5t27.5 24q21 12 50 12q26 0 54.5 -17t30 -45t1.5 -38l-73 -523h-39l-66 498q-6 13 -2 43.5z" />
<glyph unicode="#" d="M182 530v111h359l26 199h-342v116h357l65 494h129l-69 -494h204l66 494h123l-70 -494h344v-116h-358l-27 -199h344v-111h-356l-74 -530h-125l78 530h-209l-78 -530h-118l73 530h-342zM662 641h206l27 199h-205z" />
<glyph unicode="$" horiz-adv-x="1024" d="M78 129l90 363l45 -13q-20 -106 -20 -129q0 -150 103 -214q54 -34 89 -43t39 -9l154 580q-58 53 -89.5 80.5t-65.5 60.5t-65 77q-79 110 -79 224q0 95 47 176q18 33 71 86q99 90 238 95q29 1 50 1t108 -6l53 197l92 -2l-55 -213q145 -51 213 -104q26 -19 51 -46l-84 -319 l-41 12q6 49 6 107q0 98 -49 165q-10 12 -18.5 22.5t-17.5 18.5q-23 20 -85 54l-139 -531q4 -4 24.5 -23.5t46.5 -45.5q97 -97 125.5 -138t46.5 -78q48 -93 48 -161t-17.5 -115t-42.5 -85q-61 -91 -136 -127q-15 -7 -44 -17q-92 -37 -165 -38t-105 1l-54 -203h-100l57 213 q-112 24 -154 41q-70 27 -171 86zM487 1155q0 -117 105 -221q20 -21 47 -47l131 485q-132 26 -225 -67q-58 -58 -58 -150zM524 78q41 4 79 12t73 38t59.5 64.5t32.5 69.5q12 52 12 86q0 96 -71 187q-14 16 -25.5 26t-28.5 27z" />
<glyph unicode="%" horiz-adv-x="1536" d="M223 825q0 239 115 437q6 8 18.5 27.5t31.5 42.5q96 116 222 124q31 2 64 -20.5t53.5 -47t46 -91t25.5 -152.5t-16.5 -161t-38.5 -138q-85 -233 -243 -306q-36 -16 -63 -16q-89 0 -138 56q-77 85 -77 245zM334 747.5q0 -84.5 12 -111.5q27 -61 74 -61q20 0 55 24 t58.5 59.5t51.5 102.5t45 136.5t25.5 105t13.5 55t9 46.5q12 79 12 113v13q0 63 -18 111q-6 12 -25.5 38t-48.5 23q-32 -3 -66 -28q-82 -60 -156 -370q-42 -172 -42 -256.5zM467 0q23 49 47.5 97t46.5 91.5t44 84t45.5 85.5t50 98.5t53.5 101.5t46 85t32.5 65.5t35.5 71.5 q49 99 108.5 211.5l119 225t118.5 229.5h95q-439 -839 -750 -1446h-92zM965 278.5q0 67.5 12 147.5t42 161t77 155.5t114 122.5t105 51q52 5 69 -3q74 -19 113 -96q47 -85 47 -223q0 -133 -61 -289q-76 -214 -225 -291q-46 -24 -78.5 -24t-50 3t-37.5 12q-79 35 -114 161 q-13 45 -13 112.5zM1073 184.5q0 -65.5 19 -97.5q27 -48 69 -48q23 0 53 20q41 31 60.5 67t35.5 64q50 89 107 342q21 93 21 163.5t-26 120.5t-79 46q-22 0 -49 -19t-48.5 -54t-38.5 -74q-70 -160 -113 -401q-11 -64 -11 -129.5z" />
<glyph unicode="&#x26;" horiz-adv-x="1409" d="M113 350q0 86 29.5 153.5t48 91t33 38l34 34t57 47t83.5 52.5q95 52 237 104q-8 66 -8 101.5t1 58.5t4 54q9 96 26.5 134.5t27.5 58.5q42 85 129 130q90 39 150 39q104 0 159 -74q41 -53 41 -139q0 -49 -19 -94t-47 -81t-57 -62q-50 -47 -87 -71q-63 -40 -140 -75 q18 -194 78 -377q15 -46 51 -121l22 30q113 158 113 249q0 49 -33 69q-12 7 -47 11h-51l10 45h449l-10 -43q-43 -4 -74 -12.5t-80 -49.5t-78.5 -97t-59.5 -104q-52 -84 -122 -180q119 -196 227 -196q23 0 52 8q40 11 90 70l49 -7q-8 -10 -15.5 -21t-19.5 -25.5t-34.5 -36 t-53.5 -40.5q-74 -47 -143 -47q-156 0 -285 158q-129 -103 -281 -137q-45 -10 -107.5 -10t-128 26.5t-114.5 74.5q-106 104 -106 263zM322 428q0 -212 143 -296q63 -36 127.5 -36t111 25.5t105.5 75.5q-50 104 -65 142t-28.5 81t-23.5 87t-18 86t-13.5 76t-9.5 65.5t-8 62.5 q-86 -31 -133 -57.5t-91 -69.5q-71 -70 -89 -174q-8 -39 -8 -68zM803 1047q0 -60 6 -121q39 20 80 46.5t58 53t27.5 48.5t19.5 50q24 68 24 114t-9.5 65.5t-26.5 31.5q-27 19 -59 19t-59 -35q-61 -79 -61 -272z" />
<glyph unicode="'" horiz-adv-x="425" d="M219 1426.5q-2 13.5 2 35t16.5 36.5t26.5 24q22 12 39 12q39 0 59 -14q33 -20 35 -48t2 -38l-71 -523h-39l-68 498q0 4 -2 17.5z" />
<glyph unicode="(" horiz-adv-x="724" d="M209 351.5q0 58.5 3 107.5t14 113q27 148 73 254q73 173 131.5 253t115 139.5t108.5 103.5q77 64 145.5 106.5t111.5 62.5t86 43l21 -47q-113 -73 -159 -112.5t-80 -71t-74.5 -79.5t-78.5 -106q-80 -123 -139 -299q-108 -356 -108 -620q0 -234 111 -404q30 -45 57 -82 l-41 -35q-102 114 -132 160q-127 196 -155 388q-10 67 -10 125.5z" />
<glyph unicode=")" horiz-adv-x="724" d="M-135 -262q35 20 109 66q129 79 262 249q113 162 174 348q57 166 79 316q31 202 31 300.5t-14 168t-38 126.5q-28 67 -108 189l41 31q80 -97 127 -165t81 -150t51 -151q24 -93 24 -218t-25.5 -238.5t-64.5 -207.5q-114 -277 -296 -442q-105 -97 -150.5 -128t-81.5 -52 q-83 -48 -183 -91z" />
<glyph unicode="*" horiz-adv-x="854" d="M274 1215q0 37 28 63.5t54 26.5q52 0 99 -54l114 -123q18 -20 29 -20q28 0 18 43q-4 16 -6 30.5t-6 30.5q-9 37 -22 65q-23 51 -22 88.5t23.5 67t62.5 29.5t61.5 -29.5t21.5 -59.5t-5 -48t-7 -29q-27 -60 -43 -135q-10 -10 -2 -28.5t17 -18.5q16 0 32 15q37 34 64 68 q46 55 77 78t56.5 23t45.5 -7t35 -29.5t15 -35.5q0 -31 -20 -56q-33 -41 -91 -54l-147 -33q-35 -9 -35 -28q0 -10 29 -27l149 -37q10 -4 20.5 -6t20.5 -8q43 -20 55.5 -51t12.5 -52.5t-25 -44t-59 -22.5q-52 0 -107 63q-41 58 -76 93q-43 43 -50 43t-15 -8.5t-6 -18.5t2 -12 l41 -156q12 -50 12 -76t-23.5 -54t-61.5 -28t-62.5 26t-23.5 52t6 43t9 33l43 149q2 4 2 8.5t1 22t-15 17.5q-6 0 -14 -6.5t-19 -12.5l-96 -104q-6 -6 -16.5 -18.5t-23.5 -24.5q-31 -27 -66.5 -27t-59.5 24.5t-24 55.5t15 49t33.5 29.5t35 16.5t20.5 7l145 33q10 4 22.5 11 t11.5 17q-1 15 -34 27l-149 41q-4 2 -25.5 7.5t-33.5 14.5q-48 34 -48 71z" />
<glyph unicode="+" d="M182 535v122h537v533h123v-533h534v-122h-534v-535h-123v535h-537z" />
<glyph unicode="," horiz-adv-x="512" d="M14 -195q78 43 122 78t44 78q0 24 -22 57q-31 39 -40 57.5t-9 36.5q0 48 14 66q41 53 100 53q39 0 66 -22q59 -39 59 -119q0 -65 -48 -138t-115.5 -122t-137.5 -90z" />
<glyph unicode="-" horiz-adv-x="641" d="M102 444l35 158h522l-34 -158h-523z" />
<glyph unicode="." horiz-adv-x="512" d="M109 129q0 39 37 78t108 36q25 -1 55 -26q47 -32 47 -98q0 -48 -30 -81q-39 -40 -76 -40q-86 0 -122 60q-19 32 -19 71z" />
<glyph unicode="/" horiz-adv-x="681" d="M80 0l602 1446h131l-598 -1446h-135z" />
<glyph unicode="0" horiz-adv-x="980" d="M152 431q0 126 16 218t38 171q50 187 104 279q14 23 24 40.5t20.5 34t25.5 38.5q47 71 71 96t51.5 50.5t63.5 50.5t80 42t77.5 18t74.5 -4q48 -6 120 -65q49 -39 88 -140t44 -178.5t5 -141.5q0 -157 -60 -356q-4 -10 -19 -59.5t-46 -116.5q-159 -341 -370 -413 q-44 -15 -98 -15t-97 20t-74 50q-55 54 -78 107q-61 148 -61 274zM307 284q0 -169 85 -228q34 -23 64 -23t52 10t42 25q34 25 47 41q70 86 110.5 174t59.5 144t39.5 126t43.5 165q61 245 61 412q0 23 -3 76.5t-27.5 99.5t-38 60t-23.5 25q-41 28 -76 25t-72.5 -21.5 t-83.5 -84.5q-71 -103 -128 -284q-95 -283 -137 -555q-15 -94 -15 -166v-21z" />
<glyph unicode="1" horiz-adv-x="980" d="M119 0l10 49q43 2 85 8t66 27q49 43 60 64q20 37 33 83l272 967q21 69 21 90.5t-14.5 41.5t-38 20t-60.5 -6.5t-74 -12.5l10 49q145 25 209 40q74 17 203 53l-354 -1254q-15 -30 -15 -76t34.5 -68t88.5 -22l52 -2l-13 -51h-575z" />
<glyph unicode="2" horiz-adv-x="980" d="M-6 0l8 35q49 43 103.5 88t92.5 78t124 116q55 43 165 164q120 120 217 269q105 160 105 313q0 151 -119 227q-41 27 -91 27t-80 -10.5t-55 -24.5q-35 -19 -64 -49t-38.5 -46t-31.5 -50l-39 18q29 61 58.5 109.5t76.5 92.5t106.5 78.5t151.5 34.5q81 0 126.5 -22.5 t91.5 -63t69.5 -110.5t23.5 -120q0 -204 -156 -408q-94 -122 -208 -237q-177 -178 -371 -351h203.5t96.5 1q61 3 97.5 14t60 31.5t39 42t23.5 41t13 27.5l43 -10l-131 -305h-711z" />
<glyph unicode="3" horiz-adv-x="980" d="M72 115q0 19 16 47q22 39 68.5 39t76 -13.5t89.5 -54.5q37 -20 67.5 -34.5t69.5 -14.5t87 26.5t76 69.5q60 92 60 258q0 146 -74 246q-38 51 -96 80q-62 26 -197 22l13 43q410 54 477 289q6 30 6 60q0 88 -54.5 135t-126 47t-116.5 -33t-65 -59q-16 -16 -41 -66l-39 19 q0 2 15 31q49 92 138 157q84 61 191 61q153 0 231 -100q57 -74 57 -168q0 -109 -77 -209q-59 -66 -125 -94.5t-125 -48.5q47 -31 81 -66t53 -76.5t28 -79.5q14 -54 14 -90t-3 -68t-13 -75q-50 -202 -216 -327q-96 -71 -267 -86q-23 -2 -37 -2h-34q-42 0 -88.5 15t-71.5 33 q-48 34 -48 87z" />
<glyph unicode="4" horiz-adv-x="980" d="M104 406l41 143q95 105 143 158t65.5 73.5t76.5 87t149.5 167t147.5 165.5q70 80 111 123q12 16 26 29q19 18 40.5 45.5t31.5 38t17.5 17.5t13.5 15l110 2l-260 -944h160l-33 -120h-160l-112 -406h-176l114 406h-506zM246 528h401l211 711q-64 -89 -163 -199t-134 -151 t-85 -98.5t-108.5 -124t-121.5 -138.5z" />
<glyph unicode="5" horiz-adv-x="980" d="M68 117v13q0 21 27.5 51t59.5 29t58.5 -20.5t54.5 -44.5q39 -27 69 -42t62 -15t75.5 10.5t98 59.5t82 104t39.5 106q17 68 17 142q0 161 -84 281q-82 115 -213 133q-33 4 -97 6l218 516h526l-70 -164h-463l-82 -195l50 -6q23 -4 75 -17t117 -63q4 -4 24.5 -21t47.5 -47 t65.5 -116t38.5 -207q0 -129 -62 -268q-57 -126 -168 -222q-46 -40 -77 -61.5t-104.5 -49t-173.5 -27.5h-19q-74 0 -106.5 19t-60 46t-25.5 70z" />
<glyph unicode="6" horiz-adv-x="980" d="M152 404.5q0 101.5 16 182.5t46 163q96 261 286 440q156 142 325 211q98 41 177 51t114 14v-41q-29 -6 -58.5 -12t-65.5 -18t-77 -35t-75.5 -47.5t-60 -46t-39.5 -34.5q-22 -19 -72 -75q-90 -110 -183 -264q35 16 82 36.5t105.5 20.5t98.5 -13t86 -50t87 -108.5t41 -163 t-12 -150.5t-29 -109q-32 -90 -74.5 -152t-82 -97t-66.5 -54.5t-59 -36.5q-78 -39 -161 -39t-139.5 33t-93 71t-76.5 130t-40 193.5zM310 336q-2 -97 16 -148t51 -84.5t52 -43.5q31 -15 63 -15q40 0 68 12q68 29 130 136q71 121 106 320q9 54 9 115q0 120 -78 189 q-52 45 -123 45q-68 0 -168 -59q-23 -55 -57.5 -142.5t-51.5 -185t-17 -139.5z" />
<glyph unicode="7" horiz-adv-x="980" d="M260 35l631 1182q8 20 14 28l8 23q0 18 -30 18h-287q-72 0 -111 -15.5t-60 -33.5q-30 -26 -55.5 -54.5t-35.5 -49.5t-15 -25l-38 18l168 320h655l20 -41q-79 -122 -122.5 -205.5t-75 -143t-66.5 -125t-108 -202.5q-104 -198 -396 -752z" />
<glyph unicode="8" horiz-adv-x="980" d="M131 309q0 118 86 232q81 91 162 139.5t137 77.5q-10 16 -14 19t-16 17q-22 25 -35.5 45.5t-29 46t-29.5 58.5q-34 84 -34 155q0 233 222 343q67 33 172 33q69 0 113.5 -18.5t77 -41t61.5 -56.5q67 -81 67 -188q0 -101 -65 -192q-40 -57 -119 -115q-73 -46 -139 -73 q194 -194 194 -388q0 -103 -62 -217q-61 -111 -195 -177q-69 -34 -167 -34t-164.5 29t-90 47t-46 42t-41.5 55q-45 72 -45 161zM285 301q0 -82 26 -135q33 -82 137 -117q35 -12 63.5 -12t48.5 2t44 9q56 17 94 59.5t61 88.5t23 102q0 64 -20 134q-29 80 -79 142.5 t-118 134.5q-4 0 -36.5 -16.5t-63.5 -38.5t-63.5 -55.5t-58.5 -78.5q-58 -100 -58 -219zM520 1184q0 -59 16.5 -104.5t41.5 -83.5q55 -87 83 -114.5t48 -47.5q89 62 112 85t34 39.5t22.5 32t20.5 32.5q38 72 38 159q0 120 -102 194q-39 29 -111 29q-70 0 -133 -55 q-70 -65 -70 -166z" />
<glyph unicode="9" horiz-adv-x="980" d="M104 12q146 51 188 79t65 43q146 95 272 257q34 41 96 146q-20 -8 -73.5 -29t-93.5 -21t-66.5 3.5t-58.5 14.5q-81 28 -134 101q-80 104 -80 271q0 74 12 122.5t32 96t41 87.5q36 67 67.5 103.5t63.5 66t74 55.5q100 62 202 62q152 0 241 -133q22 -22 42 -66 q50 -114 50 -253q0 -104 -16 -178t-41.5 -156t-82 -182.5t-152 -204.5t-220 -170.5t-226 -97.5t-202.5 -58v41zM399 814q0 -34 12.5 -78t23.5 -61t24.5 -33.5t32.5 -33.5q47 -39 104 -39q100 0 170 58q47 127 87 254t40 256v23q0 110 -51 186q-43 63 -119 63 q-100 0 -191 -131q-85 -123 -124 -343q-9 -54 -9 -79v-42z" />
<glyph unicode=":" horiz-adv-x="598" d="M195 126q0 40 34.5 77t84 42.5t102.5 -45.5q30 -28 30 -71q0 -62 -28 -90q-37 -47 -96 -47q-76 0 -109 61q-18 33 -18 73zM403 891q0 15 8.5 37.5t35 51t74.5 30.5t92 -30.5t44 -98.5q0 -21 -9 -40t-37.5 -49t-79.5 -29t-88 37t-40 91z" />
<glyph unicode=";" horiz-adv-x="598" d="M111 -203q20 12 38.5 25.5t32.5 22.5t27.5 18.5t26.5 24.5q34 35 34 59q0 34 -26 73q-16 25 -30.5 49.5t-14.5 48.5q0 36 14 58.5t44 38.5t51 16t43 -7t41 -24q44 -39 44 -90t-10 -81.5t-24 -56.5q-48 -83 -160 -171q-27 -18 -51.5 -32.5t-51.5 -30.5zM408 865 q0 44 10 66t37.5 47.5t56.5 26.5q48 2 71.5 -9t49.5 -40.5t26 -81.5q0 -50 -38.5 -86t-85.5 -35t-77 27.5t-38 42.5q-12 24 -12 42z" />
<glyph unicode="&#x3c;" d="M96 653v144l1366 655v-131l-1229 -596l1229 -600v-131z" />
<glyph unicode="=" d="M96 354v119h1366v-119h-1366zM96 715v121h1366v-121h-1366z" />
<glyph unicode="&#x3e;" d="M96 -6v131l1229 600l-1229 596v131l1366 -655v-144z" />
<glyph unicode="?" horiz-adv-x="854" d="M297 91q0 23 5 42t17.5 37t34 32.5t40.5 14.5q29 0 52 -8t47.5 -32.5t24.5 -72.5q0 -43 -32.5 -75.5t-69.5 -32.5t-59.5 12t-36.5 30q-23 30 -23 53zM410 334q16 248 178 459q23 32 49 61.5t42.5 50.5t34.5 43q39 52 58 86q47 89 54 112q18 58 18 86q0 44 -9 80.5 t-45 65.5t-76 29t-66.5 -10.5t-47.5 -24.5q-45 -31 -45 -65q0 -8 10 -27q35 -35 35 -67t-11 -48t-25 -25q-24 -18 -57.5 -18t-62 38t-28.5 64q0 66 41 117q87 119 245 119q160 0 250 -114q60 -78 60 -179q0 -163 -189 -315q-59 -47 -109 -83t-96.5 -88t-71 -95t-39.5 -86 q-22 -63 -42 -176z" />
<glyph unicode="@" horiz-adv-x="1835" d="M238 494q0 207 98 424q67 147 194 282q133 139 342 216q115 42 258 42q265 0 440 -158q218 -197 218 -514q0 -145 -54 -292q-82 -227 -260 -322q-57 -31 -110 -31t-81 13.5t-46 33.5q-34 39 -38.5 67.5t-4.5 48.5t2 38q-88 -159 -236 -190q-30 -7 -48 -7q-66 0 -115 29 q-100 48 -139 198q-13 52 -13 122q0 135 55.5 265t157.5 218q117 96 234 96q165 0 225 -170l26 115h121l-61 -279q-8 -33 -13.5 -63.5t-12.5 -62.5t-15 -62.5t-13 -62.5t-11 -60q-13 -70 -13 -92.5t1 -35.5t7 -28q16 -41 56 -41q112 0 223 199q90 161 90 354q0 223 -125 381 q-75 89 -141 128q-141 85 -302 85q-314 0 -528 -248q-160 -184 -212 -474q-15 -87 -15 -145.5t6 -126t33 -146.5q69 -195 239 -301q168 -109 412 -109q285 0 504 149q69 43 162 136l49 -62q-291 -305 -733 -305q-373 0 -605 218q-65 61 -104 129.5t-71.5 163.5t-32.5 237z M793 464q0 -98 17 -137.5t47 -60.5q42 -28 89 -28t83 21q90 52 142 163q65 134 93 311q8 55 4 109.5t-43 108t-114 52t-124 -50.5t-70.5 -86.5t-40 -76.5t-36.5 -93q-47 -134 -47 -232z" />
<glyph unicode="A" d="M-47 0l10 47q61 6 93 17.5t63 35t48 46t39 50.5q78 98 116.5 151t65 86.5t45.5 61.5t33.5 47t36.5 47t46 57.5t47 60.5t41 58.5t39.5 55t44 56t41.5 55.5q50 67 80.5 106t59 78t58.5 79q81 108 99 130.5t29 38t30 42t37 52.5h37l-88 -1274q-1 -14 -1 -26q0 -45 17 -66 q29 -41 101 -43l49 -2l-8 -45q-244 5 -331 5h-25q-144 -2 -220 -5l10 47q66 4 107 11.5t63 38t24.5 57t4.5 51.5l16 223h-411l-199 -266q-25 -38 -25 -54q0 -27 17 -44q28 -21 80 -21h41l-8 -45h-453zM569 522h349l24 338l25 191z" />
<glyph unicode="B" horiz-adv-x="1280" d="M-2 4l14 41q29 4 52.5 8t53.5 24.5t49 49.5t44 88l289 979q24 92 24 120q0 43 -39 64q-33 23 -86 23h-37l15 45h388.5t173.5 -1t58.5 -4t50 -7t59.5 -14q82 -26 144 -93q76 -90 76 -183v-9q0 -143 -113 -242q-58 -54 -112 -73q-86 -30 -209 -50q53 -8 100 -22.5 t93.5 -54.5t80 -93t33.5 -150q0 -149 -104 -270q-91 -107 -212 -144q-108 -34 -323 -34l-295 -2h-215zM397 100q105 -12 125 -12t44 1t56 6q122 20 195 77q76 55 110 135t34 150q0 109 -68 182l-23 23q-46 45 -120 57q-64 10 -143 10h-27zM608 815q21 -1 43 -1q54 0 109 4 q98 6 194 62q57 32 93 85t43 83q14 53 14 111t-41 115q-49 68 -157 88q-21 4 -50 4l-55 -2q-39 0 -42 -26q-4 -33 -12 -51.5t-12 -32t-8 -28t-8 -28.5l-49 -172q-16 -53 -30.5 -105.5t-31.5 -105.5z" />
<glyph unicode="C" d="M215 555q0 235 137 453q86 130 180 214q19 17 37.5 33.5t40 33t70.5 48t114 61.5q157 70 308 70q130 0 260 -50q27 -11 51 -11q51 0 80 59l45 -10l-106 -444l-43 10q4 40 4 62t-1 47.5t-10 57.5q-22 83 -79 132q-72 57 -171.5 57t-171 -28.5t-130.5 -70.5 q-174 -122 -285 -355q-79 -173 -88 -293q-8 -54 -8 -87q0 -108 27 -180q43 -118 136 -192q15 -12 33.5 -25.5t77.5 -37t110 -23.5t89.5 4t87.5 20q119 37 215 140q27 29 43 51.5t39 54.5l39 -24q-30 -50 -82.5 -113.5t-117.5 -111.5t-132 -77q-132 -55 -264 -55 q-169 0 -320 115q-140 120 -186 260q-29 84 -29 205z" />
<glyph unicode="D" horiz-adv-x="1449" d="M0 0l14 47q81 4 138 49q48 44 77 146l273 970l8 32q10 38 10 61t-8 39t-20 27q-32 28 -61.5 30t-45.5 2h-31l15 47l71 -4h430l80 -6q94 -8 146.5 -31t83.5 -43q35 -23 69 -50q94 -71 150 -190q29 -60 43 -144.5t14 -153t-17.5 -143.5t-42.5 -137q-47 -112 -106 -186 q-23 -37 -88 -102q-168 -168 -409 -231q-113 -29 -217 -29h-576zM422 148q0 -20 13 -39t35 -22t78 -3t125.5 13.5t126.5 38.5q100 43 171 113q94 92 141 187q115 222 115 436q0 202 -92 340q-18 29 -59.5 68t-91.5 58q-69 26 -187 26h-33l-332 -1174q-4 -18 -7 -26t-3 -16z " />
<glyph unicode="E" horiz-adv-x="1236" d="M0 0l12 45h39q66 11 97 37q44 37 71 131l299 1051q10 34 10 55.5t-8 44t-31.5 31t-34 8.5t-14.5 2h-82l13 43l340 -2h690l-98 -348l-43 12q12 52 12 96.5t-24.5 76.5t-54.5 48t-81 18.5t-129 6.5l-86 2h-139l-156 -553h148q41 0 84 5t88 39t67.5 85t36.5 96l43 -14 l-151 -533l-46 15q27 98 27 115q0 49 -31 79q-26 35 -92 35l-198 -2q-20 -68 -40 -134.5t-37 -126.5t-30.5 -114.5t-24.5 -85.5q-30 -78 -30 -119q0 -63 106 -63h94q134 0 191 14q93 22 152 54.5t79.5 54.5t45.5 56q39 51 81 161l43 -14l-114 -408h-1094z" />
<glyph unicode="F" horiz-adv-x="1067" d="M2 0l12 43q168 0 209 168l289 1030q14 51 14 68v31q0 31 -34 48q-31 16 -60 14.5t-41 -1.5l-41 -2l12 47h1018l-96 -338l-43 12q25 75 25 108q0 42 -8 59q-29 57 -87 63q-66 8 -127 8h-282l-152 -551h146q102 0 156 37q47 32 67 76q31 66 39 106l41 -10l-150 -529l-41 15 q27 101 27 117q0 44 -19 70t-49 35t-84 9h-155l-152 -538q-10 -30 -10 -52t2 -38.5t20 -32.5t47 -19.5t74 -7.5l35 -2l-10 -41q-163 3 -297 3q-172 0 -295 -5z" />
<glyph unicode="G" horiz-adv-x="1449" d="M223 561q0 59 17 165q22 127 124 300q39 66 72 101.5t40 46t24 28.5q50 51 95.5 89.5t91.5 68t107 56.5q140 61 287 61q94 0 169 -20.5t98.5 -31t39.5 -10.5q32 0 51.5 10t27.5 23.5t16 32.5l49 -11l-107 -446l-51 14q15 75 15 86t-1.5 31.5t-7.5 46.5q-23 101 -118 156 q-81 39 -162 39q-102 0 -175 -36t-125 -74t-104 -95q-148 -165 -210 -446q-25 -111 -25 -170.5t1 -84t5 -57.5q11 -91 24 -125q46 -120 99 -169q86 -77 190 -77q73 0 118.5 15.5t92.5 38.5l107 385q12 44 12 65t-2 34t-9 29q-16 35 -63 52q-16 8 -29.5 9t-19.5 3h-67l12 43 h600l-12 -49h-41q-12 -4 -24.5 -5t-33 -8t-39 -23.5t-30.5 -35.5q-14 -23 -23 -59l-137 -477q-47 -20 -121 -49t-145 -39q-96 -14 -172 -14t-130 14q-190 45 -306 217q-95 142 -95 352z" />
<glyph unicode="H" horiz-adv-x="1492" d="M-2 2l12 43q63 10 97 21.5t57 35.5q36 37 53 101l299 1048q14 43 14 64q0 43 -9 55t-25.5 18.5t-35.5 9.5q-33 5 -67 5h-35l15 47q210 -10 304 -10t157 2t129 4l-13 -43h-35q-42 -6 -65 -12q-45 -18 -73.5 -58.5t-51.5 -115.5l-117 -410h551l123 434q16 32 16 78.5 t-29.5 65t-94.5 18.5h-35l12 43q204 -6 275 -6t148 2t155 4l-13 -43q-100 -11 -136 -41.5t-52.5 -57t-30.5 -77.5l-301 -1047l-8 -45q0 -43 28.5 -62.5t45.5 -23.5q16 -4 47 -4h43l-13 -45q-154 6 -298 6t-281 -6l14 47h24q107 0 165 98q10 17 24 66l146 508h-551l-150 -522 q-8 -31 -8 -52q0 -43 10 -53q16 -32 68 -43q23 -6 45 -4l35 -2l-15 -43q-156 8 -265 8t-304 -6z" />
<glyph unicode="I" horiz-adv-x="724" d="M4 0l14 45h45q93 0 127 71q19 42 27 70l299 1053q12 24 12 80q0 84 -116 84h-52l13 43h594l-11 -39h-36q-55 0 -83 -12.5t-49 -35.5q-28 -32 -47 -89l-311 -1090q-9 -30 -9 -59v-6q2 -70 122 -70h51l-12 -43l-146 -2h-432z" />
<glyph unicode="J" horiz-adv-x="854" d="M2 159q0 106 64 146q33 25 61 25q37 0 56.5 -10t37 -35t17.5 -48.5t-9.5 -38t-19.5 -26.5q-33 -40 -33 -61t17.5 -35.5t30.5 -14.5q81 0 136 82q32 53 52 127t26 95l250 864q14 43 14 82q0 16 -6 39.5t-34 35.5q-43 19 -109 19h-23l13 43l196 -8h142l249 6l-12 -47h-39 q-15 0 -61.5 -13t-71 -59.5t-39.5 -91.5l-258 -883q-36 -119 -75 -177q-78 -115 -189 -161q-77 -34 -132 -34q-103 0 -169 38q-27 20 -45 41q-37 50 -37 100z" />
<glyph unicode="K" d="M0 4l12 41q36 0 68.5 11t56 32t38.5 46q24 42 44 108l283 950l16 98q0 47 -25.5 71.5t-44.5 32.5q-23 9 -55 9l-31 2l13 43q252 -6 335 -6t141.5 2t79.5 2t44 2l-14 -45q-132 0 -183 -75q-31 -45 -39 -73t-8 -30l-127 -418q131 104 267.5 209.5t216.5 168.5t114.5 95.5 t34.5 67.5q0 32 -35 49q-16 8 -51 8l12 43q117 -6 228.5 -6t220.5 6l-10 -41q-87 -11 -118.5 -28t-73.5 -46t-92 -67.5t-112 -85.5t-129 -101.5t-121.5 -97.5t-94.5 -75t-81 -64q81 -165 143 -284q106 -203 167 -322q33 -53 52 -77t52 -50.5t66.5 -40t97.5 -23.5l-10 -41 q-244 5 -332 5h-26q-72 -1 -124.5 -3t-105.5 -4l8 41h25q41 0 75.5 19.5t34.5 45.5q0 34 -26 82l-289 570l-164 -551q-12 -43 -12 -74q0 -14 7 -35q9 -28 48 -47q18 -6 45 -6h59l-12 -45q-164 9 -281 9q-40 0 -74 -1z" />
<glyph unicode="L" horiz-adv-x="1236" d="M2 4l12 45l37 2q67 0 104.5 39t47.5 72t12 41l301 1065q12 36 12 65t-22.5 44.5t-33.5 19.5t-18.5 4t-17.5 2h-78l13 43h604l-12 -43l-54 -2q-12 0 -25 -2t-27.5 -6t-32.5 -13q-64 -33 -84 -98q-3 -12 -7 -25l-301 -1054q-8 -16 -8 -51t30.5 -48.5t90.5 -13.5h213 q105 0 142.5 12.5t51 18.5t39 15t42.5 20q84 57 125 148q20 46 46 114l45 -15l-123 -405l-442 8h-479z" />
<glyph unicode="M" horiz-adv-x="1748" d="M10 2l13 43q33 2 59.5 7t55 30t43 50.5t37.5 89.5q62 179 93 274.5t59.5 192.5t61.5 202t66.5 216.5t68.5 221.5q-78 58 -140 68q-24 4 -56 6l10 43h407l101 -1100l715 1100h385l-13 -47h-32q-29 -4 -54.5 -9.5t-62.5 -37t-58.5 -94t-38.5 -128.5q-33 -126 -68 -241 q-63 -213 -124 -436t-66 -248t-6 -62q0 -54 60 -86q24 -12 49 -12h41l-10 -43l-236 6h-143l-219 -6l12 43q16 2 32.5 3t48 8t63.5 32t54 56q38 53 62 147l244 856l43 108l-62 -108q-38 -64 -94.5 -153t-93.5 -143q-82 -119 -126 -192t-79 -127l-141 -215 q-51 -78 -101.5 -157.5t-101.5 -159.5h-55l-97 1085l-6 154q-4 -23 -8 -47.5t-9 -49.5q-11 -53 -26 -100l-248 -823q-14 -28 -14 -76.5t26.5 -69t40 -23.5t25 -4t19.5 -3h57l-12 -43h-311z" />
<glyph unicode="N" horiz-adv-x="1449" d="M4 0l10 43q39 0 73 10t59.5 37t41 54.5t22.5 51t9 27.5q285 977 295 1012t10 48q0 42 -33.5 75t-76.5 40t-82 7h-25l10 45q104 -6 199.5 -6t177.5 4l480 -1040l225 782q26 84 26 130q0 36 -16 49q-41 33 -100 33q-9 0 -19 -1l-30 2l8 43h467l-11 -43h-36q-4 -2 -28 -6 q-84 -14 -122 -83q-25 -46 -60 -169q-79 -270 -143 -487q-119 -402 -146.5 -524t-37.5 -163l-27 2q-37 88 -73.5 176.5t-79.5 183.5q-101 224 -168.5 364.5t-116.5 248t-100 217.5l-267 -946q-10 -31 -10 -42v-32q0 -10 3 -34.5t28 -41.5q35 -24 94 -24h39l-12 -43h-457z " />
<glyph unicode="O" horiz-adv-x="1449" d="M205 494q0 62 17 166t66.5 232t109.5 210q82 110 132 164q104 104 227 157.5t232 57.5q202 0 338 -127l19 -18q18 -19 52 -74q77 -126 77 -293q0 -245 -149 -534q-42 -83 -111.5 -168t-115 -122t-86 -65.5t-93.5 -53.5q-123 -57 -220.5 -57t-142.5 11.5t-69 22.5 q-71 32 -99.5 57.5t-38.5 35.5q-145 150 -145 398zM426 378q0 -57 15.5 -113t27.5 -77q29 -49 70 -77q67 -58 163 -58q76 0 156 45q66 41 124 114t111.5 193.5t82 217t44.5 178.5q25 135 25 231q0 162 -51 240q-28 47 -62 73.5t-86 38.5q-43 10 -69 10h-5h-4 q-28 -1 -51.5 -6.5t-54.5 -17.5q-73 -28 -129 -90q-212 -229 -293 -723q-14 -82 -14 -119v-60z" />
<glyph unicode="P" horiz-adv-x="1150" d="M2 0l10 43q8 2 34 4t58.5 13t56 34t37.5 46q21 34 29 73l281 983q10 41 17 69.5t7 38.5q0 30 -14 54q-36 41 -89 41h-64l14 47h504q163 0 233 -30t108 -66q99 -96 99 -234q0 -186 -145 -310q-27 -22 -54.5 -41.5t-113.5 -51t-191.5 -31.5t-234.5 27l-148 -527l-6 -45 q0 -41 25.5 -61t50 -24.5t65.5 -8.5l35 -2l-10 -41l-268 6h-178zM606 782q77 -18 128.5 -18t95.5 12t79 30q89 47 131 120q62 103 62 182q0 127 -70 197q-18 16 -39.5 26t-27.5 15q-51 20 -98.5 20t-98.5 -4z" />
<glyph unicode="Q" horiz-adv-x="1449" d="M199 474.5q0 95.5 16 180t46 173.5q64 191 171 331q67 94 150 159q28 21 68 50t131 70t210 41q186 0 307 -105q29 -25 42.5 -41t23.5 -26q104 -138 104 -338q0 -279 -176 -579q-84 -145 -230 -270q-56 -48 -110.5 -73.5t-74 -34t-41.5 -15.5q-23 -8 -119 -24l-154 -129 q92 29 135.5 29t76 -5t81.5 -12t110.5 -17.5t128.5 -10.5t113.5 12.5t83.5 33.5q49 26 123 106l31 -25q-36 -57 -116 -127.5t-172.5 -115t-235.5 -44.5q-103 0 -193 21q-72 12 -142.5 26.5t-135 14.5t-90 -13.5t-56.5 -35.5l-24 32l319 260q-18 4 -53 11.5t-79 27.5 q-113 49 -181 156q-29 43 -58.5 127t-29.5 179.5zM418 410q0 -129 39 -207q18 -41 59 -79q77 -71 180 -71q104 0 196 74q23 18 49 43q71 68 134.5 206t92 237.5t44.5 183.5q27 135 27 200v85q0 107 -59 202q-25 39 -68 68q-69 42 -141 42h-14q-79 -5 -130 -37t-82 -61 q-96 -90 -149 -206q-54 -118 -70 -167t-19 -58t-18.5 -57t-30.5 -114q-40 -166 -40 -284z" />
<glyph unicode="R" horiz-adv-x="1323" d="M2 2l14 49q43 2 84 13.5t70 54.5q34 51 49 110l289 998l12 71q0 47 -39 80q-8 4 -16 9.5t-22.5 10.5t-32.5 5h-52l13 45l45 -2h401q213 0 334 -60q107 -54 147 -166q17 -49 17 -76.5t-2 -47t-7 -44.5q-27 -116 -126 -201q-76 -64 -137.5 -87t-127.5 -41q18 -47 37 -96 t35 -93q100 -279 163 -374q56 -84 120 -104q18 -5 49 -11l-14 -43q-95 4 -159 4h-35q-70 -2 -140 -6l-271 702l-127 9l-143 -500q-8 -36 -8 -55q0 -78 74 -105q10 -4 23 -4h16l65 -2l-14 -43l-264 4h-244zM596 782q87 -6 104 -6t37.5 1t48.5 5q110 15 185 90q53 59 79 132 q26 70 26 118q0 140 -96 206q-48 32 -106 34q-25 1 -49 1q-32 0 -61 -1z" />
<glyph unicode="S" horiz-adv-x="1067" d="M27 -16l90 514l47 -2q-2 -35 -2 -68t3 -54.5t8 -45t17 -52.5q35 -81 79 -120q97 -86 237 -86q160 0 237 110q48 67 48 139t-21.5 121t-51.5 88q-44 57 -96 102q-112 97 -135.5 120.5t-36 35t-24.5 25.5q-125 137 -125 281q0 86 37 161q8 12 16 25.5t18.5 28t40 49.5 t71.5 57q103 55 221 55q92 0 196 -34q35 -10 81 -27.5t68.5 -17.5t39 3t27.5 16q21 25 32 58h49l-123 -491h-45q12 87 12 128t-17 88.5t-40 79.5t-85 71.5t-161 39.5q-170 0 -237 -151q-17 -37 -17 -79q0 -100 95 -204q31 -36 52 -55.5t38.5 -33t31 -27t23.5 -21.5t19 -16 q16 -14 32 -27q6 -8 24 -26q110 -110 139 -167q54 -109 54 -202q0 -237 -207 -346q-95 -50 -233 -50q-99 0 -170.5 25.5t-117.5 42t-87 16.5q-77 0 -106 -77h-45z" />
<glyph unicode="T" horiz-adv-x="1150" d="M176 0l12 45l52 2q41 0 80 16t61 48t39 90l323 1157h-102q-102 0 -161.5 -18.5t-93.5 -45.5q-40 -32 -67 -63q-27 -43 -69 -176h-45l110 391h1135l-111 -385h-47q35 137 35 165t-12 48t-27 34q-38 35 -71 40.5t-52 9.5h-204l-332 -1190q-6 -25 -6 -45q0 -39 25 -57 q26 -17 85 -17h66l-17 -49h-239l-181 4z" />
<glyph unicode="U" horiz-adv-x="1449" d="M256 318q0 106 23 190l208 741q0 4 5.5 24.5t5.5 51.5t-20.5 48.5t-34 20.5t-19.5 3t-23 2h-59l12 47h586l-10 -51h-41q-61 0 -93 -12.5t-54.5 -41.5t-29.5 -48t-18 -60l-192 -686q-41 -143 -41 -188t10 -93.5t49 -82.5q97 -85 230 -85q156 0 268 101q72 66 105.5 145.5 t54.5 149.5l219 766q12 23 10 45t-8 46.5t-43 39.5q-8 4 -17.5 4t-17.5 2h-82l8 47l125 2h260l80 -2l-14 -47l-39 -2q-70 -4 -104.5 -27t-55.5 -98l-242 -834q-23 -76 -55 -148q-90 -205 -318 -288q-75 -27 -149.5 -27t-154.5 11q-196 29 -298 228q-26 52 -26 106z" />
<glyph unicode="V" horiz-adv-x="1323" d="M328 1405l14 45l203 -4h170l164 4l-11 -45h-61q-52 0 -82.5 -22t-33.5 -53.5t-7 -86.5l-31 -676l-14 -164q104 139 204.5 275.5t182.5 245.5q154 206 215.5 290.5t69.5 101.5t8 30q0 24 -15 39q-22 22 -71 22h-53l12 45l180 -6h148l127 4l-11 -45h-59q-61 -13 -85 -27 q-36 -21 -85 -86l-979 -1304h-12l61 1251q4 40 4 80q0 42 -25 62q-33 24 -81 24h-47z" />
<glyph unicode="W" horiz-adv-x="1921" d="M332 1405l10 43l180 -2h391l-10 -41h-53q-4 -2 -18.5 -2t-38 -6t-41 -24.5t-24.5 -38.5q-9 -25 -9 -58l-33 -629q-2 -37 -6 -73.5t-8 -69.5t-10.5 -62.5t-12.5 -58.5l43 70q60 93 104 155t76.5 108t60 85t49.5 69.5t44.5 60.5t40.5 58.5t38.5 58.5t40 55t38.5 52l2 100 q0 6 2 23.5t-3 45.5q-9 48 -35 62q-33 16 -161 21l12 39h365l215 4l-12 -43h-37q-89 0 -119 -41q-16 -18 -17 -33.5t-3 -34.5l-35 -665q-5 -84 -12 -124q-9 -52 -29 -134l57 102l545 801q4 4 16.5 26.5t12.5 47.5t-20 37q-31 18 -60 18h-62l15 41l118 -2h113l201 6l-12 -43 h-50q-16 -4 -32.5 -7t-34.5 -12q-41 -23 -82 -85l-903 -1323h-15l50 1007l-711 -1007h-12l63 1278q1 18 1 33q0 56 -20 77q-34 35 -124 35h-39z" />
<glyph unicode="X" horiz-adv-x="1280" d="M-41 2q10 39 16 41h17q6 2 16 4t30 9t39 19.5t40.5 31t47 45t58.5 59.5q53 53 101.5 108.5t82 93.5t68.5 78.5t81 92t91 102.5l-129 545q-25 124 -106 159q-28 11 -72 11h-41l10 43l119 -4h180l291 6l-8 -41h-51q-59 0 -81 -19q-40 -33 -40 -69q0 -38 22 -119l76 -315 q47 53 87 97t77 86q157 178 178 210.5t21 52.5t-16.5 44t-40 27t-33.5 5h-50l9 41h309l176 4l-12 -45q-60 0 -103 -24.5t-75.5 -55.5t-78 -77t-76 -76.5t-58.5 -61.5t-52 -60.5t-61 -71.5t-83 -94.5t-93 -105.5l139 -575q22 -95 80 -133q36 -25 86 -25h41l-10 -45h-506 l-78 2l8 41h39q72 6 90 17q45 28 45 69q-2 10 -5 30.5t-9 49.5l-90 379l-361 -410q-4 -4 -19.5 -28.5t-15.5 -39.5q0 -21 9 -30q23 -37 73 -37h64l-12 -41l-88 -2h-295z" />
<glyph unicode="Y" horiz-adv-x="1280" d="M311 2l11 41h43q33 4 62.5 12t53.5 33q45 46 66 117l151 526l-174 539q-15 49 -43 84q-29 31 -61.5 38t-95.5 11l12 43l203 -6h153l219 6l-12 -45h-71.5t-34.5 -3t-17.5 -7.5t-19.5 -11.5q-25 -16 -25 -46q0 -23 14 -76l138 -454q51 69 98.5 125.5t67.5 83t47 58.5 q126 149 152 195t26 69q0 37 -29 55q-33 16 -106 16l10 41h455l-15 -43q-67 -4 -94 -19q-40 -21 -104 -81q-113 -133 -243 -302q-140 -182 -249 -307l-137 -501q-8 -33 -8 -51q0 -97 108 -97h72l-14 -45h-398z" />
<glyph unicode="Z" horiz-adv-x="1323" d="M43 0q125 157 178 219.5t95 114t82 99.5q53 62 102 122t74.5 90.5t79.5 96.5q177 217 265 322q156 186 238 290h-463q-117 0 -154 -10q-68 -19 -102 -52q-88 -83 -108 -147q-6 -19 -17 -53l-47 12l103 342h1112q-174 -211 -345 -420t-313.5 -380t-249 -300t-215.5 -260 h373q231 0 321 43q44 21 89.5 59.5t69.5 87t44 107.5l45 -12l-106 -371h-1151z" />
<glyph unicode="[" horiz-adv-x="724" d="M39 -297l496 1774h426l-23 -76h-258l-453 -1622h258l-22 -76h-424z" />
<glyph unicode="\" horiz-adv-x="724" d="M170 1446h121l469 -1483h-123z" />
<glyph unicode="]" horiz-adv-x="724" d="M-109 -299l21 74h258l455 1624h-256l22 76h424l-498 -1774h-426z" />
<glyph unicode="^" horiz-adv-x="1492" d="M416 717l368 729h131l355 -729h-156l-268 561l-275 -561h-155z" />
<glyph unicode="_" horiz-adv-x="1024" d="M76 -301h1065v-121h-1065v121z" />
<glyph unicode="`" horiz-adv-x="555" d="M121 1462h237q10 -43 23.5 -84t26.5 -86q30 -109 47 -166l-47 2q-51 58 -127 147t-102.5 120.5t-57.5 66.5z" />
<glyph unicode="a" horiz-adv-x="1067" d="M115 233q0 191 142 413q99 153 249 256q93 65 190 65q15 0 45 -4q83 -11 119 -111l25 86l178 31l-213 -770q-12 -24 -12 -53t10 -37q29 -14 50.5 4t36.5 36.5t21.5 25.5t13.5 17t17 24.5t21 29.5l36 -19q-41 -61 -95 -125q-63 -76 -153 -116q-24 -11 -48 -11 q-34 0 -62 33q-18 22 -18 59q0 70 26 166q-16 -23 -33.5 -43t-35.5 -39.5t-50 -48t-75 -56.5q-106 -69 -191 -69q-67 0 -109 34q-85 69 -85 222zM293 263.5q0 -70.5 14.5 -100.5t32.5 -40q41 -23 69 -23t74.5 18.5t99 72.5t95.5 127t72 149q63 161 63 283v26q0 53 -39 86 q-33 28 -75 28h-13q-50 -6 -65 -18q-54 -28 -94 -75t-54 -68.5t-29.5 -45t-45 -84t-52.5 -123.5q-53 -142 -53 -212.5z" />
<glyph unicode="b" horiz-adv-x="1024" d="M121 96l319 1147q2 10 6.5 30.5t4.5 33t-11.5 27t-36 14.5t-43 -2.5t-38.5 -4.5l10 35l332 58l-164 -586q18 14 42.5 35.5t57.5 40.5q82 49 154 49q67 0 117 -30t77 -73t37 -82q12 -48 12 -100.5t-11 -112t-32 -119.5q-40 -116 -118 -225q-115 -150 -256 -211 q-90 -40 -158.5 -40t-113 13t-81.5 33q-40 21 -106 70zM287 92q23 -12 48 -24.5t74.5 -12.5t93.5 17.5t79 43.5q99 73 170 232q69 160 69 301q0 91 -41 154q-41 57 -93 57q-93 0 -179 -96q-29 -39 -51 -74z" />
<glyph unicode="c" horiz-adv-x="811" d="M127 281q0 84 18.5 156.5t46.5 132.5q48 108 95 169q71 91 125 123q139 109 290 109q64 0 105 -25.5t65.5 -56.5t24.5 -90q0 -46 -25 -79q-41 -58 -77 -58t-62 24.5t-26 51.5q0 36 43 75q20 27 20 43q0 11 -10 29q-13 24 -64 24t-98 -25.5t-88 -65.5q-111 -109 -176 -302 q-35 -102 -35 -192q0 -97 50 -166q21 -29 69.5 -49.5t114 -20.5t122 35t121.5 113l25 -31q-12 -16 -23.5 -30.5t-23.5 -31.5q-155 -168 -338 -168q-193 0 -266 167q-23 55 -23 139z" />
<glyph unicode="d" horiz-adv-x="1067" d="M125 222v30q0 71 25.5 166.5t97.5 213.5q81 135 230 246q121 91 266 91q67 0 128 -70l97 350q2 10 5 21q7 24 7 42q0 46 -59 46h-37q-19 0 -37 -2l10 39q156 11 328 45l-355 -1278q-10 -15 -10 -31q6 -31 27 -31q28 0 123 103l24 -23q-118 -133 -199 -177 q-32 -17 -63 -17t-46 11t-23 27q-13 22 -13 43q0 37 11 72l45 168q-238 -323 -396 -323q-56 0 -94.5 35t-57 72.5t-26.5 71.5t-8 59zM299 262q0 -71 25 -104q30 -45 79 -45t103 43q104 84 189 242q134 248 134 395q0 22 -8 47t-21.5 40t-27.5 22q-18 9 -45.5 9t-74.5 -20.5 t-107 -80.5t-95 -111.5t-61.5 -107.5t-45.5 -115q-44 -135 -44 -214z" />
<glyph unicode="e" horiz-adv-x="854" d="M125 285q0 188 131 383q94 135 219 217t256 82q112 0 175 -94q20 -29 20 -67t-10.5 -85t-64.5 -107.5t-123 -97.5t-139.5 -57.5t-140 -27.5t-126.5 -13q-15 -72 -15 -113t13.5 -81t39.5 -70q59 -68 156 -68q45 0 90 14q67 21 189 127l22 -34q-20 -16 -38.5 -33t-40.5 -35 t-54.5 -44t-75.5 -49q-100 -52 -194 -52q-149 0 -221 90q-68 81 -68 215zM338 479q80 8 161 29.5t141.5 70t84 81t36.5 60.5q21 45 21 84.5t-24.5 64t-56.5 24.5q-55 0 -109.5 -40t-94.5 -89t-69 -93t-45 -77t-21 -45q-18 -43 -24 -70z" />
<glyph unicode="f" horiz-adv-x="598" d="M-289 -223q0 54 47 81q17 11 46.5 11t51 -20.5t21.5 -42.5q0 -35 -15 -59.5t-15.5 -33t13 -15.5t25.5 -7t52 15t86 71q45 57 76.5 142t70.5 220l207 729h-180l24 68q16 -2 33 -2q25 0 51 4q43 6 74 41t44 65q84 190 193 287q49 49 89 65.5t51 20.5q60 23 114.5 23 t91.5 -24q70 -44 70 -116q0 -35 -28.5 -65.5t-60.5 -30.5t-56.5 22.5t-24.5 45t8.5 36t20.5 29.5t12 25q-5 31 -41 31q-68 0 -124 -51.5t-84.5 -114t-45.5 -117.5l-49 -172h178l-22 -68h-174l-197 -688q-54 -177 -123 -282q-60 -103 -170 -186q-95 -72 -182 -72h-2 q-105 0 -145 82q-11 22 -11 53z" />
<glyph unicode="g" horiz-adv-x="894" d="M4 -148.5q0 52.5 25.5 88t41 50t25.5 21.5t26.5 19.5t24 18.5t14.5 10t16 9.5t19.5 10.5t19.5 11t20 12q-23 23 -37.5 41.5t-14.5 46.5q0 74 119 148q31 20 57 35q-87 35 -131 83q-61 65 -61 156q0 77 31 133q54 112 184 179q89 47 188 47q86 0 146 -37q15 -7 43 -31 l258 19l-29 -115l-158 4q35 -70 35 -123q0 -115 -106 -215q-90 -85 -236 -103q-41 -5 -80 -8q-95 -47 -110 -80q-6 -12 -6 -20q0 -33 40 -45q55 -16 81 -20t55.5 -10.5t65.5 -15.5t64 -21q126 -51 176 -146q17 -31 17 -60.5t-2 -50t-19 -53.5t-66 -80q-70 -66 -223 -98 q-64 -14 -105 -14t-69 1t-65 6q-87 12 -127 32q-67 34 -107 73t-40 91.5zM150 -106q0 -85 81 -140q70 -45 187 -45h24q141 0 220 87q32 36 32 77q0 39 -25.5 70t-54 47t-59.5 26q-37 11 -96.5 21t-95 20.5t-72.5 20.5q-67 -37 -86 -59q-34 -41 -42 -58q-13 -32 -13 -67z M338 554q0 -104 92 -133q16 -5 37 -5q66 0 115 44t73 109q6 18 16.5 47t18.5 61q19 76 19 96.5t-5.5 43.5t-19.5 44.5t-39.5 37.5t-75.5 16t-99 -42q-60 -50 -87 -131q-45 -132 -45 -188z" />
<glyph unicode="h" horiz-adv-x="1067" d="M109 0l335 1227q19 69 19 84q0 41 -53 41q-18 0 -38 -2l-40 -4l14 38l322 48l-242 -857q27 31 51 70q111 144 168 198q127 120 234 120q63 0 97 -38t34 -83q0 -56 -31 -170l-143 -525q-9 -31 -9 -45q0 -27 27 -26q18 0 56 33.5t85 78.5l21 -24q-169 -191 -283 -191 q-33 0 -58.5 21.5t-25.5 47t8 58.5l148 523l18 73q0 2 5.5 21.5t5.5 30t-2.5 22.5t-8.5 24q-16 33 -51 33q-54 0 -158 -104q-74 -78 -136 -177.5t-107 -176.5l-101 -369h-161z" />
<glyph unicode="i" horiz-adv-x="555" d="M141 66q0 26 13 67l170 610q16 61 16 88q0 54 -72 54q-24 0 -53 -2l10 37q41 4 83 7t83 10q75 13 162 34l-229 -815q-9 -18 -9 -34.5t12.5 -23t20.5 -6.5t20 7q20 11 99 100l29 -23q-99 -126 -207 -184q-33 -17 -62 -17t-45 12.5t-26 30.5q-15 28 -15 48zM414 1235 q0 33 28 63q34 36 75 36q18 0 38 -7q70 -30 70 -102q0 -17 -7.5 -34t-32 -42t-69.5 -25q-23 0 -47.5 11.5t-39.5 39t-15 60.5z" />
<glyph unicode="j" horiz-adv-x="512" d="M-286 -236q0 34 20 66q31 39 73 39q41 0 60.5 -29.5t19.5 -53.5t-32 -60q-2 0 -8.5 -6.5t-5.5 -14.5t13.5 -16t26.5 -8t44 11t59 30q36 23 84 126q48 115 92 283l168 637q6 23 6 34v25q0 16 -11.5 34t-38 18t-44 -2.5t-33.5 -4.5l12 41q182 20 324 56l-215 -824 q-8 -23 -15.5 -43t-32.5 -93q-53 -159 -167 -269q-99 -99 -193 -107q-24 -2 -46 -2q-111 0 -150 89q-10 22 -10 44zM397 1241q0 47 47 83q23 19 48 19q35 0 53 -8t39.5 -30.5t21.5 -46.5v-36q0 -30 -31.5 -58.5t-70.5 -28.5q-45 0 -76 31.5t-31 74.5z" />
<glyph unicode="k" horiz-adv-x="1067" d="M113 0l340 1253q10 15 10 48.5t-17.5 41t-31.5 7.5h-15q-16 -2 -31.5 -4.5t-31.5 -4.5l6 37q69 10 138 25q84 17 190 43l-258 -948l409 317q53 39 53 61.5t-30 22.5h-68l15 45h417l-10 -43q-90 0 -137 -17q-91 -34 -209 -122l-188 -144q58 -175 85 -245t42.5 -112 t25.5 -66.5t13.5 -31.5t7.5 -13q27 -44 61.5 -44t70.5 41t79 109l30 -23q-100 -167 -166 -217q-45 -36 -96 -36q-50 0 -88 49q-39 56 -61 116l-136 371q-29 -23 -55 -43t-47.5 -38.5t-32 -26t-16.5 -14.5t-5 -13t-3 -19.5t-6 -23.5t-6.5 -21.5t-7.5 -23.5t-14 -52.5 t-28.5 -106.5t-38.5 -134h-159z" />
<glyph unicode="l" horiz-adv-x="555" d="M135 82.5q0 25.5 4 44t8 37.5l306 1069q8 31 8 44q0 44 -15 56q-18 14 -57 14q-20 0 -47 -4l10 37l326 56l-363 -1274q-10 -30 -10 -40.5t8.5 -19t18.5 -8.5q26 0 117 107l32 -25q-79 -92 -115 -124q-79 -70 -139 -70q-54 0 -77 44q-15 31 -15 56.5z" />
<glyph unicode="m" horiz-adv-x="1579" d="M109 0l217 784q4 16 8 28.5t4 39.5t-16.5 32t-35.5 4q-48 -3 -83 -9l12 41l324 45l-105 -373q60 75 83.5 104t45 52.5t39.5 44t44 48t62 55.5q93 71 173 71q49 0 81 -25t40 -49.5t8 -58.5q0 -40 -52 -248q12 16 25.5 34.5t26.5 35.5q23 32 40 51.5t30 36.5 q116 140 188.5 180.5t136.5 40.5q26 0 50 -9.5t50.5 -35t26.5 -64.5q0 -61 -25 -143l-149 -510q-10 -31 -10 -46.5t1 -26.5q2 -20 30 -22q1 0 3 -1q28 0 56 28q30 29 73 80l21 -29q-98 -120 -157.5 -163t-108.5 -43q-19 0 -40.5 8t-32.5 30.5t-11 50t13 85.5q35 160 63 255 q60 203 76 254q30 95 30 123q0 41 -45 50q-10 2 -16 2q-41 0 -75 -29t-53.5 -49t-28.5 -30.5t-20 -20.5q-16 -23 -33.5 -44.5t-46 -60t-55 -79t-45.5 -71.5q-21 -36 -59 -116l-94 -338h-164l192 692q19 66 19 97.5t-21.5 42t-39 10.5t-40 -12.5t-41.5 -27.5q-36 -31 -50 -45 l-24 -23q-53 -54 -85.5 -101t-36.5 -51t-16.5 -23.5t-29.5 -46.5q-82 -135 -112 -238l-76 -274h-159z" />
<glyph unicode="n" horiz-adv-x="1067" d="M115 0l223 799q8 24 8 37.5t-11 31t-46 17.5l-41 -2q-12 -2 -23.5 -2t-21.5 -2l10 41l338 47l-113 -402q122 185 186 250.5t93.5 84.5t45 28.5t35.5 17.5q54 21 85 21q74 0 108 -41q10 -10 15 -20q14 -30 14 -55q0 -51 -25 -132l-153 -533q-11 -22 -11 -42q0 -33 21 -38 q6 -2 8 -2q29 0 129 105l27 -29q-20 -23 -40 -42t-66 -64q-95 -94 -177 -94t-82 81q0 38 17 95l157 536q21 65 21 83v23q0 11 -15.5 27.5t-34.5 16.5q-33 0 -70.5 -26t-79.5 -70t-75.5 -87t-54 -75.5t-29.5 -48t-27 -41t-32 -51.5q-35 -65 -66 -144q-10 -35 -18 -68.5 t-18 -71.5t-22.5 -78t-24.5 -81h-164z" />
<glyph unicode="o" horiz-adv-x="1024" d="M143 328q0 191 103 350q114 171 280 253q72 36 136 39q15 1 30 1h10q39 0 65 -7q40 -10 71 -26q99 -50 132 -150q27 -83 27 -136.5t-3 -89.5t-13 -84q-25 -118 -72 -194q-67 -110 -135 -167q-103 -97 -233 -131q-33 -13 -87 -13q-111 0 -180 54q-14 10 -46.5 42.5 t-49.5 70.5q-35 83 -35 188zM315 233q0 -70 13.5 -109.5t46.5 -59.5q40 -23 82 -23q59 0 108 32.5t78 67.5q33 42 70 119.5t58.5 147t33.5 128.5q20 100 20 138v53q0 65 -34 121q-37 59 -104 59q-39 0 -89 -20q-72 -35 -122 -118t-93 -208q-68 -198 -68 -328z" />
<glyph unicode="p" horiz-adv-x="1024" d="M-150 -350l11 37h43q79 0 118 49q21 28 39 94l271 977q6 24 6 35q0 49 -47 49q-16 0 -34.5 -3t-31 -4t-26.5 -3l12 41l328 47l-47 -181q141 181 299 181q149 0 205 -160q18 -53 18 -99q0 -257 -180 -514q-41 -57 -75 -86.5t-59.5 -50t-60.5 -39.5q-83 -47 -152 -47 q-119 0 -170 72q-10 12 -15 26.5t-7 16.5l-82 -299q-4 -12 -4 -19v-14q0 -45 49 -61q18 -6 34 -6h73l-9 -39l-69 2h-293zM326 197q0 -29 3 -55.5t21 -49.5q43 -53 107 -53q18 0 49 6t59.5 31.5t38.5 35t37 38.5q45 50 74.5 115t50 112t36.5 96q34 109 34 189v30 q0 56 -22.5 88.5t-43.5 45.5q-33 20 -63 20q-114 0 -201 -120q-51 -71 -64.5 -116t-15.5 -53z" />
<glyph unicode="q" horiz-adv-x="1024" d="M117 236q0 254 171 485q128 172 292 229q51 17 111 17q107 0 159 -66q12 -14 29 -45l24 90l168 21l-328 -1162q-8 -16 -8 -45q0 -71 99 -71h57l-8 -37q-215 5 -292 5h-22q-63 -1 -106 -3t-88 -2l12 39l49 2q68 8 91 27q33 27 55 98l127 444q-79 -121 -117.5 -158.5 t-60 -56t-49.5 -35.5q-69 -39 -136 -39q-158 0 -212 159q-17 50 -17 104zM291 290q0 -91 26 -130q4 -4 12.5 -13.5t26.5 -21.5q34 -23 56 -23q51 0 90 17q23 10 64.5 46t83.5 96t74 130t56 131q40 105 46.5 141.5t11 59t4.5 51.5q0 44 -9 66.5t-40 46.5q-30 23 -71 23h-3 q-161 -4 -307 -270q-70 -126 -95.5 -223.5t-25.5 -126.5z" />
<glyph unicode="r" horiz-adv-x="681" d="M106 0l216 776q6 23 8 30t2 25.5t-8.5 30.5t-19.5 18q-15 7 -36 7q-31 0 -59 -4l10 37q175 13 311 51l-110 -408q103 190 147.5 247.5t71.5 88.5q59 68 125 68q27 0 47 -22.5t20 -57.5t-18 -79t-45 -62.5t-50.5 -18.5t-37.5 16.5t-17 25.5t-3.5 14t-2.5 16q-6 4 -10 8 t-14 3q-12 -1 -54.5 -64.5t-74 -122t-56.5 -108.5q-79 -154 -108 -259l-70 -256h-164z" />
<glyph unicode="s" horiz-adv-x="811" d="M55 -16l72 342h49v-26q0 -45 5 -88q11 -86 107 -148q34 -22 75 -22q27 0 57 9q73 22 101 101q9 26 9 54q0 102 -92 208q-124 143 -139.5 205.5t-15.5 98.5t12 71.5t29 63.5q34 53 63 71q71 43 154 43q48 0 82.5 -15.5t58 -27t45.5 -11.5q23 0 35 10.5t29 32.5h38 l-65 -329h-45q-2 72 -8 116.5t-25 73.5q-52 76 -135 76q-41 0 -74 -27q-45 -31 -45 -98q0 -55 31 -101q39 -58 106 -140q123 -152 123 -267q0 -53 -26 -118q-37 -91 -164 -148q-47 -21 -85 -21q-84 0 -129 17.5t-71.5 30t-58.5 12.5t-52 -49h-51z" />
<glyph unicode="t" horiz-adv-x="598" d="M147 76q0 60 13 106l186 680h-139l20 70q80 9 107 21q61 27 129 102q31 34 84 137h57l-69 -250h155l-22 -82h-156l-193 -694q-4 -16 -7 -22.5t-3 -19.5t11.5 -28.5t29.5 -15.5q48 3 168 153l33 -24q-175 -227 -295 -227q-49 0 -79 31.5t-30 62.5z" />
<glyph unicode="u" horiz-adv-x="1067" d="M139 745q68 90 112 135.5t84 68.5q56 32 95 32q28 0 46 -11q42 -25 42 -74v-7q0 -45 -51 -230l-129 -432q-10 -35 -10 -51t3 -22q23 -45 54 -45q57 0 168 120q104 114 197 270q28 46 59 97l94 367h166l-223 -795q-10 -30 -10 -41.5t9 -21t21 -9.5q25 0 135 115l25 -29 q-18 -18 -35.5 -36.5t-66.5 -66.5q-112 -108 -189 -108q-29 0 -48 20.5t-19 50.5t10 67l76 297q-126 -184 -196 -260q-158 -173 -273 -173q-51 0 -82 37q-43 43 -43 111q0 63 34.5 181t54.5 182q33 108 64 204q35 110 35 134t-11 32t-22 8t-32 -14q-33 -27 -113 -129z" />
<glyph unicode="v" horiz-adv-x="854" d="M74 905q41 8 83 15.5t83 17.5l116 31q32 -74 54 -136.5t34.5 -124t20.5 -134.5q14 -127 18 -373q16 20 35 39.5t32 36t38.5 49t54.5 78.5q78 125 102 212q0 6 8.5 42t8.5 69t-10.5 47t-23.5 24.5t-36.5 33t-23.5 46t4 45t31 41t50 19.5q28 0 57 -15q67 -36 67 -130 q0 -279 -291 -627q-97 -117 -224 -236l-53 2q1 81 1 161.5t-1 160.5q-2 160 -16 257q-22 149 -28.5 171t-19 60t-34.5 59.5t-36.5 23.5t-33.5 2t-59 -10z" />
<glyph unicode="w" horiz-adv-x="1280" d="M88 918q159 22 285 57q67 -241 67 -488q0 -73 -16 -217q33 53 65.5 104.5t60.5 101.5t51.5 96t49.5 94l92 165q35 62 72 142l37 -2q12 -92 24.5 -185.5t22.5 -188.5t17.5 -189.5t15.5 -188.5q25 31 50.5 61.5t61 77.5t67.5 96.5t55 90.5q71 130 71 192q0 27 -29 49 q-18 10 -30 20.5t-32 32t-20 42t2 35t13.5 28.5t26.5 22q21 13 38 13q72 0 110 -80q14 -29 14 -69q0 -62 -33 -148q-54 -142 -135 -261.5t-146.5 -198.5t-88 -103.5t-41.5 -48.5t-37 -45t-34 -43l-37 2q-13 383 -29 507.5t-26 174.5q-125 -239 -184 -325 q-102 -152 -222 -361l-41 2q13 214 13 286q0 241 -29 425q-6 38 -10 67.5t-8 51.5t-14 39q-21 38 -72 38q-18 0 -66 -6z" />
<glyph unicode="x" horiz-adv-x="1024" d="M5 81q-1 45 27 65q26 20 51 20q33 0 64 -39q23 -23 50 -23q49 0 145 129l176 236l-59 143q-16 41 -36 80t-35 68q-36 71 -62 94q-36 29 -82 29t-90 -11v37l297 62q81 -123 182 -348l123 170q12 18 28.5 34.5t51.5 54.5q84 91 178 91q50 0 82 -35q22 -25 22 -57 q0 -10 -4 -22.5t-23.5 -35t-46.5 -22.5q-36 0 -59 13q-40 22 -64 22q-50 0 -135 -111l-127 -174l125 -328q40 -108 84 -108q29 0 58.5 34.5t68.5 83.5l31 -24q-76 -98 -135.5 -162.5t-110.5 -64.5q-68 0 -118 108q-13 27 -21 47l-98 262l-119 -166q-112 -160 -200 -221 q-50 -35 -107 -35q-37 0 -75 31q-38 30 -37 73z" />
<glyph unicode="y" horiz-adv-x="854" d="M-152 -250q0 31 24 62.5t55.5 31.5t57 -18.5t25.5 -37.5t-3 -30.5t-4 -30t24 -16.5q47 0 241 215q29 31 54 58l-27 401q-4 49 -7 99.5t-8 89.5t-9.5 65.5t-10.5 67t-10 71.5t-14 50q-32 57 -91 57q-35 0 -67 -4l-4 34q167 24 278 54q12 -31 22.5 -54.5t17.5 -48.5 q50 -182 79 -692q203 265 301 465q41 84 41 115.5t-5 36t-18 7.5q-52 13 -74 39.5t-22 40.5q0 20 11 44.5t36 36.5t51 12q43 0 73 -28q40 -37 40 -92q0 -127 -88 -290q-96 -187 -349 -502q-93 -116 -128 -154t-47 -52t-25.5 -27.5t-23.5 -25t-21.5 -21.5t-22.5 -21.5 t-34 -33t-52 -42.5q-71 -51 -137 -51q-43 0 -80 26q-49 35 -49 93z" />
<glyph unicode="z" horiz-adv-x="811" d="M10 0l692 801h-108q-90 0 -137 -4t-70 -6t-57.5 -6.5t-64.5 -23.5t-41 -39t-21 -46l-35 10l82 252h653l-688 -797h242q78 0 122 5.5t69 22.5q34 23 45 37.5t30 47.5l35 -8l-84 -246h-664z" />
<glyph unicode="{" horiz-adv-x="724" d="M268 506v10q62 21 86 49.5t34.5 64.5t15 75.5t4.5 76.5v412q0 74 17 143.5t59 107.5q49 43 92 59.5t88 20t75 7.5l-2 -12q-47 -12 -85 -29.5t-71.5 -66.5t-36.5 -116t-3 -128v-310q0 -156 -16.5 -209t-36.5 -81q-32 -46 -109 -72q55 -16 89 -50t48 -70t20.5 -83t6.5 -105 v-362q0 -88 5 -134t29.5 -95t64.5 -71.5t97 -39.5l-2 -10l-65 6q-62 0 -112 24.5t-78 53.5t-43 67.5t-21 80.5q-8 56 -8 165v267q-2 16 -2 34v33q0 57 -6.5 116.5t-37.5 100.5q-44 58 -96 70z" />
<glyph unicode="|" horiz-adv-x="468" d="M270 -512v2044h121v-2044h-121z" />
<glyph unicode="}" horiz-adv-x="724" d="M180 -502q47 12 85 30.5t72 66.5t37 116t3 127v312q0 213 49 284q40 57 113 76q-51 15 -95 57q-69 69 -69 253v444q0 144 -94 213q-26 18 -101 43v12q16 -2 31.5 -3t30 -3t37 -4t49.5 -10q65 -21 102 -61t51.5 -78t20.5 -79q8 -55 8 -161v-332q0 -57 6 -116.5t37 -101 t55.5 -53.5t40.5 -18v-10q-10 -4 -37.5 -13.5t-49 -36t-32 -63.5t-14.5 -76t-4 -77v-324l-2 -88q-2 -72 -18.5 -141.5t-73.5 -122.5q-27 -25 -53.5 -37t-46 -19.5t-64.5 -10.5t-74 -5v10z" />
<glyph unicode="~" horiz-adv-x="1492" d="M371 582q107 161 254 161q76 0 229 -71l68 -31q51 -23 76.5 -32t57.5 -9t59.5 11.5t50.5 29.5q31 24 85 88l64 -113q-74 -96 -138.5 -126.5t-116.5 -30.5t-91 13t-115 50l-59 29q-102 51 -153.5 51t-78 -11t-47.5 -31q-26 -23 -78 -91z" />
<glyph unicode="&#xa1;" horiz-adv-x="598" d="M106 89q0 44 28 120t62.5 151.5t78.5 183.5q63 156 174 562l57 -14q-49 -190 -94 -373.5t-54.5 -294.5t-12.5 -151t-9 -81q-14 -96 -40 -142q-37 -66 -93 -66q-59 0 -87 56q-10 21 -10 49zM412 1346q0 32 35.5 67t88.5 30q35 -3 65 -35t30 -64q0 -40 -9 -58t-34 -40.5 t-48 -22.5q-42 0 -64 9t-34 24.5t-19 31.5q-11 26 -11 58z" />
<glyph unicode="&#xa3;" horiz-adv-x="1110" d="M2 121q0 51 12 73q51 101 166 101q56 0 185 -43q51 115 69 202q23 112 43 240h-211l25 86h196q25 183 55 308.5t95 211.5q78 104 177 144q88 35 160 35q112 0 183 -39q29 -18 55.5 -54t26.5 -64.5t-3 -51.5t-18.5 -43t-37 -38t-42.5 -18q-76 0 -104 53q-12 21 -12 34 q0 32 16.5 61t16.5 45t-11 28q-18 23 -42.5 23t-52 -7t-64.5 -42q-92 -80 -129 -230.5t-58 -355.5h301l-22 -86h-295q-63 -298 -154 -438q-16 -25 -32 -51q8 -2 33.5 -9.5t58.5 -15.5q82 -20 116.5 -20t51 1t38.5 4q54 7 84 21q83 38 116 110q14 32 24 66h61 q-75 -250 -182 -321q-29 -23 -50.5 -31t-40.5 -15q-51 -18 -121.5 -18t-141 31t-154.5 78q-125 -109 -231 -109q-68 0 -115 52q-41 41 -41 92zM80 136.5q0 -11.5 3 -24t12 -25.5q22 -32 55 -32t54 10.5t40 25.5q29 24 53 54q-4 2 -17.5 12.5t-33.5 21.5q-53 30 -73 30 q-52 0 -79 -33q-14 -28 -14 -39.5z" />
<glyph unicode="&#xa4;" d="M213 223l154 150q-53 76 -71 116q-42 99 -42 209q0 175 113 318l-150 149l92 92l150 -147q143 111 321 111q175 0 292 -91q13 -10 28 -20l151 150l95 -95l-152 -151q111 -140 111 -318q0 -142 -66 -256q-19 -30 -47 -67l151 -154l-94 -92l-151 154q-14 -10 -27.5 -20.5 t-37.5 -25.5t-89 -40t-164 -25q-184 0 -321 111l-152 -150zM379 696q0 -172 117 -290q116 -115 288 -115q162 0 286 121q63 62 86.5 138t23.5 119t-2 70t-10 59q-24 106 -109 191q-111 111 -279 111q-172 0 -286 -116q-115 -116 -115 -288z" />
<glyph unicode="&#xa6;" horiz-adv-x="468" d="M270 389h121v-780h-121v780zM270 631v780h121v-780h-121z" />
<glyph unicode="&#xa7;" horiz-adv-x="854" d="M2 -138q0 48 21 70q26 29 67 29h12q29 0 48.5 -25.5t19.5 -41.5q0 -28 -9 -48t-9 -30t8 -23q18 -27 82 -26q109 0 182 81q47 55 47 127t-41 166.5t-111.5 210t-111.5 200.5t-41 167t59 149q63 80 178 80q41 0 75 -10t48 -14q-96 154 -96 290q0 66 20 109q40 90 78 120 q102 81 248 81q81 0 123 -16.5t65 -35.5q58 -46 58 -110q0 -17 -8 -37.5t-29.5 -34.5t-48.5 -13t-51.5 24.5t-24.5 46.5q0 31 10 52l12 23q1 2 1 8.5t-6 12.5q-15 24 -97 24q-14 0 -53 -5t-74 -41t-51 -70.5t-16 -68.5q0 -97 21.5 -149.5t44 -98.5t53 -101t62.5 -114.5 t48 -95.5t25 -64q18 -53 18 -102q0 -93 -35 -144q-4 -6 -15 -23.5t-35 -40.5q-62 -59 -159 -59q-35 0 -94 16q39 -76 64.5 -140.5t25.5 -106t-1 -65.5t-10 -55q-23 -78 -75 -124q-119 -107 -282 -107q-172 0 -230 117q-10 22 -10 36zM291 784q4 -58 33 -108l112 -211 q70 -117 168 -117q51 0 84 28t39 49t6 48q0 53 -37 123l-131 252q-95 41 -151 41q-44 0 -66 -15q-54 -38 -57 -90z" />
<glyph unicode="&#xa8;" horiz-adv-x="555" d="M37 1299.5q0 31.5 12 52t29.5 34t49 22t58.5 -2t53.5 -37.5t26.5 -73t-33.5 -80.5t-76.5 -34.5q-76 0 -109 68q-10 20 -10 51.5zM406 1284q0 47 12 62q30 59 90 65q12 4 49 -4t58.5 -41t21.5 -60q0 -42 -10 -59.5t-36 -41t-71 -23.5q-50 0 -82 36.5t-32 65.5z" />
<glyph unicode="&#xa9;" horiz-adv-x="1705" d="M221 716.5q0 98.5 17.5 173.5t43.5 133q56 129 182 247q107 100 280 154q92 28 164.5 28t119.5 -4t106 -18q137 -31 255 -119q110 -85 169 -179q124 -201 121 -413q0 -171 -83 -338q-35 -72 -97 -141q-104 -119 -246.5 -182.5t-300.5 -63.5t-299 61.5t-245 175.5 q-113 119 -158 285q-29 102 -29 200.5zM287 723q0 -243 149 -422q129 -154 320 -213q94 -29 170 -29q249 0 422 131q163 123 231 326q33 99 33 205q0 276 -200 481q-102 104 -261 156q-88 28 -157 28t-110.5 -3t-93.5 -16q-127 -31 -231 -107q-106 -80 -159 -163 q-113 -174 -113 -374zM504 742q0 289 176 384q113 60 256 60q41 0 79 -4t77 -8l45 -5q62 -8 143 -8q10 -137 25 -268h-50q-10 47 -24 90t-42 77t-69 58.5t-123 24.5q-127 0 -211 -93q-77 -85 -77 -296q0 -368 181 -444q49 -21 91.5 -21t62 1t44.5 7q69 17 120 81 q28 35 37.5 75.5t14.5 87.5h51v-262q-39 -2 -77 -7.5t-77 -9.5l-43 -4q-45 -4 -87 -8t-97.5 -4t-108.5 11t-93 29q-134 62 -180 192q-41 111 -42.5 180t-1.5 84z" />
<glyph unicode="&#xab;" horiz-adv-x="937" d="M115 530l426 482h73l-303 -512l90 -439h-73zM532 528q53 59 108.5 124t91.5 104.5t55.5 60.5t37.5 43q27 34 56 67q51 57 73 83h74l-299 -508l88 -443h-74z" />
<glyph unicode="&#xac;" d="M96 537v120h1366v-657h-123v537h-1243z" />
<glyph unicode="&#xad;" horiz-adv-x="641" d="M102 444l35 158h522l-34 -158h-523z" />
<glyph unicode="&#xae;" horiz-adv-x="1705" d="M221 725q0 236 116 398q111 155 245 232q168 97 356 97q384 0 600 -293q145 -197 141 -440q0 -164 -81 -332q-33 -70 -99 -146.5t-146.5 -128t-157.5 -76.5q-247 -82 -481 -3q-114 39 -179.5 88t-114.5 98t-93 121q-106 173 -106 385zM287 723q0 -243 149 -422 q129 -154 320 -213q94 -29 160 -29q264 0 441 137q159 122 225 324q32 97 32 201q0 224 -129 399q-78 103 -161 155q-177 111 -372 111q-220 0 -393 -126q-106 -80 -159 -163q-113 -174 -113 -374zM590 270l2 68q23 4 46.5 7t33.5 21q12 20 12 107v535q0 12 1 25.5t-2 34.5 q-5 37 -93 44l2 70q157 -6 209 -4l196 4q200 0 273 -88q47 -56 47 -126.5t-30 -111.5t-69 -64q-54 -34 -124 -44q20 -4 51 -30q46 -39 72 -140l18 -80q10 -45 21.5 -76t39.5 -31q47 0 66 115l63 -12q-10 -53 -23 -96.5t-36 -69.5q-37 -45 -54 -55q-24 -13 -43.5 -13t-31.5 2 t-27 7q-41 13 -60 38t-32.5 59.5t-24 73.5t-18.5 76t-18 73q-18 66 -45 91q-42 39 -105 39h-69v-248q0 -78 11 -95.5t32.5 -24.5t60.5 -13v-68q-119 5 -352 0zM838 809h71q116 0 166.5 24.5t66 63.5t15.5 57q0 51 -25.5 90t-70.5 49.5t-71 10.5q-73 0 -106.5 -9t-39.5 -39 t-6 -87v-160z" />
<glyph unicode="&#xb0;" horiz-adv-x="724" d="M158 1231q0 122 89 213q86 88 213 88q62 0 116.5 -23.5t95.5 -64.5q88 -88 88 -213q0 -62 -30 -132.5t-104.5 -119.5t-152 -49t-132 23.5t-95.5 64.5q-88 88 -88 213zM281 1229q0 -73 51.5 -124.5t127 -51.5t126.5 52t50 127t-52 127t-125.5 51t-126 -54.5t-51.5 -126.5z " />
<glyph unicode="&#xb1;" d="M180 0v121h1198v-121h-1198zM180 776v121h541v524h121v-524h536v-121h-536v-524h-121v524h-541z" />
<glyph unicode="&#xb4;" horiz-adv-x="555" d="M256 1126l106 338h230l-285 -338h-51z" />
<glyph unicode="&#xb5;" horiz-adv-x="1150" d="M246 754q0 80 12 120.5t36.5 56t37.5 15.5q33 0 49 -15t24.5 -36t11.5 -40t3 -33v-17q0 -61 -8 -136t-14.5 -124t-11.5 -97q-14 -141 -26 -190q23 -54 47.5 -90.5t67.5 -63t87 -26.5q62 0 101.5 21t68 55t46.5 68q29 58 39 103q30 136 27 343l-2 98q0 107 22 144 q21 36 62 36t60.5 -21.5t28.5 -50.5q11 -37 11 -118q0 -330 -98 -531q12 -39 35.5 -63.5t31.5 -29.5q21 -13 58 -13q60 0 77 76q2 10 4.5 19t2.5 26t-7 41l54 2q26 -78 26 -122.5t-7 -75t-23 -55.5q-33 -53 -103 -53q-90 0 -149 95q-21 34 -35 84q-18 -36 -68 -85 q-104 -102 -233 -102q-126 0 -215 111q-16 16 -29 41q-9 -150 19 -262q2 -6 9 -35t16 -50q30 -70 90 -163q22 -33 22 -67t-21.5 -56.5t-62.5 -22.5q-83 0 -125 150q-33 122 -33 294.5t25 344.5q-6 43 -12.5 85t-10.5 86t-7 92t-6 89q-5 68 -5 148z" />
<glyph unicode="&#xb6;" d="M281 1051q0 69 24.5 145t89 137.5t131.5 82.5q95 30 205 30h453v-90h-68v-1698h-94v1698h-322v-1698h-94v1020q-12 2 -39.5 6t-58.5 14q-117 43 -172 139.5t-55 213.5z" />
<glyph unicode="&#xb7;" horiz-adv-x="382" d="M166 602q0 43 37 78t86 35q66 0 101 -54q20 -32 20 -76t-37 -80t-81 -35t-54 11q-33 14 -52.5 46t-19.5 75z" />
<glyph unicode="&#xb8;" horiz-adv-x="555" d="M-197 -346q82 2 140.5 13t82.5 37q31 31 31 60t-23.5 48.5t-42.5 19.5t-61 -10l-8 20l189 178h73l-84 -106q47 -20 75 -47t28 -78q0 -44 -33 -80q-36 -39 -80 -54q-69 -24 -104 -29q-91 -13 -183 -13v41z" />
<glyph unicode="&#xbb;" horiz-adv-x="937" d="M49 57l299 506l-88 445h76l211 -467q-50 -60 -120.5 -138t-104 -118.5t-67.5 -79.5q-94 -108 -128 -148h-78zM463 57q207 352 305 512l-90 439h74l213 -469q-16 -16 -29.5 -34t-29.5 -35q-31 -31 -66 -71q-40 -44 -107 -121t-108 -123t-86 -98h-76z" />
<glyph unicode="&#xbf;" horiz-adv-x="854" d="M74 266q0 72 19.5 115t35.5 67q29 42 49 62q18 24 53 56t72 56.5t63 45.5q60 46 98 85.5t64.5 84.5t43.5 91q18 51 46 189l56 -10q-20 -147 -41 -209q-39 -116 -97.5 -195t-95.5 -125.5t-80 -104.5q-120 -161 -120 -288q0 -66 34 -104q42 -49 94 -49t84.5 18.5t49.5 31.5 q28 22 28 52q0 6 -4 12.5t-8 14.5q-33 37 -33 67.5t10.5 47t24.5 25.5q25 15 45 15q35 0 48 -10q57 -44 57 -98q0 -37 -12.5 -65t-29 -49t-33.5 -37q-19 -17 -56 -38q-73 -43 -164 -43q-112 0 -203 76q-98 86 -98 213zM563 1328q0 38 12.5 59.5t29 34t34 18.5t33.5 6 t36.5 -7t48 -33t28.5 -58q1 -36 -8 -56t-33.5 -43.5t-69.5 -23.5t-78 32.5t-33 70.5z" />
<glyph unicode="&#xc0;" d="M-47 0l10 47q61 6 93 17.5t63 35t48 46t39 50.5q78 98 116.5 151t65 86.5t45.5 61.5t33.5 47t36.5 47t46 57.5t47 60.5t41 58.5t39.5 55t44 56t41.5 55.5q50 67 80.5 106t59 78t58.5 79q81 108 99 130.5t29 38t30 42t37 52.5h37l-88 -1274q-6 -65 16 -92q29 -41 101 -43 l49 -2l-8 -45q-285 6 -356 5q-144 -2 -220 -5l10 47q66 4 107 11.5t63 38t24.5 57t4.5 51.5l16 223h-411l-199 -266q-25 -38 -25 -54q0 -27 17 -44q28 -21 80 -21h41l-8 -45h-453zM569 522h349l24 338l25 191zM823 1827h346q41 -59 82 -120.5t86 -127.5l-53 -2z" />
<glyph unicode="&#xc1;" d="M-47 0l10 47q61 6 93 17.5t63 35t48 46t39 50.5q78 98 116.5 151t65 86.5t45.5 61.5t33.5 47t36.5 47t46 57.5t47 60.5t41 58.5t39.5 55t44 56t41.5 55.5q50 67 80.5 106t59 78t58.5 79q81 108 99 130.5t29 38t30 42t37 52.5h37l-88 -1274q-6 -65 16 -92q29 -41 101 -43 l49 -2l-8 -45q-285 6 -356 5q-144 -2 -220 -5l10 47q66 4 107 11.5t63 38t24.5 57t4.5 51.5l16 223h-411l-199 -266q-25 -38 -25 -54q0 -27 17 -44q28 -21 80 -21h41l-8 -45h-453zM569 522h349l24 338l25 191zM1071 1599l197 228h329l-22 -45l-469 -203z" />
<glyph unicode="&#xc2;" d="M-47 0l10 47q61 6 93 17.5t63 35t48 46t39 50.5q78 98 116.5 151t65 86.5t45.5 61.5t33.5 47t36.5 47t46 57.5t47 60.5t41 58.5t39.5 55t44 56t41.5 55.5q50 67 80.5 106t59 78t58.5 79q81 108 99 130.5t29 38t30 42t37 52.5h37l-88 -1274q-6 -65 16 -92q29 -41 101 -43 l49 -2l-8 -45q-285 6 -356 5q-144 -2 -220 -5l10 47q66 4 107 11.5t63 38t24.5 57t4.5 51.5l16 223h-411l-199 -266q-25 -38 -25 -54q0 -27 17 -44q28 -21 80 -21h41l-8 -45h-453zM569 522h349l24 338l25 191zM895 1575q33 29 63.5 56.5t61.5 54.5t57.5 51t48 41.5t35 29 t27.5 21.5h151l189 -252h-86l-187 131l-274 -133h-86z" />
<glyph unicode="&#xc3;" d="M-47 0l10 47q61 6 93 17.5t63 35t48 46t39 50.5q78 98 116.5 151t65 86.5t45.5 61.5t33.5 47t36.5 47t46 57.5t47 60.5t41 58.5t39.5 55t44 56t41.5 55.5q50 67 80.5 106t59 78t58.5 79q81 108 99 130.5t29 38t30 42t37 52.5h37l-88 -1274q-6 -65 16 -92q29 -41 101 -43 l49 -2l-8 -45q-285 6 -356 5q-144 -2 -220 -5l10 47q66 4 107 11.5t63 38t24.5 57t4.5 51.5l16 223h-411l-199 -266q-25 -38 -25 -54q0 -27 17 -44q28 -21 80 -21h41l-8 -45h-453zM569 522h349l24 338l25 191zM840 1585q53 71 83.5 99t65.5 52q84 56 162 56q47 0 94 -16 l105 -37q49 -15 98 -15q70 0 129 88l72 -2q-56 -113 -177 -174q-77 -39 -122 -39q-56 0 -107 19l-65 24q-64 25 -87 25h-33q-79 0 -145 -80h-73z" />
<glyph unicode="&#xc4;" d="M-45 0l10 47q16 2 33 4q88 11 131 55t66 72q171 230 245 327t117 155.5t79 105.5t60.5 80t53.5 70q58 75 98 130.5t59 81t42.5 56.5t51 67.5t54.5 72.5q70 93 98 136h37l-86 -1278q-2 -18 -2 -27.5t4 -19.5q6 -51 43 -66.5t76 -17.5l45 -2l-8 -47q-215 9 -317.5 7.5 t-154 -3.5t-102.5 -2l8 47q111 4 138.5 21.5t39 37t15.5 38.5q6 27 6 47l16 235h-411l-199 -268q-22 -42 -22 -55q0 -60 75 -60h62l-10 -47h-451zM567 524h351l22 297l25 232zM870 1710q0 22 9 43q25 62 95 74q29 5 55 -4.5t55.5 -37.5t29.5 -77t-31 -82q-40 -43 -91.5 -43 t-86.5 39t-35 88zM1327 1705q0 46 33 83t69 40t55 -3t40 -23q45 -39 45 -100q0 -22 -9 -44t-37 -47.5t-69 -25.5t-58 9t-43 37t-26 74z" />
<glyph unicode="&#xc5;" d="M-45 0l8 47q122 11 172 67q33 36 49 52q58 79 96.5 128.5t67 88t44.5 57.5t36.5 45.5t47.5 66.5q82 119 161 214q47 63 92 124.5t75 100.5q54 68 70 89q27 33 46 63q14 16 27.5 34.5t33 46t50 66.5t61 83t63.5 87h35l-86 -1263q-2 -23 -2 -39q0 -85 82 -105q16 -4 28 -4 h58l-8 -49q-160 6 -272 6q-172 0 -304 -4l10 47q23 2 44 3q96 4 126 46q23 27 25 53.5t4 51.5l16 227h-413l-199 -268q-20 -40 -20 -62q0 -53 88 -53l47 -2l-8 -45h-451zM567 524h351l22 307l27 222zM1036 1667q0 35 4 64.5t26.5 62.5t45.5 49.5t44 24.5q38 14 64 14 q145 0 193 -128q12 -32 12 -59.5t-7 -60t-36 -64.5q-68 -75 -151 -75q-72 0 -123 43q-23 16 -47.5 55t-24.5 74zM1126 1693q0 -36 12.5 -56.5t29.5 -32.5q29 -21 68.5 -21t69 31t29.5 62.5t-8 51t-30.5 43t-56 23.5t-52 -9t-40.5 -32.5t-22 -59.5z" />
<glyph unicode="&#xc6;" horiz-adv-x="1878" d="M-49 0l12 43l43 6q51 8 83 32.5t73 78.5l868 1097q47 57 47 80q0 58 -69 58h-68l16 51h1074l-99 -350l-45 14q15 60 15 90q0 42 -23 82q-29 43 -74 58.5t-125 15.5h-293l-159 -559h203q109 15 145.5 52.5t54 83.5t27.5 79l43 -15l-152 -530l-43 14q23 78 23 100 q0 83 -52 107q-40 19 -55.5 20t-36.5 1h-182l-147 -523q-6 -12 -6 -45q0 -41 56 -52q5 -1 15 -1h211q88 0 178 24.5t172 108.5q39 42 59 78q25 44 50 119l47 -15l-115 -403h-1128l14 47h43q30 0 77 12q73 19 114 146l86 295l-385 4l-262 -338q-4 -4 -14.5 -23.5t-10.5 -32.5 q0 -26 18 -43q21 -20 68 -20l51 -2l-12 -45h-430zM614 590h338l193 670z" />
<glyph unicode="&#xc7;" d="M215 555q0 235 137 453q86 130 180 214q19 17 37.5 33.5t40 33t70.5 48t114 61.5q157 70 308 70q130 0 260 -50q27 -11 51 -11q51 0 80 59l45 -10l-106 -444l-43 10q4 40 4 62t-1 47.5t-10 57.5q-22 83 -79 132q-72 57 -171.5 57t-171 -28.5t-130.5 -70.5 q-174 -122 -285 -355q-79 -173 -88 -293q-8 -54 -8 -87q0 -108 27 -180q43 -118 136 -192q15 -12 33.5 -25.5t77.5 -37t110 -23.5t89.5 4t87.5 20q119 37 215 140q27 29 43 51.5t39 54.5l39 -24q-30 -50 -82.5 -113.5t-117.5 -111.5t-132 -77q-132 -55 -264 -55 q-169 0 -320 115q-140 120 -186 260q-29 84 -29 205zM379 -387l2 41q80 2 140.5 13t82.5 37q31 35 30 62t-24.5 46.5t-40 19.5t-61.5 -10l-10 20l188 178h76l-86 -106q47 -20 75.5 -47t28.5 -78q0 -45 -29 -75t-55 -44t-48 -22q-48 -17 -84 -22q-92 -13 -185 -13z" />
<glyph unicode="&#xc8;" horiz-adv-x="1236" d="M0 0l12 45h39q66 11 97 37q44 37 71 131l299 1051q10 34 10 55.5t-8 44t-31.5 31t-34 8.5t-14.5 2h-82l13 43l340 -2h690l-98 -348l-43 12q12 52 12 96.5t-24.5 76.5t-54.5 48t-81 18.5t-129 6.5l-86 2h-139l-156 -553h148q41 0 84 5t88 39t67.5 85t36.5 96l43 -14 l-151 -533l-46 15q27 98 27 115q0 49 -31 79q-26 35 -92 35l-198 -2q-20 -68 -40 -134.5t-37 -126.5t-30.5 -114.5t-24.5 -85.5q-30 -78 -30 -119q0 -63 106 -63h94q134 0 191 14q93 22 152 54.5t79.5 54.5t45.5 56q39 51 81 161l43 -14l-114 -408h-1094zM580 1827h344 q41 -59 82 -120.5t86 -127.5l-54 -2z" />
<glyph unicode="&#xc9;" horiz-adv-x="1236" d="M0 0l12 45h39q66 11 97 37q44 37 71 131l299 1051q10 34 10 55.5t-8 44t-31.5 31t-34 8.5t-14.5 2h-82l13 43l340 -2h690l-98 -348l-43 12q12 52 12 96.5t-24.5 76.5t-54.5 48t-81 18.5t-129 6.5l-86 2h-139l-156 -553h148q41 0 84 5t88 39t67.5 85t36.5 96l43 -14 l-151 -533l-46 15q27 98 27 115q0 49 -31 79q-26 35 -92 35l-198 -2q-20 -68 -40 -134.5t-37 -126.5t-30.5 -114.5t-24.5 -85.5q-30 -78 -30 -119q0 -63 106 -63h94q134 0 191 14q93 22 152 54.5t79.5 54.5t45.5 56q39 51 81 161l43 -14l-114 -408h-1094zM825 1599l197 228 h330l-23 -45l-469 -203z" />
<glyph unicode="&#xca;" horiz-adv-x="1236" d="M0 0l12 45h39q66 11 97 37q44 37 71 131l299 1051q10 34 10 55.5t-8 44t-31.5 31t-34 8.5t-14.5 2h-82l13 43l340 -2h690l-98 -348l-43 12q12 52 12 96.5t-24.5 76.5t-54.5 48t-81 18.5t-129 6.5l-86 2h-139l-156 -553h148q41 0 84 5t88 39t67.5 85t36.5 96l43 -14 l-151 -533l-46 15q27 98 27 115q0 49 -31 79q-26 35 -92 35l-198 -2q-20 -68 -40 -134.5t-37 -126.5t-30.5 -114.5t-24.5 -85.5q-30 -78 -30 -119q0 -63 106 -63h94q134 0 191 14q93 22 152 54.5t79.5 54.5t45.5 56q39 51 81 161l43 -14l-114 -408h-1094zM682 1575 q31 29 62.5 56.5t61.5 54.5q54 48 91 79t50.5 42.5t27.5 21.5h149l191 -252h-86l-187 131l-274 -133h-86z" />
<glyph unicode="&#xcb;" horiz-adv-x="1236" d="M0 0l12 45h39q66 11 97 37q44 37 71 131l299 1051q10 34 10 55.5t-8 44t-31.5 31t-34 8.5t-14.5 2h-82l13 43l340 -2h690l-98 -348l-43 12q12 52 12 96.5t-24.5 76.5t-54.5 48t-81 18.5t-129 6.5l-86 2h-139l-156 -553h148q41 0 84 5t88 39t67.5 85t36.5 96l43 -14 l-151 -533l-46 15q27 98 27 115q0 49 -31 79q-26 35 -92 35l-198 -2q-20 -68 -40 -134.5t-37 -126.5t-30.5 -114.5t-24.5 -85.5q-30 -78 -30 -119q0 -63 106 -63h94q134 0 191 14q93 22 152 54.5t79.5 54.5t45.5 56q39 51 81 161l43 -14l-114 -408h-1094zM643 1706 q0 31 8 49t33 44t49.5 28t37.5 2t34 -7t50.5 -35t29.5 -83q0 -42 -29 -73q-44 -46 -92 -46q-22 0 -43.5 8t-50.5 36t-27 77zM1098 1712q0 62 52 96q27 19 50 22q25 3 55 -3q25 -10 55.5 -37t30.5 -84q0 -47 -32.5 -79t-57 -35t-43.5 -3q-38 0 -67 28q-43 42 -43 95z" />
<glyph unicode="&#xcc;" horiz-adv-x="724" d="M4 0l14 45h45q93 0 127 71q19 42 27 70l299 1053q12 24 12 80q0 84 -116 84h-52l13 43h594l-11 -39h-36q-55 0 -83 -12.5t-49 -35.5q-28 -32 -47 -89l-311 -1090q-10 -33 -9 -65q2 -70 122 -70h51l-12 -43l-146 -2h-432zM311 1827h346q41 -59 82 -120.5t86 -127.5l-53 -2 z" />
<glyph unicode="&#xcd;" horiz-adv-x="724" d="M4 0l14 45h45q93 0 127 71q19 42 27 70l299 1053q12 24 12 80q0 84 -116 84h-52l13 43h594l-11 -39h-36q-55 0 -83 -12.5t-49 -35.5q-28 -32 -47 -89l-311 -1090q-10 -33 -9 -65q2 -70 122 -70h51l-12 -43l-146 -2h-432zM559 1599l197 228h327l-22 -45l-467 -203z" />
<glyph unicode="&#xce;" horiz-adv-x="724" d="M4 0l14 45h45q93 0 127 71q19 42 27 70l299 1053q12 24 12 80q0 84 -116 84h-52l13 43h594l-11 -39h-36q-55 0 -83 -12.5t-49 -35.5q-28 -32 -47 -89l-311 -1090q-10 -33 -9 -65q2 -70 122 -70h51l-12 -43l-146 -2h-432zM403 1575q122 107 165.5 146.5t65 57t35 29 t27.5 21.5h152l188 -252h-86l-186 131l-272 -133h-89z" />
<glyph unicode="&#xcf;" horiz-adv-x="724" d="M4 0l14 45h45q93 0 127 71q19 42 27 70l299 1053q12 24 12 80q0 84 -116 84h-52l13 43h594l-11 -39h-36q-55 0 -83 -12.5t-49 -35.5q-28 -32 -47 -89l-311 -1090q-10 -33 -9 -65q2 -70 122 -70h51l-12 -43l-146 -2h-432zM375 1706q0 31 10 51q8 16 31.5 42t49 28t38 2 t34.5 -7t51 -35t29 -83q0 -42 -28 -73q-44 -46 -92 -46q-22 0 -43.5 8t-50.5 36t-29 77zM831 1712q0 61 53 96q27 19 50 22q25 3 55 -3q25 -10 54.5 -37t29.5 -84q0 -45 -33 -77q-41 -40 -80 -40q-49 0 -92 33q-37 37 -37 90z" />
<glyph unicode="&#xd1;" horiz-adv-x="1449" d="M4 0l10 43q39 0 73 10t59.5 37t41 54.5t22.5 51t9 27.5q285 977 295 1012t10 48q0 42 -33.5 75t-76.5 40t-82 7h-25l10 45q104 -6 199.5 -6t177.5 4l480 -1040l225 782q46 150 10 179q-47 38 -119 32l-30 2l8 43h467l-11 -43h-36q-4 -2 -28 -6q-84 -14 -122 -83 q-25 -46 -60 -169q-79 -270 -143 -487q-119 -402 -146.5 -524t-37.5 -163l-27 2q-37 88 -73.5 176.5t-79.5 183.5q-101 224 -168.5 364.5t-116.5 248t-100 217.5l-267 -946q-10 -31 -10 -42v-32q0 -10 3 -34.5t28 -41.5q35 -24 94 -24h39l-12 -43h-457zM690 1585 q54 72 84.5 99.5t65.5 51.5q82 56 161 56q48 0 95 -16l104 -37q49 -15 98 -15q70 0 129 88l72 -2q-18 -36 -44 -68t-60.5 -59.5t-71.5 -46.5q-79 -39 -123 -39q-57 0 -106 19l-66 24q-64 25 -86 25h-34q-81 0 -144 -80h-74z" />
<glyph unicode="&#xd2;" horiz-adv-x="1449" d="M205 494q0 62 17 166t66.5 232t109.5 210q82 110 132 164q104 104 227 157.5t232 57.5q202 0 338 -127l19 -18q18 -19 52 -74q77 -126 77 -293q0 -245 -149 -534q-42 -83 -111.5 -168t-115 -122t-86 -65.5t-93.5 -53.5q-123 -57 -220.5 -57t-142.5 11.5t-69 22.5 q-71 32 -99.5 57.5t-38.5 35.5q-145 150 -145 398zM426 378q0 -57 15.5 -113t27.5 -77q29 -49 70 -77q67 -58 163 -58q76 0 156 45q66 41 124 114t111.5 193.5t82 217t44.5 178.5q25 135 25 231q0 162 -51 240q-28 47 -62 73.5t-85.5 38t-79 10.5t-51 -6.5t-54.5 -17.5 q-73 -28 -129 -90q-212 -229 -293 -723q-14 -82 -14 -119v-60zM674 1827h346q41 -59 82 -120.5t86 -127.5l-53 -2z" />
<glyph unicode="&#xd3;" horiz-adv-x="1449" d="M205 494q0 62 17 166t66.5 232t109.5 210q82 110 132 164q104 104 227 157.5t232 57.5q202 0 338 -127l19 -18q18 -19 52 -74q77 -126 77 -293q0 -245 -149 -534q-42 -83 -111.5 -168t-115 -122t-86 -65.5t-93.5 -53.5q-123 -57 -220.5 -57t-142.5 11.5t-69 22.5 q-71 32 -99.5 57.5t-38.5 35.5q-145 150 -145 398zM426 378q0 -57 15.5 -113t27.5 -77q29 -49 70 -77q67 -58 163 -58q76 0 156 45q66 41 124 114t111.5 193.5t82 217t44.5 178.5q25 135 25 231q0 162 -51 240q-28 47 -62 73.5t-85.5 38t-79 10.5t-51 -6.5t-54.5 -17.5 q-73 -28 -129 -90q-212 -229 -293 -723q-14 -82 -14 -119v-60zM922 1599l196 228h330l-23 -45l-469 -203z" />
<glyph unicode="&#xd4;" horiz-adv-x="1449" d="M205 494q0 62 17 166t66.5 232t109.5 210q82 110 132 164q104 104 227 157.5t232 57.5q202 0 338 -127l19 -18q18 -19 52 -74q77 -126 77 -293q0 -245 -149 -534q-42 -83 -111.5 -168t-115 -122t-86 -65.5t-93.5 -53.5q-123 -57 -220.5 -57t-142.5 11.5t-69 22.5 q-71 32 -99.5 57.5t-38.5 35.5q-145 150 -145 398zM426 378q0 -57 15.5 -113t27.5 -77q29 -49 70 -77q67 -58 163 -58q76 0 156 45q66 41 124 114t111.5 193.5t82 217t44.5 178.5q25 135 25 231q0 162 -51 240q-28 47 -62 73.5t-85.5 38t-79 10.5t-51 -6.5t-54.5 -17.5 q-73 -28 -129 -90q-212 -229 -293 -723q-14 -82 -14 -119v-60zM725 1575q73 68 113.5 103t68 59t49 41.5t35 29t27.5 21.5h149l189 -252h-84l-187 131l-274 -133h-86z" />
<glyph unicode="&#xd5;" horiz-adv-x="1449" d="M205 494q0 62 17 166t66.5 232t109.5 210q82 110 132 164q104 104 227 157.5t232 57.5q202 0 338 -127l19 -18q18 -19 52 -74q77 -126 77 -293q0 -245 -149 -534q-42 -83 -111.5 -168t-115 -122t-86 -65.5t-93.5 -53.5q-123 -57 -220.5 -57t-142.5 11.5t-69 22.5 q-71 32 -99.5 57.5t-38.5 35.5q-145 150 -145 398zM426 378q0 -57 15.5 -113t27.5 -77q29 -49 70 -77q67 -58 163 -58q76 0 156 45q66 41 124 114t111.5 193.5t82 217t44.5 178.5q25 135 25 231q0 162 -51 240q-28 47 -62 73.5t-85.5 38t-79 10.5t-51 -6.5t-54.5 -17.5 q-73 -28 -129 -90q-212 -229 -293 -723q-14 -82 -14 -119v-60zM690 1585q54 72 84.5 99.5t65.5 51.5q82 56 161 56q48 0 95 -16l104 -37q49 -15 98 -15q70 0 129 88l72 -2q-18 -36 -44 -68t-60.5 -59.5t-71.5 -46.5q-79 -39 -123 -39q-57 0 -106 19l-66 24q-64 25 -86 25 h-34q-81 0 -144 -80h-74z" />
<glyph unicode="&#xd6;" horiz-adv-x="1449" d="M207 475q0 191 72 385q111 310 344 483q122 88 241 119q54 15 90.5 16t61 1t56.5 -5q215 -30 333 -219q72 -125 72 -266t-30 -248.5t-71 -198.5q-72 -159 -157 -270q-12 -16 -58.5 -66t-88.5 -82.5t-80 -57.5t-87 -46q-115 -51 -233 -51q-149 0 -246 68q-14 10 -26.5 17 t-25.5 20q-112 107 -142 229q-25 102 -25 172zM426 380q0 -112 47 -198q20 -37 68 -76q76 -53 161 -53q175 0 300 184q155 230 224 583q21 112 21 174v84q0 42 -14 97q-26 99 -67 140q-17 16 -33.5 29t-66.5 33t-104.5 15t-90 -19.5t-66.5 -34.5q-52 -32 -81 -67 q-56 -66 -84 -114q-144 -244 -202 -613q-12 -73 -12 -106v-58zM782 1724.5q0 55.5 63 94.5q40 25 97 10q25 -10 53.5 -39t28.5 -64q0 -37 -11 -62t-39 -49t-64 -24t-56 11q-20 10 -46 38.5t-26 84zM1237 1698q0 43 8 60t34 45t71 32h19q45 0 78.5 -38t33.5 -79t-12.5 -59.5 t-25.5 -31.5q-38 -38 -85 -38q-50 0 -85.5 39t-35.5 70z" />
<glyph unicode="&#xd7;" d="M268 170l424 426l-424 422l86 86l424 -424l426 424l86 -86l-426 -422l426 -426l-86 -84l-426 424l-424 -424z" />
<glyph unicode="&#xd8;" horiz-adv-x="1449" d="M201 496q0 184 77 382q56 141 107 215q96 139 201 226q94 70 154 97q137 63 259 63q142 0 241 -63q17 -11 34 -21l125 170l74 -54l-132 -180q16 -23 33 -44t36 -53q60 -105 60 -271q0 -228 -129 -486q-93 -186 -213 -299q-207 -207 -462 -207q-142 0 -226 53 q-14 9 -30 19l-129 -178l-74 55q51 68 131 184q-137 137 -137 392zM420 399q0 -55 8 -93.5t12 -61.5q29 37 51.5 69.5t56.5 77.5t71.5 99.5t80.5 111.5t86 117.5t79 110.5q84 115 122.5 166.5t69 95t55 79.5t41 57t35.5 48q-32 43 -53 62q-58 55 -168 55q-129 0 -242 -113 q-81 -81 -127 -190q-10 -23 -28.5 -60t-48 -123t-52.5 -176q-49 -192 -49 -332zM487 150q85 -97 211 -97q91 0 163.5 50.5t109.5 100.5t69.5 103t72.5 151.5t69 199.5q59 212 59 380q0 35 -4 68t-8 68z" />
<glyph unicode="&#xd9;" horiz-adv-x="1449" d="M256 318q0 106 23 190l208 741q0 4 5.5 24.5t5.5 51.5t-20.5 48.5t-34 20.5t-19.5 3t-23 2h-59l12 47h586l-10 -51h-41q-61 0 -93 -12.5t-54.5 -41.5t-29.5 -48t-18 -60l-192 -686q-41 -143 -41 -188t10 -93.5t49 -82.5q97 -85 230 -85q156 0 268 101q72 66 105.5 145.5 t54.5 149.5l219 766q12 23 10 45t-8 46.5t-43 39.5q-8 4 -17.5 4t-17.5 2h-82l8 47l125 2h260l80 -2l-14 -47l-39 -2q-70 -4 -104.5 -27t-55.5 -98l-242 -834q-23 -76 -55 -148q-90 -205 -318 -288q-75 -27 -149.5 -27t-154.5 11q-196 29 -298 228q-26 52 -26 106zM674 1827 h346q41 -59 82 -120.5t86 -127.5l-53 -2z" />
<glyph unicode="&#xda;" horiz-adv-x="1449" d="M256 318q0 106 23 190l208 741q0 4 5.5 24.5t5.5 51.5t-20.5 48.5t-34 20.5t-19.5 3t-23 2h-59l12 47h586l-10 -51h-41q-61 0 -93 -12.5t-54.5 -41.5t-29.5 -48t-18 -60l-192 -686q-41 -143 -41 -188t10 -93.5t49 -82.5q97 -85 230 -85q156 0 268 101q72 66 105.5 145.5 t54.5 149.5l219 766q12 23 10 45t-8 46.5t-43 39.5q-8 4 -17.5 4t-17.5 2h-82l8 47l125 2h260l80 -2l-14 -47l-39 -2q-70 -4 -104.5 -27t-55.5 -98l-242 -834q-23 -76 -55 -148q-90 -205 -318 -288q-75 -27 -149.5 -27t-154.5 11q-196 29 -298 228q-26 52 -26 106zM922 1599 l196 228h330l-23 -45l-469 -203z" />
<glyph unicode="&#xdb;" horiz-adv-x="1449" d="M256 318q0 106 23 190l208 741q0 4 5.5 24.5t5.5 51.5t-20.5 48.5t-34 20.5t-19.5 3t-23 2h-59l12 47h586l-10 -51h-41q-61 0 -93 -12.5t-54.5 -41.5t-29.5 -48t-18 -60l-192 -686q-41 -143 -41 -188t10 -93.5t49 -82.5q97 -85 230 -85q156 0 268 101q72 66 105.5 145.5 t54.5 149.5l219 766q12 23 10 45t-8 46.5t-43 39.5q-8 4 -17.5 4t-17.5 2h-82l8 47l125 2h260l80 -2l-14 -47l-39 -2q-70 -4 -104.5 -27t-55.5 -98l-242 -834q-23 -76 -55 -148q-90 -205 -318 -288q-75 -27 -149.5 -27t-154.5 11q-196 29 -298 228q-26 52 -26 106zM766 1575 q33 29 63.5 56.5t65.5 56.5q53 51 88 79.5t48 40t28 21.5h151l189 -252h-86l-187 131l-272 -133h-88z" />
<glyph unicode="&#xdc;" horiz-adv-x="1449" d="M260 344q0 91 27 186l200 717q13 52 13 80.5t-22 46.5q-31 25 -68 25h-66l12 49l185 -2h403l-14 -49h-39q-16 -2 -33 -3q-89 -5 -117 -52.5t-43 -98.5l-200 -717q-35 -125 -35 -181q0 -89 39 -136q82 -109 250 -109q145 0 252 88q83 66 132 180q19 44 42 119l215 744 q16 53 16 88q-4 78 -98 78h-70l8 49h465l-14 -49h-51q-72 0 -101 -35q-35 -42 -47 -88l-229 -803q-57 -192 -139.5 -293.5t-158 -137.5t-132.5 -46q-107 -19 -134.5 -19t-55 1t-64.5 8q-189 39 -281 186q-47 85 -47 174zM803 1704q0 37 8 54t35.5 46t85.5 29q44 0 78 -39 t34 -77t-9 -58.5t-36 -42.5q-34 -29 -75 -29q-28 0 -52 11t-46.5 40t-22.5 66zM1257 1710q0 43 34 80t62.5 39t49 0t43.5 -19q53 -42 53 -104q0 -64 -67 -106q-19 -13 -62 -13t-78 36t-35 87z" />
<glyph unicode="&#xdf;" horiz-adv-x="1067" d="M-317 -229.5q0 14.5 5 31.5t24.5 45t54.5 28t57 -20.5t22 -44.5q0 -33 -21 -58.5t-22 -36.5q0 -10 12.5 -16t23.5 -6t48 13t74 53t69.5 105.5t59.5 136.5q36 95 78 245l252 876q4 16 12 34t14 34q73 181 211 244q74 32 136 32q84 0 120 -11q55 -16 71.5 -27t35 -21 t42 -34.5t48.5 -74t25 -114.5q0 -109 -62 -193q-16 -27 -56 -61q-43 -35 -95 -68q-71 -34 -136 -53q2 -2 31 -10t60.5 -28t59.5 -51.5t44 -67.5q31 -70 31 -149t-35 -180.5t-77 -156.5q-62 -82 -99 -105q-92 -75 -205 -75q-102 0 -153 88q-19 32 -19 86.5t29.5 82t57.5 27.5 t41 -10t22 -24q12 -22 12 -44q0 -34 -20 -56q-29 -29 -29 -46q0 -39 61 -45q68 0 122 100q76 138 108 326q6 39 6 55.5t-1.5 32.5t-5.5 40q-11 64 -28.5 89.5t-29 36t-18.5 16.5q-47 40 -133 56l17 57q107 10 161 47t82.5 82t45.5 94q34 94 34 158.5t-14 95.5t-36 49 q-38 31 -79 31t-63.5 -8t-63.5 -41q-68 -54 -110 -201l-264 -921q-88 -313 -248 -476q-112 -112 -227 -112h-17q-67 0 -100 31q-23 16 -38 44.5t-15 43z" />
<glyph unicode="&#xe0;" horiz-adv-x="1067" d="M115 233q0 191 142 413q99 153 249 256q93 65 190 65q15 0 45 -4q83 -11 119 -111l25 86l178 31l-213 -770q-12 -24 -12 -53t10 -37q29 -14 50.5 4t36.5 36.5t21.5 25.5t13.5 17t17 24.5t21 29.5l36 -19q-41 -61 -95 -125q-63 -76 -153 -116q-24 -11 -48 -11 q-34 0 -62 33q-18 22 -18 59q0 70 26 166q-16 -23 -33.5 -43t-35.5 -39.5t-50 -48t-75 -56.5q-106 -69 -191 -69q-67 0 -109 34q-85 69 -85 222zM293 263.5q0 -70.5 14.5 -100.5t32.5 -40q41 -23 69 -23t74.5 18.5t99 72.5t95.5 127t72 149q63 161 63 283v26q0 53 -39 86 t-88.5 27.5t-64.5 -17.5q-54 -28 -94 -75t-54 -68.5t-29.5 -45t-45 -84t-52.5 -123.5q-53 -142 -53 -212.5zM547 1462h237q12 -43 24.5 -84t26 -86t23.5 -84t25 -82l-49 2q-51 58 -126 147q-127 151 -161 187z" />
<glyph unicode="&#xe1;" horiz-adv-x="1067" d="M115 233q0 191 142 413q99 153 249 256q93 65 190 65q15 0 45 -4q83 -11 119 -111l25 86l178 31l-213 -770q-12 -24 -12 -53t10 -37q29 -14 50.5 4t36.5 36.5t21.5 25.5t13.5 17t17 24.5t21 29.5l36 -19q-41 -61 -95 -125q-63 -76 -153 -116q-24 -11 -48 -11 q-34 0 -62 33q-18 22 -18 59q0 70 26 166q-16 -23 -33.5 -43t-35.5 -39.5t-50 -48t-75 -56.5q-106 -69 -191 -69q-67 0 -109 34q-85 69 -85 222zM293 263.5q0 -70.5 14.5 -100.5t32.5 -40q41 -23 69 -23t74.5 18.5t99 72.5t95.5 127t72 149q63 161 63 283v26q0 53 -39 86 t-88.5 27.5t-64.5 -17.5q-54 -28 -94 -75t-54 -68.5t-29.5 -45t-45 -84t-52.5 -123.5q-53 -142 -53 -212.5zM682 1126l109 338h227l-285 -338h-51z" />
<glyph unicode="&#xe2;" horiz-adv-x="1067" d="M115 233q0 191 142 413q99 153 249 256q93 65 190 65q15 0 45 -4q83 -11 119 -111l25 86l178 31l-213 -770q-12 -24 -12 -53t10 -37q29 -14 50.5 4t36.5 36.5t21.5 25.5t13.5 17t17 24.5t21 29.5l36 -19q-41 -61 -95 -125q-63 -76 -153 -116q-24 -11 -48 -11 q-34 0 -62 33q-18 22 -18 59q0 70 26 166q-16 -23 -33.5 -43t-35.5 -39.5t-50 -48t-75 -56.5q-106 -69 -191 -69q-67 0 -109 34q-85 69 -85 222zM293 263.5q0 -70.5 14.5 -100.5t32.5 -40q41 -23 69 -23t74.5 18.5t99 72.5t95.5 127t72 149q63 161 63 283v26q0 53 -39 86 t-88.5 27.5t-64.5 -17.5q-54 -28 -94 -75t-54 -68.5t-29.5 -45t-45 -84t-52.5 -123.5q-53 -142 -53 -212.5zM459 1130l299 332h157l105 -332h-47l-144 213l-303 -213h-67z" />
<glyph unicode="&#xe3;" horiz-adv-x="1067" d="M115 233q0 191 142 413q99 153 249 256q93 65 190 65q15 0 45 -4q83 -11 119 -111l25 86l178 31l-213 -770q-12 -24 -12 -53t10 -37q29 -14 50.5 4t36.5 36.5t21.5 25.5t13.5 17t17 24.5t21 29.5l36 -19q-41 -61 -95 -125q-63 -76 -153 -116q-24 -11 -48 -11 q-34 0 -62 33q-18 22 -18 59q0 70 26 166q-16 -23 -33.5 -43t-35.5 -39.5t-50 -48t-75 -56.5q-106 -69 -191 -69q-67 0 -109 34q-85 69 -85 222zM293 263.5q0 -70.5 14.5 -100.5t32.5 -40q41 -23 69 -23t74.5 18.5t99 72.5t95.5 127t72 149q63 161 63 283v26q0 53 -39 86 t-88.5 27.5t-64.5 -17.5q-54 -28 -94 -75t-54 -68.5t-29.5 -45t-45 -84t-52.5 -123.5q-53 -142 -53 -212.5zM360 1188q12 16 22.5 30.5t24 29.5t39 40t59.5 48q85 59 161 59q40 0 100 -17l108 -39q46 -12 90 -12q69 0 126 82h73q-27 -44 -43 -63q-55 -68 -130 -106t-136 -38 q-36 0 -74 8l-110 43q-51 17 -80 17q-84 0 -136 -56q-10 -12 -22 -26h-72z" />
<glyph unicode="&#xe4;" horiz-adv-x="1067" d="M115 217q0 88 19.5 157.5t45.5 127.5q29 63 94 170q99 135 226 225q99 70 194 70q128 0 166 -115l25 84l178 33l-209 -756l-16 -82q0 -29 29.5 -29t65.5 43t75 101l36 -21q-45 -66 -93 -123q-62 -74 -149 -116q-24 -11 -40 -11q-36 0 -49 9q-45 20 -45 92q0 61 26 157 q-46 -62 -65 -79t-33 -30t-29.5 -27.5t-27.5 -23.5t-35 -25.5t-52 -31.5q-78 -41 -139 -41t-99 25t-60 64q-39 65 -39 153zM293 246q0 -57 11 -76q19 -35 42 -50q54 -35 115 -12q75 29 118 77q120 131 183 317q26 53 39.5 131t13.5 96v33q0 38 -21 74q-37 62 -119 53 q-54 -6 -96 -44q-118 -106 -188 -265q-98 -220 -98 -334zM494 1303q0 44 32.5 78t80.5 36t82 -32.5t34 -84.5q0 -47 -34 -80.5t-82 -33.5t-80.5 33.5t-32.5 83.5zM863 1306.5q-1 38.5 28.5 72.5t57.5 37t51.5 1t49.5 -23q44 -36 44 -89q0 -44 -24 -72q-41 -45 -93 -45 q-62 0 -97 54q-16 26 -17 64.5z" />
<glyph unicode="&#xe5;" horiz-adv-x="1067" d="M117 233q0 59 15 127t43 131.5t59 116.5q73 124 138 182q11 11 26 25t45 40t69 51q95 59 184 59q111 0 152 -85l14 -28l23 84l178 33l-215 -776q-10 -45 -10 -58q0 -4 6 -18.5t29.5 -14.5t58.5 43t76 99l36 -19q-45 -63 -92 -120.5t-90 -84.5q-78 -47 -107.5 -47 t-47.5 17q-39 25 -39 72q0 70 26 169q-16 -18 -53 -62t-107 -101q-117 -93 -229 -93q-63 0 -106 36q-82 69 -82 222zM293 238q0 -91 59 -123q33 -17 52 -17q44 0 80 18q134 69 235 280q96 201 96 352q0 84 -54 124q-30 23 -68 19t-54 -11.5t-35 -17.5t-59.5 -48t-66 -77.5 t-54.5 -89t-58 -115.5q-73 -172 -73 -294zM610 1296q0 61 44.5 114.5t120.5 58.5q131 9 183 -110q15 -36 15 -74q0 -95 -97 -155q-34 -20 -67 -20q-57 0 -80.5 10t-43 24.5t-35.5 35.5q-40 52 -40 116zM699 1290q1 -37 28 -65.5t65 -27.5t64.5 28.5t26.5 52.5q0 38 -13 57 q-29 64 -104 45q-18 -5 -43 -29t-24 -61z" />
<glyph unicode="&#xe6;" horiz-adv-x="1449" d="M115 229q0 153 69 291q4 8 7.5 15.5t20.5 38.5q56 108 152 212q115 122 239 164q42 15 87 15q123 0 164 -123l27 104l178 21l-27 -95q18 10 46 26.5t63 31.5q82 37 152 37q162 0 204 -105q14 -32 14 -63t-11 -77t-66 -108.5t-125 -99.5t-142.5 -56.5t-142.5 -26.5 t-127 -13q-10 -68 -10 -114q0 -153 137 -216q25 -12 51 -12q48 0 83.5 9t63 21.5t52.5 29.5q53 36 115 93l26 -28q-99 -95 -142.5 -126.5t-88.5 -51t-83 -29.5q-211 -55 -315 67q-30 30 -48.5 79t-22.5 86.5t-6 47.5q-131 -196 -295 -276q-52 -25 -87.5 -25t-63 5.5 t-64.5 35.5q-84 66 -84 215zM291 264q0 -66 22 -96q8 -14 30 -32.5t49 -18.5q88 0 204 116q27 31 52 66.5t36.5 54.5t23.5 40q32 62 58.5 144.5t33.5 119t7 80.5q0 82 -17 105q-36 51 -101 47.5t-133.5 -65t-98 -108.5t-54 -90t-49.5 -101q-63 -152 -63 -262zM911 475 q125 17 177 34q113 36 179 102t84.5 120.5t18.5 68.5v28q0 14 -10 30q-22 45 -90 45q-81 0 -180 -92q-66 -62 -132 -203q-14 -28 -21 -50t-13.5 -41t-12.5 -42z" />
<glyph unicode="&#xe7;" horiz-adv-x="811" d="M102 -346q82 2 140.5 13t83.5 37q30 31 30 60t-23.5 48.5t-42.5 19.5t-61 -10l-8 20l189 178h73l-84 -106q47 -20 75 -47t28 -78q0 -44 -33 -80q-36 -39 -80 -54q-69 -24 -104 -29q-91 -13 -183 -13v41zM127 281q0 84 18.5 156.5t46.5 132.5q48 108 95 169q71 91 125 123 q139 109 290 109q64 0 105 -25.5t65.5 -56.5t24.5 -90q0 -46 -25 -79q-41 -58 -77 -58t-62 24.5t-26 51.5q0 36 43 75q20 27 20 43q0 11 -10 29q-13 24 -64 24t-98 -25.5t-88 -65.5q-111 -109 -176 -302q-35 -102 -35 -192q0 -97 50 -166q21 -29 69.5 -49.5t114 -20.5 t122 35t121.5 113l25 -31q-12 -16 -23.5 -30.5t-23.5 -31.5q-155 -168 -338 -168q-193 0 -266 167q-23 55 -23 139z" />
<glyph unicode="&#xe8;" horiz-adv-x="854" d="M125 285q0 188 131 383q94 135 219 217t256 82q112 0 175 -94q20 -29 20 -67t-10.5 -85t-64.5 -107.5t-123 -97.5t-139.5 -57.5t-140 -27.5t-126.5 -13q-15 -72 -15 -113t13.5 -81t39.5 -70q59 -68 156 -68q45 0 90 14q67 21 189 127l22 -34q-20 -16 -38.5 -33t-40.5 -35 t-54.5 -44t-75.5 -49q-100 -52 -194 -52q-149 0 -221 90q-68 81 -68 215zM338 479q80 8 161 29.5t141.5 70t84 81t36.5 60.5q21 45 21 84.5t-24.5 64t-56.5 24.5q-55 0 -109.5 -40t-94.5 -89t-69 -93t-45 -77t-21 -45q-18 -43 -24 -70zM461 1462h237q12 -43 24.5 -84t26 -86 t23.5 -84t25 -82l-47 2q-133 150 -194.5 224.5t-94.5 109.5z" />
<glyph unicode="&#xe9;" horiz-adv-x="854" d="M125 285q0 188 131 383q94 135 219 217t256 82q112 0 175 -94q20 -29 20 -67t-10.5 -85t-64.5 -107.5t-123 -97.5t-139.5 -57.5t-140 -27.5t-126.5 -13q-15 -72 -15 -113t13.5 -81t39.5 -70q59 -68 156 -68q45 0 90 14q67 21 189 127l22 -34q-20 -16 -38.5 -33t-40.5 -35 t-54.5 -44t-75.5 -49q-100 -52 -194 -52q-149 0 -221 90q-68 81 -68 215zM338 479q80 8 161 29.5t141.5 70t84 81t36.5 60.5q21 45 21 84.5t-24.5 64t-56.5 24.5q-55 0 -109.5 -40t-94.5 -89t-69 -93t-45 -77t-21 -45q-18 -43 -24 -70zM598 1126l107 338h229l-285 -338h-51z " />
<glyph unicode="&#xea;" horiz-adv-x="854" d="M125 285q0 188 131 383q94 135 219 217t256 82q112 0 175 -94q20 -29 20 -67t-10.5 -85t-64.5 -107.5t-123 -97.5t-139.5 -57.5t-140 -27.5t-126.5 -13q-15 -72 -15 -113t13.5 -81t39.5 -70q59 -68 156 -68q45 0 90 14q67 21 189 127l22 -34q-20 -16 -38.5 -33t-40.5 -35 t-54.5 -44t-75.5 -49q-100 -52 -194 -52q-149 0 -221 90q-68 81 -68 215zM338 479q80 8 161 29.5t141.5 70t84 81t36.5 60.5q21 45 21 84.5t-24.5 64t-56.5 24.5q-55 0 -109.5 -40t-94.5 -89t-69 -93t-45 -77t-21 -45q-18 -43 -24 -70zM373 1130l301 332h155l105 -332h-45 l-146 213l-303 -213h-67z" />
<glyph unicode="&#xeb;" horiz-adv-x="854" d="M125 285q0 188 131 383q94 135 219 217t256 82q112 0 175 -94q20 -29 20 -67t-10.5 -85t-64.5 -107.5t-123 -97.5t-139.5 -57.5t-140 -27.5t-126.5 -13q-15 -72 -15 -113t13.5 -81t39.5 -70q59 -68 156 -68q45 0 90 14q67 21 189 127l22 -34q-20 -16 -38.5 -33t-40.5 -35 t-54.5 -44t-75.5 -49q-100 -52 -194 -52q-149 0 -221 90q-68 81 -68 215zM338 479q80 8 161 29.5t141.5 70t84 81t36.5 60.5q21 45 21 84.5t-24.5 64t-56.5 24.5q-55 0 -109.5 -40t-94.5 -89t-69 -93t-45 -77t-21 -45q-18 -43 -24 -70zM379 1299.5q0 31.5 12 52t29.5 34 t49 22t58.5 -2t53.5 -37.5t26.5 -73t-33.5 -80.5t-78.5 -34.5q-74 0 -107 68q-10 20 -10 51.5zM748 1284q0 37 9 58q28 63 93 69q12 4 49 -4t58.5 -41t21.5 -60q0 -42 -10 -59.5t-37 -41t-70 -23.5q-50 0 -82 36.5t-32 65.5z" />
<glyph unicode="&#xec;" horiz-adv-x="555" d="M141 70q0 17 11 53l176 639q4 18 8 30.5t4 32.5q0 60 -70 60q-16 0 -31.5 -1t-23.5 -1l10 37q49 4 98.5 8t90.5 12q57 11 139 31l-227 -809q-19 -50 -3.5 -60t24.5 -10t27.5 13.5t35.5 30.5q41 41 57 63l29 -25q-173 -199 -269 -199q-21 0 -34 9q-52 23 -52 86zM270 1462 h236q12 -43 25.5 -84t25.5 -86t23.5 -84t23.5 -82l-47 2q-51 58 -127 147t-102.5 120.5t-57.5 66.5z" />
<glyph unicode="&#xed;" horiz-adv-x="555" d="M141 70q0 17 11 53l176 639q4 18 8 30.5t4 32.5q0 60 -70 60q-16 0 -31.5 -1t-23.5 -1l10 37q49 4 98.5 8t90.5 12q57 11 139 31l-227 -809q-19 -50 -3.5 -60t24.5 -10t27.5 13.5t35.5 30.5q41 41 57 63l29 -25q-173 -199 -269 -199q-21 0 -34 9q-52 23 -52 86zM406 1126 l106 338h229l-284 -338h-51z" />
<glyph unicode="&#xee;" horiz-adv-x="555" d="M141 70q0 17 11 53l176 639q4 18 8 30.5t4 32.5q0 60 -70 60q-16 0 -31.5 -1t-23.5 -1l10 37q49 4 98.5 8t90.5 12q57 11 139 31l-227 -809q-19 -50 -3.5 -60t24.5 -10t27.5 13.5t35.5 30.5q41 41 57 63l29 -25q-173 -199 -269 -199q-21 0 -34 9q-52 23 -52 86zM180 1130 q269 296 301 332h158l102 -332h-45l-145 213l-301 -213h-70z" />
<glyph unicode="&#xef;" horiz-adv-x="555" d="M141 70q0 17 11 53l176 639q4 18 8 30.5t4 32.5q0 60 -70 60q-16 0 -31.5 -1t-23.5 -1l10 37q49 4 98.5 8t90.5 12q57 11 139 31l-227 -809q-19 -50 -3.5 -60t24.5 -10t27.5 13.5t35.5 30.5q41 41 57 63l29 -25q-173 -199 -269 -199q-21 0 -34 9q-52 23 -52 86z M186 1299.5q0 31.5 12.5 52t30 34t49 22t58.5 -2t53.5 -37.5t26.5 -73t-34 -80.5t-77 -34.5q-74 0 -109 68q-10 20 -10 51.5zM555 1284q0 47 12 62q30 59 90 65q12 4 49 -4t58.5 -41t21.5 -60q0 -42 -10 -60q-37 -64 -106 -64q-49 0 -82 36.5t-33 65.5z" />
<glyph unicode="&#xf1;" horiz-adv-x="1067" d="M115 0l223 799q8 24 8 37.5t-11 31t-46 17.5l-41 -2q-12 -2 -23.5 -2t-21.5 -2l10 41l338 47l-113 -402q122 185 186 250.5t93.5 84.5t45 28.5t35.5 17.5q54 21 85 21q74 0 108 -41q10 -10 15 -20q14 -30 14 -55q0 -51 -25 -132l-153 -533q-11 -22 -11 -42q0 -33 21 -38 q6 -2 8 -2q29 0 129 105l27 -29q-20 -23 -40 -42t-66 -64q-95 -94 -177 -94t-82 81q0 38 17 95l157 536q21 65 21 83v23q0 11 -15.5 27.5t-34.5 16.5q-33 0 -70.5 -26t-79.5 -70t-75.5 -87t-54 -75.5t-29.5 -48t-27 -41t-32 -51.5q-35 -65 -66 -144q-10 -35 -18 -68.5 t-18 -71.5t-22.5 -78t-24.5 -81h-164zM360 1188q12 16 22.5 30.5t24 29.5t39 40t59.5 48q85 59 161 59q40 0 100 -17l108 -39q46 -12 90 -12q69 0 126 82h73q-27 -44 -43 -63q-55 -68 -130 -106t-136 -38q-36 0 -74 8l-110 43q-51 17 -80 17q-84 0 -136 -56q-10 -12 -22 -26 h-72z" />
<glyph unicode="&#xf2;" horiz-adv-x="1024" d="M143 328q0 191 103 350q114 171 280 253q72 36 136.5 39t104.5 -6.5t71 -25.5q99 -50 132 -150q27 -83 27 -136.5t-3 -89.5t-13 -84q-25 -118 -72 -194q-67 -110 -135 -167q-103 -97 -233 -131q-33 -13 -87 -13q-111 0 -180 54q-14 10 -46.5 42.5t-49.5 70.5 q-35 83 -35 188zM315 233q0 -70 13.5 -109.5t46.5 -59.5q40 -23 82 -23q59 0 108 32.5t78 67.5q33 42 70 119.5t58.5 147t33.5 128.5q20 100 20 138v53q0 65 -34 121q-58 93 -193 39q-72 -35 -122 -118t-93 -208q-68 -198 -68 -328zM524 1462h238q12 -43 25.5 -84t25.5 -86 q32 -120 47 -166l-47 2q-111 126 -157 181q-93 112 -132 153z" />
<glyph unicode="&#xf3;" horiz-adv-x="1024" d="M143 328q0 191 103 350q114 171 280 253q72 36 136.5 39t104.5 -6.5t71 -25.5q99 -50 132 -150q27 -83 27 -136.5t-3 -89.5t-13 -84q-25 -118 -72 -194q-67 -110 -135 -167q-103 -97 -233 -131q-33 -13 -87 -13q-111 0 -180 54q-14 10 -46.5 42.5t-49.5 70.5 q-35 83 -35 188zM315 233q0 -70 13.5 -109.5t46.5 -59.5q40 -23 82 -23q59 0 108 32.5t78 67.5q33 42 70 119.5t58.5 147t33.5 128.5q20 100 20 138v53q0 65 -34 121q-58 93 -193 39q-72 -35 -122 -118t-93 -208q-68 -198 -68 -328zM662 1126l106 338h229l-284 -338h-51z " />
<glyph unicode="&#xf4;" horiz-adv-x="1024" d="M143 328q0 191 103 350q114 171 280 253q72 36 136.5 39t104.5 -6.5t71 -25.5q99 -50 132 -150q27 -83 27 -136.5t-3 -89.5t-13 -84q-25 -118 -72 -194q-67 -110 -135 -167q-103 -97 -233 -131q-33 -13 -87 -13q-111 0 -180 54q-14 10 -46.5 42.5t-49.5 70.5 q-35 83 -35 188zM315 233q0 -70 13.5 -109.5t46.5 -59.5q40 -23 82 -23q59 0 108 32.5t78 67.5q33 42 70 119.5t58.5 147t33.5 128.5q20 100 20 138v53q0 65 -34 121q-58 93 -193 39q-72 -35 -122 -118t-93 -208q-68 -198 -68 -328zM436 1130q269 296 301 332h158l102 -332 h-45l-145 213l-303 -213h-68z" />
<glyph unicode="&#xf5;" horiz-adv-x="1024" d="M143 328q0 191 103 350q114 171 280 253q72 36 136.5 39t104.5 -6.5t71 -25.5q99 -50 132 -150q27 -83 27 -136.5t-3 -89.5t-13 -84q-25 -118 -72 -194q-67 -110 -135 -167q-103 -97 -233 -131q-33 -13 -87 -13q-111 0 -180 54q-14 10 -46.5 42.5t-49.5 70.5 q-35 83 -35 188zM315 233q0 -70 13.5 -109.5t46.5 -59.5q40 -23 82 -23q59 0 108 32.5t78 67.5q33 42 70 119.5t58.5 147t33.5 128.5q20 100 20 138v53q0 65 -34 121q-58 93 -193 39q-72 -35 -122 -118t-93 -208q-68 -198 -68 -328zM340 1188q12 16 22.5 30.5t22.5 29.5 t38 40t59 48q84 59 161 59q40 0 102 -17l109 -39q47 -12 90 -12q70 0 125 82h72q-16 -31 -43 -63q-55 -68 -130 -106t-114 -38q-56 0 -96 8l-109 43q-51 17 -84 17q-94 0 -153 -82h-72z" />
<glyph unicode="&#xf6;" horiz-adv-x="1024" d="M141 319q0 192 115 372q16 26 49 65q96 115 199.5 163.5t152.5 50t99 -5.5q61 -7 138 -66q101 -76 101 -284q0 -197 -117 -378q-55 -86 -155 -162q-78 -61 -174 -88q-51 -15 -109 -15q-134 0 -219 103q-80 95 -80 245zM313 233q0 -92 22.5 -126.5t48.5 -48.5 q77 -44 173 8q123 65 211 334q55 169 55 321q0 12 -4 53t-43 89t-77.5 44t-60.5 -7t-50 -19q-131 -67 -232 -399q-43 -144 -43 -249zM475 1296q0 45 31 79t78 38h15q33 0 70.5 -33.5t37.5 -87.5q0 -53 -63 -96q-19 -14 -40 -14q-37 0 -56 9t-46 34.5t-27 70.5zM846 1299.5 q0 44.5 30.5 78t73.5 37.5h20q35 0 70 -31.5t35 -75.5q0 -62 -35 -89q-35 -35 -82 -35q-20 0 -42.5 10t-46 35.5t-23.5 70z" />
<glyph unicode="&#xf7;" d="M96 535v120h1366v-120h-1366zM688 314q0 32 5 46t24.5 38t62.5 24t71 -26.5t27 -66.5t-28 -66.5t-68 -26.5t-67.5 26.5t-26.5 51.5zM688 862q2 41 28.5 67.5t66.5 26.5t68 -27.5t27 -68.5t-29 -66.5t-68 -25.5t-66.5 26.5t-26.5 67.5z" />
<glyph unicode="&#xf8;" horiz-adv-x="1024" d="M150 296v28q0 154 75 303l25 43q112 186 310 273q63 28 124.5 28t136.5 -25l84 133l56 -32l-80 -132q16 -14 31.5 -27.5t35 -38t40 -82.5t20.5 -133t-16 -156q-46 -239 -264 -406q-129 -97 -284 -97q-56 0 -135 33l-86 -129l-53 35l84 135q-104 104 -104 247zM324.5 261 q1.5 -58 3.5 -97l444 704q-14 10 -32.5 21.5t-43.5 11.5q-134 0 -228 -161q-75 -129 -118 -309q-27 -112 -25.5 -170zM360 90q53 -47 122 -47q149 0 259 262q90 217 90 418q0 43 -16 90z" />
<glyph unicode="&#xf9;" horiz-adv-x="1067" d="M139 745q68 90 112 135.5t84 68.5q56 32 95 32q28 0 46 -11q45 -27 42 -81q0 -45 -51 -230l-129 -432q-10 -35 -10 -51t3 -22q23 -45 54 -45q57 0 168 120q104 114 197 270q28 46 59 97l94 367h166l-223 -795q-10 -30 -10 -41.5t9 -21t21 -9.5q25 0 135 115l25 -29 q-18 -18 -35.5 -36.5t-66.5 -66.5q-112 -108 -189 -108q-29 0 -48 20.5t-19 50.5t10 67l76 297q-126 -184 -196 -260q-158 -173 -273 -173q-51 0 -82 37q-43 43 -43 111q0 63 34.5 181t54.5 182q33 108 64 204q35 110 35 134t-11 32t-22 8t-32 -14q-33 -27 -113 -129z M524 1462h238q12 -43 25.5 -84t25.5 -86q32 -120 47 -166l-47 2q-111 126 -157 181q-93 112 -132 153z" />
<glyph unicode="&#xfa;" horiz-adv-x="1067" d="M139 745q68 90 112 135.5t84 68.5q56 32 95 32q28 0 46 -11q45 -27 42 -81q0 -45 -51 -230l-129 -432q-10 -35 -10 -51t3 -22q23 -45 54 -45q57 0 168 120q104 114 197 270q28 46 59 97l94 367h166l-223 -795q-10 -30 -10 -41.5t9 -21t21 -9.5q25 0 135 115l25 -29 q-18 -18 -35.5 -36.5t-66.5 -66.5q-112 -108 -189 -108q-29 0 -48 20.5t-19 50.5t10 67l76 297q-126 -184 -196 -260q-158 -173 -273 -173q-51 0 -82 37q-43 43 -43 111q0 63 34.5 181t54.5 182q33 108 64 204q35 110 35 134t-11 32t-22 8t-32 -14q-33 -27 -113 -129z M662 1126l106 338h229l-284 -338h-51z" />
<glyph unicode="&#xfb;" horiz-adv-x="1067" d="M139 745q68 90 112 135.5t84 68.5q56 32 95 32q28 0 46 -11q45 -27 42 -81q0 -45 -51 -230l-129 -432q-10 -35 -10 -51t3 -22q23 -45 54 -45q57 0 168 120q104 114 197 270q28 46 59 97l94 367h166l-223 -795q-10 -30 -10 -41.5t9 -21t21 -9.5q25 0 135 115l25 -29 q-18 -18 -35.5 -36.5t-66.5 -66.5q-112 -108 -189 -108q-29 0 -48 20.5t-19 50.5t10 67l76 297q-126 -184 -196 -260q-158 -173 -273 -173q-51 0 -82 37q-43 43 -43 111q0 63 34.5 181t54.5 182q33 108 64 204q35 110 35 134t-11 32t-22 8t-32 -14q-33 -27 -113 -129z M436 1130q269 296 301 332h158l102 -332h-45l-145 213l-303 -213h-68z" />
<glyph unicode="&#xfc;" horiz-adv-x="1067" d="M139 743q19 23 48 61q58 72 73 85q38 44 83.5 68t77.5 24t64.5 -17.5t32.5 -74.5q0 -42 -18 -111l-158 -536q-2 0 -8 -26t-6 -42t3 -22q21 -41 52 -41q20 0 47 15q34 19 64 44t63 62.5t50.5 60.5t40 51.5t46.5 63.5q43 63 115 188l92 367h168l-227 -807q-6 -12 -6 -28.5 t12 -24t18 -7.5q25 0 135 115l25 -29q-162 -168 -232 -198q-28 -13 -56 -13t-49 19.5t-21 52.5t8 63l78 300q-16 -25 -34 -49.5t-30 -42t-31.5 -45t-48.5 -63.5q-76 -96 -142 -150q-103 -83 -181 -83q-59 0 -103 55q-24 31 -24 84q0 96 90 375q51 174 72 235q26 79 26 93 t-4 30.5t-29 15.5t-45 -22.5t-37.5 -42.5t-33 -40t-31.5 -37zM473 1279.5q0 30.5 5 51t28 48.5t62 32q52 5 88 -22q46 -34 46 -93q0 -34 -10 -50.5t-35.5 -40t-50.5 -23.5q-38 0 -60 9t-47.5 33.5t-25.5 55zM842 1300q0 22 8 39.5t30.5 42.5t57.5 29q51 6 90 -22 q45 -39 45 -95q0 -44 -36 -78t-71 -34t-57 11q-67 33 -67 107z" />
<glyph unicode="&#xff;" horiz-adv-x="854" d="M-152 -250q0 31 24 62.5t55.5 31.5t57 -18.5t25.5 -37.5t-3 -30.5t-4 -30t24 -16.5q47 0 241 215q29 31 54 58l-27 401q-4 49 -7 99.5t-8 89.5t-9.5 65.5t-10.5 67t-10 71.5t-14 50q-32 57 -91 57q-35 0 -67 -4l-4 34q167 24 278 54q12 -31 22.5 -54.5t17.5 -48.5 q50 -182 79 -692q203 265 301 465q41 84 41 115.5t-5 36t-18 7.5q-52 13 -74 39.5t-22 40.5q0 20 11 44.5t36 36.5t51 12q43 0 73 -28q40 -37 40 -92q0 -127 -88 -290q-96 -187 -349 -502q-93 -116 -128 -154t-47 -52t-25.5 -27.5t-23.5 -25t-21.5 -21.5t-22.5 -21.5 t-34 -33t-52 -42.5q-71 -51 -137 -51q-43 0 -80 26q-49 35 -49 93zM336 1299.5q0 31.5 12 52t29.5 34t49 22t58.5 -2t53.5 -37.5t26.5 -73t-33.5 -80.5t-78.5 -34.5q-74 0 -107 68q-10 20 -10 51.5zM705 1284q0 37 10 62q10 16 30.5 38.5t61.5 26.5q12 4 49 -4t58.5 -41 t21.5 -60q0 -42 -10 -59.5t-36 -41t-71 -23.5q-50 0 -82 36.5t-32 65.5z" />
<glyph unicode="&#x152;" horiz-adv-x="2048" d="M193 458v36q0 86 17 162t40.5 135t49.5 108q43 81 91 150q12 14 28.5 34.5t34.5 40.5q134 157 239.5 211t156.5 72.5t108.5 27.5t113.5 12t113.5 1t119.5 -2h878l-98 -354l-41 12q12 52 12 87.5t-10 60t-24 40.5q-22 25 -65 42q-65 26 -312 26h-103l-153 -555l139 -2 q82 -2 126 9t77 47t48 69t31 90l45 -10l-149 -531l-43 15q23 69 23 119t-27 76t-43 29t-28 3h-226l-148 -524q-6 -24 -6 -37q0 -52 35 -64q24 -8 84 -8h109q157 0 222 18q105 31 166.5 86.5t84 107.5t41.5 112l47 -15l-111 -395h-1028q-331 -54 -512 104q-153 135 -153 354z M414 428q0 -176 84 -270q19 -31 59 -53q63 -35 153 -35q153 0 242 102q23 23 36 45.5t22.5 39t19.5 48t19 55.5l180 637q15 30 26 90t11 77q0 52 -20.5 92t-70 72t-135.5 32q-23 0 -85 -12.5t-115.5 -47.5t-79 -61.5t-41.5 -44.5q-156 -170 -242 -423q-63 -185 -63 -343z " />
<glyph unicode="&#x153;" horiz-adv-x="1492" d="M139 317q0 239 180 457q38 43 96 85.5t126.5 75t160.5 32.5q18 0 63.5 -5.5t102.5 -46.5q8 -6 21.5 -16t30.5 -29q25 -28 57 -84q96 90 159 122q118 59 205 59q75 0 126 -33t65 -70t14 -64q0 -113 -89 -202q-48 -47 -126.5 -91t-179 -60.5t-203.5 -26.5q-4 -35 -8 -66.5 t-4 -85.5q0 -103 74 -155q45 -35 109 -35t110.5 16.5t84.5 41t67.5 50t50.5 43.5l26 -26q-97 -97 -156 -136q-139 -90 -264 -90q-86 0 -158 47q-55 34 -96 126q-109 -96 -163 -122q-105 -51 -194 -51t-138 30t-80 72q-70 95 -70 238zM307 224q0 -66 33 -124q20 -33 72 -50 q16 -5 34.5 -5t29.5 3t26.5 8t58.5 33t75 67t64.5 95t63.5 130t52.5 162t21.5 174.5t-33 127.5q-53 67 -124 58q-63 -8 -104.5 -42t-69.5 -64.5t-43 -56t-25.5 -43t-33 -63.5t-43.5 -108q-55 -159 -55 -284v-18zM965 481q23 2 80 7.5t111 28.5t96 54t76 69q77 86 77 171 q0 46 -35 75q-24 19 -45 19q-127 0 -243 -161q-46 -66 -60 -107q-22 -44 -33 -70q-14 -36 -24 -86z" />
<glyph unicode="&#x178;" horiz-adv-x="1280" d="M311 2l11 41h43q33 4 62.5 12t53.5 33q45 46 66 117l151 526l-174 539q-15 49 -43 84q-29 31 -61.5 38t-95.5 11l12 43l203 -6h153l219 6l-12 -45h-71.5t-34.5 -3t-17.5 -7.5t-19.5 -11.5q-25 -16 -25 -46q0 -23 14 -76l138 -454q51 69 98.5 125.5t67.5 83t47 58.5 q126 149 152 195t26 69q0 37 -29 55q-33 16 -106 16l10 41h455l-15 -43q-67 -4 -94 -19q-40 -21 -104 -81q-113 -133 -243 -302q-140 -182 -249 -307l-137 -501q-8 -33 -8 -51q0 -97 108 -97h72l-14 -45h-398zM653 1706q0 31 8.5 49t33 44t50 28t38 2t34 -7t50 -35t28.5 -83 q0 -42 -29 -73q-44 -46 -92 -46q-46 0 -83.5 36t-37.5 85zM1110 1704v28q0 11 11 34.5t39 42t52.5 21.5t33.5 1t27 -8t48.5 -33t30.5 -84q0 -46 -33 -78.5t-57.5 -35.5t-43.5 -3q-38 0 -67 28t-35 49.5t-6 37.5z" />
<glyph unicode="&#x2c6;" horiz-adv-x="555" d="M31 1130q269 296 301 332h157l103 -332h-45l-146 213l-301 -213h-69z" />
<glyph unicode="&#x2dc;" horiz-adv-x="555" d="M-66 1188q12 16 22.5 30.5t24 29.5t38 40t58.5 48q85 59 161 59q39 0 102 -17l109 -39q47 -12 89 -12q69 0 126 82h71q-16 -31 -43 -63q-55 -68 -130 -106t-114 -38q-54 0 -96 8l-108 43q-51 17 -84 17q-95 0 -154 -82h-72z" />
<glyph unicode="&#x2000;" horiz-adv-x="941" />
<glyph unicode="&#x2001;" horiz-adv-x="1882" />
<glyph unicode="&#x2002;" horiz-adv-x="941" />
<glyph unicode="&#x2003;" horiz-adv-x="1882" />
<glyph unicode="&#x2004;" horiz-adv-x="627" />
<glyph unicode="&#x2005;" horiz-adv-x="470" />
<glyph unicode="&#x2006;" horiz-adv-x="313" />
<glyph unicode="&#x2007;" horiz-adv-x="313" />
<glyph unicode="&#x2008;" horiz-adv-x="235" />
<glyph unicode="&#x2009;" horiz-adv-x="376" />
<glyph unicode="&#x200a;" horiz-adv-x="104" />
<glyph unicode="&#x2010;" horiz-adv-x="641" d="M102 444l35 158h522l-34 -158h-523z" />
<glyph unicode="&#x2011;" horiz-adv-x="641" d="M102 444l35 158h522l-34 -158h-523z" />
<glyph unicode="&#x2012;" horiz-adv-x="641" d="M102 444l35 158h522l-34 -158h-523z" />
<glyph unicode="&#x2013;" horiz-adv-x="980" d="M102 444l45 156h809l-47 -156h-807z" />
<glyph unicode="&#x2014;" d="M96 537v120h1366v-120h-1366z" />
<glyph unicode="&#x2018;" horiz-adv-x="512" d="M342 1102v18q0 150 170 275q31 23 62.5 40t64.5 35l33 -59q-25 -14 -63 -34.5t-54 -34t-35.5 -32t-19.5 -41.5q0 -34 17 -56.5t37.5 -52.5t20.5 -65.5t-22.5 -62t-33.5 -32.5q-21 -13 -57 -13t-62.5 19.5t-37 36t-15.5 32t-5 27.5z" />
<glyph unicode="&#x2019;" horiz-adv-x="512" d="M307 1053q104 50 129 75q45 45 45 84q0 21 -23 59q-38 61 -38 101.5t36 69t74 28.5t70 -18q55 -32 55 -99q0 -95 -59 -167q-57 -78 -123.5 -118t-136.5 -73z" />
<glyph unicode="&#x201a;" horiz-adv-x="512" d="M14 -195q78 43 122 78t44 78q0 24 -22 57q-31 39 -40 57.5t-9 36.5q0 48 14 66q41 53 100 53q39 0 66 -22q59 -39 59 -119q0 -65 -48 -138t-115.5 -122t-137.5 -90z" />
<glyph unicode="&#x201c;" horiz-adv-x="811" d="M301 1118q0 71 43 132t80 94.5t72 57.5q53 39 104 64l33 -57q-72 -45 -117 -84t-45 -78q0 -23 17.5 -45t33 -47t15.5 -61.5t-19 -61.5q-35 -45 -63 -45q-12 -6 -30.5 -6t-39 7t-39.5 22q-45 36 -45 108zM653 1135.5q0 54.5 44 116t98.5 106.5t102.5 72.5t58 33.5l35 -53 q-106 -65 -136 -96t-30 -53q0 -30 16.5 -55t32 -49.5t15.5 -46t-3 -46.5t-22 -44q-40 -38 -92 -38q-71 0 -106 73q-13 25 -13 79.5z" />
<glyph unicode="&#x201d;" horiz-adv-x="811" d="M326 1032q78 49 117.5 86t39.5 70t-11 49t-17 27q-6 10 -24.5 36.5t-18.5 47.5q0 47 24 77q39 39 90 39q35 0 60 -16q61 -39 61 -119q0 -35 -16 -80q-31 -86 -146 -182q-37 -32 -129 -90zM647 1034q74 43 118 83t44 69.5t-9 45t-29 38.5t-29 40t-9 54t33 68.5t80 31.5 q8 0 16 -2t16.5 -3t24 -7t40 -33.5t24.5 -66.5q0 -139 -109 -246q-66 -64 -112 -91.5t-68 -39.5z" />
<glyph unicode="&#x201e;" horiz-adv-x="811" d="M29 -213q23 14 42 27.5t54 39.5q61 44 61 99q0 25 -24.5 58.5t-34.5 54t-10 52.5t14 52t33 32q32 21 59 21q30 0 66 -18q23 -16 42 -41t19 -62q0 -121 -114 -235q-64 -67 -104 -92t-69 -43zM352 -209q160 96 160 164q0 23 -25.5 55.5t-38 53t-12.5 34.5v25q0 58 62 88 q28 14 52 14q29 0 67 -24.5t44.5 -56t6.5 -55.5q0 -106 -95 -210q-47 -53 -92 -84t-98 -61z" />
<glyph unicode="&#x2022;" horiz-adv-x="681" d="M193 710.5q0 61.5 20 106.5t54 79q71 71 175 71q102 0 170 -70q70 -71 70 -168q0 -64 -26 -121.5t-85 -93t-131 -35.5q-57 0 -113.5 26t-95 85t-38.5 120.5z" />
<glyph unicode="&#x2026;" horiz-adv-x="2048" d="M342 84q0 41 28.5 67.5t68.5 26.5t66.5 -26.5t26.5 -66.5t-26.5 -69.5t-67.5 -28.5t-68.5 28.5t-27.5 68.5zM1026 84q0 41 27.5 67.5t68.5 26.5t67 -26.5t27 -66.5t-27 -69.5t-69 -28.5t-67.5 28.5t-26.5 68.5zM1708 84q0 41 28.5 67.5t68.5 26.5t66.5 -26.5t26.5 -66.5 t-26.5 -68.5t-67.5 -28.5t-68.5 27.5t-27.5 68.5z" />
<glyph unicode="&#x202f;" horiz-adv-x="376" />
<glyph unicode="&#x205f;" horiz-adv-x="470" />
<glyph unicode="&#x2122;" horiz-adv-x="1579" d="M141 1272q6 63 11 174l210 -2q136 -3 363 2q8 -172 8 -176l-59 2l-19 49q-20 57 -71 57h-82v-452l2 -33q0 -33 9 -44t44 -15l39 -5v-63q-133 5 -213 2l-102 -2v63l34 2q27 6 37 11q16 10 18.5 30.5t2.5 53.5v452h-60q-34 0 -56 -9t-33 -42t-21 -57zM795 766v63 q55 7 64 26t9 77v426l-6 8q-18 13 -57 16v64q31 -2 61 -2h62l67 2l205 -506l215 506h191v-64h-17q-29 -4 -45 -15t-16 -62v-429q0 -45 51 -45l16 -2l-2 -63q-116 6 -160 5t-98 -5v63l15 2q41 2 47 18.5t6 37.5v360l-201 -481h-47l-203 485v-321q0 -72 21 -86q16 -13 45 -13 l16 -2v-63q-121 2 -239 0z" />
<glyph unicode="&#xe000;" horiz-adv-x="975" d="M0 0v975h975v-975h-975z" />
<glyph unicode="&#xfb01;" horiz-adv-x="1153" d="M-289 -223q0 54 47 81q17 11 46.5 11t51 -20.5t21.5 -42.5q0 -35 -15 -59.5t-15.5 -33t13 -15.5t25.5 -7t52 15t86 71q45 57 76.5 142t70.5 220l207 729h-180l24 68q41 -4 84 2t74 41t44 65q84 190 193 287q49 49 89 65.5t51 20.5q60 23 114.5 23t91.5 -24 q70 -44 70 -116q0 -35 -28.5 -65.5t-60.5 -30.5t-56.5 22.5t-24.5 45t8.5 36t20.5 29.5t12 25q-5 31 -41 31q-68 0 -124 -51.5t-84.5 -114t-45.5 -117.5l-49 -172h178l-22 -68h-174l-197 -688q-54 -177 -123 -282q-60 -103 -170 -186q-96 -73 -184 -72q-105 0 -145 82 q-11 22 -11 53zM739 66q0 26 13 67l170 610q16 61 16 88q0 54 -72 54q-24 0 -53 -2l10 37q41 4 83 7t83 10q75 13 162 34l-229 -815q-9 -18 -9 -34.5t12.5 -23t20.5 -6.5t20 7q20 11 99 100l29 -23q-99 -126 -207 -184q-33 -17 -62 -17t-45 12.5t-26 30.5q-15 28 -15 48z M1012 1235q0 33 28 63q50 53 113 29q70 -30 70 -102q0 -17 -7.5 -34t-32 -42t-69.5 -25q-23 0 -47.5 11.5t-39.5 39t-15 60.5z" />
<glyph unicode="&#xfb02;" horiz-adv-x="1153" d="M-289 -223q0 54 47 81q17 11 46.5 11t51 -20.5t21.5 -42.5q0 -35 -15 -59.5t-15.5 -33t13 -15.5t25.5 -7t52 15t86 71q45 57 76.5 142t70.5 220l207 729h-180l24 68q41 -4 84 2t74 41t44 65q84 190 193 287q49 49 89 65.5t51 20.5q60 23 114.5 23t91.5 -24 q70 -44 70 -116q0 -35 -28.5 -65.5t-60.5 -30.5t-56.5 22.5t-24.5 45t8.5 36t20.5 29.5t12 25q-5 31 -41 31q-68 0 -124 -51.5t-84.5 -114t-45.5 -117.5l-49 -172h178l-22 -68h-174l-197 -688q-54 -177 -123 -282q-60 -103 -170 -186q-96 -73 -184 -72q-105 0 -145 82 q-11 22 -11 53zM733 82.5q0 25.5 4 44t8 37.5l306 1069q8 31 8 44q0 44 -15 56q-28 21 -104 10l10 37l326 56l-363 -1274q-10 -30 -10 -40.5t8.5 -19t18.5 -8.5q26 0 117 107l32 -25q-79 -92 -115 -124q-79 -70 -139 -70q-54 0 -77 44q-15 31 -15 56.5z" />
</font>
</defs>
</svg>
