<?xml version="1.0" standalone="no"?>
<!DOCTYPE svg PUBLIC "-//W3C//DTD SVG 1.1//EN" "http://www.w3.org/Graphics/SVG/1.1/DTD/svg11.dtd" >
<svg xmlns="http://www.w3.org/2000/svg">
<metadata></metadata>
<defs>
<font id="times_bqregular" horiz-adv-x="980" >
<font-face units-per-em="2048" ascent="1638" descent="-410" />
<missing-glyph horiz-adv-x="555" />
<glyph horiz-adv-x="0" />
<glyph unicode="&#xd;" horiz-adv-x="0" />
<glyph horiz-adv-x="0" />
<glyph horiz-adv-x="0" />
<glyph unicode=" "  horiz-adv-x="555" />
<glyph unicode="&#x09;" horiz-adv-x="555" />
<glyph unicode="&#xa0;" horiz-adv-x="555" />
<glyph unicode="!" horiz-adv-x="598" d="M219 105.5q0 49.5 35 83.5t86 34t87 -34.5t34 -86.5q-2 -51 -37 -85.5t-86 -34.5q-15 0 -33 6t-31.5 14t-25.5 22q-29 32 -29 81.5zM240 1292.5q0 49.5 7 85t31 58.5q32 28 72 28q107 0 107 -164q0 -62 -8 -118l-80 -776h-52l-71 776q-6 61 -6 110.5z" />
<glyph unicode="&#x22;" horiz-adv-x="811" d="M123 1426.5q-2 13.5 2 35t16.5 36.5t26.5 24q21 12 39 12q39 0 59 -14q33 -20 35 -48t2 -38l-72 -523h-38l-68 498q0 4 -2 17.5zM508 1452.5q4 30.5 16.5 45.5t26.5 24q21 12 51 12q27 0 54.5 -17t29.5 -45t2 -38l-74 -523h-39l-65 498q-6 13 -2 43.5z" />
<glyph unicode="#" horiz-adv-x="1366" d="M86 530v111h358l27 199h-342v116h356l66 494h129l-70 -494h205l64 494h122l-67 -494h344v-116h-358l-27 -199h344v-111h-358l-72 -530h-127l78 530h-207l-78 -530h-119l74 530h-342zM565 641h207l27 199h-205z" />
<glyph unicode="$" horiz-adv-x="1067" d="M104 1094q0 114 53.5 201t151.5 132q59 29 112.5 34t76.5 7v193h82v-193q195 -16 346 -94v-373h-47q0 143 -68 244q-16 27 -59 65t-121 56q-12 4 -25.5 5t-25.5 3v-534l98 -56q96 -53 163.5 -121.5t96.5 -144.5q37 -101 37 -169t-19 -124q-35 -102 -112 -161 q-113 -87 -264 -87v-206h-82l-2 206q-47 4 -148.5 18.5t-222.5 67.5v392h47q2 -16 3 -29.5t6 -50.5q30 -225 211 -289q34 -12 62.5 -16t43.5 -7l-2 580q-10 8 -22.5 15.5t-39 25t-69.5 43t-73.5 46.5t-60.5 48t-58 65q-69 94 -69 208zM281 1177.5q0 -57.5 20.5 -99.5 t50.5 -76q49 -55 146 -113l-2 485q-47 0 -78 -14q-61 -23 -99 -74t-38 -108.5zM580 63q90 27 130 67q70 70 70 177q0 35 -12 85t-66 110l-30 30q-45 45 -92 64v-533z" />
<glyph unicode="%" horiz-adv-x="1536" d="M33 991q0 121 30 232q52 161 167 223q42 22 90 22q130 0 221 -149q72 -128 68 -300.5t-59 -312.5q-35 -90 -124 -150q-47 -32 -113 -32q-58 0 -104 29q-72 41 -124 149.5t-52 288.5zM166 934q0 -82 12 -139.5t16.5 -73.5t13.5 -37q41 -92 114 -92q80 0 120 117 q31 101 31 257v35q0 69 -8 154q-10 110 -23.5 141t-19.5 45.5t-18 27.5q-33 34 -74 34q-90 0 -129 -123q-26 -96 -30.5 -180t-4.5 -166zM436 0l584 1446h92l-582 -1446h-94zM931 442.5q-1 153.5 40 264.5q48 142 164 197q39 18 87 18t87 -19.5t67 -45.5q33 -31 70 -96 q57 -100 57 -300q0 -263 -106 -389q-48 -59 -97 -76q-40 -16 -90 -16q-90 0 -148 61t-94 154.5t-37 247zM1063 438q0 -246 67 -344q41 -51 82.5 -51t64.5 17.5t37.5 39t20.5 41t12 41.5q25 89 25 264q0 230 -45 330q-36 80 -98.5 80t-91.5 -42t-40 -79t-16.5 -74.5 t-9.5 -78.5q-8 -82 -8 -144z" />
<glyph unicode="&#x26;" horiz-adv-x="1536" d="M55 322q0 198 189 354q105 85 217 139q-72 180 -72 311q0 70 33 151t118 140.5t185 59.5q116 0 195 -77q79 -78 79 -192q0 -71 -38 -145q-61 -105 -204 -181q-40 -22 -81 -46q55 -112 113.5 -204.5t70.5 -111.5q43 -70 76 -106q146 214 173 360q3 17 3 31q0 27 -14 41 q-20 27 -49 26.5t-56 1.5v46l170 -2q108 -3 287 2v-46h-49q-84 0 -144 -83q-31 -41 -54 -87.5t-43 -83.5q-104 -197 -128 -229.5t-39 -50.5q15 -15 45 -51q132 -139 250 -139q125 0 168 118q6 17 10 25l43 -25q-4 -14 -8 -30.5t-13 -36.5t-30.5 -56t-57.5 -74 q-91 -96 -210 -96q-103 0 -207 84q-53 43 -133 121q-96 -82 -201.5 -141t-236.5 -59q-167 0 -270 110q-87 94 -87 232zM266 416q0 -98 60 -193q24 -39 51.5 -58t57.5 -34.5t77 -15.5q77 0 183 59q61 35 96 70q-63 72 -92 117.5t-49.5 80.5t-47.5 81q-63 108 -108 214 q-11 -6 -36.5 -23.5t-45 -30.5t-32.5 -25.5t-32.5 -33t-37.5 -50.5q-44 -78 -44 -158zM584 1194q0 -152 61 -274q78 44 118 83q93 91 93 216q0 105 -80 153q-24 14 -59 14t-68 -22q-65 -52 -65 -170z" />
<glyph unicode="'" horiz-adv-x="425" d="M123 1426.5q-2 13.5 2 35t16.5 36.5t26.5 24q21 12 39 12q39 0 59 -14q33 -20 35 -48t2 -38l-72 -523h-38l-68 498q0 4 -2 17.5z" />
<glyph unicode="(" horiz-adv-x="681" d="M94 561q0 359 194 635q64 92 140 158.5t135.5 101.5t87.5 51v-61q-48 -27 -87.5 -59t-91.5 -101t-88 -164q-97 -254 -97 -583q0 -470 188 -709q49 -66 100.5 -100.5t75.5 -51.5v-51q-88 30 -184 109.5t-165 173.5t-115 200q-93 213 -93 451z" />
<glyph unicode=")" horiz-adv-x="681" d="M31 -373l2 62q25 10 69.5 44t77.5 75.5t58 81.5q34 56 62 124t61.5 217.5t33.5 362.5v57q0 286 -111 527q-34 73 -84 134q-66 82 -169 142l2 53q112 -51 198 -124t154 -166t114 -197q91 -207 91 -443.5t-89 -447.5t-261 -362q-68 -59 -123.5 -91t-85.5 -49z" />
<glyph unicode="*" horiz-adv-x="894" d="M72 1214q0 38 20.5 57t37.5 19q32 0 53.5 -9t38.5 -25l34 -35q8 -10 16.5 -17.5t27.5 -25.5q40 -38 116 -91q-15 144 -34.5 196t-19.5 87t20.5 67.5t61.5 32.5q25 0 35 -10q45 -26 45 -88q0 -33 -10 -58.5t-22 -68.5q-18 -61 -25 -158q61 42 113.5 93t87 82.5t70 31.5 t49.5 -8t23 -20q17 -24 16 -39q-2 -33 -21.5 -55.5t-41.5 -33t-45.5 -16.5t-48 -11t-53.5 -13q-38 -11 -120 -49q56 -35 121 -53.5t91.5 -26.5t49.5 -21q53 -31 53 -88q0 -31 -20.5 -50t-53.5 -17t-55.5 16t-50 46t-55.5 63q-40 42 -109 90q0 -70 16.5 -129.5t28.5 -98.5 t12 -70.5t-19.5 -57t-60 -25.5t-59 34.5t-17.5 61t3 38t5 24t9 28.5t16 57q15 62 15 138q-43 -35 -81 -67t-57.5 -56.5t-28.5 -34.5t-23 -20q-37 -27 -76 -27q-34 0 -54 21.5t-20 39.5q0 73 64 93q32 10 94 27q95 26 153 65q-79 36 -124.5 47.5t-83.5 21.5t-59 24 q-48 34 -48 72z" />
<glyph unicode="+" horiz-adv-x="1366" d="M86 535v122h537v533h122v-533h535v-122h-535v-535h-122v535h-537z" />
<glyph unicode="," horiz-adv-x="512" d="M90 100q0 18 10 45.5t27.5 40.5t34.5 20q25 11 45 11q105 0 167 -91q42 -63 42 -123t-9.5 -93t-21.5 -58q-19 -37 -54.5 -77.5t-56.5 -58.5q-44 -35 -76 -51.5t-43.5 -23t-25.5 -6.5q-20 0 -20 17q0 16 46 40.5t89 71.5q69 75 69 173q0 47 -13 62t-15 17q-37 -30 -84 -30 t-80 33.5t-31 80.5z" />
<glyph unicode="-" horiz-adv-x="641" d="M70 455v174h501v-174h-501z" />
<glyph unicode="." horiz-adv-x="512" d="M135 103q0 50 36 85t86 35t85 -34.5t35 -86.5q0 -51 -36 -85.5t-86 -34.5t-85 35.5t-35 85.5z" />
<glyph unicode="/" horiz-adv-x="854" d="M55 0l570 1446h176l-572 -1446h-174z" />
<glyph unicode="0" d="M63 729q0 226 56 389q16 78 92 191q60 89 163 135q52 24 104.5 24t115.5 -17t133 -88t110 -174.5t58 -200.5t21.5 -171t3.5 -91.5t-1 -62.5t-7 -104q-18 -156 -49.5 -240.5t-64 -141t-77.5 -100.5q-99 -97 -215.5 -97t-187 51t-108.5 110.5t-62.5 112.5t-43.5 122 q-41 156 -41 353zM258 700q0 -351 76 -530q26 -59 86 -90q36 -19 77.5 -19t80 27t63.5 69t42 119.5t26.5 163.5t13.5 167t4 111.5t-1 75t-4 103.5q-12 242 -66 371q-25 59 -78 94q-54 27 -76 27q-50 0 -97.5 -30t-69.5 -83t-37 -114t-23.5 -124t-12.5 -118.5t-4 -97.5v-122z " />
<glyph unicode="1" d="M207 1266v57q84 23 159 54q120 51 163.5 72t80.5 44v-1186l2 -102q2 -35 9.5 -70t38.5 -53t62.5 -21.5t92.5 -7.5v-53q-98 4 -193.5 4t-193.5 -2l-201 -2v53q41 2 87 6t72.5 27.5t35 49.5t11.5 53.5t3 54.5v817q0 78 -2 121t-25 78.5t-69 35.5t-133 -30z" />
<glyph unicode="2" d="M23 0v49q47 41 88 84t77 82t67.5 70.5t61.5 66.5q320 366 320 627q0 56 -14 111q-27 86 -89.5 138t-154.5 52q-83 0 -149 -52q-64 -49 -94 -136l-11 -35h-62q10 82 25 127q41 125 133 204.5t230 79.5q124 0 230 -74q92 -64 137 -184q24 -65 24 -133.5t-13.5 -135.5 t-65.5 -173q-113 -231 -478 -602h387q133 0 180 102h53l-104 -268q-520 5 -778 0z" />
<glyph unicode="3" d="M45 136.5q0 33.5 28.5 60t73.5 26.5t82 -32.5t73 -57.5q53 -37 95 -37t77.5 9.5t63 33t46 44t34.5 49.5q39 69 38 164t-56 188q-80 135 -242 146q-43 3 -84 3v43q114 -7 220 87q100 90 100 227q0 102 -62.5 160.5t-162.5 58.5q-165 0 -238 -164l-35 2q46 216 190 287 q71 34 148 34q65 0 140 -31.5t130.5 -106.5t55.5 -165t-46 -163.5t-112 -116.5q-20 -14 -49 -25q54 -20 120.5 -66t112 -128t45.5 -172q0 -169 -118 -312q-122 -142 -299 -187q-58 -15 -88.5 -15t-59 2t-65.5 11q-101 25 -138 81q-18 29 -18 62.5z" />
<glyph unicode="4" d="M53 387v148l594 946h92v-946h191v-148h-191v-387h-172v387h-514zM147 535h420v667z" />
<glyph unicode="5" d="M66 122.5q0 33.5 21.5 55t59 21.5t71.5 -24.5t58 -40.5q68 -42 132 -42q62 0 101 20.5t68 43t55 57.5q62 81 62 197q0 159 -123 282q-133 132 -370 180q-20 2 -39 3.5t-37 3.5l248 567h516l-70 -166h-430l-100 -229q90 -15 172 -54q247 -99 334 -292q45 -113 45 -207 q0 -88 -24.5 -153.5t-58.5 -115t-76 -92.5q-153 -157 -374 -157q-168 0 -221 79q-20 30 -20 63.5z" />
<glyph unicode="6" d="M70 522q0 481 336 780q125 111 256 158q78 29 143 35t96 8l-2 -55q-110 -17 -174 -48.5t-103.5 -57t-80.5 -65.5q-110 -108 -193 -324q-22 -56 -39 -134q10 6 20.5 13.5t27 17.5t76 33.5t131.5 23.5q263 0 348 -281q18 -61 18 -148t-31 -186q-75 -239 -291 -298 q-51 -14 -92 -14q-90 0 -157.5 22.5t-125 82.5t-94.5 137q-69 144 -69 300zM264 523.5q0 -75.5 14.5 -144t35.5 -123.5q42 -107 98 -154q56 -45 112 -45q96 0 158 84q53 73 53 234q0 203 -59 313q-70 119 -189 119q-68 0 -135 -40q-26 -15 -43.5 -31.5t-27.5 -24.5 q-17 -112 -17 -187.5z" />
<glyph unicode="7" d="M45 1112l133 334h733l-458 -1489l-113 31l391 1288h-391q-47 0 -94 -6t-74 -32q-51 -49 -88 -144z" />
<glyph unicode="8" d="M94 326q0 88 54 179q47 78 130 143q61 50 95 69l-62 55q-6 6 -37.5 37t-66.5 79q-90 123 -90 236q0 86 39 146q49 94 141 146t191 52q148 0 243 -84q53 -45 90 -113.5t37 -140.5q0 -195 -264 -342l61 -49q135 -112 199 -255q31 -68 31 -148q0 -134 -93 -234 q-113 -122 -300 -122q-133 0 -238 67q-160 104 -160 279zM268 342q0 -56 11 -82q23 -86 80 -140t149 -54q98 0 164 72q49 54 49 138q0 52 -22 102q-51 117 -263 292q-12 -12 -40.5 -40t-56.5 -70q-71 -106 -71 -218zM281 1178q0 -57 33 -110q82 -133 218 -234q69 49 134 157 q32 53 32 117.5t-13 110t-41 81.5q-62 78 -159 78q-107 0 -171 -93q-35 -50 -33 -107z" />
<glyph unicode="9" d="M53 953.5q0 72.5 12.5 131t30.5 104.5q37 90 74 132q42 55 80.5 77.5t94.5 46t133 23.5q112 0 182 -40t117.5 -100t77.5 -132q58 -139 58 -297q0 -254 -133 -502q-120 -207 -318 -339q-171 -115 -382 -115l2 57q217 31 358 172q158 155 232 457q-135 -90 -262 -90 q-138 0 -238 99q-69 67 -102 182q-17 61 -17 133.5zM246 1071q0 -203 65 -319q60 -97 143 -108q23 -3 56 -3t79 17.5t69 35.5q26 22 42 41q17 77 17 150q0 200 -70 346q-37 72 -59 94t-54 43t-90 21t-94.5 -32t-61.5 -67q-42 -62 -42 -219z" />
<glyph unicode=":" horiz-adv-x="598" d="M205 103q0 50 36 85t86 35t86 -34.5t36 -86.5q0 -51 -37 -85.5t-87 -34.5t-85 35.5t-35 85.5zM207 892q0 50 36 85t87 35t86 -36t35 -86t-36 -85t-86 -35t-86 36t-36 86z" />
<glyph unicode=";" horiz-adv-x="598" d="M178 100q0 35 21 68t56.5 41t46.5 8q88 0 152 -81q50 -61 50 -142.5t-26.5 -132.5t-73.5 -103t-107 -87q-100 -58 -100 -19q0 12 11 18t26 14q49 30 94 76q73 82 73 177q0 45 -28 79q-37 -31 -83 -30.5t-79 34t-33 80.5zM203 900q0 42 36 77t86 35t84.5 -35t34.5 -85 t-35.5 -85t-84.5 -35q-69 0 -103 56q-18 30 -18 72z" />
<glyph unicode="&#x3c;" horiz-adv-x="1366" d="M0 653v144l1366 655v-131l-1229 -596l1229 -600v-131z" />
<glyph unicode="=" horiz-adv-x="1366" d="M0 354v119h1366v-119h-1366zM0 715v121h1366v-121h-1366z" />
<glyph unicode="&#x3e;" horiz-adv-x="1366" d="M0 -6v131l1229 600l-1229 596v131l1366 -655v-144z" />
<glyph unicode="?" horiz-adv-x="854" d="M94 1161q0 57 18.5 97.5t41 74t59.5 63.5q89 74 215 74q205 0 296 -155q48 -82 48 -180q0 -67 -22 -132q-37 -113 -134 -225q-101 -124 -123 -162.5t-30 -57.5t-13 -44q-10 -43 -10 -133h-47q0 140 7.5 177.5t18.5 86t35.5 93t50 93t52.5 116t27 168.5t-30 159 q-63 123 -171 123q-57 0 -93 -25q-67 -45 -67 -102q0 -46 53 -118q19 -26 19 -51t-11 -51q-17 -40 -60.5 -40t-65 14t-35.5 36q-29 44 -29 101zM309 104q0 51 36 85t86 34t87 -34.5t35 -86.5q-2 -51 -38 -85.5t-86 -34.5t-85 35.5t-35 86.5z" />
<glyph unicode="@" horiz-adv-x="1835" d="M141 494q0 205 99 424q67 147 194 282q133 139 342 216q115 42 258 42q265 0 440 -158q142 -128 193 -321q25 -94 25 -216t-54 -269q-82 -227 -260 -322q-57 -31 -110.5 -31t-81 13.5t-46.5 33.5q-33 38 -37.5 67t-4.5 49t2 38q-88 -159 -236 -190q-30 -7 -48 -7 q-65 0 -105 21.5t-66.5 48.5t-48.5 65q-47 86 -47 217.5t55 261.5t158 218q117 96 233 96q136 0 199 -110q14 -22 25 -60l28 115h121l-61 -279q-8 -33 -13.5 -63.5t-12.5 -62.5t-15.5 -62.5t-13.5 -62.5t-10 -60q-13 -75 -13 -95t1 -33t7 -28q16 -41 56 -41q112 0 223 199 q90 161 90 354q0 223 -125 381q-74 87 -141 128q-140 85 -302 85q-316 0 -528 -248q-163 -187 -212 -474q-15 -87 -15 -145.5t6 -126t33 -146.5q69 -195 239 -301q59 -37 155.5 -73t254.5 -36q395 0 665 285l52 -62q-291 -305 -734 -305q-372 0 -604 218q-65 61 -104 129.5 t-72 163.5t-33 237zM696 462.5q0 -96.5 17.5 -136t47.5 -60.5q86 -58 179 -2q133 73 204 356q32 127 28 185q-8 100 -46.5 148t-112 48t-122.5 -49t-70.5 -86.5t-40 -76.5t-36.5 -93q-48 -137 -48 -233.5z" />
<glyph unicode="A" horiz-adv-x="1536" d="M2 0v49h10q16 2 53 8t66.5 29.5t46.5 43.5t31 46q20 37 65 137l504 1166l502 -1166q45 -108 78 -159q60 -93 174 -105v-49q-147 4 -294.5 4t-295.5 -4v49h64q35 4 65.5 17.5t30.5 58.5q0 44 -24.5 100t-39.5 88l-69 164h-520l-70 -164q-6 -14 -16.5 -37.5t-19.5 -49.5 q-24 -71 -24 -90q0 -28 13 -48q23 -39 119 -39h28l-2 -49q-161 4 -239 4h-43zM483 557h451l-225 528z" />
<glyph unicode="B" horiz-adv-x="1323" d="M45 0v49h23q70 0 126 35q33 22 50 82q8 39 8 147v861q0 109 -25 152q-42 73 -161 73h-21v47h655q153 0 279 -75q57 -34 89.5 -76t60.5 -97t28 -127.5t-18.5 -118t-44.5 -76.5q-43 -55 -91 -76q-71 -32 -165 -50q107 -21 140.5 -35t73.5 -35t78 -58q95 -89 95 -233 q0 -74 -23 -129q-33 -76 -67 -110q-101 -115 -291 -144q-40 -6 -104 -6h-695zM471 94q65 -16 137 -16t137.5 19.5t113.5 58.5q102 83 102 239q0 128 -68 208q-29 34 -63 53q-100 59 -191 59h-73q-43 0 -95 -10v-611zM471 799q88 -11 113 -11q94 0 160.5 28t100.5 63.5 t51 74.5q26 60 26 124q0 234 -226 285q-49 11 -96 11t-129 -8v-567z" />
<glyph unicode="C" horiz-adv-x="1449" d="M96 694q0 163 71 338q75 185 258 314q174 124 392 124q179 0 353 -80q20 -10 38 -10t29.5 9.5t18.5 23.5q7 17 14 57h59q-6 -99 -6 -140q0 -74 8 -142.5t12.5 -109t18.5 -89.5l-55 -8q-82 327 -342 385q-45 10 -122 10t-151 -31.5t-126 -75.5q-165 -139 -208 -409 q-10 -59 -10 -122q0 -108 10.5 -155t26.5 -102t51 -119q91 -169 230 -233q93 -45 207 -45t195 33t138.5 79t93 96t60.5 85l55 -39q-91 -151 -205 -242q-75 -54 -133 -75q-126 -46 -252 -46q-155 0 -303 60q-207 86 -316.5 262t-109.5 397z" />
<glyph unicode="D" horiz-adv-x="1622" d="M53 0v49h19q70 0 126 35q35 22 46.5 71.5t11.5 157.5v861q0 109 -25 152q-42 73 -161 73h-17v47h776q228 0 366 -78q240 -134 313 -410q26 -96 26 -170q0 -168 -20.5 -245.5t-51 -146t-90.5 -138.5q-135 -160 -375 -223q-125 -29 -208.5 -32t-153.5 -3h-582zM471 1335 l2 -1218q119 -31 195 -31t146.5 7t153.5 48t143 105.5t100 142.5q79 154 79 340q0 115 -30 219q-59 215 -212 317.5t-370 102.5q-111 0 -207 -33z" />
<glyph unicode="E" horiz-adv-x="1323" d="M45 0v49h21q119 0 161 76q18 35 20.5 74t2.5 114v822q0 39 -1 93t-13 76q-22 41 -39 55q-48 40 -131 40h-21v47h1096l22 -344h-53q-4 35 -9 54.5t-14 49.5q-23 74 -96 117q-47 27 -86 31t-92 4h-270q-20 0 -31.5 1t-25.5 -6t-15.5 -30t-1.5 -57v-402q0 -4 -1 -16t6 -24 q8 -15 50 -15h189q136 0 184.5 16t71 61.5t22.5 96.5v29h51v-498l-51 2q0 66 -8 99.5t-35 64.5t-66.5 37t-80.5 6h-252q-16 0 -43 -2t-33 -23q-4 -10 -4 -40v-433q0 -43 1 -71.5t17 -43.5t39 -17.5t62 -2.5h272q195 0 280 92q57 62 81 122.5t28 82.5l51 -16l-118 -371h-1137 z" />
<glyph unicode="F" horiz-adv-x="1280" d="M49 0v49h21q160 0 181 137q5 33 5 66v935q0 135 -50 173.5t-136 38.5h-21v47h1165l29 -338l-55 -4q-28 162 -105 213q-46 28 -87 34q-55 7 -126 8t-104 1h-293v-545h301q88 0 125 10t57.5 33t30.5 52q14 42 14 124h56q-3 -144 -3 -253q0 -66 1 -119l2 -154h-56 q0 101 -18 137q-8 27 -33 47q-29 29 -66.5 33t-109.5 4h-301v-416q0 -92 8 -145t37 -76q55 -43 139 -43h41l-2 -49q-257 5 -376 5h-36q-112 -1 -235 -5z" />
<glyph unicode="G" horiz-adv-x="1662" d="M100 721q0 115 13.5 170.5t29 101t43.5 99.5q70 134 185 219q215 159 487 159q130 0 254 -40q53 -16 89 -33t56.5 -17t44 10.5t30.5 32t11 47.5l56 -2q-4 -66 -4 -181.5t28 -287.5l-57 -8q-21 94 -48 143q-51 89 -106 140q-39 35 -80.5 55.5t-59.5 26.5q-102 35 -197 35 t-203 -53q-197 -97 -278 -302q-56 -140 -56 -284q0 -99 13 -154.5t28.5 -105.5t46.5 -108q77 -144 201 -226q131 -88 264 -88t206.5 37.5t106.5 68.5v297q0 79 -3 109t-9 62t-35 56q-43 37 -127 37h-33v49q235 -5 347 -5h34q106 1 238 5v-49h-33q-63 0 -103 -27.5t-48.5 -85 t-8.5 -151.5v-348q-44 -28 -94.5 -51.5t-106 -41.5t-113.5 -30q-131 -27 -222 -27q-155 0 -329 59q-106 37 -165 85.5t-82 70.5q-56 52 -108 134q-103 162 -103 397z" />
<glyph unicode="H" horiz-adv-x="1622" d="M47 0v49h21q119 0 161 76q18 35 20.5 74t2.5 114v885q0 12 -2 54t-25.5 77t-57.5 52.5t-99 17.5h-21v47q105 -2 263 -2t368 2v-47h-21q-116 0 -159 -78q-18 -35 -21.5 -74t-3.5 -114v-332h676v334q0 76 -2 114.5t-23 74.5q-42 75 -166 75h-12v47q153 -3 268 -3 q69 0 123 1l244 2v-47h-25q-92 0 -139 -49q-33 -33 -39 -81t-6 -136v-868q0 -110 33 -154q43 -62 154 -62h14l-2 -49q-156 3 -312.5 3t-312.5 -3v49h19q74 0 109 21q67 43 72 132q3 40 3 111v404h-676v-404q0 -80 4 -121.5t30 -79.5q43 -63 150 -63h21v-49q-158 3 -315.5 3 t-315.5 -3z" />
<glyph unicode="I" horiz-adv-x="724" d="M49 0v49h21q96 0 135 41t44 89t5 134v869q0 115 -33 155q-43 62 -151 62h-21v47l240 -2q55 -1 124 -1q115 0 267 3v-47h-18q-95 0 -134 -41t-45 -89t-6 -136v-868q0 -110 28 -146.5t59.5 -53t97.5 -16.5h18v-49q-158 3 -316 3t-315 -3z" />
<glyph unicode="J" horiz-adv-x="854" d="M45 144.5q0 43.5 34 73.5t72 30t73.5 -17.5t58.5 -76.5q14 -48 26 -60q18 -25 41 -24q40 3 51 20q25 22 25 103v942q0 84 -5 131t-27 74q-33 38 -87 49q-25 10 -65 10h-25l2 47q155 -3 311 -3t314 3v-47h-10q-78 0 -113 -24.5t-48.5 -51.5t-18.5 -58.5t-5 -65.5v-795 q0 -102 -28.5 -183.5t-57 -118.5t-45 -50t-36 -27t-52.5 -25.5t-62 -17.5q-41 -7 -67 -7t-52 1t-59 8q-82 20 -120 75q-25 42 -25 85.5z" />
<glyph unicode="K" horiz-adv-x="1492" d="M51 0v49h19q92 0 132 38t47 89t7 137v822q0 92 -9 144t-37 75q-58 45 -140 45h-19v47q156 -3 314 -3t317 3v-47h-25q-87 0 -129.5 -39t-48.5 -89t-6 -138v-377q39 20 59.5 38.5t64.5 60.5t101 101q142 147 203.5 228.5t74.5 106t13 43.5q0 51 -58 60q-28 5 -75 5v47 q133 -2 267.5 -2t269.5 2v-47q-64 0 -150 -47q-12 -8 -24.5 -14.5t-34.5 -23.5q-43 -33 -189 -181l-313 -322l459 -498q39 -41 76.5 -82t96.5 -92q89 -78 220 -90v-49q-257 5 -378 5h-36q-114 -1 -237 -5v49h30q79 0 91 33q6 14 6 24t-10.5 30.5t-30 45.5t-41.5 50 q-50 57 -74 81l-311 338q-33 37 -43 43t-27 11v-392q0 -92 8 -145q12 -79 97 -108q30 -11 79 -11h25l-2 -49q-158 3 -315 3t-314 -3z" />
<glyph unicode="L" horiz-adv-x="1280" d="M49 0v49h21q73 0 126 35q33 22 50 82q8 39 8 147v899q0 71 -25 114q-42 73 -159 73h-21l2 47q156 -3 313.5 -3t315.5 3v-47h-23q-87 0 -129.5 -39t-48.5 -89t-6 -138v-932q0 -55 22.5 -75t75.5 -20h271q113 0 188 33q4 2 19.5 9.5t28.5 17.5q19 15 53 55.5t54.5 88.5 t43.5 106l47 -15l-131 -401h-1096z" />
<glyph unicode="M" horiz-adv-x="1921" d="M49 0v49h21q72 0 128 35q33 22 50 82q8 39 8 147v853q0 84 -6 119.5t-24.5 58t-39.5 34.5q-28 14 -80 21h-57v47l258 -2l154 2l508 -1061l497 1061q102 -2 205 -2t207 2v-47h-61q-45 -6 -75 -19.5t-44.5 -38t-20.5 -49.5q-8 -34 -8 -71l-2 -88v-820q0 -86 6 -134 t31.5 -76t57.5 -41t91 -13h25v-49q-158 3 -315.5 3t-315.5 -3v49h25q109 0 155 66q25 37 27 77.5t2 120.5v879l-555 -1192l-547 1192v-942q0 -12 2 -54t25.5 -77t57.5 -52.5t100 -17.5h20v-49q-128 3 -255.5 3t-254.5 -3z" />
<glyph unicode="N" horiz-adv-x="1579" d="M0 1399v47h391l852 -1012v751q0 132 -41 173t-131 41h-41v47q125 -3 250.5 -3t251.5 3v-47h-16q-123 0 -156 -84q-17 -45 -17 -182v-1151l-989 1163v-865q0 -18 1 -29t1 -28.5t3 -40.5q7 -55 39 -86q48 -47 141 -47h24v-49q-93 4 -183 5h-29q-95 0 -302 -5v49h17 q96 0 134 40t44 89t6 135v942q-6 6 -24.5 27t-57.5 56q-60 52 -168 61z" />
<glyph unicode="O" horiz-adv-x="1536" d="M98 743q0 266 146 457q116 155 286 224q115 46 230 46q93 0 154 -18t107 -35.5t98 -51.5q127 -83 208 -214q57 -92 82 -191t28 -168q1 -33 1 -65q0 -126 -22 -224q-28 -122 -103.5 -232.5t-186.5 -184.5q-83 -50 -131 -68q-113 -43 -225 -43q-86 0 -168 23.5t-168 73 t-160 136.5q-176 205 -176 535zM342 763q0 -422 176 -593q112 -104 258 -104q152 0 260 107q112 110 142 285q18 100 18 183q0 19 -1 37q-5 96 -6 128t-4 56t-10.5 76.5t-28.5 117.5q-55 168 -165 251q-100 75 -221 75q-172 0 -295 -146t-123 -441v-32z" />
<glyph unicode="P" horiz-adv-x="1193" d="M49 0v49h21q90 0 137 45q35 31 41 82t6 137v822q0 92 -8 144q-12 76 -97 109q-30 11 -79 11h-21v47h633q249 0 375 -133q60 -60 86 -152q14 -49 14 -95t-9 -108.5t-52 -130.5q-66 -104 -169.5 -139t-215 -35t-238.5 31v-371q0 -41 1 -92t16 -85q40 -87 167 -87h35l-2 -49 q-257 5 -375 5h-35q-110 -1 -231 -5zM473 758q94 -23 134 -23q110 0 173 41q83 55 116 170q13 45 13 88q0 103 -43 192q-39 79 -133 120q-49 22 -123.5 22t-136.5 -25v-585z" />
<glyph unicode="Q" horiz-adv-x="1536" d="M98 725q0 157 47 295q75 199 245 322q175 128 382 128q240 0 428 -164q174 -150 224 -420q14 -73 14 -134.5t-5.5 -127t-28.5 -146.5q-55 -198 -200 -328q-74 -66 -136 -95.5t-101 -44.5q12 -31 39 -84q36 -73 166 -157q110 -70 284 -91v-55q-142 7 -227 27 q-148 35 -181 49q-194 82 -300 172q-71 62 -125 127q-70 18 -131 45q-135 66 -228 183q-166 209 -166 499zM344 756q0 -529 304 -662q57 -24 115 -24q107 0 187 43q109 57 178 203q64 133 64 361v40q0 164 -34 286q-42 151 -108 235q-62 78 -164 120q-55 24 -126 24 q-119 0 -210 -66.5t-138 -170.5q-68 -150 -68 -389z" />
<glyph unicode="R" horiz-adv-x="1409" d="M45 0v49h23q96 0 135 41t44 89t5 134v869q0 113 -33 155q-43 62 -151 62h-23v47h635q130 0 180 -12t99 -33t94 -62q108 -98 108 -270q0 -54 -16 -104.5t-59.5 -109t-145.5 -107.5q-61 -30 -104 -37l292 -398q76 -110 152 -186q24 -18 64 -40q58 -33 102 -38v-49 q-35 2 -66.5 2t-89.5 2h-32q-60 0 -168 -4l-490 674h-131v-413q0 -136 49 -174t135 -38h27l-2 -49q-156 3 -314.5 3t-318.5 -3zM469 756q32 -2 61 -2q241 0 330 131q53 74 53 188q0 27 -7 78t-50 109q-83 108 -251 108q-75 0 -136 -27v-585z" />
<glyph unicode="S" horiz-adv-x="1150" d="M137 -23l4 279l-4 199h49q12 -134 76 -222q115 -153 299 -153t255 159q15 35 15 72.5t-7 77t-36 74.5t-59.5 60.5t-64.5 48.5q-54 36 -111 69t-95 56.5t-81 51t-87 62.5t-78 78q-73 92 -73 211t80 218q65 81 183 124q63 22 118 22q109 0 159 -15t78.5 -24.5t59.5 -9.5 t57.5 19.5t24.5 54.5h45q0 -275 10 -477h-51q-4 27 -13 80t-32.5 94.5t-43 69.5t-52.5 54q-78 60 -189 60q-150 0 -213 -113q-25 -44 -25 -93q0 -38 15 -80q33 -87 172 -160q220 -117 291.5 -167t115.5 -98.5t69 -95.5q40 -78 40 -176q0 -87 -34.5 -168.5t-92 -129.5 t-119.5 -73q-91 -36 -194 -36q-88 0 -166.5 24t-109.5 34.5t-56 10.5q-40 0 -56 -19q-17 -23 -24 -53h-49z" />
<glyph unicode="T" horiz-adv-x="1366" d="M57 1110l25 336h1202l27 -336l-51 -4q-4 79 -38 139.5t-95.5 80.5t-182.5 20h-151v-1033q0 -92 8 -145q12 -79 97 -108q30 -11 79 -11h45v-49q-184 3 -322 3q-83 0 -149 -1l-203 -2v49h37q92 0 137 45q35 31 41 82t6 137v1033h-148.5t-98 -4.5t-77.5 -11.5t-67 -35 q-53 -55 -74 -191z" />
<glyph unicode="U" horiz-adv-x="1579" d="M16 1399v47q158 -3 316 -3t317 3v-47h-18q-75 0 -125 -33q-60 -43 -60 -168v-736q0 -168 76 -258q114 -134 320 -134q108 0 200 41q190 82 211 309q4 43 4 125v590q0 41 -3 100t-23 91t-41 44t-50 20q-36 9 -69 9h-24v47q142 -3 248 -3q64 0 114 1l152 2v-47h-39t-36 -3 q-105 -17 -117 -114q-7 -55 -7 -147v-594q0 -251 -90 -370q-109 -147 -325 -185q-73 -13 -147 -13q-107 0 -214 27q-142 35 -239 132q-70 70 -94 141q-32 98 -32 257v605q0 92 -7 146t-39 81t-68.5 32t-69.5 5h-21z" />
<glyph unicode="V" horiz-adv-x="1492" d="M2 1399l2 47q172 -3 302 -3q78 0 140 1l191 2v-47h-45q-10 -2 -20.5 -2t-19.5 -1t-26.5 -4t-35.5 -14q-48 -26 -48 -68.5t14.5 -80t39.5 -96.5l321 -760l320 762q55 120 55 172q0 25 -14 49q-23 31 -58 35t-67 8h-41v47q114 -3 202 -3q52 0 95 1l182 2v-47 q-14 -2 -23.5 -2t-32 -6t-54 -29t-54.5 -50q-26 -31 -88 -179l-494 -1172l-489 1174q-33 87 -53.5 122t-34.5 54.5t-36 38.5q-57 46 -130 49z" />
<glyph unicode="W" horiz-adv-x="2048" d="M2 1399v47q152 -3 266 -3q68 0 123 1l203 2v-47h-55q-41 -6 -71 -20.5t-30 -55.5t13.5 -83t35.5 -107l252 -709l228 641l-25 70q-16 41 -36.5 95t-50.5 93t-68.5 54.5t-90.5 21.5h-14v47q152 -3 266 -3q68 0 123 1l203 2v-47h-25l-30 -2q-53 0 -83 -39q-12 -17 -12 -39 t5.5 -47t13.5 -50q20 -63 31 -89l256 -709l243 711q45 131 45 180t-30.5 63.5t-71.5 20.5h-47l2 47l282 -2l193 2v-47h-25q-10 -2 -25.5 -4t-34.5 -9q-55 -18 -86.5 -53t-54 -94t-38.5 -106l-410 -1174l-348 952l-342 -952l-428 1176q-10 23 -18.5 47t-21.5 56t-31.5 61.5 t-42.5 50.5q-46 41 -138 49z" />
<glyph unicode="X" horiz-adv-x="1492" d="M4 0v49h8q29 4 69 12.5t88 40t89 78.5t107 133l286 377l-282 445q-16 25 -33 49t-33 49q-72 104 -133 135t-125 31h-22v47q166 -3 289 -3q74 0 132 1l250 2v-47l-47 -2q-14 0 -19 -1t-20.5 -2t-31.5 -8q-44 -20 -44 -65q0 -44 101 -188l164 -256l194 258q47 66 82 115.5 t35 84.5q0 19 -13 36q-20 28 -87 28h-41v47q127 -3 254 -3l254 3v-47h-11q-66 -9 -99.5 -23t-61 -33.5t-55.5 -48.5q-38 -37 -134 -161l-264 -345l301 -475q32 -50 75.5 -112t100.5 -107t154 -45h8v-49q-260 5 -380 5h-37q-114 -1 -245 -5v49h64q52 0 80 31q16 16 16 46 t-26.5 77t-67.5 110l-184 287l-222 -287q-18 -25 -35.5 -49t-27.5 -38.5t-29.5 -44t-19.5 -60.5q0 -72 119 -72h18v-49q-126 3 -253 3t-255 -3z" />
<glyph unicode="Y" horiz-adv-x="1492" d="M0 1399l2 47q154 -3 270 -3q70 0 127 1l238 2v-47h-43l-25 -2q-80 0 -80 -70q0 -31 28 -81t67 -113l233 -381l232 383q4 6 9 13t12 20q10 19 29 54t33.5 62t14.5 50.5t-13.5 35.5t-28.5 18q-24 11 -44 11h-51v47q117 -3 205 -3q53 0 96 1l180 2v-47h-16q-25 -4 -72 -14.5 t-93 -53.5t-80 -96t-65 -102l-305 -502v-410q0 -98 52 -133q57 -39 132 -39h23v-49q-249 5 -365 5h-35q-109 -1 -241 -5v49h27q94 0 133 40t45 89t6 135v318l-305 504q-14 23 -26.5 44t-38.5 60t-57.5 70.5t-61.5 50.5q-48 30 -125 39h-23z" />
<glyph unicode="Z" horiz-adv-x="1323" d="M35 0l911 1362h-414q-80 0 -149 -12q-78 -18 -124 -80t-50 -205l-47 6l28 375h1078l-914 -1360h492q134 0 178 12q92 26 150 105q49 73 60 114t19 64l39 -12l-78 -369h-1179z" />
<glyph unicode="[" horiz-adv-x="555" d="M123 -338v1808h397v-90h-223v-1628h223v-90h-397z" />
<glyph unicode="\" horiz-adv-x="724" d="M74 1446h121l469 -1483h-123z" />
<glyph unicode="]" horiz-adv-x="555" d="M35 -248h225v1628h-225v90h397v-1808h-397v90z" />
<glyph unicode="^" horiz-adv-x="1492" d="M319 717l369 729h129l357 -729h-156l-268 561l-275 -561h-156z" />
<glyph unicode="_" horiz-adv-x="1024" d="M-20 -301h1064v-121h-1064v121z" />
<glyph unicode="`" horiz-adv-x="555" d="M-168 1468h225l125 -348h-57z" />
<glyph unicode="a" horiz-adv-x="937" d="M72 213q0 70 50 150.5t132 126t149.5 69.5t110.5 38.5t84 31.5v114q0 6 2 35t-4 50.5t-14.5 42t-26.5 39.5q-43 44 -103.5 44t-89 -15t-46.5 -37q-29 -36 -29 -83l10 -76q-1 -37 -25 -65q-23 -27 -58 -27h-5q-27 0 -48 17q-40 30 -40 82q0 78 73 155q102 109 269 109 q61 0 131 -22.5t105 -60.5t49 -75t18 -71.5t4 -61.5v-543q0 -25 16.5 -49.5t44.5 -24.5q59 0 101 56l29 -25q-37 -61 -85 -97q-66 -51 -96 -57t-38 -6q-27 0 -58 12.5t-47 31t-25 39.5q-14 34 -14 61v16q-90 -90 -159.5 -120.5t-108.5 -30.5q-86 0 -130 20t-69 48t-38 58 q-21 50 -21 101zM246 270q0 -70 49 -117t119 -47q79 0 162 65q16 13 22 19v369q-305 -90 -346 -239q-6 -21 -6 -50z" />
<glyph unicode="b" horiz-adv-x="1110" d="M20 1278v43q200 80 318 156v-633q12 14 36.5 42.5t63.5 56.5q96 69 207 69q87 0 137 -31q150 -77 210 -269q24 -75 24 -135.5t-4 -110.5t-22 -112q-44 -156 -144 -254q-63 -59 -107 -77q-97 -41 -202 -41t-191 30.5t-178 83.5v1058q0 20 -2 42q0 100 -76 100 q-25 0 -70 -18zM338 209q25 -90 104 -125q44 -20 100 -20q35 0 75 8q45 8 93 47t73.5 95t36.5 110q16 80 16 122.5t-2.5 81.5t-15.5 88q-33 122 -120 191q-70 55 -151 55q-107 0 -174 -76q-16 -18 -23.5 -34.5t-11.5 -22.5v-520z" />
<glyph unicode="c" horiz-adv-x="894" d="M84 442.5q0 65.5 4 123t28 128t63.5 129t92.5 101.5q115 92 263 92q164 0 256 -107q45 -56 45 -99.5t-11.5 -64t-26.5 -31.5q-27 -20 -53 -20q-44 0 -59 15q-29 20 -36 44.5t-10 46.5q-5 36 -17 65.5t-51.5 52t-68.5 22.5q-69 0 -122 -42t-79 -92t-37 -98 q-15 -67 -15 -110t2 -86t16 -98q34 -143 123 -215q71 -54 152 -54q148 0 243 142q22 27 30.5 47.5t19.5 44.5l45 -12q-4 -10 -7.5 -20.5t-10.5 -30t-29.5 -78t-75.5 -123.5q-111 -138 -273 -138q-106 0 -189 53.5t-124 121t-60 132.5q-28 93 -28 158.5z" />
<glyph unicode="d" horiz-adv-x="1110" d="M92 452.5q0 61.5 4 117t24 124.5q49 174 179 258q101 60 213 60q128 0 208 -64q21 -18 38 -33v251q0 83 -14 105q-29 42 -82 42q-18 0 -66 -10v40q54 15 151 52q138 53 185 82v-1211q0 -20 -1 -39.5t4 -38t25.5 -42t57.5 -23.5t65 14l-2 -37q-84 -35 -163.5 -64.5 t-159.5 -66.5l-2 154q-24 -31 -62 -63.5t-101 -55t-136.5 -22.5t-146.5 36q-141 70 -196 285q-22 88 -22 149.5zM270 549q0 -119 22.5 -209t88.5 -156q77 -69 191 -69t186 96v532q-4 14 -11.5 43t-31.5 64q-16 20 -59.5 52t-112.5 32q-155 0 -235 -180q-38 -86 -38 -205z " />
<glyph unicode="e" d="M84 494q0 97 17.5 158t40 117t68.5 111q112 136 302 136q194 0 305 -165q72 -107 76 -259l-672 -2q6 -224 91 -322q46 -53 114 -85.5t133 -32.5t108.5 14t74.5 36q88 62 108 146q6 29 10 41h62q-13 -89 -44.5 -160t-83 -123.5t-106.5 -79.5q-93 -47 -194 -47 q-96 0 -155 30.5t-100.5 70t-75.5 97.5q-79 135 -79 319zM225 670h463q0 176 -135 232q-37 16 -105.5 16t-131.5 -50q-78 -60 -88 -162q-1 -10 -3 -36z" />
<glyph unicode="f" horiz-adv-x="641" d="M27 0l2 43h15q117 0 132 90q4 28 4 143v652h-137v67h137v89q0 83 26 164q47 152 167 216q100 56 223 56q137 0 223 -82q45 -45 45 -97q0 -23 -10 -38q-4 -10 -23.5 -23.5t-50.5 -13.5q-70 0 -106 66q-62 112 -135 112q-26 0 -73.5 -18.5t-70 -51.5t-27.5 -52 q-10 -38 -10 -155v-172h238v-67h-238v-707q0 -50 4.5 -84.5t27 -60t54 -27.5t64.5 -6h29v-43h-510z" />
<glyph unicode="g" d="M43 -170q0 29 14.5 54.5t20.5 33.5t20.5 25.5t30.5 36.5q60 69 94 96q-12 6 -27.5 12t-25.5 16q-47 33 -47 78.5t17.5 74t37.5 53.5q28 35 92 96q-161 88 -161 268q0 142 106 242q103 98 248 98q66 0 106 -16.5t55 -23.5t28 -12q29 -12 73 -12h207v-112h-158 q43 -82 43 -166q0 -76 -18 -116t-42 -71.5t-63 -59.5q-91 -65 -223 -65q-63 0 -133 19l-41 -62q0 -2 -11.5 -18t-11.5 -35q0 -46 122 -50q34 -1 69 -1h166l55 -2q167 -7 225 -88q38 -56 38 -123q0 -70 -27 -120q-27 -48 -80 -97t-121 -81t-131 -47q-99 -24 -198 -24t-175 33 t-112 62q-62 50 -62 104zM207 -90q0 -64 63 -96q76 -37 149 -42t140 -5t138 27.5t100 50.5q61 48 61 110q0 16 -11 46t-44 37q-71 15 -191 15h-133q-98 0 -192 13q-80 -80 -80 -156zM295 766q0 -95 15.5 -141.5t18.5 -55t13 -31t30 -46.5q48 -62 115 -62q98 0 137 98 q15 37 15 73t-5 75t-14.5 73.5t-22.5 67.5q-28 72 -81 109q-48 24 -76.5 24t-54 -9t-45.5 -31q-45 -49 -45 -144z" />
<glyph unicode="h" horiz-adv-x="1150" d="M37 0v43h20q29 4 55.5 7t48 23.5t27 50.5t5.5 83v903q0 61 1 95t-12 57q-27 47 -76 47q-22 0 -61 -13l2 41q179 45 320 140l2 -676q14 22 36.5 48.5t46 52.5t59.5 52q91 64 191 64q86 0 161 -50q32 -22 66 -70t39 -111.5t5 -129.5v-381q0 -31 -1 -61.5t2 -57t7 -45 t25 -38.5q31 -31 110 -31h10v-43q-47 2 -93 2h-93q-44 1 -99 1q-92 0 -214 -3v43h24q122 0 142 76q6 24 6 157v338q0 43 -4 96.5t-19 75.5q-55 80 -155 80q-134 0 -221 -96q-21 -22 -33 -35v-517q0 -106 24.5 -136.5t57 -32.5t67.5 -6h23v-43q-47 2 -93 2h-94q-44 1 -100 1 q-92 0 -215 -3z" />
<glyph unicode="i" horiz-adv-x="555" d="M47 0v43h21t18 1t23.5 3t32.5 9q41 18 53 63q8 32 8 157v450q0 91 -29 107.5t-50 16.5t-71 -19l2 43q57 19 167 74.5t151 81.5v-809q0 -38 3 -78.5t26.5 -66t55 -27.5t64.5 -6l-2 -43q-45 2 -88 2q-44 0 -122 2h-41q-80 0 -222 -4zM166 1358q0 47 34 79.5t81 32.5 t80.5 -32.5t33.5 -79.5t-33.5 -81t-80.5 -34t-81 34t-34 81z" />
<glyph unicode="j" horiz-adv-x="512" d="M-175 -247q0 45 27 71q25 26 55.5 26t56.5 -12t39 -38.5t27 -39.5q32 -29 55 -28q37 3 62 26q35 32 35 111v883q0 98 -76 98q-28 0 -69 -19v43q66 22 172 76t147 80v-883q0 -160 -17 -227q-34 -135 -134 -213q-95 -76 -201 -76q-47 0 -88 17.5t-54 29.5q-37 32 -37 75z M137 1352q0 47 34 79.5t69 32.5q39 0 67 -14q58 -34 58 -90.5t-34 -91.5q-33 -34 -78 -34h-3q-47 1 -80 36t-33 82z" />
<glyph unicode="k" horiz-adv-x="1024" d="M33 0v43h6q89 0 119 31q27 27 28.5 69.5t1.5 69.5v897q0 123 -18 155t-49 31.5t-80 -18.5v43q188 68 317 156v-932l150 174q52 61 77 90q68 77 68 106.5t-27.5 33t-62.5 3.5h-12v43q82 -4 186 -4t236 4v-43h-15q-29 -4 -62.5 -10t-71.5 -28.5t-58.5 -39t-43.5 -38.5 q-22 -21 -110 -119l-96 -111l244 -330q94 -134 148 -178q22 -18 60 -38q35 -18 58 -17h4v-43q-41 2 -83 2h-83q-40 1 -90 1q-82 0 -190 -3v43q37 2 58.5 10t21.5 27q0 40 -48 98q-16 25 -35.5 49.5t-37.5 48.5l-185 250v-308q0 -105 25 -136t57.5 -33t67.5 -6l-2 -43 q-43 2 -87 2h-87q-42 1 -95 1q-87 0 -204 -3z" />
<glyph unicode="l" horiz-adv-x="555" d="M39 0v43h6q126 0 143 76q7 28 7 157v874q0 19 -1 31.5t-1 30t-7 36.5q-20 48 -71 48q-19 0 -68 -18v43q98 38 163 70q106 51 152 86v-1256q0 -109 27 -139.5t58.5 -32.5t64.5 -6h4v-43q-45 2 -89 2q-43 0 -123 2h-43q-80 0 -222 -4z" />
<glyph unicode="m" horiz-adv-x="1748" d="M41 0v43h4q124 0 141 76q7 28 7 157v442q0 19 -1.5 32.5t-1.5 25.5q0 26 -23 60q-14 21 -56 21q-27 0 -66 -9v41q25 8 48.5 15t77.5 30q134 57 194 96l2 -235q19 32 32.5 48.5t37.5 46.5t62 58q93 70 203 70q169 0 234 -154q4 -14 9 -28.5t9 -40.5q13 33 53 79t79 74 q102 70 212 70q154 0 228 -119q35 -57 40 -120.5t5 -127.5v-375q0 -76 1 -124t26.5 -74.5t57.5 -28.5t62 -6l2 -43q-47 2 -92 2q-44 0 -126 2h-44q-83 0 -233 -4v43h41q93 0 118 68q8 25 9 102v475q0 108 -76 166q-46 37 -98 37t-83.5 -12.5t-57.5 -28.5q-36 -23 -66 -53 q-32 -38 -49 -66v-510q0 -38 3 -78.5t26.5 -66t54 -27.5t65.5 -6h23l-2 -43q-47 2 -93 2h-94q-46 1 -102 1q-94 0 -219 -3v43h18q126 0 143 76q7 28 7 157v283l-2 80q-2 86 -18.5 127t-50.5 67q-48 37 -95.5 37t-79 -11t-58 -24.5t-44 -26.5t-28.5 -22q-21 -17 -52 -55v-513 q0 -106 25.5 -136.5t57 -32.5t66.5 -6h23v-43q-47 2 -93 2h-92q-44 1 -98 1q-91 0 -213 -3z" />
<glyph unicode="n" horiz-adv-x="1150" d="M39 0v43h19.5t17.5 1t23.5 3t31.5 9q43 19 53 63q9 36 9 157v443q0 20 -3 41q0 98 -88 98q-21 0 -59 -10l2 41q136 38 320 141v-239q40 64 82 110q105 117 253 117q146 0 220 -115q41 -61 47 -127.5t6 -138.5v-416q0 -38 3 -78.5t26.5 -66t54 -27.5t65.5 -6h4v-43 q-47 2 -93 2h-93q-44 1 -99 1q-92 0 -214 -3v43h45q91 0 119 68q8 25 8 102v340q0 80 -1 122t-11.5 69.5t-21.5 47t-33 36.5q-50 38 -114 38q-134 0 -219 -94q-15 -17 -34 -55v-551q2 -10 4 -37t25.5 -52.5t54 -27.5t63.5 -6h27v-43q-47 2 -93 2h-94q-44 1 -99 1 q-92 0 -214 -3z" />
<glyph unicode="o" horiz-adv-x="1110" d="M84 499q0 229 135 379q70 79 189 118q65 22 124.5 22t131.5 -10q118 -18 219 -119q79 -79 119 -219q20 -72 20 -132q0 -143 -33 -241q-51 -145 -164.5 -233.5t-269.5 -88.5q-200 0 -336 148q-85 92 -117 218q-18 67 -18 158zM274 532q9 -351 180 -443q55 -30 119 -30 t122.5 43t86.5 107q47 97 47 262q0 181 -61 309q-83 162 -225 162q-146 0 -225 -167q-44 -95 -44 -222v-21z" />
<glyph unicode="p" horiz-adv-x="1067" d="M20 -301h15l31 2q93 5 108 73q8 38 8 83v872q0 27 1 51.5t-4 60t-29.5 50t-41.5 13.5q-30 -2 -73 -17v41q82 23 161.5 50.5t157.5 51.5v-172q61 59 128 106.5t159 47.5q101 0 178 -68q152 -127 152 -424q0 -309 -172 -450q-105 -88 -250 -88q-90 0 -195 41v-89 q0 -76 2 -124t26 -74.5t54.5 -30.5t61.5 -6v-43q-90 4 -171 5h-26q-87 0 -281 -5v43zM354 201q28 -82 92 -123q43 -28 95 -28q34 0 73 12q41 12 84 59q107 117 107 332q0 202 -86 319q-80 109 -193 109q-44 0 -63 -13q-39 -12 -62.5 -36.5t-46.5 -57.5v-573z" />
<glyph unicode="q" horiz-adv-x="1110" d="M90 471q0 202 108 349q90 122 226 168q68 24 151.5 24t136 -30t81.5 -52q65 39 125 96l16 -8v-1142q0 -37 3 -77.5t27 -66t54.5 -27.5t64.5 -6h11l-2 -43l-152 4q-51 1 -104 1h-54q-82 -1 -172 -5v43h8l21 2h21q37 0 62.5 19.5t31.5 36.5q12 34 12 106v266 q-147 -147 -309 -147q-73 0 -138 33.5t-108 85t-69 113.5q-52 120 -52 257zM268 551q0 -177 60 -281q39 -63 99.5 -104t137.5 -41q91 0 162 53q23 18 39 39v537q0 68 -62 124q-60 56 -151 56q-80 0 -138 -39t-88 -94.5t-43 -109.5q-16 -62 -16 -140z" />
<glyph unicode="r" horiz-adv-x="724" d="M43 0v43h27q90 0 116 63q11 33 11 101v469q0 53 -2 93t-19 68.5t-62 28.5t-65 -10v41q41 12 81 28.5t66 26.5q114 43 166 78v-174q70 106 166 152q35 16 58 16q47 0 76 -14q63 -35 63 -105q0 -43 -27.5 -73.5t-60.5 -30.5t-48.5 8t-26.5 19q-19 21 -25 38 q-17 11 -48.5 11t-61.5 -33t-47.5 -81t-17.5 -200v-343q0 -110 28 -140.5t58.5 -31.5t63.5 -5h25v-43q-47 2 -93 2h-90q-44 1 -98 1q-91 0 -213 -3z" />
<glyph unicode="s" horiz-adv-x="811" d="M84 737q0 74 26 116q39 65 66 87q83 70 223 70q62 0 105 -10.5t62.5 -18.5t43.5 -8t45 43l41 -2v-195q0 -75 4 -145h-43q-9 75 -38 125.5t-57 74.5q-69 62 -173 62q-96 0 -145 -62q-25 -36 -25 -69q0 -34 23 -66.5t55.5 -50.5t95.5 -51l168 -90q14 -8 27.5 -15.5 t26.5 -16.5t38 -27.5t47 -47.5q54 -72 54 -161q0 -57 -25 -115q-41 -90 -127 -134t-180 -44q-64 0 -120.5 16t-85 24.5t-40.5 8.5q-15 0 -24 -12.5t-10 -18.5t-3 -8l-45 2v167q0 81 -4 165l45 -2q0 -32 17 -74q63 -188 243 -188q101 0 153 52q42 42 42 88t-11.5 64.5 t-24.5 33.5t-42 35.5t-59.5 39t-61.5 33.5l-110 57q-42 21 -86 53q-111 92 -111 215z" />
<glyph unicode="t" horiz-adv-x="641" d="M45 928v67q46 0 86.5 24.5t54.5 38.5l19 19q79 92 110 234h41v-316h205v-67h-205v-600q0 -59 3 -90t15 -52q33 -63 97 -63q61 0 113 55q6 6 9 11.5t11 19.5l35 -21q-64 -115 -145 -168q-61 -36 -107 -36h-2q-95 4 -137 41q-8 6 -25 22q-23 29 -33 64.5t-10 107.5v709 h-135z" />
<glyph unicode="u" horiz-adv-x="1150" d="M29 952v43q58 -4 139.5 -4t179.5 4v-649q0 -57 13.5 -109.5t68.5 -80.5q41 -21 75 -21q70 0 84.5 4t38 12.5t50.5 23.5q64 36 104 101v553q0 57 -25.5 86t-57 31t-64.5 6h-21v43q66 -4 151 -4t191 4v-761q0 -79 54 -105q16 -8 33 -8t63 8v-43q-81 -18 -175.5 -55 t-129.5 -54l-19 9v217q-16 -31 -36.5 -55.5t-28.5 -34.5q-80 -86 -142.5 -109.5t-99 -23.5t-65.5 2t-62 14q-83 30 -122.5 96.5t-43.5 135.5t-4 139v407q0 38 -3 78.5t-26.5 66t-55.5 27.5t-64 6z" />
<glyph unicode="v" d="M-10 952v43q86 -4 200 -4t256 4v-43h-12q-74 0 -100.5 -14t-26.5 -44q0 -37 55 -177l173 -428l163 430q10 23 17.5 46t12.5 37q22 59 22 86.5t-12.5 39.5t-29.5 17q-25 7 -71 7h-12v43q66 -4 149 -4t191 4l-2 -41q-19 0 -44.5 -13t-38 -30.5t-26.5 -49t-21.5 -50 t-14.5 -35t-12 -30t-11 -29.5l-283 -731h-41l-293 733q-62 160 -104 207q-23 26 -84 26z" />
<glyph unicode="w" horiz-adv-x="1449" d="M6 952v43q82 -4 187 -4t239 4v-43h-10q-25 0 -54.5 -4t-45.5 -30q-7 -9 -7 -37q0 -33 52 -164l165 -424l170 448q-25 81 -45 121q-17 52 -47 70q-20 14 -42.5 15t-45.5 5l2 43q82 -4 189 -4t241 4v-43h-10q-10 -2 -26 -2q-74 0 -74 -67q0 -23 6 -42.5t13 -40.5t13.5 -41 t14.5 -42l143 -408l160 410q23 59 38 97t15 65t-11 41t-28 21q-21 9 -73 9h-19v43q137 -5 198 -5h18q56 1 118 5l-2 -43q-34 0 -57 -16t-37.5 -52t-24.5 -62t-20.5 -51.5t-20.5 -53.5l-287 -729h-47l-211 628l-239 -628h-49l-273 731q-10 31 -22.5 61.5t-27.5 69.5 q-29 76 -77 94q-21 10 -39 8h-10z" />
<glyph unicode="x" horiz-adv-x="1024" d="M0 0v43q14 2 28.5 3t33 6t36 16.5t33.5 29.5q25 27 58.5 73t48 65.5t28.5 39.5l156 222l-141 221q-73 112 -102 150t-53 53q-41 23 -110 30v43q86 -4 204.5 -4t264.5 4v-43h-10q-12 -2 -31 -3q-55 -3 -55 -40q0 -39 77 -155q17 -25 26 -37l43 -66l49 68q18 25 35.5 50.5 t32.5 47.5q43 63 44.5 83.5t-7.5 33t-28.5 13.5t-50.5 5h-14v43q74 -4 176.5 -4t228.5 4v-43h-6q-41 0 -87 -9q-79 -16 -181 -171q-14 -22 -39 -55l-104 -144l196 -297q23 -35 45.5 -67.5t48.5 -68.5q66 -94 148 -97v-43q-41 2 -80 2h-80q-38 1 -84 1q-78 0 -182 -3v43h4 q66 0 76 27q4 14 4 26q0 18 -35.5 72.5t-47 73t-24.5 34.5l-96 146l-104 -146q-20 -29 -40 -55t-31 -43.5t-17 -28t-13 -21.5q-16 -23 -16 -42q0 -29 34 -36t79 -7h22l-2 -43q-35 2 -71 2h-74q-34 1 -77 1q-72 0 -167 -3z" />
<glyph unicode="y" d="M4 952v43q82 -4 191 -4t247 4v-43h-14l-27 -2q-79 0 -79 -61q0 -37 51 -172l166 -453l174 455q45 108 45 145.5t-14.5 58t-46 25t-81.5 4.5h-12v43q70 -4 163.5 -4t211.5 4v-43q-37 -4 -59.5 -17t-37.5 -37.5t-25.5 -46.5t-20.5 -47q-14 -31 -35 -87l-309 -774 q-48 -120 -84 -162q-61 -82 -159 -119q-30 -12 -53.5 -12t-38 1t-30.5 6q-40 12 -64 46q-16 32 -16 57q0 62 59 90q21 11 44 11q51 0 73 -14.5t35.5 -23.5t27.5 -8q35 2 58 21.5t38 47.5t40 87l20 49l-249 699q-24 71 -37 98t-23 54.5t-27 42.5q-43 38 -94 38h-8z" />
<glyph unicode="z" horiz-adv-x="937" d="M35 0v37l612 883h-268q-72 0 -119 -7.5t-64 -24.5q-24 -23 -31 -52t-9 -44.5t-3 -29.5q-3 -42 -3 -68h-39v301h778v-20l-619 -889h303.5t136.5 3q62 7 89 33q53 51 53 185h37v-307h-854z" />
<glyph unicode="{" horiz-adv-x="724" d="M172 506v10q12 4 39 14.5t48 37t31.5 62.5t15.5 75.5t5 76.5v412q0 74 17.5 143.5t59.5 107.5q51 46 93 61t86.5 18.5t73.5 7.5v-12q-47 -12 -85 -29.5t-72 -66.5t-37 -116t-3 -128v-310q0 -55 -2 -83.5t-3 -48t-5 -46.5q-11 -69 -36 -104q-40 -53 -115 -80 q55 -16 89 -50t48 -70t20 -83t6 -105v-362q0 -88 5.5 -134t30 -95t64.5 -71.5t95 -39.5v-10l-66 6q-61 0 -111 24.5t-78 53.5t-43 67.5t-23 80.5q-9 53 -9 165v334q0 57 -6 116.5t-37 100.5q-43 57 -96 70z" />
<glyph unicode="|" horiz-adv-x="468" d="M174 -512v2044h121v-2044h-121z" />
<glyph unicode="}" horiz-adv-x="724" d="M84 -502q47 12 85 30.5t72 66.5t37 116t3 127v312q0 213 49 284q39 55 112 76q-50 14 -94 57q-69 69 -69 253v444q0 145 -95 213q-27 19 -100 43v12q16 -2 31.5 -3t29.5 -3t36 -4t49 -10q64 -20 102.5 -60.5t52.5 -78.5t21 -79q8 -54 8 -161v-332q0 -57 6 -116.5t37 -101 t55.5 -53.5t40.5 -18v-10q-10 -4 -38 -13.5t-49 -36t-31.5 -63.5t-14.5 -76t-4 -77v-324l-2 -88q-2 -72 -18.5 -141.5t-73.5 -122.5q-27 -25 -53.5 -37t-46.5 -19.5t-64.5 -10.5t-73.5 -5v10z" />
<glyph unicode="~" horiz-adv-x="1492" d="M274 582q107 161 254 161q61 0 119 -23.5t111 -47.5l67 -31q91 -41 145 -40t100 41t85 87l64 -113q-76 -96 -139.5 -126.5t-115 -30.5t-91 13t-115.5 50l-60 29q-102 51 -153.5 51t-78 -11t-48.5 -31q-30 -27 -76 -91z" />
<glyph unicode="&#xa1;" horiz-adv-x="598" d="M138 1344q1 50 36 85t86 35t85 -34.5t34 -86.5q0 -23 -8 -43q-29 -77 -113 -77q-51 0 -86 35.5t-34 85.5zM141 147q0 65 9 119l79 776h52l69 -778q8 -58 8 -117l-2 -30q0 -80 -47 -115q-27 -20 -61 -20q-107 0 -107 165z" />
<glyph unicode="&#xa3;" horiz-adv-x="1067" d="M12 108q0 47 16.5 77t42 46.5t49.5 24.5q31 10 80.5 10t96.5 -12t63 -16q21 61 21 181t-41 273h-217v80l199 2q-37 126 -37 268q0 114 39.5 209t142 157t221.5 62q59 0 122.5 -21.5t96.5 -60.5q45 -53 45 -105t-28.5 -80.5t-66.5 -28.5t-56.5 10t-29.5 24q-19 26 -19 56 l14 69q-2 18 -21.5 44t-68.5 25t-92 -27t-66.5 -65.5t-35 -77.5t-13.5 -70t-2 -54t3 -48t8 -54.5t12 -68.5q17 -86 38 -165h338v-80h-321q16 -100 16 -159.5t-5 -111.5t-28 -113q-32 -90 -47 -115q125 -41 242 -41q167 0 235 73q39 41 48 115l51 -2q-2 -12 -5 -39t-12 -61 q-26 -88 -52.5 -124t-46 -56.5t-49.5 -37.5q-73 -43 -165 -43t-173 38t-161 75l-31 -24q-8 -6 -26.5 -21.5t-43.5 -30.5q-64 -39 -132 -39q-100 0 -138 91q-10 22 -10 42zM100 106.5q0 -24.5 20.5 -41t43.5 -16.5q35 0 60 14q42 23 79 76q-80 35 -125 35t-61.5 -21.5 t-16.5 -46z" />
<glyph unicode="&#xa4;" horiz-adv-x="1366" d="M117 223l153 150q-50 72 -69 114q-43 97 -43 185.5t12 139t30 89.5q22 49 70 115l-149 149l92 92l149 -147q143 111 322 111q175 0 292 -91q13 -10 28 -20l151 150l94 -95l-151 -151q110 -139 110 -318q0 -147 -67 -256q-15 -28 -45 -67l151 -154l-94 -92l-152 154 q-14 -10 -27 -20.5t-37 -25.5t-90.5 -40t-164.5 -25q-175 0 -320 111l-153 -150zM281 696q0 -173 119 -290q117 -115 288 -115q164 0 286 121q64 65 86.5 139.5t22.5 117.5t-2 70t-9 59q-22 104 -109 191q-111 111 -279 111q-170 0 -288 -116q-115 -114 -115 -288z" />
<glyph unicode="&#xa6;" horiz-adv-x="468" d="M174 389h121v-780h-121v780zM174 631v780h121v-780h-121z" />
<glyph unicode="&#xa7;" horiz-adv-x="768" d="M33 557q0 67 23.5 133t74.5 121t113 107q-29 23 -60 76q-63 105 -63 181t23.5 127.5t63.5 87.5q87 80 204 80q141 0 219 -112q37 -62 37 -111t-25 -81.5t-74 -32.5q-51 0 -77 43q-15 24 -15 46q0 32 8 48q21 42 21 63t-23.5 50.5t-86.5 28.5t-104.5 -44t-40.5 -116.5 t50 -132t107 -105.5l69 -58q18 -16 36.5 -31.5t32 -28.5t44.5 -42t64 -73q83 -113 83 -224q0 -68 -45 -161t-162 -195q113 -136 113 -273q0 -72 -22.5 -111.5t-54 -73.5t-90 -57.5t-113 -23.5t-93.5 13.5t-66 32.5q-59 42 -92 117q-14 30 -14 68.5t26 68.5t68 30t68.5 -24.5 t26.5 -53.5q0 -44 -11 -59q-16 -32 -16 -58.5t22.5 -54t87.5 -27.5t109.5 45t44.5 100q0 90 -57 158q-62 73 -109 104.5t-68 47.5q-51 39 -71 53q-80 66 -133 146t-53 188zM131 639q0 -43 19.5 -81t49 -70.5t64.5 -60.5t64 -52l166 -135q103 103 126 151.5t23 83.5t-23.5 76 t-56.5 79q-49 57 -127 122l-98 84q-28 24 -53 43q-111 -88 -141 -163q-13 -34 -13 -77z" />
<glyph unicode="&#xa8;" horiz-adv-x="555" d="M-211 1290v14q0 5 8 29.5t38 47t55 22.5q37 0 67 -12q61 -34 60 -92t-34.5 -91.5t-68.5 -33.5t-47 6t-21 10q-57 34 -57 100zM199 1292q0 47 33.5 80t80.5 33t81 -33t34 -82q0 -27 -12 -51q-33 -61 -105 -61q-47 0 -79.5 33.5t-32.5 80.5z" />
<glyph unicode="&#xa9;" horiz-adv-x="1705" d="M125 716.5q0 98.5 17.5 173.5t43.5 133q41 93 87.5 147.5t94.5 99.5t118 85q168 97 370 97q300 0 521 -217q115 -113 175 -295q33 -98 31 -221q0 -172 -83 -338q-36 -72 -97 -141q-104 -119 -246.5 -182.5t-300.5 -63.5t-299 61.5t-246 175.5q-111 118 -157 285 q-29 102 -29 200.5zM190 723q0 -241 150 -422q128 -154 320 -213q94 -29 170 -29q367 0 562 276q124 177 124 395.5t-132 393.5q-76 100 -158 152q-173 110 -370 110q-220 0 -393 -126q-106 -80 -159 -163q-114 -176 -114 -374zM408 742q0 289 176 384q112 60 256 60 q39 0 77.5 -4t77.5 -8l45 -5q62 -8 142 -8q18 -200 26 -268h-51q-10 47 -23.5 90t-41.5 77t-68.5 58.5t-122.5 24.5q-115 0 -180 -62q-42 -35 -68 -88q-43 -94 -43 -239q0 -369 184 -444q49 -21 91 -21t62 1t45 7q98 24 145 123q20 45 26 121h49l2 -262q-39 -2 -76.5 -7.5 t-78.5 -9.5l-41 -4q-45 -4 -87 -8t-97.5 -4t-108.5 11t-93 29q-134 62 -180 192q-41 111 -42.5 180t-1.5 84z" />
<glyph unicode="&#xab;" d="M33 549l375 473h73l-252 -473l263 -479h-68zM481 549l387 473h66l-250 -473l250 -479h-66z" />
<glyph unicode="&#xac;" horiz-adv-x="1366" d="M0 537v120h1366v-657h-123v537h-1243z" />
<glyph unicode="&#xad;" horiz-adv-x="641" d="M70 455v174h501v-174h-501z" />
<glyph unicode="&#xae;" horiz-adv-x="1705" d="M125 725q0 272 166 467q91 103 177 153q186 107 374 107q382 0 600 -293q145 -197 141 -440q0 -168 -82 -332q-35 -70 -99.5 -146.5t-146 -128t-157.5 -76.5q-247 -83 -480 -3q-114 39 -179.5 88t-115 98t-93.5 121q-105 172 -105 385zM190 723q0 -241 150 -422 q128 -154 320 -213q94 -29 160 -29q263 0 440 137q160 123 226 324q32 97 32 201q0 224 -129 399q-78 103 -161 155q-177 111 -372 111q-220 0 -393 -126q-106 -80 -159 -163q-114 -176 -114 -374zM494 270l2 68q23 4 46 7t34 21q12 20 12 107v535q0 12 1 25.5t-2 34.5 q-5 37 -93 44l2 70q157 -6 209 -4l196 4q96 0 139 -12q90 -24 129 -69q52 -63 52 -133.5t-30 -111.5t-69 -64q-57 -35 -125 -44q19 -4 47 -25q53 -47 76 -145l19 -80q10 -45 21 -76t38 -31q49 0 68 115l63 -12q-10 -53 -23.5 -96.5t-36 -70t-31.5 -36.5t-24 -19 q-23 -12 -42 -12t-31.5 2t-27.5 7q-40 13 -59 38t-32.5 59.5t-25 73.5t-19.5 76t-18 73q-19 69 -45 92q-41 38 -103 38h-72v-248q0 -78 13 -96q18 -25 94 -37v-68q-119 5 -352 0zM739 809h74q92 0 116 7q132 38 132 145q0 45 -27 83.5t-70.5 49t-70.5 10.5q-72 0 -106 -9 t-41 -39t-7 -87v-160z" />
<glyph unicode="&#xb0;" horiz-adv-x="724" d="M61 1231q0 123 89 213q86 88 213 88q62 0 117 -23.5t96 -64.5q88 -90 88 -213q0 -58 -30 -130.5t-105.5 -121.5t-152.5 -49t-131.5 23.5t-94.5 64.5q-89 90 -89 213zM184 1229q0 -72 52 -125q52 -51 127 -51t125.5 52t50.5 127t-51.5 127t-125.5 51t-126 -55t-52 -126z " />
<glyph unicode="&#xb1;" horiz-adv-x="1366" d="M84 0v121h1198v-121h-1198zM84 776v121h541v524h120v-524h537v-121h-537v-524h-120v524h-541z" />
<glyph unicode="&#xb4;" horiz-adv-x="555" d="M31 1120l125 348h227l-289 -348h-63z" />
<glyph unicode="&#xb5;" horiz-adv-x="1150" d="M150 743.5q0 202.5 94 202.5q60 0 76 -91q4 -19 4 -33v-17q0 -51 -8.5 -131t-14.5 -129t-11 -97q-13 -131 -26 -190q10 -23 18.5 -43t31 -52t65.5 -58.5t87 -26.5q64 0 102 21t67 55t46 68q31 62 41 105q29 134 26 341l-3 98q0 106 23 144q21 36 60.5 36t59 -21.5 t28.5 -50.5q14 -42 14 -89t-2 -104.5t-12 -133.5q-24 -197 -85 -322q12 -39 36 -63.5t32 -29.5q21 -13 49 -13q90 0 90 121v17q0 7 -4 24l53 2q27 -81 27 -124t-7 -73.5t-23 -55.5q-33 -53 -103 -53q-90 0 -149 95q-21 34 -35 84q-18 -36 -68 -85q-104 -102 -233 -102 q-126 0 -215 111q-16 16 -29 41q-9 -149 18 -262q2 -6 9.5 -35t16.5 -50q30 -70 90 -163q22 -33 22 -67t-21.5 -56.5t-62.5 -22.5q-83 0 -125 150q-33 122 -33 292.5t24 346.5q-40 287 -40 489.5z" />
<glyph unicode="&#xb6;" horiz-adv-x="1366" d="M184 1051q0 173 114 283q97 93 244 108q46 4 93 4h452v-90h-67v-1698h-94v1698h-322v-1698h-94v1020q-12 2 -40 6t-58 14q-117 43 -172.5 139.5t-55.5 213.5z" />
<glyph unicode="&#xb7;" horiz-adv-x="382" d="M70 602q0 43 36.5 78t86.5 35q66 0 100 -54q20 -32 20 -76t-37 -80t-81 -35t-54 11q-33 14 -52 46t-19 75z" />
<glyph unicode="&#xb8;" horiz-adv-x="555" d="M-123 -395l17 41q45 -15 100.5 -15t90 26t34.5 53t-15.5 53t-52.5 26t-69 -16l-13 22l164 223h64l-62 -127h17q12 0 23 -3t27.5 -10t33.5 -22q40 -35 40 -89q0 -49 -27.5 -86.5t-64.5 -55.5t-72 -27q-41 -12 -82 -12q-78 0 -153 19z" />
<glyph unicode="&#xbb;" d="M45 70l250 471l-250 481h68l385 -481l-385 -471h-68zM487 1022h68l393 -481l-377 -471h-73l252 471z" />
<glyph unicode="&#xbf;" horiz-adv-x="854" d="M80 286q0 86 21.5 155t56.5 122t74 101q107 130 137.5 184.5t36.5 102.5t6 114h47q2 -33 2 -64.5t-6 -102.5q-9 -106 -84 -239q-65 -117 -83 -192.5t-18 -120.5t4.5 -77.5t14.5 -64.5q23 -73 65 -110q54 -45 115 -45q56 0 93 25q69 44 69 102q0 30 -10 45 q-6 16 -17.5 32.5t-21.5 32.5q-23 33 -23 69t23.5 58.5t71.5 21.5t76 -49t27 -121.5t-61 -152.5q-71 -95 -192 -128q-31 -9 -64 -9q-256 0 -340 215q-20 52 -20 96zM301 1343q0 51 36 86t86 35t85 -34.5t35 -86.5q0 -51 -36 -85.5t-86 -34.5t-85 34.5t-35 85.5z" />
<glyph unicode="&#xc0;" horiz-adv-x="1536" d="M2 0v49h10q16 2 53 8t66.5 29.5t46.5 43.5t31 46q20 37 65 137l504 1166l502 -1166q45 -108 78 -159q60 -93 174 -105v-49q-147 4 -294.5 4t-295.5 -4v49h64q35 4 65.5 17.5t30.5 58.5q0 44 -24.5 100t-39.5 88l-69 164h-520l-70 -164q-6 -14 -16.5 -37.5t-19.5 -49.5 q-24 -71 -24 -90q0 -28 13 -48q23 -39 119 -39h28l-2 -49q-213 6 -282 4zM469 1790v31h293l145 -224l-22 -30zM483 557h451l-225 528z" />
<glyph unicode="&#xc1;" horiz-adv-x="1536" d="M2 0v49h10q16 2 53 8t66.5 29.5t46.5 43.5t31 46q20 37 65 137l504 1166l502 -1166q45 -108 78 -159q60 -93 174 -105v-49q-147 4 -294.5 4t-295.5 -4v49h64q35 4 65.5 17.5t30.5 58.5q0 44 -24.5 100t-39.5 88l-69 164h-520l-70 -164q-6 -14 -16.5 -37.5t-19.5 -49.5 q-24 -71 -24 -90q0 -28 13 -48q23 -39 119 -39h28l-2 -49q-213 6 -282 4zM483 557h451l-225 528zM600 1589l160 232h287v-27l-418 -227z" />
<glyph unicode="&#xc2;" horiz-adv-x="1536" d="M2 0v49h10q16 2 53 8t66.5 29.5t46.5 43.5t31 46q20 37 65 137l504 1166l502 -1166q45 -108 78 -159q60 -93 174 -105v-49q-147 4 -294.5 4t-295.5 -4v49h64q35 4 65.5 17.5t30.5 58.5q0 44 -24.5 100t-39.5 88l-69 164h-520l-70 -164q-6 -14 -16.5 -37.5t-19.5 -49.5 q-24 -71 -24 -90q0 -28 13 -48q23 -39 119 -39h28l-2 -49q-213 6 -282 4zM436 1587l221 234h226l219 -234l-27 -20l-309 116l-309 -116zM483 557h451l-225 528z" />
<glyph unicode="&#xc3;" horiz-adv-x="1536" d="M2 0v49h10q16 2 53 8t66.5 29.5t46.5 43.5t31 46q20 37 65 137l504 1166l502 -1166q45 -108 78 -159q60 -93 174 -105v-49q-147 4 -294.5 4t-295.5 -4v49h64q35 4 65.5 17.5t30.5 58.5q0 44 -24.5 100t-39.5 88l-69 164h-520l-70 -164q-6 -14 -16.5 -37.5t-19.5 -49.5 q-24 -71 -24 -90q0 -28 13 -48q23 -39 119 -39h28l-2 -49q-213 6 -282 4zM401 1591q42 96 121 166q65 58 111.5 58t82.5 -14.5t70 -27.5q96 -36 134 -36t80 7t81 48q10 10 14.5 18.5t12.5 20.5l37 -27q-127 -223 -234 -223q-31 0 -61.5 11.5t-83.5 29.5q-114 41 -173.5 41 t-93.5 -24.5t-63 -69.5zM483 557h451l-225 528z" />
<glyph unicode="&#xc4;" horiz-adv-x="1536" d="M2 0v49h10q16 2 53 8t66.5 29.5t46.5 43.5t31 46q20 37 65 137l504 1166l502 -1166q45 -108 78 -159q60 -93 174 -105v-49q-301 6 -602 0v49h76q35 4 65.5 17.5t30.5 58.5q0 44 -24.5 100t-39.5 88l-69 164h-520l-70 -164q-6 -14 -16.5 -37.5t-19.5 -49.5 q-24 -71 -24 -90q0 -28 13 -48q23 -39 119 -39h28l-2 -49q-213 6 -282 4zM412 1683q0 38 10 64q35 68 117 68q42 0 77 -35t35 -86t-34.5 -86t-85 -35t-85 36t-34.5 74zM483 557h451l-225 528zM891 1694q0 51 36 86t73 35t66.5 -14.5t48 -44.5t18.5 -71.5t-35 -76.5t-86 -35 t-86 34.5t-35 86.5z" />
<glyph unicode="&#xc5;" horiz-adv-x="1536" d="M2 0v49h10q16 2 53 8t66.5 29.5t46.5 43.5t31 46q20 37 65 137l504 1166l502 -1166q45 -108 78 -159q60 -93 174 -105v-49q-147 4 -294.5 4t-295.5 -4v49h64q35 4 65.5 17.5t30.5 58.5q0 44 -24.5 100t-39.5 88l-69 164h-520l-70 -164q-6 -14 -16.5 -37.5t-19.5 -49.5 q-24 -71 -24 -90q0 -28 13 -48q23 -39 119 -39h28l-2 -49q-213 6 -282 4zM483 557h451l-225 528zM575 1712q0 80 59 138q56 57 135 57q40 0 76 -15.5t63 -41.5q57 -58 57 -138t-57 -136q-58 -56 -138 -56q-82 0 -138 57q-57 59 -57 135zM666 1712q0 -45 31.5 -74.5 t74.5 -29.5t75 30.5t31 74.5t-33 75t-75 31t-73.5 -31t-30.5 -76z" />
<glyph unicode="&#xc6;" horiz-adv-x="1961" d="M0 0v49h18q89 0 160 68q37 37 66.5 93t52.5 103l405 822q33 66 53.5 108.5t20.5 77.5q0 78 -151 78h-19v47h1184l16 -328h-45q0 84 -43 155q-20 32 -56 55.5t-79 27.5t-86 4h-351q-37 0 -39 -54q-1 -24 -1 -55v-323q0 -93 13 -106t48 -13h289q41 0 77 3t69.5 38t40 86 t8.5 98h43v-530l-43 2q0 72 -10.5 109.5t-38 62t-58.5 34.5q-37 13 -96 13h-234q-45 0 -67.5 -2t-31.5 -16.5t-9 -44.5v-439q2 -12 2 -23v-40q0 -66 49 -70q16 -4 47 -4h205q124 0 173.5 7t103 22.5t88.5 52.5q68 72 102 180q6 19 14 37l43 -14l-96 -371h-1157v49h22 q105 0 150 57q27 33 32 80t5 127v260h-352l-134 -260q-71 -128 -71 -190q0 -52 54 -68q20 -6 37 -6h66v-49q-217 6 -288 4zM573 655h316v625z" />
<glyph unicode="&#xc7;" horiz-adv-x="1449" d="M96 694q0 163 71 338q75 185 258 314q174 124 392 124q179 0 353 -80q20 -10 38 -10t29.5 9.5t18.5 23.5q7 17 14 57h59q-6 -99 -6 -140q0 -74 8 -142.5t12.5 -109t18.5 -89.5l-55 -8q-82 327 -342 385q-45 10 -122 10t-151 -31.5t-126 -75.5q-165 -139 -208 -409 q-10 -59 -10 -122q0 -108 10.5 -155t26.5 -102t51 -119q91 -169 230 -233q93 -45 207 -45t195 33t138.5 79t93 96t60.5 85l55 -39q-91 -151 -205 -242q-75 -54 -133 -75q-126 -46 -252 -46q-155 0 -303 60q-207 86 -316.5 262t-109.5 397zM496 -395l16 41q45 -15 100.5 -15 t91 26t34.5 53t-16 53t-52.5 26t-69.5 -16l-12 22l164 223h63l-61 -127h17q71 0 111 -71q13 -21 13 -44q0 -58 -28 -95.5t-64.5 -55.5t-71.5 -27q-42 -12 -83 -12q-77 0 -152 19z" />
<glyph unicode="&#xc8;" horiz-adv-x="1323" d="M45 0v49h21q119 0 161 76q18 35 20.5 74t2.5 114v822q0 39 -1 93t-13 76q-22 41 -39 55q-48 40 -131 40h-21v47h1096l22 -344h-53q-4 35 -9 54.5t-14 49.5q-23 74 -96 117q-47 27 -86 31t-92 4h-270q-20 0 -31.5 1t-25.5 -6t-15.5 -30t-1.5 -57v-402q0 -4 -1 -16t6 -24 q8 -15 50 -15h189q136 0 184.5 16t71 61.5t22.5 96.5v29h51v-498l-51 2q0 66 -8 99.5t-35 64.5t-66.5 37t-80.5 6h-252q-16 0 -43 -2t-33 -23q-4 -10 -4 -40v-433q0 -43 1 -71.5t17 -43.5t39 -17.5t62 -2.5h272q195 0 280 92q57 62 81 122.5t28 82.5l51 -16l-118 -371h-1137 zM362 1790v31h293l146 -224l-25 -30z" />
<glyph unicode="&#xc9;" horiz-adv-x="1323" d="M45 0v49h21q119 0 161 76q18 35 20.5 74t2.5 114v822q0 39 -1 93t-13 76q-22 41 -39 55q-48 40 -131 40h-21v47h1096l22 -344h-53q-4 35 -9 54.5t-14 49.5q-23 74 -96 117q-47 27 -86 31t-92 4h-270q-20 0 -31.5 1t-25.5 -6t-15.5 -30t-1.5 -57v-402q0 -4 -1 -16t6 -24 q8 -15 50 -15h189q136 0 184.5 16t71 61.5t22.5 96.5v29h51v-498l-51 2q0 66 -8 99.5t-35 64.5t-66.5 37t-80.5 6h-252q-16 0 -43 -2t-33 -23q-4 -10 -4 -40v-433q0 -43 1 -71.5t17 -43.5t39 -17.5t62 -2.5h272q195 0 280 92q57 62 81 122.5t28 82.5l51 -16l-118 -371h-1137 zM494 1589l159 232h287v-27l-418 -227z" />
<glyph unicode="&#xca;" horiz-adv-x="1323" d="M45 0v49h21q119 0 161 76q18 35 20.5 74t2.5 114v822q0 39 -1 93t-13 76q-22 41 -39 55q-48 40 -131 40h-21v47h1096l22 -344h-53q-4 35 -9 54.5t-14 49.5q-23 74 -96 117q-47 27 -86 31t-92 4h-270q-20 0 -31.5 1t-25.5 -6t-15.5 -30t-1.5 -57v-402q0 -4 -1 -16t6 -24 q8 -15 50 -15h189q136 0 184.5 16t71 61.5t22.5 96.5v29h51v-498l-51 2q0 66 -8 99.5t-35 64.5t-66.5 37t-80.5 6h-252q-16 0 -43 -2t-33 -23q-4 -10 -4 -40v-433q0 -43 1 -71.5t17 -43.5t39 -17.5t62 -2.5h272q195 0 280 92q57 62 81 122.5t28 82.5l51 -16l-118 -371h-1137 zM330 1587l221 234h225l219 -234l-26 -20l-310 116l-309 -116z" />
<glyph unicode="&#xcb;" horiz-adv-x="1323" d="M45 0v49h21q119 0 161 76q18 35 20.5 74t2.5 114v822q0 39 -1 93t-13 76q-22 41 -39 55q-48 40 -131 40h-21v47h1096l22 -344h-53q-4 35 -9 54.5t-14 49.5q-23 74 -96 117q-47 27 -86 31t-92 4h-270q-20 0 -31.5 1t-25.5 -6t-15.5 -30t-1.5 -57v-402q0 -4 -1 -16t6 -24 q8 -15 50 -15h189q136 0 184.5 16t71 61.5t22.5 96.5v29h51v-498l-51 2q0 66 -8 99.5t-35 64.5t-66.5 37t-80.5 6h-252q-16 0 -43 -2t-33 -23q-4 -10 -4 -40v-433q0 -43 1 -71.5t17 -43.5t39 -17.5t62 -2.5h272q195 0 280 92q57 62 81 122.5t28 82.5l51 -16l-118 -371h-1137 zM305 1683q0 38 10 64q35 68 118 68q42 0 77 -35t35 -86t-35 -86t-85 -35t-85 36t-35 74zM784 1694q0 51 36 86t73 35t66.5 -14.5t48 -44.5t18.5 -71.5t-36 -76.5t-86 -35t-85 34.5t-35 86.5z" />
<glyph unicode="&#xcc;" horiz-adv-x="724" d="M49 0v49h21q96 0 135 41t44 89t5 134v869q0 115 -33 155q-43 62 -151 62h-21v47l240 -2q147 -3 391 2v-47h-18q-95 0 -134 -41t-45 -89t-6 -136v-868q0 -110 28 -146.5t59.5 -53t97.5 -16.5h18v-49q-317 6 -631 0zM63 1790v31h293l146 -224l-23 -30z" />
<glyph unicode="&#xcd;" horiz-adv-x="724" d="M49 0v49h21q96 0 135 41t44 89t5 134v869q0 115 -33 155q-43 62 -151 62h-21v47l240 -2q147 -3 391 2v-47h-18q-95 0 -134 -41t-45 -89t-6 -136v-868q0 -110 28 -146.5t59.5 -53t97.5 -16.5h18v-49q-317 6 -631 0zM195 1589l159 232h287v-27l-418 -227z" />
<glyph unicode="&#xce;" horiz-adv-x="724" d="M31 1587l223 234h223l219 -234l-26 -20l-310 116l-309 -116zM49 0v49h21q96 0 135 41t44 89t5 134v869q0 115 -33 155q-43 62 -151 62h-21v47l240 -2q147 -3 391 2v-47h-18q-95 0 -134 -41t-45 -89t-6 -136v-868q0 -110 28 -146.5t59.5 -53t97.5 -16.5h18v-49 q-317 6 -631 0z" />
<glyph unicode="&#xcf;" horiz-adv-x="724" d="M6 1683q0 38 10 64q35 68 119 68q43 0 79 -35t34 -86t-37 -86t-85 -35t-85 36t-35 74zM49 0v49h21q96 0 135 41t44 89t5 134v869q0 115 -33 155q-43 62 -151 62h-21v47l240 -2q147 -3 391 2v-47h-18q-95 0 -134 -41t-45 -89t-6 -136v-868q0 -110 28 -146.5t59.5 -53 t97.5 -16.5h18v-49q-317 6 -631 0zM486 1693.5q1 51.5 36 86.5t92.5 35t93.5 -59q19 -30 19 -71.5t-35 -76.5t-86 -35t-86 34.5t-34 86z" />
<glyph unicode="&#xd1;" horiz-adv-x="1579" d="M0 1399v47h391l852 -1012v751q0 132 -41 173t-131 41h-41v47q250 -6 502 0v-47h-16q-123 0 -156 -84q-17 -45 -17 -182v-1151l-989 1163v-865q0 -18 1 -29t1 -28.5t3 -40.5q7 -55 39 -86q48 -47 141 -47h24v-49q-94 4 -183.5 5t-330.5 -5v49h17q96 0 134 40t44 89t6 135 v942q-6 6 -24.5 27t-57.5 56q-60 52 -168 61zM424 1591q44 100 119 166q68 58 114 58t81.5 -14.5t69.5 -27.5q94 -36 133.5 -36t81.5 7t81 48q10 10 14 18.5t10 20.5l37 -27q-127 -223 -231 -223q-33 0 -63.5 11.5t-82.5 29.5q-115 41 -174 41t-93 -24.5t-64 -69.5z" />
<glyph unicode="&#xd2;" horiz-adv-x="1536" d="M98 743q0 266 146 457q116 155 286 224q115 46 230 46q93 0 154 -18t107 -35.5t98 -51.5q127 -83 208 -214q57 -92 82 -191t28 -168q7 -167 -21 -289t-103.5 -232.5t-186.5 -184.5q-83 -50 -131 -68q-113 -43 -225 -43q-86 0 -168 23.5t-168 73t-160 136.5 q-176 205 -176 535zM342 763q0 -422 176 -593q112 -104 258 -104q152 0 260 107q112 110 142 285q22 123 17 219.5t-6 128.5t-4 56t-10.5 76.5t-28.5 117.5q-55 168 -165 251q-100 75 -221 75q-172 0 -295 -146t-123 -441v-32zM469 1790v31h293l145 -224l-22 -30z" />
<glyph unicode="&#xd3;" horiz-adv-x="1536" d="M98 743q0 266 146 457q116 155 286 224q115 46 230 46q93 0 154 -18t107 -35.5t98 -51.5q127 -83 208 -214q57 -92 82 -191t28 -168q7 -167 -21 -289t-103.5 -232.5t-186.5 -184.5q-83 -50 -131 -68q-113 -43 -225 -43q-86 0 -168 23.5t-168 73t-160 136.5 q-176 205 -176 535zM342 763q0 -422 176 -593q112 -104 258 -104q152 0 260 107q112 110 142 285q22 123 17 219.5t-6 128.5t-4 56t-10.5 76.5t-28.5 117.5q-55 168 -165 251q-100 75 -221 75q-172 0 -295 -146t-123 -441v-32zM600 1589l160 232h287v-27l-418 -227z" />
<glyph unicode="&#xd4;" horiz-adv-x="1536" d="M98 743q0 266 146 457q116 155 286 224q115 46 230 46q93 0 154 -18t107 -35.5t98 -51.5q127 -83 208 -214q57 -92 82 -191t28 -168q7 -167 -21 -289t-103.5 -232.5t-186.5 -184.5q-83 -50 -131 -68q-113 -43 -225 -43q-86 0 -168 23.5t-168 73t-160 136.5 q-176 205 -176 535zM342 763q0 -422 176 -593q112 -104 258 -104q152 0 260 107q112 110 142 285q22 123 17 219.5t-6 128.5t-4 56t-10.5 76.5t-28.5 117.5q-55 168 -165 251q-100 75 -221 75q-172 0 -295 -146t-123 -441v-32zM436 1587l221 234h226l219 -234l-27 -20 l-309 116l-309 -116z" />
<glyph unicode="&#xd5;" horiz-adv-x="1536" d="M98 743q0 266 146 457q116 155 286 224q115 46 230 46q93 0 154 -18t107 -35.5t98 -51.5q127 -83 208 -214q57 -92 82 -191t28 -168q7 -167 -21 -289t-103.5 -232.5t-186.5 -184.5q-83 -50 -131 -68q-113 -43 -225 -43q-86 0 -168 23.5t-168 73t-160 136.5 q-176 205 -176 535zM342 763q0 -422 176 -593q112 -104 258 -104q152 0 260 107q112 110 142 285q22 123 17 219.5t-6 128.5t-4 56t-10.5 76.5t-28.5 117.5q-55 168 -165 251q-100 75 -221 75q-172 0 -295 -146t-123 -441v-32zM401 1591q42 96 121 166q65 58 111.5 58 t82.5 -14.5t70 -27.5q96 -36 134 -36t80 7t81 48q10 10 14.5 18.5t12.5 20.5l37 -27q-127 -223 -234 -223q-31 0 -61.5 11.5t-83.5 29.5q-114 41 -173.5 41t-93.5 -24.5t-63 -69.5z" />
<glyph unicode="&#xd6;" horiz-adv-x="1536" d="M98 694q0 84 3 134.5t19 111.5q38 153 117 252.5t152.5 152t142.5 79.5q115 46 228 46q93 0 154 -18q131 -39 205 -87q305 -200 319 -629q9 -281 -142 -486q-92 -125 -229 -200t-297 -75q-207 0 -391 134q-187 139 -254 397q-27 104 -27 188zM342 762q0 -165 17.5 -249.5 t34.5 -136.5q73 -215 246 -284q67 -26 116 -26t92 8q99 18 186 98q174 160 159 525q-3 71 -4 95.5t-5 68.5t-16.5 108.5t-35.5 124.5q-50 136 -147 211q-103 77 -208 76q-199 -2 -318 -152q-72 -92 -94.5 -205t-22.5 -173v-89zM412 1695q0 50 34.5 85t84.5 35t86 -35t36 -86 t-35.5 -86t-86 -35t-85 36t-34.5 86zM893 1694q0 51 34 86t92.5 35t94.5 -59q19 -30 19 -71.5t-35 -76.5t-85 -35t-85 34.5t-35 86.5z" />
<glyph unicode="&#xd7;" horiz-adv-x="1366" d="M172 170l424 426l-424 422l86 86l424 -424l426 424l84 -86l-424 -422l424 -426l-84 -84l-426 424l-424 -424z" />
<glyph unicode="&#xd8;" horiz-adv-x="1536" d="M96 727q0 283 144 465q92 125 233 200.5t297 75.5q79 0 172 -24q127 -34 256 -137l139 163l64 -59l-137 -168q98 -106 152 -307q24 -86 24 -168t-2 -127t-14 -101q-29 -141 -97 -249q-82 -125 -163 -184q-179 -132 -390 -132q-187 0 -340 93q-56 34 -98 77l-139 -168 l-68 60l143 172q-50 62 -91 136q-85 152 -85 382zM344 770q0 -234 57 -405l686 813q-4 6 -12 21t-21 31.5t-39 42t-63 49.5q-89 58 -194.5 58t-184 -51t-120 -115.5t-66.5 -138.5q-43 -127 -43 -305zM442 272q36 -58 61 -83t47.5 -44.5t55.5 -36.5q84 -45 159 -45 q97 0 184.5 46.5t133 114t70.5 146.5q39 123 39 277t-13.5 246t-50.5 194z" />
<glyph unicode="&#xd9;" horiz-adv-x="1579" d="M16 1399v47q315 -6 633 0v-47h-18q-75 0 -125 -33q-60 -43 -60 -168v-736q0 -168 76 -258q114 -134 320 -134q108 0 200 41q190 82 211 309q4 43 4 125v590q0 41 -3 100t-23 91t-41 44t-50 20q-36 9 -69 9h-24v47q227 -5 362 -2l152 2v-47h-39t-36 -3q-105 -17 -117 -114 q-7 -55 -7 -147v-594q0 -251 -90 -370q-109 -147 -325 -185q-179 -31 -361 14q-142 35 -239 132q-70 70 -94 141q-32 98 -32 257v605q0 92 -7 146t-39 81t-68.5 32t-69.5 5h-21zM512 1790v31h293l145 -224l-24 -30z" />
<glyph unicode="&#xda;" horiz-adv-x="1579" d="M16 1399v47q315 -6 633 0v-47h-18q-75 0 -125 -33q-60 -43 -60 -168v-736q0 -168 76 -258q114 -134 320 -134q108 0 200 41q190 82 211 309q4 43 4 125v590q0 41 -3 100t-23 91t-41 44t-50 20q-36 9 -69 9h-24v47q227 -5 362 -2l152 2v-47h-39t-36 -3q-105 -17 -117 -114 q-7 -55 -7 -147v-594q0 -251 -90 -370q-109 -147 -325 -185q-179 -31 -361 14q-142 35 -239 132q-70 70 -94 141q-32 98 -32 257v605q0 92 -7 146t-39 81t-68.5 32t-69.5 5h-21zM641 1589l162 232h287v-27l-418 -227z" />
<glyph unicode="&#xdb;" horiz-adv-x="1579" d="M16 1399v47q315 -6 633 0v-47h-18q-75 0 -125 -33q-60 -43 -60 -168v-736q0 -168 76 -258q114 -134 320 -134q108 0 200 41q190 82 211 309q4 43 4 125v590q0 41 -3 100t-23 91t-41 44t-50 20q-36 9 -69 9h-24v47q227 -5 362 -2l152 2v-47h-39t-36 -3q-105 -17 -117 -114 q-7 -55 -7 -147v-594q0 -251 -90 -370q-109 -147 -325 -185q-179 -31 -361 14q-142 35 -239 132q-70 70 -94 141q-32 98 -32 257v605q0 92 -7 146t-39 81t-68.5 32t-69.5 5h-21zM479 1587l221 234h226l219 -234l-27 -20l-309 116l-309 -116z" />
<glyph unicode="&#xdc;" horiz-adv-x="1579" d="M16 1399v47q315 -6 633 0v-47h-18q-75 0 -125 -33q-60 -43 -60 -168v-736q0 -168 76 -258q114 -134 320 -134q108 0 200 41q190 82 211 309q4 43 4 125v590q0 41 -3 100t-23 91t-41 44t-50 20q-36 9 -69 9h-24v47q227 -5 362 -2l152 2v-47h-39t-36 -3q-105 -17 -117 -114 q-7 -55 -7 -147v-594q0 -251 -90 -370q-109 -147 -325 -185q-179 -31 -361 14q-142 35 -239 132q-70 70 -94 141q-32 98 -32 257v605q0 92 -7 146t-39 81t-68.5 32t-69.5 5h-21zM469 1695q0 50 35 85t85 35t86 -35t36 -86t-36 -86t-86 -35t-85 36t-35 86zM950 1694 q0 51 34 86t92.5 35t95.5 -59q18 -30 18 -71.5t-35 -76.5t-85 -35t-85 34.5t-35 86.5z" />
<glyph unicode="&#xdf;" horiz-adv-x="1110" d="M41 0l2 43q33 0 63.5 5t50 34t21.5 66.5t2 103.5v760l2 102q0 157 92 252q101 101 279 98q232 0 330 -141q55 -69 55 -179t-78 -188q-30 -32 -64 -52q-52 -29 -94 -46q94 -32 123 -61q48 -29 84 -72q113 -121 113 -305q0 -158 -102 -300q-49 -70 -141 -114 q-48 -24 -83 -24q-65 0 -85.5 6t-43 16t-45.5 28q-57 48 -57 120q0 85 69 105q17 5 30 5t28.5 -6t34 -24.5t16.5 -53.5l-16 -82q0 -23 19.5 -36t43 -13t41 11.5t29.5 25.5t18 27.5t15 34.5q38 91 38 227q0 225 -145 348q-67 52 -121 65q-10 5 -37 5v77q77 4 99 13.5t43.5 29 t39.5 49.5q42 66 42 162q0 90 -30 149q-65 126 -181 126q-59 0 -98.5 -29t-56.5 -58.5t-26 -63.5q-12 -50 -12 -140v-879q0 -53 1 -90t17 -61q20 -33 74 -33v-43q-162 5 -226.5 3.5t-101 -1.5t-71.5 -2z" />
<glyph unicode="&#xe0;" horiz-adv-x="937" d="M72 213q0 70 50 150.5t132 126t149.5 69.5t110.5 38.5t84 31.5v114q0 6 2 35t-4 50.5t-14.5 42t-26.5 39.5q-43 44 -103.5 44t-89 -15t-46.5 -37q-29 -36 -29 -83l10 -76q0 -37 -24.5 -65.5t-63.5 -26.5q-27 0 -48 17q-40 30 -40 82q0 78 73 155q102 109 269 109 q61 0 131 -22.5t105 -60.5t49 -75t18 -71.5t4 -61.5v-543q0 -25 16.5 -49.5t44.5 -24.5q59 0 101 56l29 -25q-37 -61 -85 -97q-66 -51 -96 -57t-38 -6q-27 0 -58 12.5t-47 31t-25 39.5q-14 34 -14 61v16q-90 -90 -159.5 -120.5t-108.5 -30.5q-86 0 -130 20t-69 48t-38 58 q-21 50 -21 101zM195 1468h225l125 -348h-58zM246 270q0 -70 49 -117t119 -47q79 0 162 65q16 13 22 19v369q-305 -90 -346 -239q-6 -21 -6 -50z" />
<glyph unicode="&#xe1;" horiz-adv-x="937" d="M72 213q0 70 50 150.5t132 126t149.5 69.5t110.5 38.5t84 31.5v114q0 6 2 35t-4 50.5t-14.5 42t-26.5 39.5q-43 44 -103.5 44t-89 -15t-46.5 -37q-29 -36 -29 -83l10 -76q0 -37 -24.5 -65.5t-63.5 -26.5q-27 0 -48 17q-40 30 -40 82q0 78 73 155q102 109 269 109 q61 0 131 -22.5t105 -60.5t49 -75t18 -71.5t4 -61.5v-543q0 -25 16.5 -49.5t44.5 -24.5q59 0 101 56l29 -25q-37 -61 -85 -97q-66 -51 -96 -57t-38 -6q-27 0 -58 12.5t-47 31t-25 39.5q-14 34 -14 61v16q-90 -90 -159.5 -120.5t-108.5 -30.5q-86 0 -130 20t-69 48t-38 58 q-21 50 -21 101zM246 270q0 -70 49 -117t119 -47q79 0 162 65q16 13 22 19v369q-305 -90 -346 -239q-6 -21 -6 -50zM393 1120l125 348h227l-288 -348h-64z" />
<glyph unicode="&#xe2;" horiz-adv-x="937" d="M72 213q0 70 50 150.5t132 126t149.5 69.5t110.5 38.5t84 31.5v114q0 6 2 35t-4 50.5t-14.5 42t-26.5 39.5q-43 44 -103.5 44t-89 -15t-46.5 -37q-29 -36 -29 -83l10 -76q0 -37 -24.5 -65.5t-63.5 -26.5q-27 0 -48 17q-40 30 -40 82q0 78 73 155q102 109 269 109 q61 0 131 -22.5t105 -60.5t49 -75t18 -71.5t4 -61.5v-543q0 -25 16.5 -49.5t44.5 -24.5q59 0 101 56l29 -25q-37 -61 -85 -97q-66 -51 -96 -57t-38 -6q-27 0 -58 12.5t-47 31t-25 39.5q-14 34 -14 61v16q-90 -90 -159.5 -120.5t-108.5 -30.5q-86 0 -130 20t-69 48t-38 58 q-21 50 -21 101zM147 1120l215 348h211l222 -348h-58l-270 211l-262 -211h-58zM246 270q0 -70 49 -117t119 -47q79 0 162 65q16 13 22 19v369q-305 -90 -346 -239q-6 -21 -6 -50z" />
<glyph unicode="&#xe3;" horiz-adv-x="937" d="M72 213q0 70 50 150.5t132 126t149.5 69.5t110.5 38.5t84 31.5v114q0 6 2 35t-4 50.5t-14.5 42t-26.5 39.5q-43 44 -103.5 44t-89 -15t-46.5 -37q-29 -36 -29 -83l10 -76q0 -37 -24.5 -65.5t-63.5 -26.5q-27 0 -48 17q-40 30 -40 82q0 78 73 155q102 109 269 109 q61 0 131 -22.5t105 -60.5t49 -75t18 -71.5t4 -61.5v-543q0 -25 16.5 -49.5t44.5 -24.5q59 0 101 56l29 -25q-37 -61 -85 -97q-66 -51 -96 -57t-38 -6q-27 0 -58 12.5t-47 31t-25 39.5q-14 34 -14 61v16q-90 -90 -159.5 -120.5t-108.5 -30.5q-86 0 -130 20t-69 48t-38 58 q-21 50 -21 101zM115 1182q41 84 95 140q80 83 132.5 82t86.5 -13.5t72 -27.5q91 -36 130.5 -36t82 7t81.5 48q10 10 14 18.5t12 20.5l37 -26q-57 -96 -91 -135q-78 -89 -142 -89q-31 0 -62 11.5t-83 29.5q-114 41 -174 41t-94 -24.5t-62 -69.5zM246 270q0 -70 49 -117 t119 -47q79 0 162 65q16 13 22 19v369q-305 -90 -346 -239q-6 -21 -6 -50z" />
<glyph unicode="&#xe4;" horiz-adv-x="937" d="M72 213q0 70 50 150.5t132 126t149.5 69.5t110.5 38.5t84 31.5v114q0 6 2 35t-4 50.5t-14.5 42t-26.5 39.5q-43 44 -103.5 44t-89 -15t-46.5 -37q-29 -36 -29 -83l10 -76q0 -37 -24.5 -65.5t-63.5 -26.5q-27 0 -48 17q-40 30 -40 82q0 78 73 155q102 109 269 109 q61 0 131 -22.5t105 -60.5t49 -75t18 -71.5t4 -61.5v-543q0 -25 16.5 -49.5t44.5 -24.5q59 0 101 56l29 -25q-37 -61 -85 -97q-66 -51 -96 -57t-38 -6q-27 0 -58 12.5t-47 31t-25 39.5q-14 34 -14 61v16q-90 -90 -159.5 -120.5t-108.5 -30.5q-86 0 -130 20t-69 48t-38 58 q-21 50 -21 101zM152 1290q0 47 33.5 80t80.5 33t80 -34t33 -81t-33 -80.5t-81 -33.5t-80.5 34.5t-32.5 81.5zM246 270q0 -70 49 -117t119 -47q79 0 162 65q16 13 22 19v369q-305 -90 -346 -239q-6 -21 -6 -50zM561 1292q0 47 34 80t81 33t81 -33t34 -81t-34 -80.5 t-81 -32.5t-81 33.5t-34 80.5z" />
<glyph unicode="&#xe5;" horiz-adv-x="937" d="M72 213q0 70 50 150.5t132 126t149.5 69.5t110.5 38.5t84 31.5v114q0 6 2 35t-4 50.5t-14.5 42t-26.5 39.5q-43 44 -103.5 44t-89 -15t-46.5 -37q-29 -36 -29 -83l10 -76q0 -37 -24.5 -65.5t-63.5 -26.5q-27 0 -48 17q-40 30 -40 82q0 78 73 155q102 109 269 109 q61 0 131 -22.5t105 -60.5t49 -75t18 -71.5t4 -61.5v-543q0 -25 16.5 -49.5t44.5 -24.5q59 0 101 56l29 -25q-37 -61 -85 -97q-66 -51 -96 -57t-38 -6q-27 0 -58 12.5t-47 31t-25 39.5q-14 34 -14 61v16q-90 -90 -159.5 -120.5t-108.5 -30.5q-86 0 -130 20t-69 48t-38 58 q-21 50 -21 101zM246 270q0 -70 49 -117t119 -47q79 0 162 65q16 13 22 19v369q-305 -90 -346 -239q-6 -21 -6 -50zM281 1290q0 124 113 172q34 15 73 15q78 -2 131 -55.5t53 -131.5t-54 -131t-132 -53t-131 53t-53 131zM360 1290q0 -45 33 -74.5t75 -29.5t72.5 30.5 t30.5 74.5t-31.5 74t-74.5 30t-74 -30t-31 -75z" />
<glyph unicode="&#xe6;" horiz-adv-x="1492" d="M68 229q0 95 61 174q33 43 96.5 82.5t108.5 59.5t90 36.5t92 32t100 33.5q0 49 1 103.5t-20 100.5q-45 99 -151 99q-79 0 -120 -57q-25 -36 -25 -70l8 -63q0 -79 -63 -96q-17 -5 -29 -5q-51 0 -77 47q-9 17 -9 40q0 58 31 104q62 103 194 146q54 18 94.5 18t68.5 -2 t61 -12q80 -23 141 -72q16 -12 24.5 -22.5t14.5 -16.5q30 34 60 53q106 70 222 70q152 0 252 -115q53 -59 85 -140t30 -161l-625 -2q-6 -56 2 -150t47 -158q70 -114 179 -125q49 -5 68 -5q114 0 205 70q79 62 106 163h61q-31 -139 -88 -218t-99 -110t-79 -46t-70 -22 q-52 -11 -102 -11q-218 0 -344 204q-167 -200 -346 -200q-110 0 -180 67q-76 72 -76 176zM254 287q0 -109 94 -145q31 -13 69 -13t69.5 11.5t57.5 24.5q39 19 56 35q22 21 47 50q-37 74 -37 224v26q0 37 4 73q-266 -65 -342 -211q-18 -34 -18 -75zM786 672h414 q-4 76 -18 108q-23 61 -72 97t-104 36q-77 0 -119.5 -31.5t-66 -77.5t-34.5 -132z" />
<glyph unicode="&#xe7;" horiz-adv-x="894" d="M84 442.5q0 65.5 4 123t28 128t63.5 129t92.5 101.5q115 92 263 92q164 0 256 -107q45 -56 45 -99.5t-11.5 -64t-26.5 -31.5q-27 -20 -53 -20q-44 0 -59 15q-29 20 -36 44.5t-10 46.5q-5 36 -17 65.5t-51.5 52t-68.5 22.5q-69 0 -122 -42t-79 -92t-37 -98 q-15 -67 -15 -110t2 -86t16 -98q34 -143 123 -215q71 -54 152 -54q148 0 243 142q22 27 30.5 47.5t19.5 44.5l45 -12q-4 -10 -7.5 -20.5t-10.5 -30t-29.5 -78t-75.5 -123.5q-111 -138 -273 -138q-106 0 -189 53.5t-124 121t-60 132.5q-28 93 -28 158.5zM219 -395l17 41 q37 -15 96.5 -15t94 26t33.5 53t-15.5 53t-51.5 26t-69 -16l-13 22l164 223h64l-64 -127h17q14 0 24 -3t27.5 -10t32.5 -22q40 -36 40 -89q0 -49 -27.5 -86.5t-64.5 -55.5t-72 -27q-41 -12 -81 -12q-80 0 -152 19z" />
<glyph unicode="&#xe8;" d="M84 494q0 97 17.5 158t40 117t68.5 111q112 136 302 136q194 0 305 -165q72 -107 76 -259l-672 -2q6 -224 91 -322q46 -53 114 -85.5t133 -32.5t108.5 14t74.5 36q88 62 108 146q6 29 10 41h62q-13 -89 -44.5 -160t-83 -123.5t-106.5 -79.5q-93 -47 -194 -47 q-96 0 -155 30.5t-100.5 70t-75.5 97.5q-79 135 -79 319zM215 1468h225l125 -348h-55zM225 670h463q0 176 -135 232q-37 16 -105.5 16t-131.5 -50q-78 -60 -88 -162q-1 -10 -3 -36z" />
<glyph unicode="&#xe9;" d="M84 494q0 97 17.5 158t40 117t68.5 111q112 136 302 136q194 0 305 -165q72 -107 76 -259l-672 -2q6 -224 91 -322q46 -53 114 -85.5t133 -32.5t108.5 14t74.5 36q88 62 108 146q6 29 10 41h62q-13 -89 -44.5 -160t-83 -123.5t-106.5 -79.5q-93 -47 -194 -47 q-96 0 -155 30.5t-100.5 70t-75.5 97.5q-79 135 -79 319zM225 670h463q0 176 -135 232q-37 16 -105.5 16t-131.5 -50q-78 -60 -88 -162q-1 -10 -3 -36zM414 1120l127 348h225l-289 -348h-63z" />
<glyph unicode="&#xea;" d="M84 494q0 97 17.5 158t40 117t68.5 111q112 136 302 136q194 0 305 -165q72 -107 76 -259l-672 -2q6 -224 91 -322q46 -53 114 -85.5t133 -32.5t108.5 14t74.5 36q88 62 108 146q6 29 10 41h62q-13 -89 -44.5 -160t-83 -123.5t-106.5 -79.5q-93 -47 -194 -47 q-96 0 -155 30.5t-100.5 70t-75.5 97.5q-79 135 -79 319zM168 1120l215 348h211l221 -348h-55l-273 211l-262 -211h-57zM225 670h463q0 176 -135 232q-37 16 -105.5 16t-131.5 -50q-78 -60 -88 -162q-1 -10 -3 -36z" />
<glyph unicode="&#xeb;" d="M84 494q0 97 17.5 158t40 117t68.5 111q112 136 302 136q194 0 305 -165q72 -107 76 -259l-672 -2q6 -224 91 -322q46 -53 114 -85.5t133 -32.5t108.5 14t74.5 36q88 62 108 146q6 29 10 41h62q-13 -89 -44.5 -160t-83 -123.5t-106.5 -79.5q-93 -47 -194 -47 q-96 0 -155 30.5t-100.5 70t-75.5 97.5q-79 135 -79 319zM172 1290q0 13 8 40.5t39 50t55 22.5q36 0 66 -12q61 -34 61 -92t-33.5 -91.5t-68.5 -33.5t-47 6t-23 10q-57 35 -57 100zM225 670h463q0 176 -135 232q-37 16 -105.5 16t-131.5 -50q-78 -60 -88 -162q-1 -10 -3 -36 zM582 1292q2 47 34.5 80t80.5 33t81 -33t33 -82q0 -32 -12 -51q-33 -61 -91.5 -61t-92 33.5t-33.5 80.5z" />
<glyph unicode="&#xec;" horiz-adv-x="555" d="M2 1468h225l125 -348h-55zM47 0v43h21t18 1t23.5 3t32.5 9q41 18 53 63q8 32 8 157v450q0 91 -29 107.5t-50 16.5t-71 -19l2 43q57 19 167 74.5t151 81.5v-809q0 -38 3 -78.5t26.5 -66t55 -27.5t64.5 -6l-2 -43q-45 2 -88 2t-121.5 1.5t-263.5 -3.5z" />
<glyph unicode="&#xed;" horiz-adv-x="555" d="M47 0v43h21t18 1t23.5 3t32.5 9q41 18 53 63q8 32 8 157v450q0 91 -29 107.5t-50 16.5t-71 -19l2 43q57 19 167 74.5t151 81.5v-809q0 -38 3 -78.5t26.5 -66t55 -27.5t64.5 -6l-2 -43q-45 2 -88 2t-121.5 1.5t-263.5 -3.5zM201 1120l127 348h225l-289 -348h-63z" />
<glyph unicode="&#xee;" horiz-adv-x="555" d="M-45 1120l215 348h211l221 -348h-55l-273 211l-262 -211h-57zM47 0v43h21t18 1t23.5 3t32.5 9q41 18 53 63q8 32 8 157v450q0 91 -29 107.5t-50 16.5t-71 -19l2 43q57 19 167 74.5t151 81.5v-809q0 -38 3 -78.5t26.5 -66t55 -27.5t64.5 -6l-2 -43q-45 2 -88 2t-121.5 1.5 t-263.5 -3.5z" />
<glyph unicode="&#xef;" horiz-adv-x="555" d="M-41 1286q0 17 8 44.5t39 50t56 22.5q35 0 65 -12q61 -34 61 -92t-33.5 -91.5t-68.5 -33.5t-48 6t-36 19.5t-33 44t-10 42.5zM47 0v43h21t18 1t23.5 3t32.5 9q41 18 53 63q8 32 8 157v450q0 91 -29 107.5t-50 16.5t-71 -19l2 43q57 19 167 74.5t151 81.5v-809 q0 -38 3 -78.5t26.5 -66t55 -27.5t64.5 -6l-2 -43q-45 2 -88 2t-121.5 1.5t-263.5 -3.5zM369 1292q0 47 33.5 80t80.5 33t81 -33t34 -82q0 -32 -12 -51q-33 -61 -91.5 -61t-92 33.5t-33.5 80.5z" />
<glyph unicode="&#xf1;" horiz-adv-x="1150" d="M39 0v43h19.5t17.5 1t23.5 3t31.5 9q43 19 53 63q9 36 9 157v443q0 20 -3 41q0 98 -88 98q-21 0 -59 -10l2 41q136 38 320 141v-239q40 64 82 110q105 117 253 117q146 0 220 -115q41 -61 47 -127.5t6 -138.5v-416q0 -38 3 -78.5t26.5 -66t54 -27.5t65.5 -6h4v-43 q-47 2 -93 2h-93q-117 3 -313 -2v43h45q91 0 119 68q8 25 8 102v340q0 80 -1 122t-11.5 69.5t-21.5 47t-33 36.5q-50 38 -114 38q-134 0 -219 -94q-15 -17 -34 -55v-551q2 -10 4 -37t25.5 -52.5t54 -27.5t63.5 -6h27v-43q-47 2 -93 2h-94q-118 3 -313 -2zM221 1182 q41 85 96 140q80 83 132.5 82t86 -13.5t71.5 -27.5q91 -36 153 -36q121 0 168 94l37 -26q-133 -224 -234 -224q-31 0 -61.5 11.5t-83.5 29.5q-114 41 -173.5 41t-93.5 -24.5t-63 -69.5z" />
<glyph unicode="&#xf2;" horiz-adv-x="1110" d="M84 499q0 229 135 379q70 79 189 118q65 22 124.5 22t131.5 -10q118 -18 219 -119q79 -79 119 -219q20 -72 20 -132q0 -143 -33 -241q-51 -145 -164.5 -233.5t-269.5 -88.5q-200 0 -336 148q-85 92 -117 218q-18 67 -18 158zM274 532q9 -351 180 -443q55 -30 119 -30 t122.5 43t86.5 107q47 97 47 262q0 181 -61 309q-83 162 -225 162q-146 0 -225 -167q-48 -103 -44 -243zM281 1468h225l123 -348h-56z" />
<glyph unicode="&#xf3;" horiz-adv-x="1110" d="M84 499q0 229 135 379q70 79 189 118q65 22 124.5 22t131.5 -10q118 -18 219 -119q79 -79 119 -219q20 -72 20 -132q0 -143 -33 -241q-51 -145 -164.5 -233.5t-269.5 -88.5q-200 0 -336 148q-85 92 -117 218q-18 67 -18 158zM274 532q9 -351 180 -443q55 -30 119 -30 t122.5 43t86.5 107q47 97 47 262q0 181 -61 309q-83 162 -225 162q-146 0 -225 -167q-48 -103 -44 -243zM477 1120l127 348h225l-286 -348h-66z" />
<glyph unicode="&#xf4;" horiz-adv-x="1110" d="M84 499q0 229 135 379q70 79 189 118q65 22 124.5 22t131.5 -10q118 -18 219 -119q79 -79 119 -219q20 -72 20 -132q0 -143 -33 -241q-51 -145 -164.5 -233.5t-269.5 -88.5q-200 0 -336 148q-85 92 -117 218q-18 67 -18 158zM233 1120l213 348h211l222 -348h-56l-270 211 l-262 -211h-58zM274 532q9 -351 180 -443q55 -30 119 -30t122.5 43t86.5 107q47 97 47 262q0 181 -61 309q-83 162 -225 162q-146 0 -225 -167q-48 -103 -44 -243z" />
<glyph unicode="&#xf5;" horiz-adv-x="1110" d="M84 499q0 229 135 379q70 79 189 118q65 22 124.5 22t131.5 -10q118 -18 219 -119q79 -79 119 -219q20 -72 20 -132q0 -143 -33 -241q-51 -145 -164.5 -233.5t-269.5 -88.5q-200 0 -336 148q-85 92 -117 218q-18 67 -18 158zM201 1182q14 37 39 72q106 151 202 151 q45 -2 113 -29.5t104.5 -38t67 -10.5t73 7t81.5 48q10 10 14 18.5t12 20.5l35 -26q-70 -136 -158 -199q-34 -25 -70 -25t-66 11.5t-82 29.5q-114 41 -174 41t-94 -24.5t-62 -69.5zM274 532q9 -351 180 -443q55 -30 119 -30t122.5 43t86.5 107q47 97 47 262q0 181 -61 309 q-83 162 -225 162q-146 0 -225 -167q-48 -103 -44 -243z" />
<glyph unicode="&#xf6;" horiz-adv-x="1110" d="M84 499q0 229 135 379q70 79 189 118q65 22 124.5 22t131.5 -10q118 -18 219 -119q79 -79 119 -219q20 -72 20 -132q0 -143 -33 -241q-51 -145 -164.5 -233.5t-269.5 -88.5q-200 0 -336 148q-85 92 -117 218q-18 67 -18 158zM238 1290q0 47 32.5 80t80.5 33t81 -34 t33 -81t-34 -80.5t-81 -33.5t-79.5 34.5t-32.5 81.5zM274 532q9 -351 180 -443q55 -30 119 -30t122.5 43t86.5 107q47 97 47 262q0 181 -61 309q-83 162 -225 162q-146 0 -225 -167q-48 -103 -44 -243zM647 1292q0 39 12 51q33 62 91.5 62t92.5 -33t34 -81t-35 -80.5 t-82 -32.5t-81 33.5t-32 80.5z" />
<glyph unicode="&#xf7;" horiz-adv-x="1366" d="M0 535v120h1366v-120h-1366zM592 314q0 32 5 46t24.5 38t62.5 24t70.5 -26.5t26.5 -66.5t-27.5 -66.5t-67.5 -26.5t-67.5 26.5t-26.5 51.5zM592 862q2 41 28.5 67.5t66.5 26.5t67.5 -27.5t26.5 -68.5t-28.5 -66.5t-67.5 -25.5t-66.5 26.5t-26.5 67.5z" />
<glyph unicode="&#xf8;" horiz-adv-x="1110" d="M84 500q0 228 135 378q70 79 189 118q65 22 149 22q135 0 248 -66l74 113l61 -39l-76 -119l18 -14q18 -15 48.5 -60t48.5 -91q43 -110 43 -232q0 -187 -88 -326q-81 -126 -226 -182q-71 -27 -158 -27t-149.5 27t-91.5 43l-80 -125l-63 41l82 131q-71 66 -102 128 q-62 126 -62 280zM276 532q0 -169 40 -268q6 -14 16 -43l401 623q-14 20 -26 30q-68 68 -160 68q-69 0 -127 -40q-23 -17 -37 -34.5t-23 -27.5q-84 -117 -84 -308zM379 152q8 -8 22.5 -23.5t38.5 -30.5q58 -39 126.5 -39t128 44t87.5 110q47 97 47 266q0 167 -45 271l-8 20z " />
<glyph unicode="&#xf9;" horiz-adv-x="1150" d="M29 952v43q58 -4 139.5 -4t179.5 4v-649q0 -57 13.5 -109.5t68.5 -80.5q41 -21 75 -21q70 0 84.5 4t38 12.5t50.5 23.5q64 36 104 101v553q0 57 -25.5 86t-57 31t-64.5 6h-21v43q66 -4 151 -4t191 4v-761q0 -79 54 -105q16 -8 33 -8t63 8v-43q-81 -18 -175.5 -55 t-129.5 -54l-19 9v217q-16 -31 -36.5 -55.5t-28.5 -34.5q-80 -86 -142.5 -109.5t-99 -23.5t-65.5 2t-62 14q-83 30 -122.5 96.5t-43.5 135.5t-4 139v407q0 38 -3 78.5t-26.5 66t-55.5 27.5t-64 6zM301 1468h225l125 -348h-57z" />
<glyph unicode="&#xfa;" horiz-adv-x="1150" d="M29 952v43q58 -4 139.5 -4t179.5 4v-649q0 -57 13.5 -109.5t68.5 -80.5q41 -21 75 -21q70 0 84.5 4t38 12.5t50.5 23.5q64 36 104 101v553q0 57 -25.5 86t-57 31t-64.5 6h-21v43q66 -4 151 -4t191 4v-761q0 -79 54 -105q16 -8 33 -8t63 8v-43q-81 -18 -175.5 -55 t-129.5 -54l-19 9v217q-16 -31 -36.5 -55.5t-28.5 -34.5q-80 -86 -142.5 -109.5t-99 -23.5t-65.5 2t-62 14q-83 30 -122.5 96.5t-43.5 135.5t-4 139v407q0 38 -3 78.5t-26.5 66t-55.5 27.5t-64 6zM500 1120l125 348h227l-289 -348h-63z" />
<glyph unicode="&#xfb;" horiz-adv-x="1150" d="M29 952v43q58 -4 139.5 -4t179.5 4v-649q0 -57 13.5 -109.5t68.5 -80.5q41 -21 75 -21q70 0 84.5 4t38 12.5t50.5 23.5q64 36 104 101v553q0 57 -25.5 86t-57 31t-64.5 6h-21v43q66 -4 151 -4t191 4v-761q0 -79 54 -105q16 -8 33 -8t63 8v-43q-81 -18 -175.5 -55 t-129.5 -54l-19 9v217q-16 -31 -36.5 -55.5t-28.5 -34.5q-80 -86 -142.5 -109.5t-99 -23.5t-65.5 2t-62 14q-83 30 -122.5 96.5t-43.5 135.5t-4 139v407q0 38 -3 78.5t-26.5 66t-55.5 27.5t-64 6zM254 1120l215 348h211l221 -348h-55l-273 211l-262 -211h-57z" />
<glyph unicode="&#xfc;" horiz-adv-x="1150" d="M29 952v43q58 -4 139.5 -4t179.5 4v-649q0 -57 13.5 -109.5t68.5 -80.5q41 -21 75 -21q70 0 84.5 4t38 12.5t50.5 23.5q64 36 104 101v553q0 57 -25.5 86t-57 31t-64.5 6h-21v43q66 -4 151 -4t191 4v-761q0 -79 54 -105q16 -8 33 -8t63 8v-43q-81 -18 -175.5 -55 t-129.5 -54l-19 9v217q-16 -31 -36.5 -55.5t-28.5 -34.5q-80 -86 -142.5 -109.5t-99 -23.5t-65.5 2t-62 14q-83 30 -122.5 96.5t-43.5 135.5t-4 139v407q0 38 -3 78.5t-26.5 66t-55.5 27.5t-64 6zM246 1290q0 47 33.5 80t80.5 33t81 -34t33 -81t-33.5 -80.5t-80.5 -33.5 q-47 0 -80.5 34.5t-33.5 81.5zM655 1292q0 47 34 80t82 33t81 -33t33 -81t-34 -80.5t-81 -32.5t-81 33.5t-34 80.5z" />
<glyph unicode="&#xff;" d="M4 952v43q82 -4 191 -4t247 4v-43h-14l-27 -2q-79 0 -79 -61q0 -37 51 -172l166 -453l174 455q45 108 45 145.5t-14.5 58t-46 25t-81.5 4.5h-12v43q70 -4 163.5 -4t211.5 4v-43q-37 -4 -59.5 -17t-37.5 -37.5t-25.5 -46.5t-20.5 -47q-14 -31 -35 -87l-309 -774 q-48 -120 -84 -162q-61 -82 -159 -119q-30 -12 -53.5 -12t-38 1t-30.5 6q-40 12 -64 46q-16 32 -16 57q0 62 59 90q21 11 44 11q51 0 73 -14.5t35.5 -23.5t27.5 -8q35 2 58 21.5t38 47.5t40 87l20 49l-249 699q-24 71 -37 98t-23 54.5t-27 42.5q-46 41 -102 38zM172 1290 q0 13 8 40.5t39 50t55 22.5q36 0 66 -12q61 -34 61 -92t-33.5 -91.5t-68.5 -33.5t-47 6t-23 10q-57 35 -57 100zM582 1292q2 47 34.5 80t80.5 33t81 -33t33 -82q0 -32 -12 -51q-33 -61 -91.5 -61t-92 33.5t-33.5 80.5z" />
<glyph unicode="&#x152;" horiz-adv-x="2048" d="M98 723q0 228 90 401q126 242 402 324q69 20 145.5 20t175.5 -22h959l26 -332h-49q-12 145 -110 209q-43 26 -86 30.5t-80 4.5h-230q-51 0 -85.5 -2t-47 -20.5t-13.5 -38t-1 -52.5v-388q0 -17 10 -30.5t56 -13.5h241q49 0 96.5 3t82.5 40q53 57 53 176h49q-2 -264 0 -524 h-49q-8 104 -26.5 137t-47.5 51.5t-83 20.5t-138 2h-188q-46 0 -56 -51q-2 -10 0 -21v-420q0 -47 2 -78.5t21 -48.5q20 -14 124 -14h193q48 0 96 3q99 6 164 38q4 2 20.5 10t41 27t47 56.5t38 73.5t22.5 62.5t9 32.5l51 -16l-104 -373h-1008q-83 -23 -142 -23t-128.5 5.5 t-143 35t-144 81t-127.5 135.5q-128 189 -128 489zM344 741q0 -332 121 -512q109 -163 289 -163q111 0 161 59q48 48 53 114t5 130v682q0 80 -3 129t-15.5 74.5t-29 45t-41.5 36.5q-58 40 -145 40q-88 0 -155.5 -46t-107.5 -95t-68 -119q-64 -154 -64 -375z" />
<glyph unicode="&#x153;" horiz-adv-x="1748" d="M86 492q0 159 77 294q68 119 215 186q79 36 173 36q174 0 293 -95q60 -53 92 -112q64 133 202 191q58 24 138 24q129 0 220 -68q124 -94 156 -271q7 -42 11 -83h-635q0 -16 -1 -45t3 -66q18 -166 111 -252q73 -73 202 -73q85 0 135 28q113 62 148 151q14 36 19 52h61 q-48 -279 -278 -379q-62 -28 -149 -28q-210 0 -319 178q-10 16 -24 49q-30 -61 -94 -123q-66 -66 -189 -95q-47 -11 -85.5 -11t-70.5 2t-70 12q-186 49 -279 229q-62 118 -62 269zM287 551q0 -216 71 -348q77 -137 207 -137q71 0 122.5 39.5t95.5 137t44 241t-52.5 269 t-164.5 167.5q-26 10 -66 10q-67 0 -116 -41q-74 -50 -112 -161q-29 -83 -29 -177zM1032 670l424 2q7 71 -27.5 132.5t-77 84t-95.5 22.5q-111 0 -160 -61q-64 -70 -64 -180z" />
<glyph unicode="&#x178;" horiz-adv-x="1492" d="M0 1399l2 47q246 -5 397 -2l238 2v-47h-43l-25 -2q-80 0 -80 -70q0 -31 28 -81t67 -113l233 -381l232 383q4 6 9 13t12 20q10 19 29 54t33.5 62t14.5 50.5t-13.5 35.5t-28.5 18q-24 11 -44 11h-51v47q187 -5 301 -2l180 2v-47h-16q-25 -4 -72 -14.5t-93 -53.5t-80 -96 t-65 -102l-305 -502v-410q0 -98 52 -133q57 -39 132 -39h23v-49q-291 6 -400 5t-241 -5v49h27q94 0 133 40t45 89t6 135v318l-305 504q-14 23 -26.5 44t-38.5 60t-57.5 70.5t-61.5 50.5q-48 30 -125 39h-23zM412 1683q0 38 10 64q35 68 118 68q43 0 79 -35t34 -86t-36.5 -86 t-85 -35t-85 36t-34.5 74zM892 1693.5q1 51.5 36 86.5t92.5 35t93.5 -59q19 -30 19 -71.5t-35 -76.5t-86 -35t-86 34.5t-34 86z" />
<glyph unicode="&#x2c6;" horiz-adv-x="555" d="M-215 1120l215 348h211l219 -348h-55l-271 211l-262 -211h-57z" />
<glyph unicode="&#x2dc;" horiz-adv-x="555" d="M-248 1182q10 18 18.5 34.5t27 45t61.5 72.5t69 54q42 17 74 16q36 -1 104 -29q120 -48 185 -48q89 0 141 55q10 10 14.5 18.5t12.5 20.5l37 -26q-133 -224 -234 -224q-31 0 -61.5 11.5t-82.5 29.5q-115 41 -174.5 41t-93.5 -24.5t-63 -69.5z" />
<glyph unicode="&#x2000;" horiz-adv-x="953" />
<glyph unicode="&#x2001;" horiz-adv-x="1907" />
<glyph unicode="&#x2002;" horiz-adv-x="953" />
<glyph unicode="&#x2003;" horiz-adv-x="1907" />
<glyph unicode="&#x2004;" horiz-adv-x="635" />
<glyph unicode="&#x2005;" horiz-adv-x="476" />
<glyph unicode="&#x2006;" horiz-adv-x="317" />
<glyph unicode="&#x2007;" horiz-adv-x="317" />
<glyph unicode="&#x2008;" horiz-adv-x="238" />
<glyph unicode="&#x2009;" horiz-adv-x="381" />
<glyph unicode="&#x200a;" horiz-adv-x="105" />
<glyph unicode="&#x2010;" horiz-adv-x="641" d="M70 455v174h501v-174h-501z" />
<glyph unicode="&#x2011;" horiz-adv-x="641" d="M70 455v174h501v-174h-501z" />
<glyph unicode="&#x2012;" horiz-adv-x="641" d="M70 455v174h501v-174h-501z" />
<glyph unicode="&#x2013;" d="M78 457v170h823v-170h-823z" />
<glyph unicode="&#x2014;" horiz-adv-x="1366" d="M0 537v120h1366v-120h-1366z" />
<glyph unicode="&#x2018;" horiz-adv-x="512" d="M96 1116q0 74 21.5 122t44.5 74q65 73 95 94t57 36q55 31 69 31q18 0 18 -17q0 -8 -8 -16q-18 -14 -51 -32.5t-76 -65.5q-67 -73 -67 -171q0 -40 12 -59q6 -16 16 -20q41 31 82 30q21 0 47.5 -10t46 -40t19.5 -74.5t-37 -76.5t-88 -30q-97 0 -157 88q-44 63 -44 137z" />
<glyph unicode="&#x2019;" horiz-adv-x="512" d="M96 1356q0 53 36 85t77 30.5t63 -10.5l33 -13q75 -43 105 -128q12 -36 12 -92q0 -116 -118 -234l-21 -21q-33 -30 -83 -57t-65 -27q-20 0 -20 14t10 20.5t23 14.5q60 35 82 59.5t34 40t24 38.5q29 54 29 114q0 43 -18 72l-8 8q-39 -31 -82 -31q-27 0 -47 10 q-45 20 -56.5 55t-9.5 52z" />
<glyph unicode="&#x201a;" horiz-adv-x="512" d="M90 100q0 18 10 45.5t27.5 40.5t34.5 20q25 11 45 11q105 0 167 -91q42 -63 42 -123t-9.5 -93t-21.5 -58q-19 -37 -54.5 -77.5t-56.5 -58.5q-44 -35 -76 -51.5t-43.5 -23t-25.5 -6.5q-20 0 -20 17q0 16 46 40.5t89 71.5q69 75 69 173q0 47 -13 62t-15 17q-37 -30 -84 -30 t-80 33.5t-31 80.5z" />
<glyph unicode="&#x201c;" horiz-adv-x="854" d="M61 1114q0 73 20.5 120.5t44 74t39 44t33.5 32.5q29 26 81.5 57t71 31t18.5 -15.5t-13.5 -23t-28.5 -15.5q-46 -25 -91 -74q-70 -78 -70 -174q0 -47 27 -79q39 30 84.5 30t77.5 -33.5t32 -80.5q0 -102 -103 -115q-16 -2 -25 -2q-91 0 -155 89q-43 61 -43 134zM477 1119.5 q0 76.5 27 127.5q64 123 207 205q10 4 18 9q19 12 36 12t17 -15.5t-10 -20.5t-24 -13q-55 -32 -100 -81q-68 -74 -68 -172q0 -51 28 -79q45 30 76 30t56.5 -11t44 -40t18.5 -49q0 -116 -101 -129q-16 -2 -25 -2q-98 0 -157 89q-43 63 -43 139.5z" />
<glyph unicode="&#x201d;" horiz-adv-x="854" d="M47 1354q0 37 22 68q33 48 103 48q43 0 72.5 -17t49 -32.5t36.5 -40.5q43 -62 43 -134t-20.5 -119.5t-44.5 -74.5q-62 -73 -92 -93.5t-45 -30.5q-59 -39 -85 -39q-20 0 -20 16q2 14 15 21.5t27 15.5q49 27 94 76q68 76 68 172q0 46 -28 80q-39 -31 -84 -31t-78 34t-33 81 zM462 1347q1 38 11 59.5t26.5 34.5t34.5 19q29 10 47 10q67 0 127 -48q80 -64 80 -185q0 -74 -22 -115q-29 -51 -48 -76q-54 -69 -100.5 -96.5t-62.5 -37.5q-34 -23 -54 -23t-20 18q0 17 46 40.5t88 70.5q69 77 69 172q0 32 -8 53l-12 19q-5 4 -7 8q-39 -31 -85 -31 t-78.5 35t-31.5 73z" />
<glyph unicode="&#x201e;" horiz-adv-x="854" d="M59 100q0 34 22 68q33 49 103 49q59 0 121 -49q42 -33 61 -85t19 -107q0 -126 -137 -255q-16 -14 -32.5 -25t-52.5 -36t-60.5 -25t-24.5 17q0 12 13 19t29 17q48 29 92 77q69 75 69 172q0 47 -27 79q-38 -30 -83.5 -30t-78.5 33.5t-33 80.5zM474 91q1 38 11 60t26.5 35 t34.5 20q27 11 46 11q50 0 79 -16t49.5 -32.5t39.5 -42.5q41 -58 41 -120.5t-9.5 -95.5t-22.5 -58q-16 -30 -52 -73q-34 -57 -160 -129q-28 -15 -45.5 -15t-17.5 17q0 18 46 41.5t88 70.5q68 76 68 173q0 51 -13 64l-15 15q-38 -30 -83.5 -30t-78.5 33.5t-32 71.5z" />
<glyph unicode="&#x2022;" horiz-adv-x="681" d="M96 710.5q0 61.5 20.5 106.5t54.5 79q71 71 175 71q100 0 170 -70t70 -168q0 -55 -26 -117t-85 -97.5t-131 -35.5q-58 0 -114 26t-95 85t-39 120.5z" />
<glyph unicode="&#x2026;" horiz-adv-x="2048" d="M246 84q0 41 28.5 67.5t68.5 26.5t66.5 -26.5t26.5 -66.5t-26.5 -69.5t-67.5 -28.5t-68.5 28.5t-27.5 68.5zM930 84q0 41 27.5 67.5t68.5 26.5t66.5 -26.5t26.5 -66.5t-26.5 -69.5t-68.5 -28.5t-67.5 28.5t-26.5 68.5zM1612 84q0 41 28.5 67.5t68.5 26.5t66.5 -26.5 t26.5 -66.5t-27.5 -68.5t-67.5 -28.5t-67.5 27.5t-27.5 68.5z" />
<glyph unicode="&#x202f;" horiz-adv-x="381" />
<glyph unicode="&#x205f;" horiz-adv-x="476" />
<glyph unicode="&#x2122;" horiz-adv-x="1579" d="M45 1272l8 174l213 -2q136 -3 363 2q8 -172 8 -176l-59 2l-19 49q-20 57 -71 57h-82v-452l2 -33q0 -33 9 -44t44 -15l39 -5l-2 -63q-132 5 -211 2l-105 -2v63l37 2q29 6 41 13q16 10 16 82v452h-59q-34 0 -56 -9t-34 -42t-21 -57zM698 766v63q56 7 65 26t9 77v426 q-15 20 -63 24v64q31 -2 61 -2h61l68 2l205 -506l215 506h190v-64h-16q-29 -4 -46 -15t-17 -62v-375q0 -74 12 -86q13 -13 41 -13l14 -2v-63l-78 4t-82.5 1t-97.5 -5v63l14 2q41 2 47.5 18.5t6.5 37.5v360l-201 -481h-47l-203 485v-321q0 -72 21 -86q13 -13 45 -13l16 -2 v-63q-121 2 -240 0z" />
<glyph unicode="&#xe000;" horiz-adv-x="995" d="M0 0v995h995v-995h-995z" />
<glyph unicode="&#xfb01;" horiz-adv-x="1193" d="M27 0l2 43h15q117 0 132 90q4 28 4 143v652h-137v67h137v89q0 83 26 164q47 152 167 216q100 56 223 56q137 0 223 -82q45 -45 45 -97q0 -23 -10 -38q-4 -10 -23.5 -23.5t-50.5 -13.5q-70 0 -106 66q-62 112 -135 112q-26 0 -73.5 -18.5t-70 -51.5t-27.5 -52 q-10 -38 -10 -155v-172h238v-67h-238v-707q0 -50 4.5 -84.5t27 -60t54 -27.5t64.5 -6h29v-43h-510zM686 0v43h21t18 1t23.5 3t32.5 9q41 18 53 63q8 32 8 157v450q0 91 -29 107.5t-50 16.5t-71 -19l2 43q57 19 167 74.5t151 81.5v-809q0 -38 3 -78.5t26.5 -66t55 -27.5 t64.5 -6l-2 -43q-45 2 -88 2t-121.5 1.5t-263.5 -3.5zM805 1358q0 47 34 79.5t81 32.5t80.5 -32.5t33.5 -79.5t-33.5 -81t-80.5 -34t-81 34t-34 81z" />
<glyph unicode="&#xfb02;" horiz-adv-x="1193" d="M27 0l2 43h15q117 0 132 90q4 28 4 143v652h-137v67h137v89q0 83 26 164q47 152 167 216q100 56 223 56q137 0 223 -82q45 -45 45 -97q0 -23 -10 -38q-4 -10 -23.5 -23.5t-50.5 -13.5q-70 0 -106 66q-62 112 -135 112q-26 0 -73.5 -18.5t-70 -51.5t-27.5 -52 q-10 -38 -10 -155v-172h238v-67h-238v-707q0 -50 4.5 -84.5t27 -60t54 -27.5t64.5 -6h29v-43h-510zM680 0v43h6q126 0 143 76q7 28 7 157v874q0 19 -1 31.5t-1 30t-7 36.5q-20 48 -71 48q-19 0 -68 -18v43q98 38 163 70q106 51 152 86v-1256q0 -109 27 -139.5t58.5 -32.5 t64.5 -6h4v-43q-45 2 -89 2t-123.5 1.5t-264.5 -3.5z" />
</font>
</defs>
</svg>
