<?xml version="1.0" encoding="utf-8"?>
<!-- Generator: Adobe Illustrator 16.0.0, SVG Export Plug-In . SVG Version: 6.00 Build 0)  -->
<!DOCTYPE svg PUBLIC "-//W3C//DTD SVG 1.1//EN" "http://www.w3.org/Graphics/SVG/1.1/DTD/svg11.dtd">
<svg version="1.1" id="Layer_1" xmlns="http://www.w3.org/2000/svg" xmlns:xlink="http://www.w3.org/1999/xlink" x="0px" y="0px"
	 width="70px" height="70px" viewBox="0 0 70 70" enable-background="new 0 0 70 70" xml:space="preserve">
<g>
	<path fill="#010101" d="M27.167,3.425h7.967v0.405c-0.09,0.022-0.45,0.09-0.585,0.405c-0.022,0.023-0.067,0.18-0.067,0.338
		c0,0.292,0.248,0.765,0.63,1.396l1.486,2.565c0.405-0.562,0.787-1.103,1.17-1.71c0.495-0.743,0.63-1.125,0.63-1.575
		c0-0.293-0.067-0.473-0.112-0.585c-0.247-0.607-0.697-0.72-1.282-0.855V3.403h5.874v0.472c-0.271,0.135-0.541,0.248-0.788,0.383
		c-0.743,0.382-1.147,0.9-1.666,1.575l-2.993,4.141l3.174,5.492c0.878,1.396,1.439,2.273,1.98,2.768
		c0.36,0.337,0.697,0.45,0.855,0.54v0.383h-8.26v-0.45c0.113-0.022,0.518-0.068,0.72-0.428c0.067-0.135,0.112-0.248,0.112-0.405
		c-0.022-0.315-0.247-0.743-0.607-1.373l-1.733-3.151l-1.508,2.386c-0.067,0.135-0.518,0.81-0.518,1.507
		c0,1.125,1.058,1.418,1.328,1.508v0.428h-6.302v-0.473c0.473-0.135,0.585-0.18,0.833-0.315c1.08-0.495,1.755-1.395,2.453-2.318
		l2.858-4.141c-0.81-1.418-1.62-2.858-2.453-4.276c-0.45-0.72-0.9-1.44-1.35-2.183c-0.63-0.968-0.811-1.17-1.846-1.621V3.425z"/>
	<path fill="#010101" d="M66.579,32.196h-0.9c-0.27-0.877-0.562-1.598-1.26-2.228c-1.059-0.99-2.251-1.013-2.769-1.058v11.928
		c0.022,0.788,0.045,1.193,0.18,1.509c0.248,0.607,0.811,0.675,1.013,0.72v0.495h-7.472v-0.473c0.181-0.045,0.855-0.18,1.059-0.788
		c0.067-0.247,0.112-0.765,0.135-1.485V28.888c-0.923,0.067-1.644,0.18-2.453,0.765c-1.148,0.855-1.485,2.093-1.644,2.565H51.59
		l0.203-4.343c2.521,0,5.063,0,7.606-0.023c1.711,0,3.467-0.022,5.177,0c0.63,0,1.237,0.023,1.868,0.045L66.579,32.196z"/>
	<path fill="#010101" d="M28.766,50.843l9.969,0.09c0.383,0.046,0.766,0.09,1.148,0.158c1.17,0.225,2.139,0.652,2.881,1.688
		c0.202,0.293,0.675,1.035,0.675,2.003c0,0.473-0.135,1.598-1.08,2.588c-0.721,0.743-1.508,1.035-2.476,1.351
		c0.54,0.878,1.08,1.756,1.62,2.656c0.519,0.81,1.035,1.598,1.531,2.408c0.247,0.404,0.494,0.832,0.765,1.237
		c0.473,0.721,0.562,0.788,0.99,1.058v0.495h-5.582L34.91,59.17v4.771c0.022,0.697,0.067,1.17,0.202,1.463
		c0.248,0.54,0.923,0.652,1.035,0.675v0.518h-7.404l0.023-0.518c0.135-0.045,0.81-0.157,1.035-0.742
		c0.112-0.293,0.135-0.811,0.18-1.531V53.408c-0.067-0.945-0.112-1.44-0.428-1.755c-0.247-0.226-0.72-0.383-0.787-0.405V50.843z
		 M34.91,58.022c0.292-0.023,0.585-0.045,0.877-0.091c0.923-0.111,1.733-0.382,2.273-1.192c0.226-0.314,0.495-0.9,0.495-1.823
		c0-0.449-0.022-1.575-1.035-2.385c-0.766-0.586-1.688-0.631-2.633-0.653L34.91,58.022z"/>
	<path fill="#010101" d="M19.289,40.519h-7.225l0.022-0.473c0.135-0.022,0.27-0.067,0.383-0.112c0.27-0.136,0.428-0.45,0.428-0.743
		c0-0.292-0.18-0.877-0.27-1.147l-0.946-2.656H7.698c-0.383,1.374-0.608,2.318-0.608,2.971c0,0.157,0,1.013,0.54,1.396
		c0.158,0.09,0.338,0.157,0.72,0.27v0.473H3.422l0.022-0.473c0.833-0.314,0.878-0.383,1.418-1.688l5.041-13.841
		c1.013-0.09,1.26-0.112,2.948-0.045c1.396,3.736,2.813,7.562,4.164,11.253c0.292,0.81,0.585,1.576,0.9,2.385
		c0.54,1.396,0.585,1.53,1.373,1.936V40.519z M8.081,34.217c0.382,0.022,0.788,0.045,1.193,0.045c0.675,0.022,1.35,0,2.025-0.045
		c-0.09-0.405-0.203-0.833-0.337-1.215c-0.36-1.283-0.833-2.543-1.306-3.826L8.081,34.217z"/>
	<path fill="#010101" d="M37.881,35.702c0-0.35-0.071-0.682-0.199-0.985l21.462-21.461L57.789,11.9L36.327,33.362
		c-0.303-0.128-0.635-0.199-0.985-0.199c-0.349,0-0.682,0.071-0.985,0.199L12.895,11.9l-1.354,1.355l21.461,21.461
		c-0.128,0.303-0.198,0.636-0.198,0.985s0.07,0.683,0.198,0.985L11.541,58.149l1.354,1.354l21.462-21.462
		c0.303,0.128,0.636,0.199,0.985,0.199c0.35,0,0.683-0.071,0.985-0.199l21.462,21.462l1.354-1.354L37.682,36.688
		C37.81,36.385,37.881,36.052,37.881,35.702z"/>
</g>
</svg>
