<?xml version="1.0" encoding="utf-8"?>
<!-- Generator: Adobe Illustrator 16.0.0, SVG Export Plug-In . SVG Version: 6.00 Build 0)  -->
<!DOCTYPE svg PUBLIC "-//W3C//DTD SVG 1.1//EN" "http://www.w3.org/Graphics/SVG/1.1/DTD/svg11.dtd">
<svg version="1.1" id="Layer_1" xmlns="http://www.w3.org/2000/svg" xmlns:xlink="http://www.w3.org/1999/xlink" x="0px" y="0px"
	 width="150px" height="70.984px" viewBox="0 0 150 70.984" enable-background="new 0 0 150 70.984" xml:space="preserve">
<path d="M130.758,26.93l-7.02,1.518l6.345-14.715c-0.223,2.191-0.111,3.875,0,4.717L130.758,26.93z M127.951,42.152
	c2.021-0.448,3.987-0.899,6.009-1.35c3.706-0.729,7.47-1.515,11.12-2.189l0.168-1.629l-0.335,0.058
	c-1.574,0.169-2.586-0.282-2.977-1.968c-0.113-0.281-0.113-0.616-0.169-0.897c-0.113-0.73-0.225-1.459-0.338-2.248l-3.875-29.206
	l-6.123,1.292c-0.337,0.841-0.785,1.74-1.179,2.639c-0.45,0.787-0.787,1.573-1.123,2.36l-13.538,28.418
	c-2.189,4.328-2.695,5.45-5.333,6.742l-0.339,0.168l-0.169,1.63c4.101-1.011,8.313-1.854,12.469-2.584l0.169-1.628l-0.393,0.054
	c-1.066,0.115-2.526,0.058-2.809-1.346c-0.226-1.125,0.395-2.361,1.234-4.495l1.63-3.763l8.932-1.853l0.392,4.774
	c0.112,2.358,0.226,3.371-0.897,4.323c-0.786,0.73-1.798,0.899-2.136,1.067l-0.222,0.058L127.951,42.152z M89.364,15.754
	c1.348-0.395,2.19-0.281,2.863-0.226c0.507,0.114,1.126,0.281,1.628,0.618c1.518,1.011,1.911,2.921,2.023,3.427
	c0.564,2.695-0.112,5.896-2.077,7.806c-2.024,2.021-4.551,2.248-5.447,2.359L89.364,15.754z M97.678,30.077
	c3.032-1.236,4.548-2.472,5.672-3.482c2.302-2.247,3.538-5.225,2.865-8.426c-0.169-0.785-0.73-2.64-2.304-4.212
	c-2.922-2.864-6.629-2.583-10.278-2.022c-1.181,0.225-2.304,0.45-3.48,0.73l-14.943,3.09l-0.111,1.572l0.672-0.112
	c1.237-0.111,2.922-0.337,3.259,1.348c0.169,0.786,0.111,1.854,0,3.538l-1.799,24.434c-0.168,2.021-0.224,3.931-2.359,4.999
	c-0.335,0.168-0.673,0.279-1.065,0.335l-0.395,0.169L73.3,53.61c2.864-0.728,5.673-1.349,8.481-1.966
	c3.201-0.673,6.46-1.236,9.661-1.852l0.112-1.576l-1.012,0.115c-1.179,0.169-2.865,0.391-3.259-1.35
	c-0.168-0.673-0.054-1.798,0.058-3.48l0.844-10.954l8.311,16.175c2.191-0.56,4.325-1.01,6.46-1.46
	c1.909-0.449,3.876-0.786,5.843-1.066l0.168-1.685l-0.506,0.113c-1.181,0.056-1.742,0-2.304-0.282
	c-0.954-0.508-1.687-1.629-2.753-3.594L97.678,30.077z M62.629,22.1l0.672-0.169c2.809-0.447,3.989-0.393,5.111,0.787
	c0.563,0.562,0.957,1.292,1.068,2.079c0.168,0.73,0.168,1.068,0.168,1.741v0.562l1.685-0.337c0.056-2.022,0.168-4.043,0.337-6.008
	c0.112-1.46,0.281-2.866,0.449-4.326c-3.931,0.842-7.751,1.686-11.625,2.528c-5.787,1.18-11.628,2.414-17.47,3.482
	c-0.111,1.517-0.223,3.09-0.449,4.605c-0.167,1.967-0.45,3.877-0.729,5.841l1.909-0.393l0.114-0.73
	c0.055-0.055,0.393-1.515,0.73-2.36c0.392-0.841,1.011-1.571,1.123-1.853c2.022-2.359,4.605-2.863,5.729-3.145l0.843-0.168
	L50.215,52.15c-0.168,1.909-0.223,3.876-2.19,4.886c-0.449,0.281-0.674,0.337-1.235,0.508l-0.843,0.223l-0.112,1.571
	c0.506-0.111,0.956-0.222,1.461-0.391c3.257-0.732,6.514-1.461,9.772-2.136c2.697-0.563,5.392-1.065,8.089-1.516l0.169-1.574
	l-1.406,0.169c-1.065,0.113-1.515,0.169-2.021,0c-0.504-0.111-1.068-0.28-1.292-1.292c-0.111-0.675-0.057-1.909,0-3.538L62.629,22.1
	z M41.735,44.285c0.056-0.224,0.112-0.615,0-1.234c-0.337-1.571-1.798-2.582-3.426-2.248c-1.124,0.227-2.079,1.127-2.304,2.361
	c-0.112,0.506,0,0.897,0,1.065c0.394,1.686,1.909,2.584,3.539,2.247C41.173,46.14,41.623,44.904,41.735,44.285 M17.078,47.994
	l-4.999,8.089c-2.864,4.493-5.111,8.032-6.684,9.435c-0.73,0.617-1.349,0.786-1.74,0.899l-0.338,0.111l-0.169,1.687
	c2.472-0.619,4.888-1.179,7.359-1.687c2.191-0.451,4.381-0.842,6.572-1.234l0.112-1.63l-0.619,0.113
	c-1.122,0.169-2.637,0.392-2.975-1.123c-0.281-1.294,1.122-3.707,2.639-6.46l2.809-4.83l2.021,3.649
	c0.336,0.675,0.616,1.234,1.011,1.854c0.785,1.461,1.065,2.191,1.292,2.977c0.057,0.282,0.169,0.844-0.112,1.461
	c-0.337,1.012-1.292,1.292-2.191,1.517l-0.561,0.112l-0.114,1.686c2.809-0.673,5.673-1.348,8.539-1.911
	c3.032-0.673,6.121-1.179,9.211-1.794l0.112-1.63l-0.562,0.054c-0.393,0-1.292,0.115-2.247-0.448
	c-1.066-0.675-2.191-2.357-3.706-4.83l-6.797-12.13l5.392-8.596l1.686-2.584c1.796-2.694,2.695-4.1,4.1-4.941
	c0.449-0.281,1.066-0.45,1.18-0.562l0.336-0.058l0.168-1.628l-4.942,1.01c-2.697,0.618-5.337,1.237-8.032,1.687l-0.111,1.628
	l0.223-0.056c0.112,0,1.461-0.337,2.302,0.337c0.281,0.169,0.395,0.562,0.395,0.618c0.168,0.786-0.337,1.685-0.337,1.796
	c-0.393,0.788-0.787,1.517-1.18,2.303l-3.259,5.619l-2.302-4.27c-0.73-1.349-1.234-2.134-1.403-2.864
	c-0.45-2.136,1.459-2.584,2.079-2.752l0.447-0.114l0.169-1.626c-3.145,0.729-6.291,1.403-9.436,2.076
	c-2.64,0.563-5.28,1.068-7.975,1.575l-0.114,1.627c0.227-0.056,1.405-0.393,2.417,0c1.403,0.506,2.414,2.023,3.987,4.719
	L17.078,47.994z"/>
</svg>
